# Blender 5.0.1
# www.blender.org
o bird_c
v -0.849676 0.014304 -0.055599
v 0.849676 0.014304 -0.055599
v -0.849676 0.014304 -0.172873
v 0.849676 0.014304 -0.172873
v 0.000000 0.014304 -0.233871
v 0.000000 0.014304 -0.466849
v -0.283226 0.142313 -0.412470
v -0.566451 0.142313 -0.355649
v -0.566451 0.142313 -0.122671
v -0.283225 0.142313 -0.179491
v 0.283226 0.142313 -0.179491
v 0.566451 0.142313 -0.122671
v 0.566451 0.142313 -0.355649
v 0.283225 0.142313 -0.412470
v -2.070676 0.014304 0.670685
v -0.371323 0.014304 0.670685
v -2.070676 0.014304 0.553411
v -0.371323 0.014304 0.553411
v -1.221000 0.014304 0.492414
v -1.221000 0.014304 0.259435
v -1.504225 0.142313 0.313814
v -1.787451 0.142313 0.370635
v -1.787451 0.142313 0.603613
v -1.504225 0.142313 0.546793
v -0.937774 0.142313 0.546793
v -0.654549 0.142313 0.603613
v -0.654549 0.142313 0.370635
v -0.937774 0.142313 0.313814
v 0.339746 0.014304 0.818047
v 2.039099 0.014304 0.818047
v 0.339746 0.014304 0.700773
v 2.039099 0.014304 0.700773
v 1.189422 0.014304 0.639776
v 1.189422 0.014304 0.406797
v 0.906197 0.142313 0.461176
v 0.622971 0.142313 0.517997
v 0.622971 0.142313 0.750975
v 0.906197 0.142313 0.694155
v 1.472648 0.142313 0.694155
v 1.755873 0.142313 0.750975
v 1.755873 0.142313 0.517997
v 1.472648 0.142313 0.461176
v 0.000000 0.014304 -0.233871
v 0.000000 0.014304 -0.466849
v -1.221000 0.014304 0.492414
v -1.221000 0.014304 0.259435
v 1.189422 0.014304 0.639776
v 1.189422 0.014304 0.406797
vn -0.4119 0.9112 -0.0000
vn 0.4119 0.9112 -0.0000
vn 0.2357 0.9718 -0.0000
vn -0.1557 0.9878 -0.0000
vn -0.2380 0.9713 -0.0000
vn 0.1859 0.9826 -0.0000
vn -0.1859 0.9826 -0.0000
vn 0.2380 0.9713 -0.0000
vn 0.1557 0.9878 -0.0000
vn -0.2357 0.9718 -0.0000
vt 0.092273 0.416278
vt 0.099347 0.416278
vt 0.099347 0.458722
vt 0.092273 0.458722
vt 0.071051 0.416278
vt 0.078125 0.416278
vt 0.078125 0.458722
vt 0.071051 0.458722
vt 0.056903 0.416278
vt 0.063977 0.416278
vt 0.063977 0.458722
vt 0.056903 0.458722
vt 0.085199 0.416278
vt 0.085199 0.458722
s 1
f 12/1/8 2/2/2 4/3/2 13/4/9
f 10/5/6 43/6/2 6/7/2 7/8/3
f 1/9/1 9/10/5 8/11/4 3/12/1
f 9/10/5 10/5/6 7/8/3 8/11/4
f 5/6/1 11/13/7 14/14/10 44/7/1
f 11/13/7 12/1/8 13/4/9 14/14/10
f 26/1/8 16/2/2 18/3/2 27/4/9
f 24/5/6 45/6/2 20/7/2 21/8/3
f 15/9/1 23/10/5 22/11/4 17/12/1
f 23/10/5 24/5/6 21/8/3 22/11/4
f 19/6/1 25/13/7 28/14/10 46/7/1
f 25/13/7 26/1/8 27/4/9 28/14/10
f 40/1/8 30/2/2 32/3/2 41/4/9
f 38/5/6 47/6/2 34/7/2 35/8/3
f 29/9/1 37/10/5 36/11/4 31/12/1
f 37/10/5 38/5/6 35/8/3 36/11/4
f 33/6/1 39/13/7 42/14/10 48/7/1
f 39/13/7 40/1/8 41/4/9 42/14/10
