# Blender 5.0.1
# www.blender.org
o bird_a
v -1.000000 0.000000 0.346909
v 1.000000 0.000000 0.346909
v -1.000000 0.000000 0.208887
v 1.000000 0.000000 0.208887
v 0.000000 0.000000 0.137098
v 0.000000 0.000000 -0.137098
v -0.333333 0.150657 -0.073098
v -0.666667 0.150657 -0.006225
v -0.666667 0.150657 0.267971
v -0.333333 0.150657 0.201098
v 0.333333 0.150657 0.201098
v 0.666667 0.150657 0.267971
v 0.666667 0.150657 -0.006225
v 0.333333 0.150657 -0.073098
v 0.000000 0.000000 0.137098
v 0.000000 0.000000 -0.137098
vn -0.4119 0.9112 -0.0000
vn 0.4119 0.9112 -0.0000
vn 0.2357 0.9718 -0.0000
vn -0.1557 0.9878 -0.0000
vn -0.2380 0.9713 -0.0000
vn 0.1859 0.9826 -0.0000
vn -0.1859 0.9826 -0.0000
vn 0.2380 0.9713 -0.0000
vn 0.1557 0.9878 -0.0000
vn -0.2357 0.9718 -0.0000
vt 0.092273 0.416278
vt 0.099347 0.416278
vt 0.099347 0.458722
vt 0.092273 0.458722
vt 0.071051 0.416278
vt 0.078125 0.416278
vt 0.078125 0.458722
vt 0.071051 0.458722
vt 0.056903 0.416278
vt 0.063977 0.416278
vt 0.063977 0.458722
vt 0.056903 0.458722
vt 0.085199 0.416278
vt 0.085199 0.458722
s 1
f 12/1/8 2/2/2 4/3/2 13/4/9
f 10/5/6 15/6/2 6/7/2 7/8/3
f 1/9/1 9/10/5 8/11/4 3/12/1
f 9/10/5 10/5/6 7/8/3 8/11/4
f 5/6/1 11/13/7 14/14/10 16/7/1
f 11/13/7 12/1/8 13/4/9 14/14/10
