# Blender 4.5.3 LTS
# www.blender.org
o mountainA
v -1.503200 0.000497 0.233507
v -1.349296 0.027163 0.072272
v -1.359658 0.012162 -0.229980
v -1.101486 0.094526 -0.262402
v -1.039011 0.069757 -0.580253
v -0.901656 0.004293 -1.112285
v -1.077717 0.142374 0.276339
v -1.085366 0.218155 0.027831
v -0.928581 0.252053 0.324720
v -0.859095 0.027671 1.015733
v -0.882448 0.091979 -0.874832
v -1.087322 0.003955 0.889281
v -0.884819 0.384627 0.115091
v -0.913183 0.256578 -0.125275
v -0.907953 0.107260 0.615777
v -0.850992 0.255551 -0.374598
v -0.860341 0.183650 -0.631061
v -0.753226 0.097163 0.881669
v -0.758734 0.420015 -0.198638
v -0.779369 0.537462 0.297584
v -0.732376 0.530336 -0.056350
v -0.716546 0.537178 0.072486
v -0.745828 0.361137 -0.445336
v -0.653232 0.344985 -0.276972
v -0.638420 0.301514 0.657521
v -0.680932 0.474517 0.275576
v -0.624507 0.336418 -0.736818
v -0.626374 0.503597 0.440044
v -0.189405 -0.000451 -1.503195
v -0.531878 0.572433 0.035746
v -0.489199 0.503870 -0.069617
v -0.181534 0.045040 -1.319824
v -0.481275 0.250206 0.830003
v -0.472751 0.610345 0.453159
v -0.463204 0.526507 0.141769
v -0.428028 0.595045 -0.635672
v -0.047314 0.001701 1.503196
v -0.510260 0.598801 0.311879
v -0.603022 0.383088 -0.455662
v -0.408757 0.606302 -0.497628
v -0.513081 0.550882 0.609809
v -0.416381 0.611584 -0.023379
v -0.474653 0.474078 -0.216426
v -0.400248 0.583111 0.246115
v -0.480529 0.190561 -0.968356
v -0.346007 0.556354 -0.333788
v -0.331533 0.490551 0.357863
v -0.314344 0.606247 0.554285
v -0.201243 0.512717 -0.770209
v -0.310514 0.662401 0.090967
v -0.293739 0.664781 -0.091720
v -0.166503 0.163123 1.101103
v -0.251112 0.505003 0.807384
v -0.234188 0.636514 0.578590
v -0.222787 0.657059 0.253016
v -0.184418 0.686783 0.120780
v -0.238901 0.865897 -0.527332
v -0.264749 0.289936 -0.965023
v -0.195100 0.624344 0.372330
v -0.221210 0.893359 -0.179167
v -0.200420 0.979406 -0.364456
v -0.160477 0.613481 -0.676855
v -0.172815 0.804027 0.009618
v -0.101652 0.889017 -0.123566
v -0.143971 0.508769 0.651299
v -0.104013 0.686381 -0.553327
v -0.134678 0.350859 0.955870
v -0.143081 0.837987 -0.264411
v -0.096325 0.968815 -0.357270
v -0.079093 0.165290 -1.127932
v -0.087179 0.611111 0.320362
v -0.051681 0.815846 -0.048506
v -0.051799 0.375046 -0.906250
v -0.051827 0.427914 0.810947
v -0.053324 0.782337 0.177486
v -0.066407 0.558023 0.524897
v 0.001287 0.717208 0.414696
v -0.178399 0.034277 1.321851
v 0.022600 0.560494 0.711625
v 0.012622 0.884914 -0.278973
v 0.052891 0.182080 1.135257
v -0.022857 0.762094 0.065910
v 0.089623 0.750070 0.146027
v 0.020217 0.732293 -0.378236
v 0.058136 0.737220 -0.560751
v 0.094591 0.313532 0.971473
v 0.061084 0.989206 -0.128711
v 0.156611 0.691817 -0.427370
v 0.081466 0.628931 0.547787
v 0.075851 0.898891 0.300966
v 0.151047 0.982922 0.003955
v -0.012896 0.454664 -0.739658
v 0.185865 0.391792 0.805604
v 0.179155 0.633536 -0.348342
v 0.212882 0.441054 0.646267
v 0.216135 0.558397 -0.491844
v 0.230475 0.593323 -0.648900
v 0.144703 0.875508 -0.193774
v 0.139792 0.467034 -0.787346
v 0.292492 0.060156 1.253079
v 0.336788 0.244563 0.949151
v 0.186104 0.578302 0.494865
v 0.187565 0.928667 0.294989
v 0.251082 0.914414 -0.003334
v 0.306345 0.706305 -0.311363
v 0.177572 0.235480 -0.953279
v 0.231112 0.972404 0.130359
v 0.282537 0.751802 -0.122748
v 0.221545 0.838518 0.379548
v 0.308613 0.467242 -0.806473
v 0.436732 0.041177 -1.239728
v 0.717989 0.000821 -1.308102
v 0.345940 0.978121 0.296737
v 0.365105 0.206641 -1.001776
v 0.359766 0.334241 0.838815
v 0.346938 0.836746 0.102852
v 0.403519 0.755716 -0.141239
v 0.332634 0.569359 -0.482165
v 0.401465 0.775610 0.394503
v 0.437960 0.742216 -0.007032
v 0.494684 0.381324 -0.771295
v 0.602387 0.126495 0.980627
v 0.434947 0.537744 0.523758
v 0.852359 0.002321 1.174915
v 0.437692 0.367127 0.686772
v 0.448391 0.454657 -0.502526
v 0.482068 0.820520 0.249709
v 0.444502 0.479980 -0.286899
v 0.529881 0.361847 -0.611115
v 0.642640 0.250043 0.785882
v 0.553269 0.574496 0.039903
v 0.536534 0.428873 -0.306692
v 0.623383 0.486039 0.373502
v 0.583696 0.482973 -0.179061
v 0.569870 0.395201 -0.465941
v 0.667414 0.368598 0.606619
v 0.723920 0.082685 -0.943161
v 0.643123 0.471488 0.165882
v 0.662903 0.466999 0.537913
v 0.699964 0.537079 0.301352
v 0.713986 0.346696 -0.351163
v 0.790559 0.281145 -0.567089
v 0.699998 0.332134 -0.644305
v 0.698801 0.412443 -0.053108
v 0.923208 0.037437 0.930025
v 0.836530 0.135721 -0.770302
v 0.811632 0.382916 0.064379
v 0.842073 0.304759 -0.084919
v 1.140558 0.034557 -0.701600
v 0.886946 0.348183 0.303385
v 0.877062 0.314411 0.115041
v 0.873994 0.311270 -0.363883
v 1.006637 0.171719 -0.547476
v 0.901582 0.280856 0.474949
v 0.925198 0.276942 -0.196880
v 1.010852 0.136862 0.582781
v 1.085825 0.184995 0.074115
v 1.101914 0.109619 -0.254208
v 1.252396 0.053911 0.312809
v 1.272755 0.010226 0.592334
v 1.411025 0.002136 -0.381315
vn -0.2123 0.9763 -0.0412
vn -0.1743 0.9847 -0.0036
vn -0.3165 0.9389 -0.1354
vn -0.2803 0.9442 0.1728
vn -0.5830 0.7250 0.3666
vn -0.5883 0.8084 -0.0200
vn -0.5366 0.8024 0.2612
vn -0.3243 0.8766 -0.3554
vn -0.5699 0.7847 -0.2437
vn -0.5871 0.7900 -0.1769
vn -0.4974 0.7887 -0.3614
vn -0.5667 0.7984 -0.2032
vn -0.5696 0.7850 -0.2435
vn -0.8760 0.4688 0.1136
vn -0.7548 0.6276 -0.1909
vn -0.6002 0.7651 -0.2333
vn -0.5764 0.7146 0.3963
vn -0.6652 0.7455 0.0421
vn -0.7496 0.6439 -0.1532
vn -0.5808 0.7273 0.3656
vn 0.4777 0.8598 -0.1802
vn 0.5565 0.8164 0.1543
vn -0.4150 0.6778 0.6069
vn -0.1608 0.9756 -0.1497
vn -0.1484 0.9315 -0.3320
vn -0.0423 0.9526 0.3013
vn 0.0636 0.8480 -0.5261
vn -0.1378 0.9759 0.1694
vn -0.3202 0.6990 -0.6394
vn -0.3189 0.7486 -0.5812
vn -0.4872 0.2823 0.8264
vn -0.4603 0.7641 -0.4520
vn -0.0829 0.8937 0.4408
vn -0.5218 0.8245 -0.2190
vn -0.1220 0.9645 -0.2340
vn -0.7486 0.6611 0.0506
vn -0.5735 0.8147 0.0857
vn -0.5875 0.8092 0.0075
vn -0.1203 0.9012 -0.4163
vn -0.1654 0.9229 0.3478
vn -0.2715 0.8375 0.4742
vn 0.3794 0.8136 0.4406
vn -0.5153 0.6077 -0.6042
vn -0.0788 0.8951 0.4388
vn -0.6466 0.7385 -0.1911
vn -0.3004 0.6750 -0.6739
vn -0.4690 0.4890 0.7355
vn -0.5699 0.6178 -0.5418
vn 0.3394 0.7972 -0.4993
vn -0.2523 0.9130 0.3206
vn -0.8309 0.5518 0.0710
vn -0.3310 0.7385 -0.5874
vn -0.4098 0.9118 -0.0258
vn -0.3861 0.9176 0.0943
vn -0.8334 0.5259 -0.1696
vn -0.1659 0.4639 -0.8702
vn 0.1220 0.8005 -0.5867
vn -0.1575 0.6208 0.7680
vn 0.2183 0.9529 0.2106
vn 0.2152 0.7670 0.6045
vn 0.0025 0.5782 0.8159
vn -0.5917 0.8061 0.0095
vn 0.2869 0.7681 0.5724
vn -0.1727 0.6208 0.7647
vn -0.2144 0.7427 -0.6343
vn -0.0772 0.6900 0.7197
vn 0.6966 0.3962 -0.5981
vn 0.4377 0.8478 0.2995
vn 0.3287 0.8199 -0.4686
vn 0.1039 0.8523 0.5126
vn 0.1038 0.9100 0.4014
vn -0.4930 0.7811 -0.3831
vn 0.0816 0.7670 0.6364
vn -0.8390 0.4911 0.2345
vn 0.1924 0.9734 -0.1241
vn 0.1491 0.9254 -0.3484
vn -0.4487 0.8705 0.2024
vn -0.2373 0.8549 0.4614
vn 0.4369 0.6668 -0.6037
vn -0.4049 0.6306 0.6622
vn 0.5170 0.8232 0.2346
vn -0.2215 0.6934 -0.6857
vn 0.0555 0.7481 0.6613
vn -0.2895 0.4205 0.8599
vn -0.6328 0.6238 0.4587
vn 0.4019 0.7880 0.4665
vn 0.7605 0.5244 -0.3830
vn 0.6215 0.6798 -0.3893
vn 0.4968 0.4904 -0.7160
vn 0.6886 0.6920 0.2168
vn -0.2401 0.7903 -0.5637
vn 0.4891 0.7598 -0.4284
vn -0.0584 0.5315 -0.8451
vn 0.2639 0.7183 0.6437
vn 0.2770 0.8012 0.5305
vn 0.6897 0.7189 -0.0864
vn 0.0720 0.8545 -0.5145
vn 0.0508 0.9688 -0.2425
vn -0.2954 0.9399 0.1716
vn 0.7072 0.5022 -0.4976
vn -0.5219 0.6086 0.5977
vn -0.0932 0.5699 -0.8164
vn 0.7305 0.6596 -0.1770
vn -0.0683 0.9678 -0.2421
vn -0.1196 0.5787 -0.8067
vn 0.6751 0.7342 -0.0724
vn 0.5129 0.5704 -0.6416
vn 0.0842 0.4518 0.8881
vn -0.0231 0.8175 -0.5754
vn 0.1506 0.8976 0.4143
vn 0.0968 0.6884 0.7189
vn 0.8367 0.4828 -0.2584
vn 0.4079 0.6025 -0.6860
vn 0.5922 0.6526 -0.4728
vn 0.6080 0.7391 -0.2899
vn 0.4162 0.9091 0.0191
vn 0.3270 0.6988 0.6361
vn 0.3272 0.8749 0.3570
vn 0.8246 0.4858 -0.2898
vn 0.4536 0.6556 -0.6037
vn 0.4606 0.8825 -0.0953
vn 0.4926 0.8087 -0.3215
vn 0.2822 0.7826 0.5548
vn 0.1676 0.6824 0.7115
vn 0.3482 0.8099 -0.4720
vn 0.4691 0.8788 -0.0876
vn 0.1901 0.8066 0.5597
vn 0.8332 0.5418 -0.1107
vn 0.2939 0.9550 0.0400
vn 0.8579 0.4537 -0.2409
vn 0.2698 0.5595 0.7837
vn 0.1183 0.9602 -0.2532
vn 0.4945 0.6861 -0.5337
vn 0.3899 0.9092 -0.1460
vn 0.5865 0.8055 -0.0850
vn 0.4947 0.6865 -0.5329
vn 0.3624 0.8082 -0.4641
vn 0.4398 0.4438 0.7808
vn 0.7485 0.6588 -0.0759
vn 0.7023 0.6934 -0.1612
vn 0.6355 0.7356 0.2345
vn 0.4518 0.8367 -0.3095
vn 0.5393 0.6662 0.5151
vn 0.4884 0.7294 0.4790
vn 0.4457 0.8245 0.3486
vn 0.3728 0.7908 -0.4855
vn 0.4019 0.9129 0.0715
vn 0.6156 0.7151 0.3311
vn 0.5428 0.7687 0.3383
vn 0.6570 0.7412 -0.1380
vn 0.4929 0.8516 -0.1786
vn 0.6787 0.7315 -0.0656
vn 0.6391 0.6019 -0.4788
vn 0.6768 0.7334 -0.0646
vn 0.2809 0.9353 0.2154
vn -0.3917 0.8955 -0.2113
vn -0.6792 0.6960 0.2331
vn -0.4708 0.8208 -0.3235
vn -0.6265 0.7112 0.3190
vn -0.6247 0.6806 0.3828
vn -0.5809 0.8004 -0.1482
vn -0.2186 0.9516 0.2161
vn -0.7897 0.5753 -0.2133
vn -0.3223 0.9201 0.2225
vn -0.7567 0.5771 -0.3073
vn -0.7125 0.4255 0.5579
vn -0.6854 0.7024 -0.1922
vn -0.7562 0.6265 -0.1891
vn -0.6116 0.7253 -0.3161
vn 0.4649 0.8325 -0.3014
vn -0.1929 0.9808 -0.0284
vn 0.0927 0.7785 -0.6208
vn 0.0497 0.7734 -0.6319
vn -0.3346 0.7754 0.5355
vn -0.7876 0.6147 -0.0419
vn -0.5955 0.8014 0.0558
vn -0.3058 0.7440 0.5941
vn -0.7884 0.4718 0.3947
vn -0.5725 0.8045 0.1580
vn -0.5998 0.4305 0.6745
vn -0.6360 0.6358 0.4374
vn -0.4516 0.6010 -0.6594
vn 0.5455 0.8111 -0.2111
vn -0.5521 0.8335 -0.0208
vn -0.2088 0.6373 -0.7418
vn -0.1282 0.9559 0.2643
vn -0.1738 0.9347 0.3101
vn -0.6655 0.7464 -0.0034
vn -0.6061 0.7639 0.2217
vn -0.6352 0.7422 -0.2136
vn -0.1414 0.9065 0.3979
vn -0.4298 0.7962 0.4259
vn -0.2941 0.6394 0.7104
vn -0.4820 0.4993 0.7200
vn -0.6773 0.6542 0.3366
vn -0.9447 0.3225 0.0595
vn -0.8471 0.3222 0.4227
vn 0.2591 0.6795 -0.6864
vn -0.7323 0.6785 -0.0584
vn -0.3674 0.4317 0.8238
vn -0.9435 0.3281 0.0465
vn -0.1551 0.7044 -0.6926
vn 0.6035 0.6712 0.4305
vn -0.2909 0.6733 0.6798
vn -0.7587 0.6514 0.0103
vn 0.5048 0.4829 -0.7155
vn 0.7807 0.6149 0.1117
vn 0.7621 0.5503 0.3411
vn -0.0616 0.6669 -0.7426
vn 0.0686 0.8285 -0.5558
vn 0.3445 0.9026 0.2583
vn -0.1492 0.6507 0.7445
vn 0.6010 0.5373 -0.5918
vn -0.1045 0.7288 -0.6767
vn 0.2128 0.8969 -0.3876
vn 0.0286 0.9253 0.3781
vn -0.4365 0.6302 0.6421
vn -0.9054 0.4077 0.1186
vn 0.3014 0.5795 -0.7572
vn -0.4267 0.6833 0.5924
vn -0.1507 0.8573 0.4923
vn -0.3426 0.9272 0.1511
vn -0.4824 0.8293 -0.2822
vn 0.7183 0.4041 -0.5664
vn 0.4556 0.6597 -0.5976
vn -0.7931 0.4750 0.3813
vn -0.2445 0.8485 0.4694
vn -0.2123 0.5603 -0.8006
vn 0.0106 0.7216 -0.6922
vn -0.3218 0.5619 0.7620
vn -0.1936 0.9020 -0.3859
vn 0.2754 0.6811 -0.6784
vn -0.2496 0.6664 0.7025
vn -0.5924 0.5277 0.6087
vn 0.2002 0.5921 -0.7806
vn 0.4133 0.7145 0.5645
vn 0.5785 0.6576 0.4826
vn 0.0239 0.5234 0.8518
vn 0.0120 0.5328 -0.8462
vn 0.1883 0.7838 -0.5917
vn 0.1636 0.8327 0.5291
vn 0.5684 0.6571 0.4951
vn 0.4602 0.5235 -0.7170
vn -0.0255 0.9806 0.1946
vn -0.7169 0.4911 0.4949
vn -0.5472 0.7887 -0.2802
vn -0.1335 0.6508 0.7474
vn -0.8434 0.5310 -0.0820
vn 0.5805 0.7449 0.3287
vn -0.0740 0.7604 -0.6452
vn 0.0506 0.9372 -0.3451
vn -0.2043 0.6276 0.7512
vn 0.5307 0.8036 -0.2693
vn -0.1086 0.9724 0.2063
vn 0.1278 0.7564 0.6414
vn 0.2410 0.9149 0.3237
vn 0.6291 0.6296 -0.4558
vn 0.0439 0.7440 0.6667
vn -0.0391 0.4093 0.9116
vn 0.0976 0.4858 0.8686
vn 0.2923 0.7981 0.5269
vn 0.2428 0.9150 0.3223
vn 0.6460 0.7042 -0.2946
vn 0.7111 0.4541 0.5367
vn 0.4581 0.8252 -0.3304
vn -0.0162 0.9944 0.1042
vn 0.7434 0.3955 -0.5395
vn 0.6957 0.7148 -0.0714
vn 0.6153 0.7646 -0.1917
vn 0.9426 0.2544 -0.2163
vn 0.6310 0.4371 0.6409
vn 0.6888 0.4891 0.5351
vn 0.3562 0.8140 -0.4588
vn 0.7190 0.4574 -0.5232
vn 0.4220 0.4661 0.7776
vn 0.3359 0.6501 -0.6816
vn 0.1483 0.9088 0.3900
vn 0.2757 0.8442 -0.4597
vn 0.1863 0.9794 0.0782
vn 0.7470 0.6647 0.0107
vn 0.6658 0.7168 -0.2071
vn 0.3948 0.9121 -0.1102
vn 0.4076 0.9039 -0.1298
vn 0.4701 0.8821 0.0311
vn 0.2928 0.9309 0.2182
vn 0.6001 0.7826 -0.1654
vn 0.4617 0.8870 -0.0083
vn 0.1607 0.8602 -0.4839
vn 0.5272 0.7922 -0.3072
vn 0.3149 0.9491 -0.0020
vn 0.3027 0.7753 0.5544
vn 0.1940 0.9557 -0.2213
vn 0.6615 0.6726 -0.3317
vn 0.2242 0.9659 0.1298
vn 0.5594 0.4916 0.6673
vn 0.4345 0.7761 -0.4571
vn 0.6767 0.7341 -0.0566
vn 0.5671 0.7715 -0.2883
vn 0.3985 0.8502 0.3440
vn 0.1095 0.9853 -0.1311
vn 0.3704 0.8301 -0.4169
vn 0.7436 0.6416 0.1883
vn 0.4295 0.8965 0.1088
vn 0.5619 0.8250 0.0610
vn 0.7163 0.6869 -0.1226
vn 0.3303 0.9439 0.0051
vn 0.2751 0.9518 -0.1359
vn 0.6062 0.7913 0.0795
s 0
f 3//1 1//1 2//1
f 15//2 2//2 1//2
f 5//3 3//3 4//3
f 12//4 15//4 1//4
f 7//5 2//5 15//5
f 3//6 2//6 8//6
f 7//7 8//7 2//7
f 4//8 3//8 8//8
f 6//9 5//9 11//9
f 5//10 4//10 16//10
f 14//11 8//11 13//11
f 17//12 5//12 16//12
f 11//13 5//13 17//13
f 20//14 13//14 9//14
f 16//15 14//15 19//15
f 27//16 11//16 17//16
f 25//17 9//17 15//17
f 21//18 13//18 22//18
f 23//19 17//19 16//19
f 18//20 25//20 15//20
f 24//21 23//21 19//21
f 22//22 20//22 26//22
f 28//23 20//23 25//23
f 27//24 23//24 39//24
f 6//25 11//25 32//25
f 35//26 22//26 26//26
f 31//27 21//27 30//27
f 39//28 23//28 24//28
f 45//29 11//29 27//29
f 32//30 11//30 45//30
f 37//31 10//31 12//31
f 35//32 26//32 38//32
f 35//33 30//33 22//33
f 43//34 24//34 31//34
f 29//35 6//35 32//35
f 40//36 36//36 39//36
f 38//37 28//37 34//37
f 39//38 24//38 43//38
f 44//39 35//39 38//39
f 78//40 18//40 10//40
f 78//41 52//41 18//41
f 44//42 38//42 47//42
f 31//43 30//43 42//43
f 35//44 42//44 30//44
f 46//45 43//45 51//45
f 58//46 45//46 49//46
f 53//47 41//47 33//47
f 51//48 31//48 42//48
f 47//49 34//49 48//49
f 56//50 50//50 44//50
f 36//51 40//51 57//51
f 32//52 45//52 58//52
f 51//53 42//53 50//53
f 55//54 56//54 44//54
f 61//55 57//55 40//55
f 62//56 36//56 57//56
f 69//57 57//57 61//57
f 67//58 53//58 52//58
f 55//59 59//59 71//59
f 64//60 63//60 72//60
f 69//61 61//61 68//61
f 75//62 56//62 55//62
f 74//63 53//63 67//63
f 81//64 67//64 52//64
f 71//65 59//65 77//65
f 82//66 63//66 56//66
f 84//67 66//67 69//67
f 69//68 64//68 80//68
f 92//69 73//69 49//69
f 74//70 67//70 86//70
f 72//71 63//71 82//71
f 80//72 64//72 87//72
f 86//73 67//73 81//73
f 90//74 71//74 77//74
f 83//75 82//75 75//75
f 88//76 66//76 84//76
f 76//77 79//77 89//77
f 83//78 72//78 82//78
f 98//79 80//79 87//79
f 89//80 77//80 76//80
f 89//81 102//81 77//81
f 83//82 90//82 103//82
f 81//83 78//83 100//83
f 109//84 90//84 102//84
f 91//85 87//85 72//85
f 88//86 84//86 94//86
f 85//87 88//87 96//87
f 98//88 87//88 91//88
f 98//89 84//89 80//89
f 97//90 85//90 96//90
f 99//91 92//91 97//91
f 104//92 98//92 91//92
f 105//93 94//93 98//93
f 86//94 81//94 101//94
f 93//95 86//95 101//95
f 108//96 105//96 98//96
f 111//97 32//97 106//97
f 112//98 29//98 32//98
f 113//99 107//99 103//99
f 108//100 98//100 104//100
f 105//101 88//101 94//101
f 110//102 106//102 99//102
f 116//103 104//103 107//103
f 117//104 105//104 108//104
f 114//105 106//105 110//105
f 120//106 104//106 116//106
f 120//107 108//107 104//107
f 113//108 109//108 119//108
f 114//109 111//109 106//109
f 100//110 37//110 124//110
f 123//111 95//111 125//111
f 128//112 118//112 105//112
f 121//113 114//113 110//113
f 127//114 116//114 113//114
f 129//115 110//115 97//115
f 121//116 110//116 129//116
f 130//117 115//117 101//117
f 125//118 115//118 130//118
f 131//119 120//119 127//119
f 134//120 128//120 120//120
f 135//121 126//121 128//121
f 135//122 129//122 126//122
f 130//123 101//123 122//123
f 123//124 125//124 139//124
f 134//125 132//125 128//125
f 132//126 135//126 128//126
f 136//127 125//127 130//127
f 131//128 134//128 120//128
f 133//129 123//129 139//129
f 138//130 131//130 127//130
f 139//131 125//131 136//131
f 143//132 129//132 135//132
f 146//133 121//133 143//133
f 147//134 144//134 138//134
f 148//135 134//135 144//135
f 146//136 137//136 121//136
f 149//137 111//137 137//137
f 140//138 133//138 150//138
f 151//139 147//139 140//139
f 150//140 151//140 140//140
f 150//141 139//141 154//141
f 153//142 142//142 152//142
f 136//143 130//143 154//143
f 154//144 130//144 156//144
f 156//145 130//145 145//145
f 149//146 137//146 146//146
f 157//147 155//147 148//147
f 159//148 154//148 156//148
f 147//149 151//149 157//149
f 157//150 158//150 155//150
f 157//151 151//151 150//151
f 153//152 152//152 158//152
f 161//153 112//153 149//153
f 158//154 149//154 153//154
f 160//155 145//155 124//155
f 5//156 6//156 3//156
f 7//157 13//157 8//157
f 14//158 4//158 8//158
f 9//159 13//159 7//159
f 15//160 9//160 7//160
f 14//161 16//161 4//161
f 10//162 15//162 12//162
f 13//163 21//163 14//163
f 10//164 18//164 15//164
f 19//165 14//165 21//165
f 25//166 20//166 9//166
f 22//167 13//167 20//167
f 23//168 16//168 19//168
f 27//169 17//169 23//169
f 28//170 26//170 20//170
f 30//171 21//171 22//171
f 24//172 19//172 21//172
f 31//173 24//173 21//173
f 33//174 25//174 18//174
f 36//175 27//175 39//175
f 38//176 26//176 28//176
f 18//177 52//177 33//177
f 25//178 41//178 28//178
f 41//179 34//179 28//179
f 33//180 41//180 25//180
f 46//181 40//181 39//181
f 45//182 27//182 36//182
f 34//183 47//183 38//183
f 43//184 46//184 39//184
f 49//185 45//185 36//185
f 37//186 78//186 10//186
f 41//187 48//187 34//187
f 50//188 35//188 44//188
f 50//189 42//189 35//189
f 51//190 43//190 31//190
f 53//191 48//191 41//191
f 53//192 54//192 48//192
f 47//193 55//193 44//193
f 52//194 53//194 33//194
f 59//195 55//195 47//195
f 51//196 60//196 46//196
f 46//197 61//197 40//197
f 96//198 88//198 105//198 118//198
f 63//199 51//199 50//199
f 64//200 60//200 51//200
f 61//201 46//201 60//201
f 62//202 49//202 36//202
f 65//203 54//203 53//203
f 56//204 63//204 50//204
f 64//205 51//205 63//205
f 69//206 66//206 57//206
f 65//207 59//207 54//207
f 68//208 61//208 60//208
f 49//209 73//209 58//209
f 70//210 32//210 58//210
f 74//211 65//211 53//211
f 71//212 75//212 55//212
f 66//213 62//213 57//213
f 73//214 70//214 58//214
f 64//215 68//215 60//215
f 76//216 59//216 65//216
f 76//217 77//217 59//217
f 64//218 69//218 68//218
f 92//219 49//219 62//219
f 79//220 65//220 74//220
f 78//221 81//221 52//221
f 79//222 76//222 65//222
f 82//223 56//223 75//223
f 80//224 84//224 69//224
f 66//225 92//225 62//225
f 90//226 75//226 71//226
f 88//227 85//227 66//227
f 92//228 66//228 85//228
f 83//229 75//229 90//229
f 72//230 87//230 64//230
f 99//231 73//231 92//231
f 73//232 106//232 70//232
f 86//233 79//233 74//233
f 83//234 91//234 72//234
f 99//235 106//235 73//235
f 93//236 79//236 86//236
f 95//237 89//237 79//237
f 102//238 90//238 77//238
f 97//239 92//239 85//239
f 106//240 32//240 70//240
f 101//241 81//241 100//241
f 102//242 89//242 95//242
f 98//243 94//243 84//243
f 100//244 78//244 37//244
f 107//245 91//245 83//245
f 48//246 54//246 59//246 47//246
f 109//247 103//247 90//247
f 107//248 83//248 103//248
f 95//249 79//249 93//249
f 97//250 110//250 99//250
f 111//251 112//251 32//251
f 109//252 113//252 103//252
f 104//253 91//253 107//253
f 118//254 97//254 96//254
f 101//255 115//255 93//255
f 115//256 95//256 93//256
f 113//257 116//257 107//257
f 95//258 123//258 102//258
f 123//259 109//259 102//259
f 123//260 119//260 109//260
f 122//261 101//261 100//261
f 125//262 95//262 115//262
f 118//263 126//263 97//263
f 127//264 113//264 119//264
f 127//265 120//265 116//265
f 120//266 117//266 108//266
f 117//267 128//267 105//267
f 128//268 126//268 118//268
f 129//269 97//269 126//269
f 120//270 128//270 117//270
f 133//271 119//271 123//271
f 133//272 127//272 119//272
f 137//273 111//273 114//273
f 140//274 138//274 127//274
f 140//275 127//275 133//275
f 121//276 137//276 114//276
f 124//277 122//277 100//277
f 134//278 141//278 132//278
f 143//279 121//279 129//279
f 144//280 131//280 138//280
f 131//281 144//281 134//281
f 141//282 135//282 132//282
f 141//283 142//283 135//283
f 143//284 135//284 142//284
f 145//285 122//285 124//285
f 148//286 141//286 134//286
f 139//287 150//287 133//287
f 140//288 147//288 138//288
f 147//289 148//289 144//289
f 148//290 155//290 141//290
f 130//291 122//291 145//291
f 141//292 152//292 142//292
f 142//293 146//293 143//293
f 152//294 141//294 155//294
f 154//295 139//295 136//295
f 153//296 146//296 142//296
f 155//297 158//297 152//297
f 147//298 157//298 148//298
f 160//299 156//299 145//299
f 149//300 112//300 111//300
f 153//301 149//301 146//301
f 157//302 150//302 154//302
f 159//303 156//303 160//303
f 157//304 154//304 159//304
f 159//305 158//305 157//305
f 159//306 161//306 158//306
f 161//307 149//307 158//307
f 160//308 161//308 159//308
