# Blender 4.5.3 LTS
# www.blender.org
o mountainB
v -1.467374 0.000967 0.658925
v -1.502547 0.003279 -0.490031
v -1.332146 0.043902 0.051119
v -1.269763 0.064586 -0.467580
v -1.302135 0.022991 0.699118
v -1.057206 0.111824 0.654784
v -1.007165 0.144967 0.309303
v -1.074775 0.086516 -0.665812
v -1.104526 0.158346 0.116253
v -1.144506 0.112624 -0.139765
v -0.662784 0.001740 1.424086
v -1.056210 0.192727 -0.369118
v -0.943262 0.271256 -0.047205
v -0.806766 0.186903 0.678048
v -0.958544 0.012511 -1.156440
v -0.875985 0.156946 -0.683990
v -0.802594 0.342955 0.115852
v -0.943224 0.300388 -0.235273
v -0.799314 0.136062 0.846555
v -0.735428 0.318882 0.481629
v -0.864327 0.280770 -0.468070
v -0.721123 0.067580 1.085225
v -0.657512 0.148711 -0.995935
v -0.747307 0.343558 -0.071294
v -0.707779 0.370426 0.257292
v -0.718536 0.383070 -0.216328
v -0.628609 0.429714 -0.371142
v -0.702314 0.391793 -0.579753
v -0.609467 0.583465 0.107867
v -0.534665 0.506506 -0.091374
v -0.598836 0.338602 0.691447
v -0.548867 0.577112 0.370515
v -0.598523 0.517389 -0.209052
v -0.568530 0.481956 -0.456224
v -0.579599 0.372193 -0.739478
v -0.535613 0.477451 0.538745
v -0.383445 0.039631 -1.361929
v -0.121929 0.000158 -1.626229
v -0.551125 0.133723 1.096883
v -0.446587 0.331700 0.765784
v -0.455583 0.593817 0.077947
v -0.518780 0.435272 -0.574812
v -0.425822 0.540332 -0.119386
v -0.395578 0.320579 -0.778437
v -0.493897 0.126970 -1.146638
v -0.429343 0.640415 0.207998
v -0.442963 0.625287 -0.313073
v -0.033528 0.024518 1.423928
v -0.349042 0.584069 -0.434525
v -0.310308 0.358750 0.881499
v -0.412608 0.421983 0.580406
v -0.402368 0.541317 0.405422
v -0.287025 0.469991 0.593558
v -0.325481 0.677068 0.269726
v -0.295366 0.685555 -0.294813
v -0.407411 0.456482 -0.644767
v -0.332297 0.654620 0.068502
v -0.187840 0.164810 1.065904
v -0.260306 0.701488 -0.060440
v -0.150207 0.422084 -0.680907
v -0.201688 0.169418 -1.033606
v -0.216789 0.557426 0.469209
v -0.245911 0.720123 0.061064
v -0.162220 0.605363 0.327354
v -0.158897 0.672933 -0.304674
v -0.217713 0.690691 0.232221
v -0.116587 0.635260 -0.463982
v -0.162035 0.287905 -0.838532
v -0.166750 0.487512 0.742151
v -0.185252 0.468690 0.634771
v -0.052605 0.979888 0.036708
v -0.133274 0.885229 0.138679
v -0.084735 0.813455 -0.151442
v -0.155120 0.557994 -0.536191
v 0.062925 0.135661 1.146252
v -0.012410 0.548164 0.494408
v -0.024245 0.633706 0.387212
v 0.058291 0.401981 0.818041
v 0.014517 0.599210 0.677673
v 0.150441 0.277633 0.947192
v 0.017776 0.804120 0.214607
v 0.006366 0.947785 -0.118716
v 0.003425 0.856449 -0.332360
v 0.003389 0.745446 -0.484612
v 0.057192 0.367721 -0.919849
v -0.017049 0.107864 -1.234481
v 0.166936 0.241591 1.038195
v 0.035600 0.598298 -0.653516
v 0.138167 0.627308 0.322182
v 0.142591 0.859083 0.088806
v 0.111071 0.894567 -0.075572
v 0.137644 0.593656 0.553014
v 0.181483 0.733870 0.172972
v 0.148716 0.544387 -0.347035
v 0.200863 0.263122 -0.942365
v 0.128857 0.124765 -1.152807
v 0.154975 0.604706 0.431229
v 0.212033 0.088750 1.208529
v 0.274722 0.459391 0.801394
v 0.272398 0.629053 -0.173418
v 0.209369 0.338840 -0.763321
v 0.618294 0.011804 1.387343
v 0.274189 0.647494 0.400713
v 0.264636 0.777254 -0.051428
v 0.248977 0.350427 -0.576169
v 0.258948 0.562246 0.647164
v 0.250728 0.528225 0.513725
v 0.307005 0.445993 -0.298913
v 0.337391 0.737813 0.058617
v 0.315192 0.575945 0.265491
v 0.354584 0.254129 -0.814081
v 0.341223 0.027051 -1.377576
v 0.660727 0.007333 -1.357710
v 0.440549 0.508624 -0.257326
v 0.399517 0.605979 0.389150
v 0.498535 0.277296 -0.618636
v 0.489577 0.525304 0.154184
v 0.531929 0.509574 -0.170916
v 0.490017 0.165784 1.005063
v 0.457304 0.413238 0.697077
v 0.468029 0.599021 -0.021580
v 0.465598 0.356766 -0.408437
v 0.439399 0.480383 0.552778
v 0.497504 0.555922 0.307606
v 0.509292 0.288969 -0.735705
v 0.545141 0.387625 0.475669
v 0.532809 0.150014 -1.023763
v 0.621284 0.533186 0.231466
v 0.611631 0.501759 -0.080307
v 0.599457 0.389100 -0.478708
v 0.638743 0.175252 0.850251
v 0.645559 0.305684 0.591450
v 0.611903 0.545540 0.092319
v 0.696600 0.241126 -0.639244
v 0.697327 0.380737 0.439516
v 0.751839 0.351325 0.002891
v 0.655416 0.408388 -0.356620
v 0.722675 0.115745 -0.913533
v 1.304322 0.003640 0.828723
v 0.830983 0.187615 0.722377
v 0.732488 0.395348 -0.175157
v 0.945973 0.042249 0.993865
v 0.739963 0.418274 0.251021
v 0.769026 0.285554 -0.494678
v 0.905111 0.313430 -0.226995
v 0.885226 0.311371 -0.408084
v 0.849317 0.379264 0.233354
v 1.115935 0.001590 -1.105431
v 0.900734 0.281469 0.420677
v 0.906594 0.335826 0.098415
v 0.901162 0.288291 -0.115594
v 1.005365 0.173405 0.570827
v 1.069691 0.146788 -0.562561
v 1.262499 0.100903 -0.249342
v 1.054730 0.240820 0.169288
v 1.059473 0.224312 -0.106157
v 1.115197 0.034199 -0.847381
v 1.234944 0.063034 0.468754
v 1.320374 0.031847 -0.554349
v 1.364564 0.058819 0.040417
v 1.626104 -0.001029 -0.022868
vn -0.3479 0.9375 -0.0045
vn -0.3296 0.9430 0.0457
vn -0.2407 0.9618 -0.1304
vn -0.1731 0.9681 0.1810
vn -0.4961 0.8123 0.3065
vn -0.2676 0.9414 -0.2054
vn -0.4255 0.9000 -0.0943
vn -0.6273 0.7782 0.0303
vn -0.2854 0.9203 0.2675
vn -0.5201 0.8508 0.0746
vn -0.7467 0.6573 0.1017
vn -0.5402 0.8415 0.0025
vn -0.2994 0.9097 0.2877
vn -0.5106 0.8192 -0.2613
vn -0.2207 0.9496 0.2225
vn -0.2958 0.9267 -0.2316
vn -0.1151 0.9858 -0.1221
vn -0.5852 0.8030 0.1124
vn -0.5617 0.7971 0.2217
vn -0.5203 0.8528 -0.0453
vn -0.5801 0.7723 0.2587
vn -0.8022 0.5959 0.0381
vn -0.5636 0.6771 -0.4731
vn -0.6926 0.4232 -0.5841
vn -0.3589 0.7862 -0.5031
vn -0.4913 0.7812 0.3851
vn -0.7462 0.6649 0.0331
vn -0.5993 0.7978 0.0667
vn -0.5443 0.7553 0.3652
vn -0.3688 0.8121 -0.4521
vn -0.2142 0.9360 -0.2794
vn 0.0669 0.7421 -0.6670
vn -0.1472 0.9466 -0.2870
vn -0.3518 0.9303 0.1037
vn -0.6612 0.7043 -0.2582
vn -0.0336 0.9308 0.3640
vn -0.2539 0.7656 0.5911
vn -0.1241 0.9418 -0.3124
vn 0.1153 0.8940 0.4330
vn -0.4878 0.6395 -0.5942
vn -0.4565 0.8197 0.3460
vn 0.2309 0.8574 0.4599
vn -0.1179 0.9538 -0.2763
vn -0.1734 0.8962 0.4084
vn -0.3357 0.8200 -0.4636
vn 0.0467 0.7025 -0.7101
vn -0.3662 0.8613 0.3523
vn -0.4029 0.8278 -0.3905
vn -0.2758 0.8250 -0.4933
vn -0.3529 0.7825 0.5130
vn -0.2794 0.9553 -0.0971
vn 0.0090 0.9282 -0.3719
vn -0.2345 0.8526 0.4670
vn -0.2714 0.7530 0.5995
vn -0.6062 0.7938 -0.0499
vn 0.0013 0.7290 -0.6846
vn -0.0065 0.7009 -0.7132
vn -0.4725 0.8343 0.2841
vn 0.2491 0.8844 0.3947
vn -0.0618 0.9819 0.1790
vn 0.1193 0.7727 0.6235
vn -0.2462 0.8267 -0.5059
vn 0.0749 0.9747 -0.2106
vn -0.4263 0.5356 0.7290
vn -0.6342 0.6297 -0.4487
vn -0.8031 0.5893 -0.0882
vn -0.0597 0.5700 0.8195
vn 0.0025 0.7213 0.6927
vn -0.0419 0.7787 0.6260
vn -0.0100 0.9295 0.3686
vn -0.5561 0.8181 -0.1462
vn -0.7121 0.5674 -0.4135
vn -0.4586 0.6934 -0.5558
vn -0.4541 0.7366 -0.5012
vn -0.4006 0.6989 0.5925
vn 0.0361 0.7180 0.6951
vn -0.7756 0.5842 -0.2391
vn -0.6655 0.6591 -0.3501
vn -0.5014 0.6221 -0.6013
vn -0.5104 0.6293 -0.5862
vn 0.2921 0.7356 0.6112
vn 0.5219 0.8527 0.0219
vn 0.0048 0.8758 -0.4826
vn -0.1963 0.9517 -0.2362
vn -0.4364 0.6792 0.5902
vn 0.4278 0.5920 0.6831
vn 0.4116 0.9039 0.1162
vn 0.8587 0.4140 -0.3020
vn 0.4214 0.7023 -0.5738
vn 0.1125 0.9763 0.1850
vn 0.4391 0.6659 0.6031
vn 0.4101 0.6913 -0.5949
vn 0.6084 0.5454 0.5766
vn 0.5243 0.5562 -0.6448
vn 0.0366 0.9455 0.3237
vn 0.5348 0.5442 -0.6464
vn -0.2015 0.8213 0.5337
vn 0.7725 0.6095 -0.1779
vn 0.5339 0.8318 0.1515
vn -0.2744 0.9323 0.2355
vn 0.3945 0.6897 0.6071
vn 0.5235 0.8511 -0.0410
vn 0.5690 0.7335 -0.3719
vn 0.7725 0.6024 -0.2008
vn 0.3647 0.8513 -0.3773
vn 0.0748 0.9669 -0.2440
vn 0.2396 0.7533 0.6125
vn 0.2867 0.9239 -0.2532
vn -0.0077 0.5644 -0.8254
vn 0.4559 0.7613 0.4611
vn 0.5214 0.7966 0.3060
vn 0.5122 0.7136 0.4778
vn 0.3838 0.8250 -0.4149
vn 0.2613 0.9584 -0.1146
vn 0.3674 0.8526 -0.3717
vn 0.3489 0.8663 -0.3574
vn 0.0798 0.8000 0.5946
vn 0.2569 0.8843 -0.3900
vn 0.0987 0.9222 -0.3740
vn 0.4559 0.6156 0.6428
vn 0.6632 0.7270 -0.1779
vn 0.5658 0.5415 -0.6218
vn 0.3958 0.8526 -0.3413
vn 0.2543 0.8967 -0.3623
vn 0.2171 0.9238 -0.3153
vn 0.1527 0.9676 -0.2010
vn -0.1028 0.6930 -0.7135
vn 0.4900 0.7042 0.5138
vn 0.4405 0.8406 -0.3150
vn 0.0166 0.9011 -0.4333
vn 0.0578 0.9784 -0.1983
vn -0.4002 0.8347 -0.3783
vn 0.3726 0.8474 -0.3783
vn 0.6490 0.7604 -0.0247
vn 0.4142 0.7997 0.4346
vn 0.1900 0.9751 0.1147
vn 0.1910 0.7201 0.6670
vn -0.0885 0.8488 -0.5213
vn -0.2529 0.9668 -0.0368
vn 0.0698 0.7542 -0.6529
vn 0.2438 0.9252 0.2908
vn 0.5142 0.8565 0.0442
vn -0.1152 0.9887 0.0955
vn 0.7646 0.6244 -0.1596
vn 0.4873 0.8611 -0.1451
vn 0.2191 0.9417 0.2554
vn 0.4323 0.7781 -0.4557
vn 0.7001 0.7072 0.0988
vn 0.4659 0.8159 -0.3425
vn 0.2041 0.8964 0.3935
vn 0.3614 0.8954 0.2601
vn 0.3785 0.9241 -0.0521
vn 0.2988 0.8784 -0.3731
vn 0.1530 0.9549 -0.2544
vn 0.4699 0.8573 0.2101
vn 0.2401 0.7937 -0.5589
vn 0.4394 0.8401 0.3180
vn 0.3545 0.9093 0.2178
vn 0.2215 0.9675 -0.1216
vn 0.5530 0.8322 -0.0403
vn 0.3771 0.9021 -0.2099
vn 0.5193 0.8348 0.1831
vn 0.2454 0.9157 0.3183
vn 0.5481 0.8214 0.1578
vn 0.4925 0.8692 -0.0436
vn 0.4169 0.9004 -0.1247
vn 0.2848 0.9531 0.1024
vn 0.2369 0.9695 0.0621
vn 0.2602 0.9580 -0.1203
vn 0.3806 -0.8833 -0.2736
vn 0.2089 0.9761 -0.0598
vn -0.1336 0.9910 0.0061
vn -0.3707 0.9276 0.0471
vn -0.2554 0.9668 0.0078
vn -0.3339 0.9417 0.0420
vn -0.5409 0.8369 0.0840
vn -0.3914 0.8739 -0.2883
vn -0.6048 0.7950 -0.0475
vn -0.2941 0.8393 0.4572
vn -0.4962 0.8123 0.3066
vn -0.5046 0.8291 -0.2409
vn -0.3026 0.8853 0.3532
vn -0.3436 0.9132 -0.2191
vn -0.3268 0.9340 0.1446
vn -0.3340 0.8253 -0.4553
vn -0.3554 0.9291 -0.1020
vn -0.5388 0.7430 -0.3970
vn -0.6558 0.7512 0.0746
vn -0.5456 0.8371 0.0406
vn -0.1875 0.8940 -0.4069
vn -0.7192 0.5897 0.3676
vn -0.7636 0.6057 -0.2236
vn -0.6080 0.6808 -0.4085
vn -0.5744 0.7606 0.3025
vn -0.3498 0.8189 0.4550
vn -0.8269 0.5243 0.2035
vn -0.6414 0.6809 0.3536
vn -0.7212 0.6564 -0.2212
vn -0.1972 0.8812 -0.4296
vn -0.1855 0.8681 0.4605
vn -0.6333 0.6429 0.4308
vn -0.3663 0.8996 0.2379
vn -0.4015 0.8661 0.2980
vn -0.4290 0.8727 0.2329
vn 0.0904 0.8599 0.5023
vn -0.3212 0.9179 -0.2330
vn 0.1744 0.8087 0.5617
vn -0.0834 0.8283 -0.5541
vn -0.0615 0.9763 -0.2076
vn -0.5196 0.7331 0.4389
vn -0.3885 0.8307 0.3987
vn -0.4449 0.8678 -0.2212
vn -0.4406 0.8474 -0.2961
vn 0.0027 0.6900 0.7238
vn -0.6730 0.7314 -0.1099
vn -0.4220 0.8566 0.2968
vn -0.7069 0.7049 0.0578
vn -0.6065 0.7922 -0.0678
vn -0.1384 0.8632 -0.4854
vn -0.0133 0.8558 -0.5171
vn -0.0464 0.9231 0.3817
vn 0.0860 0.9930 -0.0804
vn -0.0592 0.7623 -0.6445
vn 0.0881 0.9785 -0.1867
vn -0.8509 0.4761 0.2221
vn -0.0567 0.9388 -0.3397
vn -0.1882 0.8503 0.4916
vn -0.8021 0.5972 0.0034
vn 0.0143 0.9909 -0.1338
vn -0.6248 0.7021 -0.3415
vn -0.2413 0.7241 -0.6461
vn 0.0363 0.7150 0.6981
vn -0.0187 0.8797 0.4751
vn -0.2825 0.9365 0.2078
vn 0.0402 0.7017 0.7113
vn -0.4658 0.8818 -0.0743
vn -0.1091 0.5634 0.8190
vn -0.7147 0.5799 -0.3910
vn -0.7474 0.6287 -0.2148
vn -0.6680 0.6647 -0.3346
vn -0.2285 0.8520 -0.4711
vn -0.1657 0.9062 0.3890
vn -0.5075 0.5994 -0.6190
vn -0.1153 0.7626 0.6366
vn 0.3076 0.6386 0.7054
vn 0.2819 0.7061 -0.6496
vn 0.1168 0.9074 0.4038
vn 0.1328 0.9852 0.1083
vn 0.5416 0.5506 -0.6352
vn 0.8861 0.4216 -0.1924
vn 0.8570 0.4582 -0.2357
vn 0.0783 0.9392 -0.3343
vn -0.1215 0.6703 0.7321
vn 0.6004 0.7977 0.0571
vn 0.7316 0.6147 -0.2947
vn 0.4190 0.8733 -0.2485
vn 0.5263 0.5566 -0.6428
vn -0.0498 0.7368 0.6743
vn -0.0650 0.6931 0.7179
vn -0.1722 0.8113 0.5587
vn 0.4685 0.5885 0.6590
vn 0.1193 0.8921 -0.4359
vn -0.1469 0.8488 -0.5078
vn -0.5856 0.7117 0.3880
vn 0.2761 0.6319 0.7242
vn 0.2286 0.6625 0.7134
vn 0.4762 0.7095 0.5195
vn 0.1812 0.9202 -0.3471
vn -0.2541 0.9644 0.0728
vn 0.7412 0.6075 0.2856
vn 0.7643 0.6227 0.1675
vn 0.0800 0.9273 -0.3656
vn 0.0132 0.9290 0.3698
vn 0.6665 0.6127 0.4247
vn 0.5897 0.7577 0.2794
vn 0.5226 0.6432 -0.5597
vn 0.0406 0.9232 0.3822
vn 0.4856 0.8472 -0.2156
vn 0.3719 0.6860 0.6254
vn 0.1529 0.8643 0.4791
vn 0.6416 0.7114 0.2868
vn 0.4610 0.8219 -0.3346
vn 0.3970 0.8484 -0.3501
vn 0.3189 0.9096 -0.2665
vn 0.6941 0.7197 0.0171
vn 0.2628 0.9202 0.2900
vn 0.6694 0.6489 -0.3618
vn 0.4005 0.9103 -0.1047
vn 0.3647 0.8476 0.3855
vn 0.2219 0.8120 -0.5398
vn 0.4144 0.7519 0.5127
vn 0.4884 0.8580 0.1591
vn 0.3023 0.8581 -0.4151
vn 0.2288 0.9491 -0.2166
vn 0.2253 0.9513 -0.2106
vn 0.3435 0.8857 0.3122
vn 0.3380 0.8596 0.3832
vn 0.2443 0.9145 -0.3225
vn 0.5512 0.8337 -0.0344
vn 0.5433 0.8114 -0.2156
vn 0.5070 0.8595 -0.0654
vn 0.5928 0.7691 0.2388
vn 0.5102 0.8599 -0.0176
vn 0.3514 0.8791 0.3219
vn 0.5059 0.8276 0.2431
vn 0.4078 0.8695 -0.2786
vn 0.4538 0.8891 0.0592
vn 0.4939 0.8682 -0.0479
vn 0.5637 0.8221 -0.0792
s 0
f 4//1 3//1 10//1
f 7//2 3//2 5//2
f 2//3 4//3 8//3
f 5//4 1//4 11//4
f 9//5 3//5 7//5
f 15//6 2//6 8//6
f 10//7 3//7 9//7
f 13//8 12//8 10//8
f 19//9 6//9 5//9
f 13//10 9//10 17//10
f 18//11 12//11 13//11
f 20//12 7//12 6//12
f 19//13 14//13 6//13
f 8//14 12//14 21//14
f 22//15 5//15 11//15
f 15//16 16//16 23//16
f 24//17 21//17 18//17
f 25//18 7//18 20//18
f 25//19 17//19 7//19
f 27//20 21//20 26//20
f 31//21 14//21 19//21
f 32//22 25//22 20//22
f 30//23 24//23 29//23
f 35//24 21//24 28//24
f 37//25 23//25 45//25
f 31//26 19//26 22//26
f 33//27 26//27 24//27
f 34//28 28//28 27//28
f 33//29 24//29 30//29
f 30//30 29//30 43//30
f 35//31 28//31 42//31
f 44//32 23//32 35//32
f 38//33 15//33 37//33
f 46//34 29//34 32//34
f 27//35 33//35 47//35
f 48//36 39//36 11//36
f 40//37 36//37 31//37
f 41//38 29//38 46//38
f 46//39 32//39 52//39
f 49//40 27//40 47//40
f 50//41 40//41 39//41
f 51//42 36//42 40//42
f 41//43 43//43 29//43
f 47//44 30//44 43//44
f 42//45 34//45 49//45
f 44//46 35//46 56//46
f 53//47 51//47 40//47
f 42//48 49//48 56//48
f 49//49 47//49 55//49
f 53//50 52//50 51//50
f 54//51 57//51 46//51
f 37//52 45//52 61//52
f 62//53 52//53 53//53
f 62//54 54//54 52//54
f 63//55 59//55 57//55
f 74//56 60//56 56//56
f 44//57 56//57 60//57
f 69//58 53//58 50//58
f 54//59 62//59 64//59
f 66//60 63//60 54//60
f 66//61 54//61 64//61
f 49//62 55//62 67//62
f 67//63 55//63 65//63
f 64//64 72//64 66//64
f 73//65 59//65 71//65
f 72//66 71//66 63//66
f 79//67 69//67 78//67
f 78//68 58//68 80//68
f 77//69 62//69 76//69
f 75//70 58//70 48//70
f 76//71 69//71 79//71
f 84//72 65//72 83//72
f 68//73 60//73 85//73
f 86//74 68//74 85//74
f 81//75 64//75 77//75
f 81//76 71//76 72//76
f 83//77 73//77 82//77
f 74//78 67//78 84//78
f 60//79 74//79 88//79
f 85//80 60//80 88//80
f 90//81 71//81 81//81
f 90//82 82//82 71//82
f 112//83 37//83 86//83
f 92//84 76//84 79//84
f 92//85 77//85 76//85
f 90//86 81//86 93//86
f 91//87 82//87 90//87
f 94//88 84//88 83//88
f 95//89 85//89 88//89
f 89//90 77//90 97//90
f 93//91 81//91 89//91
f 95//92 96//92 85//92
f 92//93 79//93 78//93
f 100//94 94//94 91//94
f 98//95 48//95 102//95
f 108//96 94//96 100//96
f 106//97 92//97 78//97
f 105//98 88//98 94//98
f 107//99 97//99 92//99
f 103//100 89//100 97//100
f 93//101 89//101 110//101
f 104//102 90//102 109//102
f 108//103 105//103 94//103
f 105//104 101//104 88//104
f 111//105 95//105 101//105
f 113//106 38//106 112//106
f 87//107 98//107 119//107
f 123//108 107//108 106//108
f 114//109 108//109 100//109
f 120//110 106//110 99//110
f 123//111 106//111 120//111
f 117//112 93//112 110//112
f 114//113 100//113 118//113
f 101//114 105//114 116//114
f 116//115 111//115 101//115
f 112//116 95//116 111//116
f 115//117 107//117 123//117
f 115//118 110//118 103//118
f 127//119 112//119 111//119
f 109//120 93//120 117//120
f 121//121 104//121 109//121
f 121//122 100//122 104//122
f 121//123 118//123 100//123
f 122//124 105//124 108//124
f 122//125 116//125 105//125
f 124//126 117//126 110//126
f 122//127 108//127 114//127
f 120//128 119//128 131//128
f 129//129 118//129 121//129
f 127//130 111//130 125//130
f 128//131 117//131 124//131
f 116//132 122//132 130//132
f 138//133 127//133 125//133
f 126//134 123//134 132//134
f 128//135 124//135 135//135
f 134//136 125//136 116//136
f 135//137 124//137 126//137
f 137//138 122//138 118//138
f 130//139 122//139 137//139
f 134//140 116//140 130//140
f 131//141 119//141 102//141
f 140//142 132//142 120//142
f 133//143 117//143 128//143
f 129//144 133//144 136//144
f 141//145 137//145 118//145
f 142//146 102//146 139//146
f 144//147 134//147 130//147
f 136//148 141//148 129//148
f 137//149 144//149 130//149
f 140//150 131//150 142//150
f 147//151 143//151 135//151
f 146//152 137//152 145//152
f 153//153 138//153 134//153
f 148//154 113//154 138//154
f 145//155 141//155 151//155
f 146//156 153//156 144//156
f 147//157 135//157 149//157
f 145//158 151//158 156//158
f 157//159 148//159 138//159
f 156//160 150//160 155//160
f 156//161 151//161 150//161
f 155//162 149//162 158//162
f 152//163 142//163 139//163
f 160//164 155//164 158//164
f 160//165 156//165 155//165
f 154//166 159//166 153//166
f 161//167 158//167 139//167
f 160//168 158//168 161//168
f 161//169 148//169 157//169
f 161//170 157//170 159//170
f 161//171 159//171 160//171
f 5//172 2//172 1//172
f 5//173 3//173 2//173
f 4//174 2//174 3//174
f 7//175 5//175 6//175
f 10//176 12//176 4//176
f 8//177 4//177 12//177
f 13//178 10//178 9//178
f 14//179 20//179 6//179
f 7//180 17//180 9//180
f 21//181 12//181 18//181
f 22//182 19//182 5//182
f 16//183 15//183 8//183
f 13//184 24//184 18//184
f 16//185 8//185 21//185
f 17//186 24//186 13//186
f 21//187 23//187 16//187
f 26//188 21//188 24//188
f 27//189 28//189 21//189
f 37//190 15//190 23//190
f 25//191 29//191 17//191
f 29//192 24//192 17//192
f 35//193 23//193 21//193
f 31//194 20//194 14//194
f 39//195 31//195 22//195
f 32//196 29//196 25//196
f 31//197 36//197 20//197
f 27//198 26//198 33//198
f 42//199 28//199 34//199
f 39//200 40//200 31//200
f 20//201 36//201 32//201
f 11//202 39//202 22//202
f 30//203 47//203 33//203
f 49//204 34//204 27//204
f 52//205 32//205 36//205
f 56//206 35//206 42//206
f 52//207 36//207 51//207
f 61//208 23//208 44//208
f 61//209 45//209 23//209
f 54//210 46//210 52//210
f 55//211 47//211 43//211
f 57//212 41//212 46//212
f 57//213 43//213 41//213
f 58//214 50//214 39//214
f 57//215 59//215 43//215
f 50//216 53//216 40//216
f 59//217 55//217 43//217
f 63//218 57//218 54//218
f 49//219 74//219 56//219
f 44//220 68//220 61//220
f 48//221 58//221 39//221
f 59//222 65//222 55//222
f 68//223 44//223 60//223
f 69//224 70//224 53//224
f 66//225 72//225 63//225
f 86//226 37//226 61//226
f 70//227 62//227 53//227
f 71//228 59//228 63//228
f 112//229 38//229 37//229
f 73//230 65//230 59//230
f 74//231 49//231 67//231
f 78//232 69//232 50//232
f 76//233 62//233 70//233
f 62//234 77//234 64//234
f 78//235 50//235 58//235
f 76//236 70//236 69//236
f 64//237 81//237 72//237
f 82//238 73//238 71//238
f 83//239 65//239 73//239
f 84//240 67//240 65//240
f 86//241 61//241 68//241
f 87//242 80//242 58//242
f 88//243 74//243 84//243
f 75//244 87//244 58//244
f 89//245 81//245 77//245
f 85//246 96//246 86//246
f 98//247 75//247 48//247
f 97//248 77//248 92//248
f 91//249 94//249 82//249
f 94//250 83//250 82//250
f 94//251 88//251 84//251
f 96//252 112//252 86//252
f 80//253 99//253 78//253
f 90//254 104//254 91//254
f 88//255 101//255 95//255
f 106//256 107//256 92//256
f 104//257 100//257 91//257
f 87//258 75//258 98//258
f 107//259 103//259 97//259
f 99//260 106//260 78//260
f 109//261 90//261 93//261
f 103//262 110//262 89//262
f 112//263 96//263 95//263
f 99//264 80//264 87//264
f 115//265 103//265 107//265
f 119//266 99//266 87//266
f 119//267 120//267 99//267
f 124//268 110//268 115//268
f 125//269 111//269 116//269
f 126//270 115//270 123//270
f 121//271 109//271 117//271
f 127//272 113//272 112//272
f 102//273 119//273 98//273
f 124//274 115//274 126//274
f 132//275 123//275 120//275
f 118//276 122//276 114//276
f 117//277 133//277 121//277
f 133//278 129//278 121//278
f 140//279 120//279 131//279
f 132//280 135//280 126//280
f 143//281 128//281 135//281
f 141//282 118//282 129//282
f 134//283 138//283 125//283
f 138//284 113//284 127//284
f 143//285 133//285 128//285
f 142//286 131//286 102//286
f 133//287 147//287 136//287
f 141//288 145//288 137//288
f 143//289 147//289 133//289
f 146//290 144//290 137//290
f 149//291 135//291 132//291
f 151//292 141//292 136//292
f 144//293 153//293 134//293
f 150//294 151//294 136//294
f 147//295 150//295 136//295
f 152//296 132//296 140//296
f 152//297 149//297 132//297
f 153//298 157//298 138//298
f 155//299 150//299 147//299
f 154//300 153//300 146//300
f 145//301 154//301 146//301
f 155//302 147//302 149//302
f 156//303 154//303 145//303
f 152//304 140//304 142//304
f 158//305 149//305 152//305
f 159//306 157//306 153//306
f 158//307 152//307 139//307
f 160//308 154//308 156//308
f 160//309 159//309 154//309
