# Blender 5.0.1
# www.blender.org
o mountainA
v -1.524489 -0.020186 0.047435
v -1.104029 0.016378 -1.063519
v -0.862369 0.538971 0.160039
v -1.290455 -0.018890 0.755220
v -0.857044 0.331849 -0.672662
v -0.008239 -0.008631 1.627782
v -0.467777 0.630347 0.695922
v 0.101836 1.378270 -0.224725
v 0.039302 -0.082549 -1.587307
v -0.240229 0.780240 0.307269
v 0.003246 0.415444 1.010474
v 0.185169 1.160319 0.062763
v 0.033338 0.896775 -0.861180
v 0.537203 1.042023 -0.439852
v 0.366156 0.813721 -0.844106
v 0.102776 0.763009 0.568017
v 0.303659 1.751856 -0.492985
v 0.466816 1.241958 0.302439
v 0.770905 0.004695 -1.327107
v 0.914456 0.014621 1.161669
v 0.770607 0.520786 0.460368
v 0.805296 0.340797 -0.606004
v 1.496096 0.017970 -0.673781
v 1.466714 0.029995 0.587104
v -1.561266 -0.331692 0.108413
v -1.174618 -0.315736 -1.107509
v -1.347894 -0.352200 0.811644
v -0.015517 -0.349503 1.718856
v 0.021107 -0.427095 -1.667415
v 0.762287 -0.323069 -1.378457
v 0.931074 -0.306642 1.227608
v 1.564882 -0.312995 -0.691336
v 1.528893 -0.304884 0.631392
vn -0.6107 0.7646 -0.2060
vn -0.6512 0.7281 0.2140
vn -0.6467 0.7392 -0.1880
vn -0.1797 0.8179 -0.5466
vn -0.3847 0.9142 0.1274
vn -0.6857 0.7053 -0.1798
vn -0.3622 0.7714 0.5232
vn -0.2836 0.7228 0.6302
vn -0.4579 0.4698 -0.7548
vn 0.6104 0.1425 -0.7791
vn -0.4303 0.6653 0.6100
vn 0.2118 0.5769 -0.7889
vn 0.9227 0.3851 -0.0162
vn 0.9311 0.3633 -0.0310
vn 0.3531 0.8414 -0.4090
vn 0.2673 0.8065 0.5273
vn 0.4235 0.9059 0.0012
vn -0.5784 0.7600 0.2963
vn -0.4799 0.5207 -0.7062
vn -0.4119 0.7258 0.5510
vn -0.3228 0.4834 0.8137
vn -0.7648 0.5934 0.2510
vn 0.1282 0.8978 0.4213
vn -0.3602 0.7712 0.5248
vn -0.5137 0.7901 0.3345
vn 0.2286 0.8031 -0.5503
vn 0.1867 0.5859 -0.7886
vn -0.4064 0.6675 0.6239
vn -0.6109 0.6036 0.5123
vn 0.9498 0.3129 0.0058
vn 0.3531 0.6955 0.6258
vn 0.2598 0.3097 0.9147
vn 0.2580 0.7941 0.5503
vn 0.7343 0.4091 -0.5417
vn 0.7696 0.5639 -0.2995
vn 0.5864 0.8017 -0.1162
vn 0.4551 0.7637 0.4579
vn 0.4394 0.2131 0.8726
vn 0.9808 0.1938 0.0233
vn 0.6976 0.1994 0.6882
vn 0.6521 0.1376 -0.7456
vn -0.5486 0.2286 0.8042
vn -0.9355 0.1476 -0.3211
vn 0.3250 0.1690 -0.9305
vn -0.9349 0.1911 0.2990
vn -0.3945 0.2156 -0.8933
vt 0.156710 0.623314
vt 0.124388 0.623235
vt 0.125131 0.635422
vt 0.106716 0.622958
vt 0.142375 0.633160
vt 0.166526 0.623153
vt 0.122606 0.872700
vt 0.125744 0.870418
vt 0.115887 0.872850
vt 0.132605 0.644121
vt 0.092568 0.623374
vt 0.108193 0.632071
vt 0.126135 0.877090
vt 0.132633 0.879278
vt 0.122022 0.872860
vt 0.146215 0.637085
vt 0.135959 0.647020
vt 0.137860 0.874202
vt 0.146828 0.872081
vt 0.136572 0.882016
vt 0.122494 0.881699
vt 0.117379 0.874584
vt 0.161427 0.623324
vt 0.146092 0.637614
vt 0.119839 0.634934
vt 0.137247 0.639206
vt 0.121881 0.646703
vt 0.140262 0.631474
vt 0.138799 0.623261
vt 0.100119 0.623278
vt 0.115095 0.623627
vt 0.115274 0.637854
vt 0.121993 0.637703
vt 0.108806 0.867068
vt 0.116766 0.639588
vt 0.126720 0.876930
vt 0.133218 0.879117
s 0
f 2/1/1 1/2/1 3/3/1
f 3/3/2 1/2/2 4/4/2
f 2/1/3 3/3/3 5/5/3
f 9/6/4 2/1/4 5/5/4
f 10/7/5 3/8/5 7/9/5
f 8/10/6 5/5/6 3/3/6
f 6/11/7 11/12/7 4/4/7
f 12/13/8 8/14/8 10/15/8
f 13/16/9 5/5/9 17/17/9
f 14/18/10 13/19/10 17/20/10
f 18/21/11 10/7/11 16/22/11
f 19/23/12 9/6/12 15/24/12
f 21/25/13 14/26/13 18/27/13
f 21/25/14 22/28/14 14/26/14
f 23/29/15 19/23/15 22/28/15
f 21/25/16 11/12/16 20/30/16
f 23/29/17 22/28/17 24/31/17
f 4/4/18 7/32/18 3/3/18
f 13/16/19 9/6/19 5/5/19
f 8/10/20 3/3/20 10/33/20
f 11/12/21 7/32/21 4/4/21
f 8/10/22 17/17/22 5/5/22
f 11/34/23 10/7/23 7/9/23
f 16/35/24 10/33/24 11/12/24
f 18/21/25 12/36/25 10/7/25
f 14/26/26 15/24/26 13/16/26
f 13/16/27 15/24/27 9/6/27
f 12/36/28 17/20/28 8/37/28
f 17/20/29 12/36/29 18/21/29
f 18/21/30 14/18/30 17/20/30
f 11/12/31 21/25/31 16/35/31
f 21/25/32 18/27/32 16/35/32
f 20/30/33 11/12/33 6/11/33
f 14/26/34 22/28/34 15/24/34
f 22/28/35 19/23/35 15/24/35
f 21/25/36 24/31/36 22/28/36
f 24/31/37 21/25/37 20/30/37
f 20/30/38 6/11/38 28/11/38 31/30/38
f 23/29/39 24/31/39 33/31/39 32/29/39
f 24/31/40 20/30/40 31/30/40 33/31/40
f 19/23/41 23/29/41 32/29/41 30/23/41
f 6/11/42 4/4/42 27/4/42 28/11/42
f 1/2/43 2/1/43 26/1/43 25/2/43
f 9/6/44 19/23/44 30/23/44 29/6/44
f 4/4/45 1/2/45 25/2/45 27/4/45
f 2/1/46 9/6/46 29/6/46 26/1/46
