# Blender 5.0.1
# www.blender.org
o mountainB
v -1.395350 -0.022903 0.814269
v -1.536606 0.017721 -0.440705
v -0.882215 0.238453 0.510562
v -1.115254 0.189240 -0.348890
v -0.661388 0.001251 1.415940
v -1.042899 0.012511 -1.238558
v -0.859975 0.346262 0.057224
v -0.736942 0.408413 -0.519882
v -0.679190 0.270921 -0.888712
v -0.541838 0.748738 0.290902
v -0.078347 -0.019853 -1.601701
v -0.358093 0.507843 0.654927
v -0.293467 0.816944 -0.178308
v 0.621615 0.051415 1.466132
v 0.182544 0.685123 0.729282
v -0.110288 0.734832 -0.450739
v 0.215435 0.226436 -1.075775
v -0.253609 0.867003 0.306829
v 0.125435 1.346772 0.143219
v 0.142213 0.776844 0.502906
v 0.061964 0.874730 -0.491017
v 0.304010 0.566355 -0.323640
v 0.510419 0.675054 0.453261
v 0.576329 0.283648 -0.718843
v 0.704845 0.018686 -1.456680
v 0.734134 0.553501 0.147721
v 0.695213 0.459130 -0.293514
v 0.236098 0.188957 1.190329
v 0.692557 0.339878 0.593954
v 1.379654 0.003640 0.880423
v 1.381332 0.048706 -0.681900
v 1.625663 -0.010975 0.024359
v -1.481912 -0.364484 0.856370
v -1.612564 -0.314705 -0.463823
v -0.701191 -0.315638 1.462656
v -1.105369 -0.327224 -1.299465
v -0.091330 -0.360828 -1.684300
v 0.639156 -0.267737 1.536425
v 0.733946 -0.312342 -1.519493
v 1.444774 -0.336622 0.932321
v 1.431022 -0.283439 -0.695951
v 1.657252 -0.334582 0.069770
vn -0.3291 0.9207 -0.2097
vn -0.6710 0.7281 0.1402
vn -0.4244 0.8809 -0.2095
vn -0.5063 0.8622 -0.0151
vn -0.8077 0.5812 0.0986
vn -0.6787 0.6871 -0.2594
vn -0.7107 0.6184 0.3354
vn -0.6521 0.7560 -0.0576
vn -0.3242 0.7053 0.6304
vn -0.3343 0.8405 0.4263
vn -0.3758 0.9245 -0.0645
vn -0.0394 0.9132 -0.4056
vn -0.3618 0.7970 -0.4835
vn 0.0407 0.6825 0.7298
vn -0.0534 0.8618 0.5045
vn -0.5514 0.4830 -0.6802
vn 0.0375 0.8968 -0.4409
vn 0.8222 0.4760 -0.3120
vn 0.5858 0.7821 0.2125
vn 0.2813 0.8616 -0.4225
vn 0.1573 0.9378 -0.3094
vn 0.2474 0.4862 0.8381
vn 0.5782 0.4476 0.6822
vn 0.2736 0.9353 -0.2242
vn 0.2693 0.8614 -0.4307
vn 0.2348 0.9500 -0.2060
vn 0.3048 0.8966 0.3213
vn 0.2807 0.9178 -0.2807
vn -0.3374 0.2298 -0.9129
vn 0.5283 0.7456 0.4062
vn 0.4992 0.8372 -0.2231
vn 0.9496 0.1036 -0.2958
vn -0.4164 0.9060 0.0762
vn -0.3862 0.9209 0.0520
vn -0.2815 0.9092 0.3069
vn -0.5844 0.7261 -0.3622
vn -0.1518 0.8639 -0.4803
vn -0.0036 0.8331 0.5531
vn -0.1007 0.7455 -0.6589
vn -0.3955 0.8386 -0.3746
vn -0.7846 0.6200 0.0005
vn -0.4770 0.6998 -0.5317
vn -0.1754 0.7110 0.6810
vn -0.3347 0.8511 0.4045
vn -0.2880 0.5050 0.8136
vn -0.6288 0.6526 -0.4227
vn 0.8142 0.4237 -0.3968
vn 0.6487 0.4945 -0.5785
vn 0.5572 0.5967 0.5775
vn 0.7610 0.5547 0.3365
vn 0.1069 0.9414 0.3200
vn 0.2710 0.8608 -0.4309
vn 0.4734 0.8763 -0.0897
vn 0.4033 0.9096 0.1004
vn -0.9655 0.2359 0.1102
vn 0.6012 0.2178 0.7688
vn -0.0532 0.1825 0.9818
vn -0.6147 0.2201 0.7574
vn 0.7452 0.1635 -0.6465
vn 0.1738 0.2123 -0.9616
vn -0.8278 0.2342 -0.5098
vn 0.9515 0.1756 0.2526
vt 0.215963 0.673606
vt 0.195635 0.673324
vt 0.191390 0.678825
vt 0.166478 0.680674
vt 0.178967 0.683822
vt 0.206572 0.681730
vt 0.195170 0.685657
vt 0.173735 0.690552
vt 0.185848 0.692542
vt 0.137297 0.673295
vt 0.058066 0.454735
vt 0.058689 0.451900
vt 0.047420 0.448192
vt 0.159832 0.689901
vt 0.162466 0.686843
vt 0.070802 0.453891
vt 0.230268 0.673232
vt 0.211186 0.680071
vt 0.194996 0.691853
vt 0.147579 0.678065
vt 0.138347 0.673591
vt 0.195723 0.695496
vt 0.221673 0.673674
vt 0.075837 0.448807
vt 0.096139 0.441420
vt 0.080676 0.456844
vt 0.048886 0.445226
vt 0.054237 0.453651
vt 0.044786 0.451249
vt 0.190883 0.687459
vt 0.201155 0.681556
vt 0.054992 0.452795
vt 0.065109 0.463417
vt 0.062470 0.449804
vt 0.074730 0.447012
vt 0.189776 0.685664
vt 0.163932 0.683877
vt 0.155408 0.673335
vt 0.199865 0.674401
vt 0.177517 0.688456
vt 0.181349 0.673236
vt 0.160590 0.673245
vt 0.079950 0.453201
s 0
f 6/1/1 2/2/1 4/3/1
f 4/3/2 3/4/2 7/5/2
f 6/1/3 4/3/3 9/6/3
f 7/5/4 8/7/4 4/3/4
f 10/8/5 7/5/5 3/4/5
f 13/9/6 7/5/6 10/8/6
f 10/8/7 3/4/7 5/10/7
f 13/9/8 8/7/8 7/5/8
f 18/11/9 10/12/9 12/13/9
f 15/14/10 12/15/10 5/10/10
f 18/11/11 13/16/11 10/12/11
f 11/17/12 9/6/12 17/18/12
f 8/7/13 13/9/13 16/19/13
f 15/14/14 5/10/14 28/20/14
f 28/20/15 5/10/15 14/21/15
f 17/18/16 16/19/16 21/22/16
f 25/23/17 11/17/17 17/18/17
f 22/24/18 17/25/18 21/26/18
f 29/27/19 20/28/19 15/29/19
f 17/18/20 22/30/20 24/31/20
f 25/23/21 17/18/21 24/31/21
f 23/32/22 20/28/22 29/27/22
f 19/33/23 20/28/23 26/34/23
f 26/34/24 27/35/24 22/24/24
f 27/36/25 24/31/25 22/30/25
f 23/32/26 26/34/26 20/28/26
f 29/37/27 14/21/27 30/38/27
f 31/39/28 25/23/28 24/31/28
f 6/1/29 11/17/29 37/17/29 36/1/29
f 26/40/30 29/37/30 32/41/30
f 32/41/31 27/36/31 26/40/31
f 31/39/32 32/41/32 42/41/32 41/39/32
f 1/42/33 3/4/33 2/2/33
f 4/3/34 2/2/34 3/4/34
f 5/10/35 3/4/35 1/42/35
f 8/7/36 9/6/36 4/3/36
f 11/17/37 6/1/37 9/6/37
f 5/10/38 12/15/38 10/8/38
f 17/18/39 9/6/39 16/19/39
f 8/7/40 16/19/40 9/6/40
f 18/11/41 19/33/41 13/16/41
f 19/33/42 16/43/42 13/16/42
f 12/13/43 20/28/43 18/11/43
f 20/28/44 12/13/44 15/29/44
f 18/11/45 20/28/45 19/33/45
f 21/26/46 16/43/46 19/33/46
f 22/24/47 21/26/47 19/33/47
f 26/34/48 22/24/48 19/33/48
f 29/37/49 15/14/49 28/20/49
f 26/34/50 23/32/50 29/27/50
f 29/37/51 28/20/51 14/21/51
f 27/36/52 31/39/52 24/31/52
f 27/36/53 32/41/53 31/39/53
f 32/41/54 29/37/54 30/38/54
f 1/42/55 2/2/55 34/2/55 33/42/55
f 30/38/56 14/21/56 38/21/56 40/38/56
f 14/21/57 5/10/57 35/10/57 38/21/57
f 5/10/58 1/42/58 33/42/58 35/10/58
f 25/23/59 31/39/59 41/39/59 39/23/59
f 11/17/60 25/23/60 39/23/60 37/17/60
f 2/2/61 6/1/61 36/1/61 34/2/61
f 32/41/62 30/38/62 40/38/62 42/41/62
