# Blender 5.0.1
# www.blender.org
o hexTop_LOD0
v -1.813733 -0.271906 -1.045446
v -1.813733 -0.291241 1.049442
v 1.814719 -0.263477 0.901299
v -0.058785 -0.269294 -2.058666
v 1.814719 -0.291241 -0.723565
v 1.734197 0.000000 -0.998956
v 0.000493 0.000000 -1.999911
v 1.734197 0.000000 1.002953
v 0.000493 0.000000 2.003907
v -1.733211 0.000000 1.002953
v -1.733211 0.000000 -0.998956
v 0.454049 -0.247058 1.863901
v -0.676377 -0.209492 -1.702099
v -1.159552 -0.291241 -1.423138
v -1.813733 -0.291241 -0.521724
v -1.813733 -0.291241 0.114293
v -1.813733 -0.329596 0.525720
v -0.453064 -0.291241 1.835025
v 0.750817 -0.216887 1.663686
v 1.361162 -0.341880 1.311303
v 1.814719 -0.291241 0.228279
v 1.814719 -0.291241 -0.395688
v 1.461319 -0.281130 -1.249481
v 0.454049 -0.323616 -1.831029
v 1.814719 -0.172794 0.975371
v 1.814719 -0.214436 -0.884506
v -0.094446 -0.210110 -2.038077
v -1.486642 -0.227721 -1.234292
v -1.813733 -0.277757 0.787581
v 1.814719 -0.237313 -0.559627
v -0.367581 -0.273756 -1.880382
v -1.813733 -0.218448 -0.783585
v -1.813733 -0.242300 0.320007
v 0.602433 -0.358673 1.749356
v 1.814719 -0.241348 0.564789
v -0.791499 -0.260593 -1.635633
v -1.033086 -0.184927 -1.496153
v -1.813733 -0.249519 -0.259863
v -1.813733 -0.220223 0.112533
v -0.679842 -0.179133 1.704095
v -0.226285 -0.176490 1.965955
v -1.360177 -0.285232 1.311303
v 0.227271 -0.230623 -1.961959
v 0.558445 -0.230623 -1.770756
v 1.372734 -0.209380 -1.300626
v 1.638019 -0.209380 -1.147464
v 1.814719 -0.214436 -0.196845
v 1.814719 -0.214436 0.115138
v 1.587941 -0.178182 1.180373
v 1.134384 -0.189970 1.442234
v 0.227271 -0.331893 1.965955
v -1.586955 -0.229594 1.180373
v -1.446283 -0.182667 -1.257594
v 1.811876 -0.073944 -1.043805
v 1.814719 -0.140473 -1.045446
v 0.000493 -0.073944 -2.089607
v 0.000493 -0.140473 -2.092890
v 1.811876 -0.073944 1.047801
v 1.814719 -0.140473 1.049442
v 0.000493 -0.073944 2.093604
v 0.001134 -0.140455 2.097256
v -1.813733 -0.140473 1.049442
v -1.810891 -0.073944 1.047801
v -1.813733 -0.140473 -1.045446
v -1.810891 -0.073944 -1.043805
v 0.906185 -0.073944 -1.566706
v 0.907606 -0.140473 -1.569168
v 1.811876 -0.073944 0.001998
v 1.814719 -0.140473 0.001998
v 0.906185 -0.073944 1.570702
v 0.907717 -0.140469 1.573357
v -0.905199 -0.073944 1.570702
v -0.906620 -0.140473 1.573164
v -1.810891 -0.073944 0.001998
v -1.813733 -0.140473 0.001998
v -0.905199 -0.073944 -1.566706
v -0.906620 -0.140473 -1.569168
v 0.000493 0.000000 0.001998
v 1.814719 -0.218136 0.938335
v -0.076615 -0.239702 -2.048371
v -1.650188 -0.249814 -1.139869
v -1.813733 -0.284499 0.918512
v 1.814719 -0.264277 -0.641596
v 0.867345 0.000000 -1.499434
v 1.734197 0.000000 0.001998
v 0.867345 0.000000 1.503430
v -0.866359 0.000000 1.503430
v -1.733211 0.000000 0.001998
v -0.866359 0.000000 -1.499434
v 0.340660 -0.289475 1.914928
v -0.521979 -0.241624 -1.791240
v -1.813733 -0.254845 -0.652654
v -1.813733 -0.285948 0.422863
v 0.676625 -0.287780 1.706521
v 1.814719 -0.266295 0.396534
v -1.096319 -0.238084 -1.459645
v -1.813733 -0.255732 0.113413
v -0.566453 -0.235187 1.769560
v -1.700344 -0.260417 1.114907
v 0.340660 -0.277120 -1.896494
v 1.417027 -0.245255 -1.275054
v 1.814719 -0.252839 0.171708
v 1.474551 -0.260031 1.245838
v 1.814719 -0.252839 -0.804035
v -1.323097 -0.259481 -1.328715
v -1.813733 -0.303676 0.656651
v 1.814719 -0.264277 -0.477657
v -0.213183 -0.271525 -1.969524
v -1.813733 -0.245177 -0.914515
v -1.813733 -0.266771 0.217150
v 0.602433 -0.231972 1.763793
v 1.814719 -0.252413 0.733044
v -0.733938 -0.235043 -1.668866
v -1.813733 -0.270380 -0.390793
v -0.339675 -0.233866 1.900490
v 0.506247 -0.277120 -1.800892
v 1.549669 -0.245255 -1.198472
v 1.814719 -0.252839 -0.296267
v 1.247773 -0.265925 1.376768
v 0.528241 -0.302866 1.806628
v 1.814719 -0.207071 0.770080
v 1.814719 -0.227892 0.339964
v 1.814719 -0.193615 0.545255
v 1.505376 -0.209380 -1.224045
v -1.813733 -0.231261 0.216270
v -1.813733 -0.233983 -0.521724
v -0.231013 -0.241933 -1.959229
v -0.453064 -0.177811 1.835025
v 1.814719 -0.225874 -0.378236
v 1.814719 -0.225874 -0.722066
v 1.814719 -0.214436 -0.540675
v 1.361162 -0.184076 1.311303
v 0.392858 -0.230623 -1.866358
v -1.473566 -0.257413 1.245838
v -1.302917 -0.236954 -1.340366
v -1.239684 -0.183797 -1.376873
v -1.466462 -0.205194 -1.245943
v 0.906895 -0.107209 -1.567937
v 0.454049 -0.140473 -1.831029
v 0.000493 -0.107209 -2.091249
v 0.453339 -0.073944 -1.828157
v 1.813298 -0.107209 0.001998
v 1.814719 -0.140473 -0.521724
v 1.813298 -0.107209 -1.044625
v 1.811876 -0.073944 -0.520903
v 0.906951 -0.107206 1.572030
v 1.361218 -0.140471 1.311400
v 1.813298 -0.107209 1.048622
v 1.359030 -0.073944 1.309252
v -0.905910 -0.107209 1.571933
v -0.452743 -0.140464 1.835210
v 0.000813 -0.107199 2.095430
v -0.452353 -0.073944 1.832153
v -1.812312 -0.107209 0.001998
v -1.813733 -0.140473 0.525720
v -1.812312 -0.107209 1.048622
v -1.810891 -0.073944 0.524900
v -0.905910 -0.107209 -1.567937
v -1.360177 -0.140473 -1.307307
v -1.812312 -0.107209 -1.044625
v -1.358045 -0.073944 -1.305255
v 1.361162 -0.140473 -1.307307
v 1.359030 -0.073944 -1.305255
v 1.814719 -0.140473 0.525720
v 1.811876 -0.073944 0.524900
v 0.454426 -0.140462 1.835307
v 0.453339 -0.073944 1.832153
v -1.360177 -0.140473 1.311303
v -1.358045 -0.073944 1.309252
v -1.813733 -0.140473 -0.521724
v -1.810891 -0.073944 -0.520903
v -0.453064 -0.140473 -1.831029
v -0.452353 -0.073944 -1.828157
v 1.814719 -0.177454 -0.964976
v 1.814719 -0.177454 -0.097423
v 1.773036 -0.036972 -1.021381
v 1.773036 -0.036972 -0.498479
v 1.320191 -0.036972 -1.282831
v 1.726369 -0.174927 -1.096455
v 1.140170 -0.174927 -1.434897
v 0.113882 -0.185548 -2.027425
v 0.733025 -0.185548 -1.669962
v 0.000493 -0.036972 -2.044759
v 0.453339 -0.036972 -1.783309
v -0.452353 -0.036972 -1.783309
v -0.337942 -0.174983 -1.897494
v -0.791499 -0.174983 -1.635633
v -0.046977 -0.175291 -2.065483
v 1.701330 -0.159327 1.114907
v 1.021051 -0.165219 1.507795
v 1.773036 -0.036972 1.025377
v 1.320191 -0.036972 1.286827
v 1.773036 -0.036972 0.502475
v 1.814719 -0.177454 0.058568
v 1.814719 -0.156633 1.012406
v -0.112576 -0.158472 2.031606
v -0.793231 -0.159803 1.638629
v 0.000493 -0.036972 2.048755
v -0.452353 -0.036972 1.787305
v 0.453339 -0.036972 1.787305
v 0.227592 -0.193756 1.980578
v 0.114202 -0.236174 2.031606
v 0.829267 -0.178678 1.618522
v -1.813733 -0.215857 1.049442
v -1.813733 -0.209115 0.918512
v -1.700344 -0.185033 1.114907
v -1.133399 -0.212853 1.442234
v -1.772051 -0.036972 1.025377
v -1.319205 -0.036972 1.286827
v -1.813733 -0.235034 0.787581
v -1.813733 -0.191386 0.684724
v -1.813733 -0.191386 0.161002
v -1.772051 -0.036972 0.502475
v -1.813733 -0.179461 -0.914515
v -1.813733 -0.206190 -1.045446
v -1.630008 -0.161570 -1.151520
v -0.969853 -0.162700 -1.532660
v -1.772051 -0.036972 -1.021381
v -1.319205 -0.036972 -1.282831
v -1.772051 -0.036972 -0.498479
v -1.813733 -0.194996 -0.128932
v -1.813733 -0.180348 0.057265
v -0.849059 -0.200533 -1.602401
v 0.000493 0.000000 -0.998956
v -0.866359 0.000000 -0.498479
v -0.866359 0.000000 0.502475
v 0.000493 0.000000 1.002953
v 0.867345 0.000000 0.502475
v 0.867345 0.000000 -0.498479
v -1.813733 -0.187228 -0.521724
v -1.640098 -0.205692 -1.145694
v -1.299930 -0.162135 -1.342090
v -1.416871 -0.198943 1.278571
v 0.528429 -0.186217 1.799550
v -0.452903 -0.159138 1.835118
v 1.814719 -0.167044 0.535487
v 1.361190 -0.162273 1.311351
v -0.284478 -0.208458 -1.928362
v 0.423454 -0.185548 -1.848693
v 1.433269 -0.174927 -1.265676
v 1.814719 -0.177454 -0.531200
v -0.452708 -0.107209 -1.829593
v -1.812312 -0.107209 -0.521314
v -1.359111 -0.107209 1.310277
v 0.453882 -0.107203 1.833730
v 1.813298 -0.107209 0.525310
v 1.360096 -0.107209 -1.306281
v -1.359111 -0.107209 -1.306281
v -1.812312 -0.107209 0.525310
v -0.452548 -0.107204 1.833682
v 1.360124 -0.107208 1.310326
v 1.813298 -0.107209 -0.521314
v 0.453694 -0.107209 -1.829593
vn 0.5000 -0.0000 -0.8660
vn 0.5000 -0.0000 0.8660
vn 1.0000 -0.0000 -0.0000
vn -0.5000 -0.0000 0.8660
vn -0.5000 -0.0000 -0.8660
vn -1.0000 -0.0000 -0.0000
vn 0.5633 -0.0935 0.8209
vn 0.4995 0.0427 -0.8652
vn 0.9991 0.0427 -0.0000
vn 0.4996 0.0435 0.8652
vn -0.4995 0.0427 0.8652
vn -0.9991 0.0427 -0.0000
vn -0.4995 0.0427 -0.8652
vn 0.4995 0.0476 0.8650
vn 0.6895 0.7243 -0.0000
vn 0.3447 0.7243 -0.5971
vn -0.3447 0.7243 -0.5971
vn 0.5001 -0.0032 0.8660
vn 0.3447 0.7243 0.5971
vn -0.3447 0.7243 0.5971
vn 0.4380 -0.0956 0.8939
vn 0.4948 0.1994 0.8458
vn -0.6895 0.7243 -0.0000
vn -0.0000 1.0000 -0.0000
vn 0.5033 0.2572 0.8249
vn 0.5269 0.0670 0.8473
vn 0.5047 0.0697 0.8605
vn 0.5001 -0.0017 0.8660
vn 0.5002 -0.0020 0.8659
vn 0.5002 -0.0031 0.8659
vn 0.4994 0.0507 0.8649
vn 0.4996 0.0507 0.8648
vn 0.4997 0.0476 0.8649
vn 0.4995 0.0452 0.8651
vn 0.4996 0.0452 0.8651
vn 0.4997 0.0435 0.8651
vt 0.562500 0.968750
vt 0.608136 0.945932
vt 0.593750 0.953125
vt 0.937500 0.218750
vt 0.875000 0.187500
vt 0.906250 0.203125
vt 1.000000 0.687500
vt 1.000000 0.625000
vt 1.000000 0.656250
vt 0.437500 0.031250
vt 0.375000 0.062500
vt 0.406250 0.046875
vt 0.437500 0.968750
vt 0.462720 0.981360
vt 0.468750 0.984375
vt 0.125000 0.812500
vt 0.093750 0.796875
vt 0.097606 0.798803
vt 0.000000 0.424099
vt 0.000000 0.449832
vt 0.000000 0.448648
vt 0.937500 0.781250
vt 0.906250 0.796875
vt 0.900944 0.799528
vt 1.000000 0.312500
vt 1.000000 0.281250
vt 1.000000 0.375000
vt 1.000000 0.375000
vt 1.000000 0.406250
vt 1.000000 0.343750
vt 0.000000 0.625000
vt 0.000000 0.593750
vt 0.000000 0.656250
vt 1.000000 0.750000
vt 1.000000 0.718750
vt 0.625000 0.062500
vt 0.656250 0.078125
vt 0.687500 0.093750
vt 0.070212 0.785106
vt 0.128856 0.814428
vt 0.625046 0.937167
vt 0.500512 0.999690
vt 0.500000 0.998867
vt 0.624717 0.936509
vt 0.999365 0.624976
vt 0.999297 0.750150
vt 0.998867 0.749433
vt 0.998867 0.624717
vt 0.874787 0.187781
vt 0.999434 0.249925
vt 0.998867 0.250567
vt 0.874150 0.188208
vt 0.375174 0.062994
vt 0.500064 0.000563
vt 0.500000 0.001133
vt 0.375283 0.063491
vt 0.000567 0.375185
vt 0.000567 0.250314
vt 0.001133 0.250567
vt 0.001133 0.375283
vt 0.125339 0.812103
vt 0.000238 0.749553
vt 0.001133 0.749433
vt 0.125850 0.811792
vt 0.874438 0.812397
vt 0.749580 0.874643
vt 0.749434 0.874150
vt 0.874150 0.811792
vt 0.999434 0.374863
vt 0.999434 0.499802
vt 0.998867 0.500000
vt 0.998867 0.375283
vt 0.625102 0.063100
vt 0.750141 0.125637
vt 0.749434 0.125850
vt 0.624717 0.063491
vt 0.125425 0.187870
vt 0.250283 0.125425
vt 0.250566 0.125850
vt 0.125850 0.188208
vt 0.000402 0.624804
vt 0.000567 0.500056
vt 0.001133 0.500000
vt 0.001133 0.624717
vt 0.375476 0.937172
vt 0.250440 0.874654
vt 0.250566 0.874150
vt 0.375283 0.936509
vt 0.999932 0.640742
vt 1.000000 0.531052
vt 1.000000 0.562500
vt 0.967903 0.733952
vt 0.983385 0.616976
vt 0.983385 0.741693
vt 0.887835 0.806265
vt 0.864388 0.817806
vt 0.807057 0.846471
vt 0.616756 0.941878
vt 0.701749 0.899125
vt 0.653771 0.923114
vt 0.500000 0.967903
vt 0.624717 0.921027
vt 0.500000 0.983385
vt 0.501025 1.000512
vt 0.438012 0.969006
vt 0.375669 0.937835
vt 0.450366 0.975183
vt 0.494483 0.997241
vt 0.487941 0.993971
vt 0.875212 0.187427
vt 0.781674 0.140837
vt 0.812500 0.156250
vt 0.967903 0.266048
vt 0.858668 0.195949
vt 0.983385 0.258307
vt 1.000000 0.359097
vt 1.000000 0.374443
vt 1.000000 0.249283
vt 1.000000 0.249642
vt 0.375032 0.062498
vt 0.281250 0.109375
vt 0.312500 0.093750
vt 0.500000 0.032097
vt 0.375283 0.078973
vt 0.500000 0.016615
vt 0.562564 0.031247
vt 0.593750 0.046875
vt 0.656494 0.078229
vt 0.625488 0.062709
vt 0.500127 -0.000007
vt 0.000000 0.250062
vt 0.000000 0.281281
vt 0.000000 0.250031
vt 0.109375 0.195328
vt 0.093750 0.203125
vt 0.125000 0.187500
vt 0.187500 0.156250
vt 0.016615 0.258307
vt 0.000000 0.375000
vt 0.000000 0.343750
vt 0.000000 0.312531
vt 0.000000 0.343781
vt 0.000000 0.250000
vt 0.031250 0.234375
vt 0.000000 0.437500
vt 0.000000 0.468806
vt 0.032096 0.266048
vt 0.016615 0.383024
vt 0.000000 0.687500
vt -0.000328 0.718586
vt 0.000000 0.718750
vt 0.126842 0.813421
vt 0.218907 0.859453
vt 0.187500 0.843750
vt 0.032096 0.733952
vt 0.141331 0.804051
vt 0.016615 0.741693
vt 0.033014 0.766507
vt 0.031250 0.765625
vt 0.000000 0.750000
vt -0.000328 0.749836
vt -0.000164 0.624946
vt -0.000328 0.624892
vt -0.000657 0.749672
vt 0.858668 0.804051
vt 0.733952 0.850928
vt 0.983385 0.383024
vt 0.967903 0.500000
vt 0.624717 0.078973
vt 0.733952 0.149072
vt 0.141331 0.195949
vt 0.266048 0.149072
vt 0.016615 0.616976
vt 0.032096 0.500000
vt 0.000000 0.456533
vt 0.375283 0.921027
vt 0.266048 0.850928
vt 0.250314 0.875157
vt 0.312657 0.906328
vt 0.281407 0.890703
vt 0.500000 0.500000
vt 0.733952 0.616976
vt 0.500000 0.733952
vt 0.733952 0.383024
vt 0.500000 0.266048
vt 0.266048 0.383024
vt 0.266048 0.616976
vt 0.343750 0.921875
vt 0.312500 0.906250
vt 0.375000 0.937500
vt 0.000000 0.487839
vt 0.000000 0.475566
vt 0.000000 0.500112
vt 0.000000 0.562500
vt 0.000000 0.531306
vt 0.034778 0.767389
vt 0.066356 0.783178
vt 0.062500 0.781250
vt 0.124829 0.812414
vt 0.000000 0.375087
vt 0.031250 0.234406
vt 0.062500 0.218750
vt 0.000000 0.406250
vt 0.000000 0.312500
vt 0.125000 0.187531
vt 0.250000 0.125000
vt 0.000000 0.281250
vt 0.750000 0.125000
vt 0.750424 0.125212
vt 0.750849 0.125424
vt 0.531314 0.015622
vt 0.562500 0.031250
vt 0.468814 0.015622
vt 0.375064 0.062497
vt 1.000000 0.343750
vt 1.000000 0.250000
vt 1.000000 0.437500
vt 1.000000 0.468552
vt 1.000000 0.499603
vt 0.968750 0.234017
vt 0.875424 0.187354
vt 0.406250 0.953125
vt 0.531762 0.984631
vt 0.625376 0.937825
vt 0.749727 0.875137
vt 0.874727 0.813001
vt 0.999727 0.750866
vt 0.968613 0.766058
vt 0.999863 0.750433
vt 0.999863 0.625235
vt 0.156250 0.828125
vt 0.718750 0.109375
vt 0.869694 0.815153
vt 0.875000 0.812500
vt 0.000000 0.474382
vt 0.000000 0.473198
vt 0.493970 0.996985
vt 0.500000 1.000000
vt 0.343750 0.078125
vt 1.000000 0.593750
vt 0.843750 0.171875
vt 0.639386 0.930307
vt 0.625000 0.937500
s 0
f 43/1/1 133/2/1 100/3/1
f 49/4/2 132/5/2 103/6/2
f 30/7/3 129/8/3 107/9/3
f 41/10/4 128/11/4 115/12/4
f 31/13/5 127/14/5 108/15/5
f 14/16/5 105/17/5 135/18/5
f 33/19/6 125/20/6 110/21/6
f 46/22/1 117/23/1 124/24/1
f 35/25/3 121/26/3 112/26/3
f 35/25/3 122/27/3 121/26/3
f 21/28/3 102/29/3 95/30/3
f 15/31/6 114/32/6 92/33/6
f 26/34/3 131/9/3 130/35/3
f 26/34/3 130/35/3 104/34/3
f 12/36/7 120/37/7 111/38/7
f 53/39/5 136/40/5 135/18/5
f 253/41/8 140/42/8 56/43/8 141/44/8
f 252/45/9 144/46/9 54/47/9 145/48/9
f 251/49/10 148/50/10 58/51/10 149/52/10
f 250/53/11 152/54/11 60/55/11 153/56/11
f 249/57/12 156/58/12 63/59/12 157/60/12
f 248/61/13 160/62/13 65/63/13 161/64/13
f 247/65/8 138/66/8 66/67/8 163/68/8
f 246/69/9 142/70/9 68/71/9 165/72/9
f 245/73/14 146/74/14 70/75/14 167/76/14
f 244/77/11 150/78/11 72/79/11 169/80/11
f 243/81/12 154/82/12 74/83/12 171/84/12
f 242/85/13 158/86/13 76/87/13 173/88/13
f 241/89/3 175/90/3 47/91/3 131/9/3
f 6/92/15 177/93/15 176/94/15
f 54/47/16 163/68/16 176/94/16
f 240/95/1 124/24/1 45/96/1 180/97/1
f 239/98/1 182/99/1 44/100/1 133/2/1
f 7/101/16 184/102/16 183/103/16
f 56/43/17 173/88/17 183/103/17
f 57/104/5 186/105/5 172/106/5
f 238/107/5 188/108/5 27/109/5 127/14/5
f 237/110/18 190/111/18 50/112/18 132/5/18
f 8/113/19 192/114/19 191/115/19
f 58/51/15 165/72/15 191/115/15
f 236/116/3 164/117/3 59/118/3 195/119/3
f 235/120/4 197/121/4 40/122/4 128/11/4
f 9/123/20 199/124/20 198/125/20
f 60/55/19 167/76/19 198/125/19
f 12/36/21 201/126/21 90/127/21
f 234/128/22 166/129/22 61/130/22 201/126/22
f 62/131/6 205/132/6 204/133/6
f 233/134/4 134/135/4 42/136/4 207/137/4
f 63/59/20 169/80/20 208/138/20
f 17/139/6 106/140/6 210/141/6
f 62/131/6 211/142/6 210/141/6
f 2/143/4 99/144/4 204/133/4
f 33/145/6 211/142/6 212/146/6
f 10/147/23 213/148/23 208/138/23
f 32/149/6 214/150/6 109/151/6
f 232/152/5 217/153/5 37/154/5 136/40/5
f 11/155/17 219/156/17 218/157/17
f 65/63/23 171/84/23 218/157/23
f 231/158/5 81/159/5 1/160/5 215/161/5
f 230/162/6 170/163/6 64/164/6 214/150/6
f 6/92/16 178/165/16 84/166/16
f 8/113/15 193/167/15 85/168/15
f 9/123/19 200/169/19 86/170/19
f 10/147/20 209/171/20 87/172/20
f 11/155/23 220/173/23 88/174/23
f 33/145/6 212/146/6 125/175/6
f 7/101/17 185/176/17 89/177/17
f 77/178/5 187/179/5 223/180/5
f 78/181/24 229/182/24 224/183/24
f 78/181/24 228/184/24 229/182/24
f 78/181/24 227/185/24 228/184/24
f 78/181/24 226/186/24 227/185/24
f 78/181/24 225/187/24 226/186/24
f 78/181/24 224/183/24 225/187/24
f 225/187/24 89/177/24 11/155/24
f 225/187/24 224/183/24 89/177/24
f 224/183/24 7/101/24 89/177/24
f 226/186/24 88/174/24 10/147/24
f 226/186/24 225/187/24 88/174/24
f 225/187/24 11/155/24 88/174/24
f 227/185/24 87/172/24 9/123/24
f 227/185/24 226/186/24 87/172/24
f 226/186/24 10/147/24 87/172/24
f 228/184/24 86/170/24 8/113/24
f 228/184/24 227/185/24 86/170/24
f 227/185/24 9/123/24 86/170/24
f 229/182/24 85/168/24 6/92/24
f 229/182/24 228/184/24 85/168/24
f 228/184/24 8/113/24 85/168/24
f 224/183/24 84/166/24 7/101/24
f 224/183/24 229/182/24 84/166/24
f 229/182/24 6/92/24 84/166/24
f 223/180/5 113/188/5 36/189/5
f 223/180/5 187/179/5 113/188/5
f 187/179/5 13/190/5 113/188/5
f 89/177/17 219/156/17 11/155/17
f 89/177/17 185/176/17 219/156/17
f 185/176/17 76/87/17 219/156/17
f 125/175/6 222/191/6 39/192/6
f 125/175/6 212/146/6 222/191/6
f 212/146/6 75/193/6 222/191/6
f 88/174/23 213/148/23 10/147/23
f 88/174/23 220/173/23 213/148/23
f 220/173/23 74/83/23 213/148/23
f 87/172/20 199/124/20 9/123/20
f 87/172/20 209/171/20 199/124/20
f 209/171/20 72/79/20 199/124/20
f 86/170/19 192/114/19 8/113/19
f 86/170/19 200/169/19 192/114/19
f 200/169/19 70/75/19 192/114/19
f 85/168/15 177/93/15 6/92/15
f 85/168/15 193/167/15 177/93/15
f 193/167/15 68/71/15 177/93/15
f 84/166/16 184/102/16 7/101/16
f 84/166/16 178/165/16 184/102/16
f 178/165/16 66/67/16 184/102/16
f 126/31/6 230/162/6 214/150/6 32/149/6
f 38/194/6 221/195/6 230/162/6 126/31/6
f 221/195/6 75/193/6 170/163/6 230/162/6
f 216/196/5 231/158/5 215/161/5 64/164/5
f 53/39/5 137/197/5 231/158/5 216/196/5
f 137/197/5 28/198/5 81/159/5 231/158/5
f 218/157/23 220/173/23 11/155/23
f 218/157/23 171/84/23 220/173/23
f 171/84/23 74/83/23 220/173/23
f 218/157/17 161/64/17 65/63/17
f 218/157/17 219/156/17 161/64/17
f 219/156/17 76/87/17 161/64/17
f 216/196/5 232/152/5 136/40/5 53/39/5
f 64/164/5 159/199/5 232/152/5 216/196/5
f 159/199/5 77/178/5 217/153/5 232/152/5
f 109/151/6 215/161/6 1/160/6
f 109/151/6 214/150/6 215/161/6
f 214/150/6 64/164/6 215/161/6
f 208/138/23 157/60/23 63/59/23
f 208/138/23 213/148/23 157/60/23
f 213/148/23 74/83/23 157/60/23
f 212/146/6 155/200/6 75/193/6
f 212/146/6 211/142/6 155/200/6
f 211/142/6 62/131/6 155/200/6
f 204/133/4 206/201/4 62/131/4
f 204/133/4 99/144/4 206/201/4
f 99/144/4 52/202/4 206/201/4
f 210/141/6 93/203/6 17/139/6
f 210/141/6 211/142/6 93/203/6
f 211/142/6 33/145/6 93/203/6
f 210/141/6 205/132/6 62/131/6
f 210/141/6 106/140/6 205/132/6
f 106/140/6 29/204/6 205/132/6
f 208/138/20 209/171/20 10/147/20
f 208/138/20 169/80/20 209/171/20
f 169/80/20 72/79/20 209/171/20
f 168/205/4 233/134/4 207/137/4 73/206/4
f 62/131/4 206/201/4 233/134/4 168/205/4
f 206/201/4 52/202/4 134/135/4 233/134/4
f 204/133/6 82/207/6 2/143/6
f 204/133/6 205/132/6 82/207/6
f 205/132/6 29/204/6 82/207/6
f 111/38/25 234/128/25 201/126/25 12/36/25
f 19/208/26 203/209/26 234/128/26 111/38/26
f 203/209/27 71/210/27 166/129/27 234/128/27
f 90/127/21 202/211/21 51/212/21
f 90/127/21 201/126/21 202/211/21
f 201/126/21 61/130/21 202/211/21
f 198/125/19 200/169/19 9/123/19
f 198/125/19 167/76/19 200/169/19
f 167/76/19 70/75/19 200/169/19
f 198/125/20 153/56/20 60/55/20
f 198/125/20 199/124/20 153/56/20
f 199/124/20 72/79/20 153/56/20
f 196/213/4 235/120/4 128/11/4 41/10/4
f 61/130/4 151/214/4 235/120/4 196/213/4
f 151/214/4 73/206/4 197/121/4 235/120/4
f 123/215/3 236/116/3 195/119/3 25/216/3
f 48/217/3 194/218/3 236/116/3 123/215/3
f 194/218/3 69/219/3 164/117/3 236/116/3
f 191/115/15 193/167/15 8/113/15
f 191/115/15 165/72/15 193/167/15
f 165/72/15 68/71/15 193/167/15
f 191/115/19 149/52/19 58/51/19
f 191/115/19 192/114/19 149/52/19
f 192/114/19 70/75/19 149/52/19
f 189/220/28 237/110/28 132/5/28 49/4/28
f 59/118/29 147/221/29 237/110/29 189/220/29
f 147/221/30 71/210/30 190/111/30 237/110/30
f 91/222/5 238/107/5 127/14/5 31/13/5
f 13/190/5 186/105/5 238/107/5 91/222/5
f 186/105/5 57/104/5 188/108/5 238/107/5
f 172/106/5 187/179/5 77/178/5
f 172/106/5 186/105/5 187/179/5
f 186/105/5 13/190/5 187/179/5
f 183/103/17 185/176/17 7/101/17
f 183/103/17 173/88/17 185/176/17
f 173/88/17 76/87/17 185/176/17
f 183/103/16 141/44/16 56/43/16
f 183/103/16 184/102/16 141/44/16
f 184/102/16 66/67/16 141/44/16
f 181/223/1 239/98/1 133/2/1 43/1/1
f 57/104/1 139/224/1 239/98/1 181/223/1
f 139/224/1 67/225/1 182/99/1 239/98/1
f 162/226/1 240/95/1 180/97/1 67/225/1
f 55/227/1 179/228/1 240/95/1 162/226/1
f 179/228/1 46/22/1 124/24/1 240/95/1
f 176/94/16 178/165/16 6/92/16
f 176/94/16 163/68/16 178/165/16
f 163/68/16 66/67/16 178/165/16
f 176/94/15 145/48/15 54/47/15
f 176/94/15 177/93/15 145/48/15
f 177/93/15 68/71/15 145/48/15
f 174/229/3 241/89/3 131/9/3 26/34/3
f 55/227/3 143/230/3 241/89/3 174/229/3
f 143/230/3 69/219/3 175/90/3 241/89/3
f 140/42/13 242/85/13 173/88/13 56/43/13
f 57/104/13 172/106/13 242/85/13 140/42/13
f 172/106/13 77/178/13 158/86/13 242/85/13
f 160/62/12 243/81/12 171/84/12 65/63/12
f 64/164/12 170/163/12 243/81/12 160/62/12
f 170/163/12 75/193/12 154/82/12 243/81/12
f 156/58/11 244/77/11 169/80/11 63/59/11
f 62/131/11 168/205/11 244/77/11 156/58/11
f 168/205/11 73/206/11 150/78/11 244/77/11
f 152/54/31 245/73/31 167/76/31 60/55/31
f 61/130/32 166/129/32 245/73/32 152/54/32
f 166/129/33 71/210/33 146/74/33 245/73/33
f 148/50/9 246/69/9 165/72/9 58/51/9
f 59/118/9 164/117/9 246/69/9 148/50/9
f 164/117/9 69/219/9 142/70/9 246/69/9
f 144/46/8 247/65/8 163/68/8 54/47/8
f 55/227/8 162/226/8 247/65/8 144/46/8
f 162/226/8 67/225/8 138/66/8 247/65/8
f 158/86/13 248/61/13 161/64/13 76/87/13
f 77/178/13 159/199/13 248/61/13 158/86/13
f 159/199/13 64/164/13 160/62/13 248/61/13
f 154/82/12 249/57/12 157/60/12 74/83/12
f 75/193/12 155/200/12 249/57/12 154/82/12
f 155/200/12 62/131/12 156/58/12 249/57/12
f 150/78/11 250/53/11 153/56/11 72/79/11
f 73/206/11 151/214/11 250/53/11 150/78/11
f 151/214/11 61/130/11 152/54/11 250/53/11
f 146/74/34 251/49/34 149/52/34 70/75/34
f 71/210/35 147/221/35 251/49/35 146/74/35
f 147/221/36 59/118/36 148/50/36 251/49/36
f 142/70/9 252/45/9 145/48/9 68/71/9
f 69/219/9 143/230/9 252/45/9 142/70/9
f 143/230/9 55/227/9 144/46/9 252/45/9
f 138/66/8 253/41/8 141/44/8 66/67/8
f 67/225/8 139/224/8 253/41/8 138/66/8
f 139/224/8 57/104/8 140/42/8 253/41/8
f 135/18/5 96/231/5 14/16/5
f 135/18/5 136/40/5 96/231/5
f 136/40/5 37/154/5 96/231/5
f 111/38/7 94/232/7 19/208/7
f 111/38/7 120/37/7 94/232/7
f 120/37/7 34/38/7 94/232/7
f 104/34/3 83/35/3 5/34/3
f 104/34/3 130/35/3 83/35/3
f 130/35/3 30/7/3 83/35/3
f 130/35/3 129/8/3 30/7/3
f 130/35/3 131/9/3 129/8/3
f 131/9/3 47/91/3 129/8/3
f 92/33/6 126/31/6 32/149/6
f 92/33/6 114/32/6 126/31/6
f 114/32/6 38/194/6 126/31/6
f 95/30/3 122/27/3 35/25/3
f 95/30/3 102/29/3 122/27/3
f 102/29/3 48/217/3 122/27/3
f 121/26/3 123/215/3 25/216/3
f 121/26/3 122/27/3 123/215/3
f 122/27/3 48/217/3 123/215/3
f 112/26/3 79/216/3 3/216/3
f 112/26/3 121/26/3 79/216/3
f 121/26/3 25/216/3 79/216/3
f 124/24/1 101/233/1 45/96/1
f 124/24/1 117/23/1 101/233/1
f 117/23/1 23/234/1 101/233/1
f 110/21/6 97/235/6 16/236/6
f 110/21/6 125/20/6 97/235/6
f 125/20/6 39/192/6 97/235/6
f 135/18/5 137/197/5 53/39/5
f 135/18/5 105/17/5 137/197/5
f 105/17/5 28/198/5 137/197/5
f 108/15/5 80/237/5 4/238/5
f 108/15/5 127/14/5 80/237/5
f 127/14/5 27/109/5 80/237/5
f 115/12/4 98/239/4 18/11/4
f 115/12/4 128/11/4 98/239/4
f 128/11/4 40/122/4 98/239/4
f 107/9/3 118/240/3 22/8/3
f 107/9/3 129/8/3 118/240/3
f 129/8/3 47/91/3 118/240/3
f 103/6/2 119/241/2 20/5/2
f 103/6/2 132/5/2 119/241/2
f 132/5/2 50/112/2 119/241/2
f 100/3/1 116/242/1 24/243/1
f 100/3/1 133/2/1 116/242/1
f 133/2/1 44/100/1 116/242/1
