# Blender 5.0.1
# www.blender.org
o hexTop_LOD2
v 1.814719 -0.076650 -1.045446
v 0.000493 -0.076650 -2.092890
v 1.814719 -0.076650 1.049442
v 0.000493 -0.076650 2.096886
v -1.813733 -0.076650 1.049442
v -1.813733 -0.076650 -1.045446
v 1.734197 0.000000 -0.998956
v 0.000493 0.000000 -1.999911
v 1.734197 0.000000 1.002953
v 0.000493 0.000000 2.003907
v -1.733211 0.000000 1.002953
v -1.733211 0.000000 -0.998956
v 0.000493 0.000000 0.001998
v -1.813733 -0.279263 -1.045446
v -1.813733 -0.279263 1.049442
v 0.000493 -0.279263 2.096886
v 1.814719 -0.279263 1.049442
v 0.000493 -0.279263 -2.092890
v 1.814719 -0.279263 -1.045446
vn -0.5000 -0.0000 0.8660
vn 0.5000 -0.0000 0.8660
vn -0.3447 0.7243 0.5971
vn 0.5000 -0.0000 -0.8660
vn -0.5000 -0.0000 -0.8660
vn -0.0000 1.0000 -0.0000
vn -0.3447 0.7243 -0.5971
vn -1.0000 -0.0000 -0.0000
vn -0.6895 0.7243 -0.0000
vn 0.3447 0.7243 -0.5971
vn 0.3447 0.7243 0.5971
vn 0.6895 0.7243 -0.0000
vn 1.0000 -0.0000 -0.0000
vt 0.500000 0.000000
vt 0.000000 0.250000
vt 1.000000 0.250000
vt 0.500000 0.032097
vt 0.032096 0.266048
vt 0.500000 1.000000
vt 1.000000 0.750000
vt 0.000000 0.750000
vt 0.500000 0.500000
vt 0.967903 0.733952
vt 0.500000 0.967903
vt 0.967903 0.266048
vt 0.032096 0.733952
s 0
f 4/1/1 5/2/1 15/2/1 16/1/1
f 3/3/2 4/1/2 16/1/2 17/3/2
f 10/4/3 11/5/3 5/2/3 4/1/3
f 2/6/4 1/7/4 19/7/4 18/6/4
f 6/8/5 2/6/5 18/6/5 14/8/5
f 13/9/6 7/10/6 8/11/6
f 13/9/6 9/12/6 7/10/6
f 13/9/6 10/4/6 9/12/6
f 13/9/6 11/5/6 10/4/6
f 13/9/6 12/13/6 11/5/6
f 13/9/6 8/11/6 12/13/6
f 6/8/7 12/13/7 8/11/7 2/6/7
f 5/2/8 6/8/8 14/8/8 15/2/8
f 5/2/9 11/5/9 12/13/9 6/8/9
f 2/6/10 8/11/10 7/10/10 1/7/10
f 9/12/11 10/4/11 4/1/11 3/3/11
f 1/7/12 7/10/12 9/12/12 3/3/12
f 1/7/13 3/3/13 17/3/13 19/7/13
