# Blender 5.0.1
# www.blender.org
o path_2_c
v 0.000000 0.137596 -1.873093
v 0.000000 -0.019466 -2.125188
v 0.000000 0.121070 -2.125188
v 0.218321 -0.019466 -1.999141
v 0.218321 0.121070 -1.999141
v 0.218321 -0.019466 -1.747045
v 0.218321 0.121070 -1.747045
v 0.000000 -0.019466 -1.620997
v 0.000000 0.121070 -1.620997
v -0.218321 -0.019466 -1.747045
v -0.218321 0.121070 -1.747045
v -0.218321 -0.019466 -1.999141
v -0.218321 0.121070 -1.999141
v -0.000000 0.137596 1.873093
v -0.000000 -0.019466 2.125188
v -0.000000 0.121070 2.125188
v -0.218321 -0.019466 1.999141
v -0.218321 0.121070 1.999141
v -0.218321 -0.019466 1.747045
v -0.218321 0.121070 1.747045
v -0.000000 -0.019466 1.620997
v -0.000000 0.121070 1.620997
v 0.218321 -0.019466 1.747045
v 0.218321 0.121070 1.747045
v 0.218321 -0.019466 1.999141
v 0.218321 0.121070 1.999141
vn 0.0377 0.9971 -0.0654
vn 0.5000 -0.0000 -0.8660
vn 0.0755 0.9971 -0.0000
vn 1.0000 -0.0000 -0.0000
vn 0.0377 0.9971 0.0654
vn 0.5000 -0.0000 0.8660
vn -0.0377 0.9971 0.0654
vn -0.5000 -0.0000 0.8660
vn -0.0755 0.9971 -0.0000
vn -1.0000 -0.0000 -0.0000
vn -0.0377 0.9971 -0.0654
vn -0.5000 -0.0000 -0.8660
vt 0.306749 0.582452
vt 0.309598 0.584096
vt 0.306749 0.585742
vt 0.309598 0.580807
vt 0.306749 0.579162
vt 0.303899 0.580807
vt 0.303899 0.584096
vt 0.306749 0.533562
vt 0.303899 0.531917
vt 0.306749 0.530272
vt 0.303899 0.535207
vt 0.306749 0.536852
vt 0.309598 0.535207
vt 0.309598 0.531917
s 0
f 1/1/1 5/2/1 3/3/1
f 2/3/2 3/3/2 5/2/2 4/2/2
f 1/1/3 7/4/3 5/2/3
f 4/2/4 5/2/4 7/4/4 6/4/4
f 1/1/5 9/5/5 7/4/5
f 6/4/6 7/4/6 9/5/6 8/5/6
f 1/1/7 11/6/7 9/5/7
f 8/5/8 9/5/8 11/6/8 10/6/8
f 1/1/9 13/7/9 11/6/9
f 10/6/10 11/6/10 13/7/10 12/7/10
f 1/1/11 3/3/11 13/7/11
f 12/7/12 13/7/12 3/3/12 2/3/12
f 14/8/7 18/9/7 16/10/7
f 15/10/8 16/10/8 18/9/8 17/9/8
f 14/8/9 20/11/9 18/9/9
f 17/9/10 18/9/10 20/11/10 19/11/10
f 14/8/11 22/12/11 20/11/11
f 19/11/12 20/11/12 22/12/12 21/12/12
f 14/8/1 24/13/1 22/12/1
f 21/12/2 22/12/2 24/13/2 23/13/2
f 14/8/3 26/14/3 24/13/3
f 23/13/4 24/13/4 26/14/4 25/14/4
f 14/8/5 16/10/5 26/14/5
f 25/14/6 26/14/6 16/10/6 15/10/6
