# Blender 5.0.1
# www.blender.org
o path_4_a
v 0.000000 0.137596 -1.873093
v 0.000000 -0.019466 -2.125188
v 0.000000 0.121070 -2.125188
v 0.218321 -0.019466 -1.999141
v 0.218321 0.121070 -1.999141
v 0.218321 -0.019466 -1.747045
v 0.218321 0.121070 -1.747045
v 0.000000 -0.019466 -1.620997
v 0.000000 0.121070 -1.620997
v -0.218321 -0.019466 -1.747045
v -0.218321 0.121070 -1.747045
v -0.218321 -0.019466 -1.999141
v -0.218321 0.121070 -1.999141
v 1.622146 0.137596 -0.936546
v 1.840467 -0.019466 -1.062594
v 1.840467 0.121070 -1.062594
v 1.840467 -0.019466 -0.810499
v 1.840467 0.121070 -0.810499
v 1.622146 -0.019466 -0.684451
v 1.622146 0.121070 -0.684451
v 1.403825 -0.019466 -0.810499
v 1.403825 0.121070 -0.810499
v 1.403825 -0.019466 -1.062594
v 1.403825 0.121070 -1.062594
v 1.622146 -0.019466 -1.188642
v 1.622146 0.121070 -1.188642
v 1.622146 0.137596 0.936547
v 1.840467 -0.019466 1.062595
v 1.840467 0.121070 1.062595
v 1.622146 -0.019466 1.188642
v 1.622146 0.121070 1.188642
v 1.403825 -0.019466 1.062594
v 1.403825 0.121070 1.062594
v 1.403825 -0.019466 0.810499
v 1.403825 0.121070 0.810499
v 1.622146 -0.019466 0.684451
v 1.622146 0.121070 0.684451
v 1.840467 -0.019466 0.810499
v 1.840467 0.121070 0.810499
v -0.000000 0.137596 1.873093
v -0.000000 -0.019466 2.125188
v -0.000000 0.121070 2.125188
v -0.218321 -0.019466 1.999141
v -0.218321 0.121070 1.999141
v -0.218321 -0.019466 1.747045
v -0.218321 0.121070 1.747045
v -0.000000 -0.019466 1.620997
v -0.000000 0.121070 1.620997
v 0.218321 -0.019466 1.747045
v 0.218321 0.121070 1.747045
v 0.218321 -0.019466 1.999141
v 0.218321 0.121070 1.999141
v 0.097771 -0.019466 -1.675657
v 0.097771 0.103218 -1.675657
v 0.220352 -0.019466 -1.870446
v 0.220352 0.114853 -1.870446
v 1.402580 -0.019466 -0.899853
v 1.402580 0.103218 -0.899853
v 1.508241 -0.019466 -1.128483
v 1.508241 0.114853 -1.128483
v 1.500047 -0.019466 -0.753157
v 1.500047 0.103218 -0.753157
v 1.730030 -0.019466 -0.744393
v 1.730030 0.114853 -0.744393
v 1.480586 -0.019466 0.764744
v 1.480586 0.103218 0.764744
v 1.731415 -0.019466 0.741934
v 1.731415 0.114853 0.741934
v 1.402276 -0.019466 0.922500
v 1.402276 0.103218 0.922500
v 1.509678 -0.019466 1.126053
v 1.509678 0.114853 1.126053
v 0.078005 -0.019466 1.664597
v 0.078005 0.103218 1.664597
v 0.223174 -0.019466 1.870417
v 0.223174 0.114853 1.870417
vn 0.0377 0.9971 -0.0654
vn 0.5000 -0.0000 -0.8660
vn 0.0755 0.9971 -0.0000
vn 1.0000 -0.0000 -0.0000
vn 0.0377 0.9971 0.0654
vn 0.5000 -0.0000 0.8660
vn -0.0377 0.9971 0.0654
vn -0.5000 -0.0000 0.8660
vn -0.0755 0.9971 -0.0000
vn -1.0000 -0.0000 -0.0000
vn -0.0377 0.9971 -0.0654
vn -0.5000 -0.0000 -0.8660
vn -0.8464 -0.0000 -0.5326
vn 0.4992 -0.0000 -0.8665
vn 0.9077 -0.0000 0.4195
vn -0.5111 -0.0000 0.8595
vn -0.0244 0.9988 0.0417
vn 0.0381 -0.0000 -0.9993
vn 1.0000 -0.0000 -0.0009
vn 0.0906 -0.0000 0.9959
vn -0.9999 -0.0000 -0.0128
vn -0.0484 0.9988 -0.0003
vn 0.8844 -0.0000 -0.4667
vn 0.5008 -0.0000 0.8656
vn -0.8172 -0.0000 0.5764
vn -0.4889 -0.0000 -0.8724
vn -0.0239 0.9988 -0.0420
vt 0.306749 0.582452
vt 0.309598 0.584096
vt 0.306749 0.585742
vt 0.309598 0.580807
vt 0.306749 0.579162
vt 0.303899 0.580807
vt 0.303899 0.584096
vt 0.327918 0.570229
vt 0.330768 0.568584
vt 0.330768 0.571874
vt 0.327918 0.566939
vt 0.325069 0.568584
vt 0.325069 0.571874
vt 0.327918 0.573519
vt 0.327918 0.545784
vt 0.327918 0.542494
vt 0.330768 0.544139
vt 0.325069 0.544139
vt 0.325069 0.547429
vt 0.327918 0.549074
vt 0.330768 0.547429
vt 0.306749 0.533562
vt 0.303899 0.531917
vt 0.306749 0.530272
vt 0.303899 0.535207
vt 0.306749 0.536852
vt 0.309598 0.535207
vt 0.309598 0.531917
vt 0.308024 0.579875
vt 0.309624 0.582417
vt 0.326432 0.572734
vt 0.325053 0.569750
vt 0.326325 0.567836
vt 0.329326 0.567721
vt 0.329344 0.548324
vt 0.326071 0.548026
vt 0.325049 0.545968
vt 0.326451 0.543311
vt 0.309661 0.533597
vt 0.307767 0.536283
s 0
f 1/1/1 5/2/1 3/3/1
f 2/3/2 3/3/2 5/2/2 4/2/2
f 1/1/3 7/4/3 5/2/3
f 4/2/4 5/2/4 7/4/4 6/4/4
f 1/1/5 9/5/5 7/4/5
f 6/4/6 7/4/6 9/5/6 8/5/6
f 1/1/7 11/6/7 9/5/7
f 8/5/8 9/5/8 11/6/8 10/6/8
f 1/1/9 13/7/9 11/6/9
f 10/6/10 11/6/10 13/7/10 12/7/10
f 1/1/11 3/3/11 13/7/11
f 12/7/12 13/7/12 3/3/12 2/3/12
f 14/8/3 18/9/3 16/10/3
f 15/10/4 16/10/4 18/9/4 17/9/4
f 14/8/5 20/11/5 18/9/5
f 17/9/6 18/9/6 20/11/6 19/11/6
f 14/8/7 22/12/7 20/11/7
f 19/11/8 20/11/8 22/12/8 21/12/8
f 14/8/9 24/13/9 22/12/9
f 21/12/10 22/12/10 24/13/10 23/13/10
f 14/8/11 26/14/11 24/13/11
f 23/13/12 24/13/12 26/14/12 25/14/12
f 14/8/1 16/10/1 26/14/1
f 25/14/2 26/14/2 16/10/2 15/10/2
f 27/15/5 31/16/5 29/17/5
f 28/17/6 29/17/6 31/16/6 30/16/6
f 27/15/7 33/18/7 31/16/7
f 30/16/8 31/16/8 33/18/8 32/18/8
f 27/15/9 35/19/9 33/18/9
f 32/18/10 33/18/10 35/19/10 34/19/10
f 27/15/11 37/20/11 35/19/11
f 34/19/12 35/19/12 37/20/12 36/20/12
f 27/15/1 39/21/1 37/20/1
f 36/20/2 37/20/2 39/21/2 38/21/2
f 27/15/3 29/17/3 39/21/3
f 38/21/4 39/21/4 29/17/4 28/17/4
f 40/22/7 44/23/7 42/24/7
f 41/24/8 42/24/8 44/23/8 43/23/8
f 40/22/9 46/25/9 44/23/9
f 43/23/10 44/23/10 46/25/10 45/25/10
f 40/22/11 48/26/11 46/25/11
f 45/25/12 46/25/12 48/26/12 47/26/12
f 40/22/1 50/27/1 48/26/1
f 47/26/2 48/26/2 50/27/2 49/27/2
f 40/22/3 52/28/3 50/27/3
f 49/27/4 50/27/4 52/28/4 51/28/4
f 40/22/5 42/24/5 52/28/5
f 51/28/6 52/28/6 42/24/6 41/24/6
f 53/29/13 54/29/13 56/30/13 55/30/13
f 55/30/14 56/30/14 60/31/14 59/31/14
f 59/31/15 60/31/15 58/32/15 57/32/15
f 57/32/16 58/32/16 54/29/16 53/29/16
f 60/31/17 56/30/17 54/29/17 58/32/17
f 61/33/18 62/33/18 64/34/18 63/34/18
f 63/34/19 64/34/19 68/35/19 67/35/19
f 67/35/20 68/35/20 66/36/20 65/36/20
f 65/36/21 66/36/21 62/33/21 61/33/21
f 68/35/22 64/34/22 62/33/22 66/36/22
f 69/37/23 70/37/23 72/38/23 71/38/23
f 71/38/24 72/38/24 76/39/24 75/39/24
f 75/39/25 76/39/25 74/40/25 73/40/25
f 73/40/26 74/40/26 70/37/26 69/37/26
f 76/39/27 72/38/27 70/37/27 74/40/27
