# Blender 5.0.1
# www.blender.org
o river_4_c
v -0.898836 0.000000 -0.350010
v 0.065694 0.000000 0.780453
v 0.000000 0.000000 -0.666667
v 0.577350 0.000000 0.333333
v 0.261078 0.000000 0.495997
v -0.325008 0.000000 -0.416944
v 1.732051 0.000000 0.333333
v 1.732051 0.000000 -0.333333
v -1.154701 0.000000 1.333333
v -0.577350 0.000000 1.666667
v -1.732051 0.000000 -0.333333
v -1.732051 0.000000 0.333333
v 1.154701 0.000000 -1.333333
v 0.577350 0.000000 -1.666667
v -0.786497 0.000000 0.871921
v -1.013124 0.000000 0.318805
v -0.704764 0.000000 0.533324
v 0.799663 0.000000 -0.761522
v 1.015079 0.000000 -0.286219
v 0.785772 0.000000 -0.436809
v 1.732051 0.000000 -0.111111
v 1.732051 0.000000 0.111111
v -0.769801 0.000000 1.555556
v -0.962251 0.000000 1.444444
v -1.732051 0.000000 0.111111
v -1.732051 0.000000 -0.111111
v 0.769801 0.000000 -1.555556
v 0.962251 0.000000 -1.444444
v -0.405742 0.000000 0.313859
v -0.178663 0.000000 -0.212128
v 0.146941 0.000000 0.295061
v 0.422333 0.000000 -0.225104
v 0.869170 0.000000 -0.079702
v 0.723260 0.000000 0.126816
v 0.266555 0.000000 -0.698285
v 0.533109 0.000000 -0.729904
v -0.975028 0.000000 0.095867
v -0.936932 0.000000 -0.127072
v -0.218369 0.000000 0.810942
v -0.502433 0.000000 0.841431
v -0.325008 0.100000 -0.416944
v -0.898836 0.100000 -0.350010
v 0.261078 0.100000 0.495997
v 0.065694 0.100000 0.780453
v 0.000000 0.100000 -0.666667
v 0.577350 0.100000 -1.666667
v 1.732051 0.100000 0.333333
v 0.577350 0.100000 0.333333
v -1.732051 0.100000 -0.333333
v -0.577350 0.100000 1.666667
v 1.732051 0.100000 0.111111
v -0.962251 0.100000 1.444444
v -1.154701 0.100000 1.333333
v -1.732051 0.100000 -0.111111
v 0.962251 0.100000 -1.444444
v 1.154701 0.100000 -1.333333
v -0.704764 0.100000 0.533324
v -0.786497 0.100000 0.871921
v -1.013124 0.100000 0.318805
v 0.785772 0.100000 -0.436809
v 0.799663 0.100000 -0.761522
v -0.178663 0.100000 -0.212128
v 1.015079 0.100000 -0.286219
v -1.732051 0.100000 0.333333
v 0.723260 0.100000 0.126816
v 0.533109 0.100000 -0.729904
v -0.936932 0.100000 -0.127072
v -0.502433 0.100000 0.841431
v 1.732051 0.100000 -0.333333
v 1.732051 0.100000 -0.111111
v -0.769801 0.100000 1.555556
v -1.732051 0.100000 0.111111
v 0.769801 0.100000 -1.555556
v -0.405742 0.100000 0.313859
v 0.146941 0.100000 0.295061
v 0.422333 0.100000 -0.225104
v 0.869170 0.100000 -0.079702
v 0.266555 0.100000 -0.698285
v -0.975028 0.100000 0.095867
v -0.218369 0.100000 0.810942
vn -0.0000 -1.0000 -0.0000
vn -0.0000 1.0000 -0.0000
vn -0.0656 -0.0000 -0.9978
vn 0.8496 -0.0000 0.5275
vn -0.9721 -0.0000 -0.2346
vn -0.5711 -0.0000 0.8209
vn -0.1159 -0.0000 -0.9933
vn 0.9991 -0.0000 0.0427
vn 0.8243 -0.0000 0.5662
vn -0.8660 -0.0000 -0.5000
vn 0.5489 -0.0000 -0.8359
vn -0.0000 -0.0000 1.0000
vn 0.0202 -0.0000 0.9998
vn 0.4574 -0.0000 0.8893
vn -0.0200 -0.0000 -0.9998
vn -0.6093 -0.0000 -0.7930
vn -0.7816 -0.0000 -0.6237
vn 0.8094 -0.0000 0.5873
vt 0.883779 0.387157
vt 0.889537 0.414424
vt 0.903392 0.416132
vt 0.902670 0.398592
vt 0.899420 0.368147
vt 0.951854 0.368996
vt 0.951854 0.356992
vt 0.891836 0.356992
vt 0.835713 0.329547
vt 0.811813 0.296974
vt 0.801810 0.302976
vt 0.820948 0.327900
vt 0.813129 0.381861
vt 0.771801 0.380999
vt 0.771801 0.393003
vt 0.815109 0.393904
vt 0.869465 0.359059
vt 0.875398 0.348206
vt 0.865242 0.332840
vt 0.850477 0.331194
vt 0.852541 0.386456
vt 0.844935 0.397519
vt 0.911842 0.453021
vt 0.921845 0.447019
vt 0.861828 0.411008
vt 0.891836 0.465024
vt 0.901839 0.459022
vt 0.875682 0.412716
vt 0.914588 0.390458
vt 0.907004 0.379303
vt 0.825196 0.346189
vt 0.809169 0.357777
vt 0.811149 0.369819
vt 0.840738 0.358044
vt 0.771801 0.356992
vt 0.771801 0.368996
vt 0.831819 0.284971
vt 0.821816 0.290973
vt 0.951854 0.393003
vt 0.951854 0.380999
s 0
f 32/1/1 36/2/1 18/3/1 20/4/1
f 34/5/1 22/6/1 7/7/1 4/8/1
f 40/9/1 24/10/1 9/11/1 15/12/1
f 38/13/1 26/14/1 11/15/1 1/16/1
f 31/17/1 5/18/1 2/19/1 39/20/1
f 30/21/1 38/13/1 1/16/1 6/22/1
f 31/17/1 34/5/1 4/8/1 5/18/1
f 36/2/1 28/23/1 13/24/1 18/3/1
f 3/25/1 14/26/1 27/27/1 35/28/1
f 35/28/1 27/27/1 28/23/1 36/2/1
f 20/4/1 19/29/1 33/30/1 32/1/1
f 32/1/1 33/30/1 34/5/1 31/17/1
f 17/31/1 16/32/1 37/33/1 29/34/1
f 29/34/1 37/33/1 38/13/1 30/21/1
f 17/31/1 29/34/1 40/9/1 15/12/1
f 29/34/1 31/17/1 39/20/1 40/9/1
f 16/32/1 12/35/1 25/36/1 37/33/1
f 37/33/1 25/36/1 26/14/1 38/13/1
f 2/19/1 10/37/1 23/38/1 39/20/1
f 39/20/1 23/38/1 24/10/1 40/9/1
f 31/17/1 30/21/1 32/1/1
f 19/29/1 8/39/1 21/40/1 33/30/1
f 33/30/1 21/40/1 22/6/1 34/5/1
f 31/17/1 29/34/1 30/21/1
f 6/22/1 3/25/1 35/28/1 30/21/1
f 30/21/1 35/28/1 36/2/1 32/1/1
f 76/1/2 60/4/2 61/3/2 66/2/2
f 65/5/2 48/8/2 47/7/2 51/6/2
f 68/9/2 58/12/2 53/11/2 52/10/2
f 67/13/2 42/16/2 49/15/2 54/14/2
f 75/17/2 80/20/2 44/19/2 43/18/2
f 62/21/2 41/22/2 42/16/2 67/13/2
f 75/17/2 43/18/2 48/8/2 65/5/2
f 66/2/2 61/3/2 56/24/2 55/23/2
f 45/25/2 78/28/2 73/27/2 46/26/2
f 78/28/2 66/2/2 55/23/2 73/27/2
f 60/4/2 76/1/2 77/30/2 63/29/2
f 76/1/2 75/17/2 65/5/2 77/30/2
f 57/31/2 74/34/2 79/33/2 59/32/2
f 74/34/2 62/21/2 67/13/2 79/33/2
f 57/31/2 58/12/2 68/9/2 74/34/2
f 74/34/2 68/9/2 80/20/2 75/17/2
f 59/32/2 79/33/2 72/36/2 64/35/2
f 79/33/2 67/13/2 54/14/2 72/36/2
f 44/19/2 80/20/2 71/38/2 50/37/2
f 80/20/2 68/9/2 52/10/2 71/38/2
f 75/17/2 76/1/2 62/21/2
f 63/29/2 77/30/2 70/40/2 69/39/2
f 77/30/2 65/5/2 51/6/2 70/40/2
f 75/17/2 62/21/2 74/34/2
f 41/22/2 62/21/2 78/28/2 45/25/2
f 62/21/2 76/1/2 66/2/2 78/28/2
f 8/39/3 19/29/3 63/29/3 69/39/3
f 18/3/4 13/24/4 56/24/4 61/3/4
f 17/31/5 15/12/5 58/12/5 57/31/5
f 16/32/6 17/31/6 57/31/6 59/32/6
f 6/22/7 1/16/7 42/16/7 41/22/7
f 20/4/8 18/3/8 61/3/8 60/4/8
f 2/19/9 5/18/9 43/18/9 44/19/9
f 14/26/10 3/25/10 45/25/10 46/26/10
f 19/29/11 20/4/11 60/4/11 63/29/11
f 4/8/12 7/7/12 47/7/12 48/8/12
f 12/35/13 16/32/13 59/32/13 64/35/13
f 5/18/14 4/8/14 48/8/14 43/18/14
f 1/16/15 11/15/15 49/15/15 42/16/15
f 3/25/16 6/22/16 41/22/16 45/25/16
f 15/12/17 9/11/17 53/11/17 58/12/17
f 10/37/18 2/19/18 44/19/18 50/37/18
