# Blender 4.5.3 LTS
# www.blender.org
o river_6_a
v 0.000000 0.000000 -0.000000
v -1.154701 0.000000 -1.333333
v -0.577350 0.000000 -1.666667
v -1.732051 0.000000 0.333333
v -1.732051 0.000000 -0.333333
v -0.577350 0.000000 1.666667
v -1.154701 0.000000 1.333333
v 1.154701 0.000000 1.333333
v 0.577350 0.000000 1.666667
v 1.732051 0.000000 -0.333333
v 1.732051 0.000000 0.333333
v 0.577350 0.000000 -1.666667
v 1.154701 0.000000 -1.333333
v -0.065694 0.000000 -1.597409
v -0.087592 0.000000 1.575512
v 1.339732 0.000000 -0.803787
v -1.406599 0.000000 -0.725711
v 1.345858 0.000000 0.902851
v -1.339732 0.000000 0.758427
v -1.232721 0.000000 -0.650730
v -0.960630 0.000000 -1.445380
v -1.732051 0.000000 -0.109240
v -0.019184 0.000000 -1.367920
v -0.716310 0.000000 -1.586438
v 0.756850 0.000000 -1.563032
v 1.174809 0.000000 -0.724918
v 1.732051 0.000000 -0.111763
v 0.993123 0.000000 -1.426620
v 1.176723 0.000000 0.716012
v 1.011966 0.000000 1.415741
v 1.732051 0.000000 0.194241
v -0.006789 0.000000 1.260587
v -0.760422 0.000000 1.560970
v 0.740052 0.000000 1.572731
v -1.117364 0.000000 0.629111
v -1.004733 0.000000 1.419917
v -1.732051 0.000000 0.146623
vn -0.0000 1.0000 -0.0000
vt 0.889166 1.000000
vt 0.889166 0.527360
vt 0.989416 0.570239
vt 0.989416 0.991984
vt 0.889166 1.000000
vt 0.889166 0.535969
vt 0.989416 0.530469
vt 0.989416 0.979985
vt 0.889166 0.484526
vt 0.989416 0.413498
vt 0.989416 1.001347
vt 0.128220 0.505392
vt 0.128220 1.000000
vt 0.002241 1.000254
vt 0.002241 0.507182
vt 0.128220 0.498686
vt 0.002241 0.568449
vt 0.002241 0.001306
vt 0.128220 0.000000
vt 0.002241 -0.007793
vt 0.000000 0.000000
vt 0.002241 0.438239
vt 0.002241 0.019498
vt 0.128220 0.000000
vt 0.128220 0.465131
vt 0.002241 0.981045
vt 0.128220 1.000000
vt 0.989416 0.037458
vt 0.889166 0.000000
vt 0.989416 0.040949
vt 0.889166 0.000000
vt 0.989416 0.013860
vt 0.002241 0.983900
s 0
f 24/1/1 23/2/1 14/3/1 3/4/1
f 28/5/1 26/6/1 16/7/1 13/8/1
f 31/1/1 29/9/1 18/10/1 11/11/1
f 35/12/1 37/13/1 4/14/1 19/15/1
f 32/16/1 15/17/1 9/18/1 34/19/1
f 35/12/1 19/15/1 7/20/1 36/19/1
f 23/21/1 20/21/1 1/21/1
f 35/21/1 1/21/1 20/21/1
f 17/22/1 5/23/1 22/24/1 20/25/1
f 2/26/1 17/22/1 20/25/1 21/27/1
f 26/21/1 23/21/1 1/21/1
f 12/28/1 14/3/1 23/2/1 25/29/1
f 21/21/1 20/21/1 23/21/1 24/21/1
f 29/21/1 26/21/1 1/21/1
f 10/30/1 16/7/1 26/6/1 27/29/1
f 25/21/1 23/21/1 26/21/1 28/21/1
f 18/10/1 29/9/1 30/31/1 8/32/1
f 27/21/1 26/21/1 29/21/1 31/21/1
f 32/21/1 29/21/1 1/21/1
f 15/17/1 32/16/1 33/13/1 6/33/1
f 29/21/1 32/21/1 34/21/1 30/21/1
f 1/21/1 35/21/1 32/21/1
f 32/21/1 35/21/1 36/21/1 33/21/1
f 20/21/1 22/21/1 37/21/1 35/21/1
