# Blender 5.0.1
# www.blender.org
o river_4_c
v -0.898836 0.000000 -0.350010
v 0.065694 0.000000 0.780453
v 0.000000 0.000000 -0.666667
v 0.577350 0.000000 0.333333
v 0.261078 0.000000 0.495997
v -0.325008 0.000000 -0.416944
v 1.732051 0.000000 0.333333
v 1.732051 0.000000 -0.333333
v -1.154701 0.000000 1.333333
v -0.577350 0.000000 1.666667
v -1.732051 0.000000 -0.333333
v -1.732051 0.000000 0.333333
v 1.154701 0.000000 -1.333333
v 0.577350 0.000000 -1.666667
v -0.786497 0.000000 0.871921
v -1.013124 0.000000 0.318805
v -0.704764 0.000000 0.533324
v 0.799663 0.000000 -0.761522
v 1.015079 0.000000 -0.286219
v 0.785772 0.000000 -0.436809
v 1.732051 0.000000 -0.111111
v 1.732051 0.000000 0.111111
v -0.769801 0.000000 1.555556
v -0.962251 0.000000 1.444444
v -1.732051 0.000000 0.111111
v -1.732051 0.000000 -0.111111
v 0.769801 0.000000 -1.555556
v 0.962251 0.000000 -1.444444
v -0.405742 0.000000 0.313859
v -0.178663 0.000000 -0.212128
v 0.146941 0.000000 0.295061
v 0.422333 0.000000 -0.225104
v 0.869170 0.000000 -0.079702
v 0.723260 0.000000 0.126816
v 0.266555 0.000000 -0.698285
v 0.533109 0.000000 -0.729904
v -0.975028 0.000000 0.095867
v -0.936932 0.000000 -0.127072
v -0.218369 0.000000 0.810942
v -0.502433 0.000000 0.841431
vn -0.0000 1.0000 -0.0000
vt 0.883779 0.387157
vt 0.902670 0.398592
vt 0.903392 0.416132
vt 0.889537 0.414424
vt 0.899420 0.368147
vt 0.891836 0.356992
vt 0.951854 0.356992
vt 0.951854 0.368996
vt 0.835713 0.329547
vt 0.820948 0.327900
vt 0.801810 0.302976
vt 0.811813 0.296974
vt 0.813129 0.381861
vt 0.815109 0.393904
vt 0.771801 0.393003
vt 0.771801 0.380999
vt 0.869465 0.359059
vt 0.850477 0.331194
vt 0.865242 0.332840
vt 0.875398 0.348206
vt 0.852541 0.386456
vt 0.844935 0.397519
vt 0.921845 0.447019
vt 0.911842 0.453021
vt 0.861828 0.411008
vt 0.875682 0.412716
vt 0.901839 0.459022
vt 0.891836 0.465024
vt 0.907004 0.379303
vt 0.914588 0.390458
vt 0.825196 0.346189
vt 0.840738 0.358044
vt 0.811149 0.369819
vt 0.809169 0.357777
vt 0.771801 0.368996
vt 0.771801 0.356992
vt 0.821816 0.290973
vt 0.831819 0.284971
vt 0.951854 0.380999
vt 0.951854 0.393003
s 0
f 32/1/1 20/2/1 18/3/1 36/4/1
f 34/5/1 4/6/1 7/7/1 22/8/1
f 40/9/1 15/10/1 9/11/1 24/12/1
f 38/13/1 1/14/1 11/15/1 26/16/1
f 31/17/1 39/18/1 2/19/1 5/20/1
f 30/21/1 6/22/1 1/14/1 38/13/1
f 31/17/1 5/20/1 4/6/1 34/5/1
f 36/4/1 18/3/1 13/23/1 28/24/1
f 3/25/1 35/26/1 27/27/1 14/28/1
f 35/26/1 36/4/1 28/24/1 27/27/1
f 20/2/1 32/1/1 33/29/1 19/30/1
f 32/1/1 31/17/1 34/5/1 33/29/1
f 17/31/1 29/32/1 37/33/1 16/34/1
f 29/32/1 30/21/1 38/13/1 37/33/1
f 17/31/1 15/10/1 40/9/1 29/32/1
f 29/32/1 40/9/1 39/18/1 31/17/1
f 16/34/1 37/33/1 25/35/1 12/36/1
f 37/33/1 38/13/1 26/16/1 25/35/1
f 2/19/1 39/18/1 23/37/1 10/38/1
f 39/18/1 40/9/1 24/12/1 23/37/1
f 31/17/1 32/1/1 30/21/1
f 19/30/1 33/29/1 21/39/1 8/40/1
f 33/29/1 34/5/1 22/8/1 21/39/1
f 31/17/1 30/21/1 29/32/1
f 6/22/1 30/21/1 35/26/1 3/25/1
f 30/21/1 32/1/1 36/4/1 35/26/1
