# Blender 4.5.3 LTS
# www.blender.org
o river_5_a
v -0.796331 0.000000 0.669104
v -0.781733 0.000000 -0.800493
v -0.625779 0.000000 -0.182484
v 1.154701 0.000000 -1.333333
v 0.577350 0.000000 -1.666667
v 1.732051 0.000000 0.333333
v 1.732051 0.000000 -0.333333
v 0.577350 0.000000 1.666667
v 1.154701 0.000000 1.333333
v -1.154701 0.000000 1.333333
v -0.577350 0.000000 1.666667
v -0.577350 0.000000 -1.666667
v -1.154701 0.000000 -1.333333
v 0.784757 0.000000 0.026760
v 0.458423 0.000000 0.396617
v 0.501137 0.000000 0.150725
v 0.735799 0.000000 -0.885674
v 1.281114 0.000000 -0.340633
v 0.771214 0.000000 -0.588687
v 0.333633 0.000000 0.992727
v -0.392028 0.000000 1.043823
v 0.072994 0.000000 0.739411
v -0.340933 0.000000 -1.299301
v 0.282538 0.000000 -1.197110
v -0.094892 0.000000 -1.045985
v 0.769800 0.000000 -1.555555
v 0.962250 0.000000 -1.444444
v 1.732051 0.000000 -0.111111
v 1.732051 0.000000 0.111111
v 0.962250 0.000000 1.444445
v 0.769800 0.000000 1.555556
v -0.769800 0.000000 1.555555
v -0.962250 0.000000 1.444444
v -0.962250 0.000000 -1.444445
v -0.769800 0.000000 -1.555556
v 0.584712 0.000000 -0.989486
v 0.433625 0.000000 -1.093298
v -0.634799 0.000000 -0.966762
v -0.487866 0.000000 -1.133032
v -0.111548 0.000000 -0.869024
v -0.552786 0.000000 -0.882324
v 0.549348 0.000000 -0.529090
v 0.780242 0.000000 -0.178389
v 1.115662 0.000000 -0.218169
v 0.950209 0.000000 -0.095704
v 0.344871 0.000000 0.013064
v -0.374679 0.000000 -0.066368
v 0.375230 0.000000 0.794024
v 0.293614 0.000000 0.466681
v 0.020770 0.000000 0.528630
v -0.526796 0.000000 0.918917
v -0.661564 0.000000 0.794011
vn -0.0000 1.0000 -0.0000
vt 0.140716 0.446878
vt 0.140716 0.718160
vt 0.022271 0.678113
vt 0.022271 0.454364
vt 0.987602 0.268102
vt 0.887088 0.297157
vt 0.887088 0.000000
vt 0.987602 0.000687
vt 0.879411 0.520769
vt 0.994936 0.525173
vt 0.994936 0.705349
vt 0.879411 0.651973
vt 0.112975 0.819957
vt 0.008422 0.774182
vt 0.112975 0.789875
vt 0.011401 0.717313
vt 0.147155 0.652100
vt 0.147155 1.000000
vt 0.011401 0.999238
vt 0.011401 0.405661
vt 0.011401 -0.000000
vt 0.147155 0.009836
vt 0.147155 0.417686
vt 0.140716 -0.000000
vt 0.140716 0.249802
vt 0.022271 0.254496
vt 0.022271 0.021564
vt 0.112975 0.521924
vt 0.008422 0.560645
vt 0.008422 0.267348
vt 0.112975 0.232279
vt 0.008422 0.023556
vt 0.112975 0.000000
vt 0.011401 0.672886
vt 0.000000 0.000000
vt 0.147155 0.528177
vt 0.011401 0.528287
vt 0.887088 0.478948
vt 0.987602 0.446937
vt 0.987602 0.716196
vt 0.887088 0.766500
vt 0.994936 0.270616
vt 0.879411 0.267840
vt 0.879411 0.002008
vt 0.994936 0.000000
vt 0.008422 0.979166
vt 0.112975 1.000000
vt 0.994936 1.000000
vt 0.879411 0.998128
vt 0.987602 1.000000
vt 0.887088 0.982078
vt 0.140716 1.000000
vt 0.022271 0.961604
s 0
f 40/1/1 37/2/1 24/3/1 25/4/1
f 36/5/1 17/6/1 4/7/1 27/8/1
f 50/9/1 22/10/1 20/11/1 48/12/1
f 38/13/1 2/14/1 41/15/1
f 45/16/1 14/17/1 6/18/1 29/19/1
f 49/20/1 30/21/1 9/22/1 15/23/1
f 35/24/1 39/25/1 23/26/1 12/27/1
f 47/28/1 3/29/1 1/30/1 52/31/1
f 52/31/1 1/30/1 10/32/1 33/33/1
f 43/34/1 14/17/1 45/16/1
f 42/35/1 46/35/1 43/35/1
f 16/36/1 46/37/1 49/20/1 15/23/1
f 46/35/1 47/35/1 50/35/1 49/35/1
f 19/38/1 42/39/1 44/40/1 18/41/1
f 42/35/1 43/35/1 45/35/1 44/35/1
f 21/42/1 51/43/1 32/44/1 11/45/1
f 51/35/1 52/35/1 33/35/1 32/35/1
f 22/10/1 50/9/1 51/43/1 21/42/1
f 50/35/1 47/35/1 52/35/1 51/35/1
f 13/46/1 2/14/1 38/13/1 34/47/1
f 34/35/1 38/35/1 39/35/1 35/35/1
f 20/11/1 8/48/1 31/49/1 48/12/1
f 48/35/1 31/35/1 30/35/1 49/35/1
f 18/41/1 44/40/1 28/50/1 7/51/1
f 44/35/1 45/35/1 29/35/1 28/35/1
f 23/26/1 39/25/1 40/1/1 25/4/1
f 39/35/1 38/35/1 41/35/1 40/35/1
f 47/35/1 40/35/1 41/35/1
f 49/35/1 50/35/1 48/35/1
f 24/3/1 37/2/1 26/52/1 5/53/1
f 37/35/1 36/35/1 27/35/1 26/35/1
f 19/38/1 17/6/1 36/5/1 42/39/1
f 42/35/1 36/35/1 37/35/1 40/35/1
f 43/34/1 46/37/1 16/36/1 14/17/1
f 47/28/1 41/15/1 2/14/1 3/29/1
f 40/35/1 47/35/1 46/35/1 42/35/1
