# Blender 4.5.3 LTS
# www.blender.org
o river_3_c
v -1.154701 0.000000 -1.333333
v -0.577350 0.000000 -1.666667
v 1.154701 0.000000 1.333333
v 0.577350 0.000000 1.666667
v 1.732051 0.000000 -0.333333
v 1.732051 0.000000 0.333333
v -0.231613 0.000000 -0.189784
v 0.000000 0.000000 -0.666667
v 0.211682 0.000000 0.746960
v 1.322586 0.000000 0.227492
v 1.307987 0.000000 -0.253040
v 0.577350 0.000000 -0.333333
v 0.214348 0.000000 -0.420926
v -0.540853 0.000000 -0.669104
v 0.825529 0.000000 0.238441
v 0.666140 0.000000 0.487122
v -0.068361 0.000000 0.245741
v 0.742042 0.000000 1.571582
v 0.341318 0.000000 0.672840
v 0.961068 0.000000 1.445127
v 0.493781 0.000000 0.487847
v 0.765799 0.000000 0.100832
v 1.732051 0.000000 0.172886
v 1.319072 0.000000 0.111842
v 0.661299 0.000000 -0.139925
v 1.732051 0.000000 -0.107827
v 1.312925 0.000000 -0.090495
v -0.395749 0.000000 -0.668450
v -0.999804 0.000000 -1.422763
v 0.104876 0.000000 0.090382
v -0.111967 0.000000 -0.251796
v -0.747551 0.000000 -1.568401
v 0.386997 0.000000 -0.162625
v -0.159441 0.000000 -0.667385
v 0.082880 0.000000 -0.352786
vn -0.0000 1.0000 -0.0000
vt 0.863937 0.421146
vt 0.997958 0.383352
vt 0.997958 0.508727
vt 0.863937 0.530049
vt 0.863937 1.000000
vt 0.863937 0.652715
vt 0.997958 0.619021
vt 0.997958 0.989783
vt 0.863937 0.341068
vt 0.128672 0.287508
vt 0.012514 0.281016
vt 0.012514 -0.000000
vt 0.128672 0.010365
vt 0.120609 0.190847
vt 0.120609 0.399485
vt 0.008671 0.414223
vt 0.008671 0.190990
vt 0.120609 0.014706
vt 0.008671 0.000000
vt 0.410559 0.310612
vt 0.344447 0.333389
vt 0.134234 0.137820
vt 0.189518 0.088796
vt 0.008671 0.562518
vt 0.120609 0.556771
vt 0.120609 1.000000
vt 0.008671 0.977768
vt 0.786969 0.130011
vt 0.689233 0.196168
vt 0.650007 0.152080
vt 0.740487 0.064346
vt 0.595947 0.351190
vt 0.549559 0.289611
vt 0.997958 0.139979
vt 0.863937 0.132789
vt 0.997958 0.000155
vt 0.863937 0.000000
vt 0.012514 0.579154
vt 0.128672 0.575649
vt 0.128672 0.716758
vt 0.012514 0.743854
vt 0.012514 1.000000
vt 0.128672 0.988576
vt 0.012514 0.445113
vt 0.128672 0.463204
vt 0.514154 0.563930
vt 0.571525 0.533998
vt 0.602560 0.647315
vt 0.562306 0.703106
vt 0.640718 0.974313
vt 0.717511 0.938125
vt 0.465309 0.462179
vt 0.567689 0.424845
s 0
f 33/1/1 12/2/1 13/3/1 35/4/1
f 32/5/1 34/6/1 8/7/1 2/8/1
f 12/2/1 33/1/1 25/9/1
f 19/10/1 9/11/1 4/12/1 18/13/1
f 24/14/1 22/15/1 15/16/1 10/17/1
f 35/4/1 13/3/1 8/7/1 34/6/1
f 23/18/1 24/14/1 10/17/1 6/19/1
f 21/20/1 19/21/1 18/22/1 20/23/1
f 16/24/1 21/25/1 20/26/1 3/27/1
f 26/28/1 27/29/1 24/30/1 23/31/1
f 27/29/1 25/32/1 22/33/1 24/30/1
f 11/34/1 12/2/1 25/9/1 27/35/1
f 5/36/1 11/34/1 27/35/1 26/37/1
f 7/38/1 31/39/1 28/40/1 14/41/1
f 1/42/1 14/41/1 28/40/1 29/43/1
f 17/44/1 30/45/1 31/39/1 7/38/1
f 31/46/1 35/47/1 34/48/1 28/49/1
f 29/50/1 28/49/1 34/48/1 32/51/1
f 30/52/1 33/53/1 35/47/1 31/46/1
f 25/32/1 33/53/1 21/20/1 22/33/1
f 19/10/1 30/45/1 17/44/1 9/11/1
f 22/15/1 21/25/1 16/24/1 15/16/1
f 21/20/1 33/53/1 30/52/1 19/21/1
