# Blender 4.5.3 LTS
# www.blender.org
o river_3_b
v 0.577350 0.000000 0.333333
v -0.166815 0.000000 -1.025729
v 0.577350 0.000000 -0.194645
v -0.700369 0.000000 -0.546408
v 0.125171 0.000000 -0.892724
v 0.145987 0.000000 0.527979
v -0.479792 0.000000 -0.240879
v 1.154701 0.000000 -1.333333
v 0.577350 0.000000 -1.666667
v 0.577350 0.000000 1.666667
v 1.154701 0.000000 1.333333
v -0.577350 0.000000 -1.666667
v -1.154701 0.000000 -1.333333
v 0.673324 0.000000 -0.668882
v 0.004633 0.000000 0.187346
v 1.017274 0.000000 -1.412677
v 0.542847 0.000000 -0.722163
v 0.363030 0.000000 -0.232363
v 0.401320 0.000000 -0.077237
v 0.977246 0.000000 1.435787
v 0.444767 0.000000 0.393159
v 0.777251 0.000000 -1.551254
v 0.193854 0.000000 -0.713962
v -0.307040 0.000000 -0.899757
v -0.729085 0.000000 -1.579062
v -0.986958 0.000000 -1.430180
v -0.136338 0.000000 -0.331975
v -0.545351 0.000000 -0.685669
v 0.777298 0.000000 1.551227
v 0.202976 0.000000 0.055055
v 0.295377 0.000000 0.460569
vn -0.0000 1.0000 -0.0000
vt 0.003115 0.652923
vt 0.124156 0.653036
vt 0.124156 1.000000
vt 0.003115 1.000222
vt 0.003115 0.404438
vt 0.003115 0.250399
vt 0.124156 0.255198
vt 0.124156 0.359977
vt 0.003115 0.547907
vt 0.124156 0.543342
vt 0.857408 0.999178
vt 0.857408 0.766779
vt 0.994092 0.766613
vt 0.994092 0.997298
vt 0.857408 0.475455
vt 0.857408 0.313553
vt 0.994092 0.319955
vt 0.994092 0.512501
vt 0.981446 -0.001035
vt 0.981446 0.363869
vt 0.877935 0.386555
vt 0.877935 -0.001035
vt 0.443739 0.447380
vt 0.362242 0.318578
vt 0.459391 0.299273
vt 0.570960 0.383713
vt 0.877935 0.997405
vt 0.877935 0.564712
vt 0.981446 0.555817
vt 0.981447 0.997405
vt 0.249854 0.101674
vt 0.190611 0.153163
vt 0.513919 0.510340
vt 0.532609 0.627342
vt 0.486102 0.624864
vt 0.448538 0.494763
vt 0.857408 0.513026
vt 0.857408 0.005185
vt 0.994092 0.005185
vt 0.124156 0.000000
vt 0.003115 0.004667
vt 0.599792 0.217550
vt 0.668142 0.280273
vt 0.809742 0.087852
vt 0.744308 0.036238
vt 0.514177 0.965766
vt 0.449525 0.954995
s 0
f 31/1/1 6/2/1 10/3/1 29/4/1
f 27/5/1 28/6/1 4/7/1 7/8/1
f 30/9/1 27/5/1 7/8/1 15/10/1
f 16/11/1 17/12/1 14/13/1 8/14/1
f 19/15/1 21/16/1 1/17/1 3/18/1
f 25/19/1 24/20/1 2/21/1 12/22/1
f 18/23/1 17/24/1 23/25/1 27/26/1
f 9/27/1 5/28/1 23/29/1 22/30/1
f 22/31/1 23/25/1 17/24/1 16/32/1
f 30/33/1 31/34/1 21/35/1 19/36/1
f 3/18/1 18/37/1 19/15/1
f 1/17/1 21/16/1 20/38/1 11/39/1
f 13/40/1 4/7/1 28/6/1 26/41/1
f 23/25/1 24/42/1 28/43/1 27/26/1
f 26/44/1 28/43/1 24/42/1 25/45/1
f 5/28/1 2/21/1 24/20/1 23/29/1
f 15/10/1 6/2/1 31/1/1 30/9/1
f 19/36/1 18/23/1 27/26/1 30/33/1
f 21/35/1 31/34/1 29/46/1 20/47/1
f 18/37/1 3/18/1 14/13/1 17/12/1
