# Blender 4.5.3 LTS
# www.blender.org
o river_4_b
v -0.232788 0.000000 0.424051
v -0.993658 0.000000 -0.295264
v 0.203858 0.000000 0.902970
v 0.086736 0.000000 -0.910601
v -1.026243 0.000000 0.373358
v -0.237224 0.000000 -0.425483
v 1.732051 0.000000 0.333333
v 1.732051 0.000000 -0.333333
v 0.577350 0.000000 1.666667
v 1.154701 0.000000 1.333333
v -1.732051 0.000000 -0.333333
v -1.732051 0.000000 0.333333
v 1.154701 0.000000 -1.333333
v 0.577350 0.000000 -1.666667
v 0.930711 0.000000 0.299246
v 0.721646 0.000000 0.758447
v 0.746076 0.000000 -0.701816
v 0.924651 0.000000 -0.304922
v 0.613982 0.000000 0.384233
v -0.039611 0.000000 0.261661
v -0.042839 0.000000 -0.263801
v 0.693516 0.000000 -0.274068
v 1.732051 0.000000 -0.111111
v 1.732051 0.000000 0.111111
v 0.962250 0.000000 1.444444
v 0.769800 0.000000 1.555556
v 0.769801 0.000000 -1.555556
v 0.962251 0.000000 -1.444444
v 0.526296 0.000000 -0.771411
v 0.306516 0.000000 -0.841006
v 0.928691 0.000000 0.097857
v 0.926671 0.000000 -0.103532
v 0.549050 0.000000 0.806621
v 0.376454 0.000000 0.854795
v -1.732051 0.000000 0.111111
v -1.732051 0.000000 -0.111111
v -1.004519 0.000000 -0.072390
v -1.015381 0.000000 0.150484
vn -0.0000 1.0000 -0.0000
vt 0.007602 0.768851
vt 0.118307 0.750908
vt 0.118307 0.995411
vt 0.007602 1.000000
vt 0.880798 0.353440
vt 0.880798 -0.000000
vt 0.982747 0.025613
vt 0.982747 0.395021
vt 0.007602 0.472724
vt 0.118307 0.500967
vt 0.012441 0.528166
vt 0.133331 0.496904
vt 0.133331 0.713401
vt 0.012441 0.742175
vt 0.880798 0.453043
vt 0.982747 0.636896
vt 0.880798 0.664984
vt 0.013343 0.652761
vt 0.013343 0.492867
vt 0.167344 0.611730
vt 0.012441 1.000000
vt 0.133331 0.989392
vt 0.880798 1.000000
vt 0.982747 0.970208
vt 0.118307 0.008876
vt 0.118307 0.307497
vt 0.007602 0.275984
vt 0.007602 0.000000
vt 0.175975 0.838855
vt 0.321926 0.681789
vt 0.364778 0.728237
vt 0.212037 0.883980
vt 0.167344 0.021092
vt 0.167344 0.339377
vt 0.013343 0.322296
vt 0.013343 0.000000
vt 0.855550 0.308118
vt 0.706734 0.448561
vt 0.671571 0.419305
vt 0.811774 0.269949
vt 0.578765 0.700773
vt 0.505269 0.682237
vt 0.633165 0.553594
vt 0.623657 0.670173
vt 0.388380 0.527952
vt 0.495732 0.444683
vt 0.167344 0.972208
vt 0.013343 1.000000
vt 0.734700 0.855258
vt 0.683451 0.883178
vt 0.012441 0.230154
vt 0.133331 0.246286
vt 0.272778 0.291365
vt 0.322034 0.257399
vt 0.012441 0.000000
vt 0.133331 0.013873
vt 0.175975 0.120128
vt 0.228891 0.095687
s 0
f 37/1/1 2/2/1 11/3/1 36/4/1
f 32/5/1 23/6/1 8/7/1 18/8/1
f 21/9/1 6/10/1 2/2/1 37/1/1
f 20/11/1 1/12/1 3/13/1 34/14/1
f 22/15/1 18/8/1 17/16/1 29/17/1
f 31/18/1 19/19/1 15/20/1
f 26/21/1 34/14/1 3/13/1 9/22/1
f 28/23/1 29/17/1 17/16/1 13/24/1
f 14/25/1 4/26/1 30/27/1 27/28/1
f 27/29/1 30/30/1 29/31/1 28/32/1
f 10/33/1 16/34/1 33/35/1 25/36/1
f 25/37/1 33/38/1 34/39/1 26/40/1
f 32/41/1 22/42/1 19/43/1 31/44/1
f 18/8/1 22/15/1 32/5/1
f 22/42/1 21/45/1 20/46/1 19/43/1
f 6/10/1 21/9/1 30/27/1 4/26/1
f 21/45/1 22/42/1 29/31/1 30/30/1
f 15/20/1 19/19/1 33/35/1 16/34/1
f 19/43/1 20/46/1 34/39/1 33/38/1
f 15/20/1 7/47/1 24/48/1 31/18/1
f 31/44/1 24/49/1 23/50/1 32/41/1
f 1/12/1 20/11/1 38/51/1 5/52/1
f 20/46/1 21/45/1 37/53/1 38/54/1
f 5/52/1 38/51/1 35/55/1 12/56/1
f 38/54/1 37/53/1 36/57/1 35/58/1
