# Blender 5.0.1
# www.blender.org
o river_6_a
v 0.000000 0.000000 -0.000000
v -1.154701 0.000000 -1.333333
v -0.577350 0.000000 -1.666667
v -1.732051 0.000000 0.333333
v -1.732051 0.000000 -0.333333
v -0.577350 0.000000 1.666667
v -1.154701 0.000000 1.333333
v 1.154701 0.000000 1.333333
v 0.577350 0.000000 1.666667
v 1.732051 0.000000 -0.333333
v 1.732051 0.000000 0.333333
v 0.577350 0.000000 -1.666667
v 1.154701 0.000000 -1.333333
v -0.065694 0.000000 -1.597409
v -0.087592 0.000000 1.575512
v 1.339732 0.000000 -0.803787
v -1.406599 0.000000 -0.725711
v 1.345858 0.000000 0.902851
v -1.339732 0.000000 0.758427
v -1.232721 0.000000 -0.650730
v -0.960630 0.000000 -1.445380
v -1.732051 0.000000 -0.109240
v -0.019184 0.000000 -1.367920
v -0.716310 0.000000 -1.586438
v 0.756850 0.000000 -1.563032
v 1.174809 0.000000 -0.724918
v 1.732051 0.000000 -0.111763
v 0.993123 0.000000 -1.426620
v 1.176723 0.000000 0.716012
v 1.011966 0.000000 1.415741
v 1.732051 0.000000 0.194241
v -0.006789 0.000000 1.260587
v -0.760422 0.000000 1.560970
v 0.740052 0.000000 1.572731
v -1.117364 0.000000 0.629111
v -1.004733 0.000000 1.419917
v -1.732051 0.000000 0.146623
v -0.019184 0.100000 -1.367920
v -0.065694 0.100000 -1.597409
v -1.232721 0.100000 -0.650730
v -1.406599 0.100000 -0.725711
v -1.117364 0.100000 0.629111
v -1.339732 0.100000 0.758427
v -0.006789 0.100000 1.260587
v -0.087592 0.100000 1.575512
v 1.174809 0.100000 -0.724918
v 1.339732 0.100000 -0.803787
v 1.176723 0.100000 0.716012
v 1.345858 0.100000 0.902851
v -0.716310 0.100000 -1.586438
v -0.577350 0.100000 -1.666667
v -1.732051 0.100000 -0.109240
v -1.732051 0.100000 -0.333333
v -1.004733 0.100000 1.419917
v -1.154701 0.100000 1.333333
v 0.740052 0.100000 1.572731
v 0.577350 0.100000 1.666667
v 1.732051 0.100000 0.194241
v 1.732051 0.100000 0.333333
v 0.993123 0.100000 -1.426620
v 1.154701 0.100000 -1.333333
v 1.154701 0.100000 1.333333
v 0.577350 0.100000 -1.666667
v -0.577350 0.100000 1.666667
v -1.154701 0.100000 -1.333333
v 1.732051 0.100000 -0.333333
v -1.732051 0.100000 0.333333
v -0.960630 0.100000 -1.445380
v -1.732051 0.100000 0.146623
v 0.756850 0.100000 -1.563032
v 0.000000 0.100000 -0.000000
v 1.732051 0.100000 -0.111763
v 1.011966 0.100000 1.415741
v -0.760422 0.100000 1.560970
vn -0.0000 -1.0000 -0.0000
vn -0.0000 1.0000 -0.0000
vn -0.7349 -0.0000 0.6782
vn 0.9139 -0.0000 0.4058
vn -0.1358 -0.0000 0.9907
vn 0.1341 -0.0000 -0.9910
vn -0.1071 -0.0000 -0.9943
vn -0.9519 -0.0000 0.3064
vn 0.1830 -0.0000 0.9831
vn 0.9440 -0.0000 -0.3299
vn -0.9238 -0.0000 -0.3830
vn 0.7680 -0.0000 -0.6404
vn -0.7697 -0.0000 -0.6384
vn 0.8277 -0.0000 0.5612
vt 0.824596 0.460690
vt 0.831819 0.465024
vt 0.858413 0.461283
vt 0.860830 0.448887
vt 0.913447 0.452058
vt 0.921845 0.447019
vt 0.931463 0.418415
vt 0.922891 0.414155
vt 0.951854 0.364505
vt 0.951854 0.356992
vt 0.931781 0.326229
vt 0.922990 0.336321
vt 0.803750 0.341015
vt 0.792192 0.334030
vt 0.771801 0.356992
vt 0.771801 0.367077
vt 0.861475 0.306906
vt 0.900293 0.290045
vt 0.891836 0.284971
vt 0.857275 0.289895
vt 0.809605 0.298299
vt 0.801810 0.302976
vt 0.861828 0.374997
vt 0.797755 0.410147
vt 0.788717 0.414197
vt 0.771801 0.380898
vt 0.771801 0.393003
vt 0.801810 0.447019
vt 0.811897 0.453071
vt 0.891836 0.465024
vt 0.901166 0.459426
vt 0.951854 0.393003
vt 0.951854 0.381034
vt 0.921845 0.302976
vt 0.914426 0.298525
vt 0.831819 0.284971
vt 0.822303 0.290680
s 0
f 24/1/1 3/2/1 14/3/1 23/4/1
f 28/5/1 13/6/1 16/7/1 26/8/1
f 31/9/1 11/10/1 18/11/1 29/12/1
f 35/13/1 19/14/1 4/15/1 37/16/1
f 32/17/1 34/18/1 9/19/1 15/20/1
f 35/13/1 36/21/1 7/22/1 19/14/1
f 23/4/1 1/23/1 20/24/1
f 35/13/1 20/24/1 1/23/1
f 17/25/1 20/24/1 22/26/1 5/27/1
f 2/28/1 21/29/1 20/24/1 17/25/1
f 26/8/1 1/23/1 23/4/1
f 12/30/1 25/31/1 23/4/1 14/3/1
f 21/29/1 24/1/1 23/4/1 20/24/1
f 29/12/1 1/23/1 26/8/1
f 10/32/1 27/33/1 26/8/1 16/7/1
f 25/31/1 28/5/1 26/8/1 23/4/1
f 18/11/1 8/34/1 30/35/1 29/12/1
f 27/33/1 31/9/1 29/12/1 26/8/1
f 32/17/1 1/23/1 29/12/1
f 15/20/1 6/36/1 33/37/1 32/17/1
f 29/12/1 30/35/1 34/18/1 32/17/1
f 1/23/1 32/17/1 35/13/1
f 32/17/1 33/37/1 36/21/1 35/13/1
f 20/24/1 35/13/1 37/16/1 22/26/1
f 50/1/2 38/4/2 39/3/2 51/2/2
f 60/5/2 46/8/2 47/7/2 61/6/2
f 58/9/2 48/12/2 49/11/2 59/10/2
f 42/13/2 69/16/2 67/15/2 43/14/2
f 44/17/2 45/20/2 57/19/2 56/18/2
f 42/13/2 43/14/2 55/22/2 54/21/2
f 38/4/2 40/24/2 71/23/2
f 42/13/2 71/23/2 40/24/2
f 41/25/2 53/27/2 52/26/2 40/24/2
f 65/28/2 41/25/2 40/24/2 68/29/2
f 46/8/2 38/4/2 71/23/2
f 63/30/2 39/3/2 38/4/2 70/31/2
f 68/29/2 40/24/2 38/4/2 50/1/2
f 48/12/2 46/8/2 71/23/2
f 66/32/2 47/7/2 46/8/2 72/33/2
f 70/31/2 38/4/2 46/8/2 60/5/2
f 49/11/2 48/12/2 73/35/2 62/34/2
f 72/33/2 46/8/2 48/12/2 58/9/2
f 44/17/2 48/12/2 71/23/2
f 45/20/2 44/17/2 74/37/2 64/36/2
f 48/12/2 44/17/2 56/18/2 73/35/2
f 71/23/2 42/13/2 44/17/2
f 44/17/2 42/13/2 54/21/2 74/37/2
f 40/24/2 52/26/2 69/16/2 42/13/2
f 4/15/3 19/14/3 43/14/3 67/15/3
f 8/34/4 18/11/4 49/11/4 62/34/4
f 15/20/5 9/19/5 57/19/5 45/20/5
f 14/3/6 3/2/6 51/2/6 39/3/6
f 12/30/7 14/3/7 39/3/7 63/30/7
f 19/14/8 7/22/8 55/22/8 43/14/8
f 6/36/9 15/20/9 45/20/9 64/36/9
f 16/7/10 13/6/10 61/6/10 47/7/10
f 2/28/11 17/25/11 41/25/11 65/28/11
f 10/32/12 16/7/12 47/7/12 66/32/12
f 17/25/13 5/27/13 53/27/13 41/25/13
f 18/11/14 11/10/14 59/10/14 49/11/14
