# Blender 4.5.3 LTS
# www.blender.org
o river_2_a
v 0.384900 0.000000 0.000000
v 0.007299 0.000000 -0.790756
v -0.384900 0.000000 -0.000000
v 1.154701 0.000000 -1.333333
v 0.577350 0.000000 -1.666667
v -0.577350 0.000000 -1.666667
v -1.154701 0.000000 -1.333333
v 0.000000 0.000000 0.138688
v 0.650344 0.000000 -0.384429
v -0.664943 0.000000 -0.428225
v -0.175407 0.000000 -0.942331
v 0.185226 0.000000 -0.835249
vn -0.0000 1.0000 -0.0000
vt -0.000000 0.765625
vt 1.000000 0.583198
vt 1.000000 0.992188
vt -0.000000 0.992188
vt -0.000000 0.148438
vt -0.000000 0.000000
vt 1.000000 0.000000
vt 1.000000 0.352983
vt -0.000000 0.265625
vt 1.000000 0.492188
vt -0.000000 0.492188
vt -0.000000 0.585938
s 0
f 10/1/1 11/2/1 6/3/1 7/4/1
f 9/5/1 4/6/1 5/7/1 12/8/1
f 12/8/1 1/9/1 9/5/1
f 1/9/1 12/8/1 2/10/1 8/11/1
f 8/11/1 2/10/1 11/2/1 3/12/1
f 3/12/1 11/2/1 10/1/1
