# Blender 4.5.3 LTS
# www.blender.org
o river_3_d
v 0.345737 0.000000 0.588811
v -0.745236 0.000000 0.406327
v 0.832828 0.000000 0.362531
v -0.730637 0.000000 -0.486620
v 0.338438 0.000000 -0.610709
v 0.789032 0.000000 -0.479321
v 0.000000 0.000000 0.666667
v 0.036497 0.000000 -0.776157
v -0.669576 0.000000 -0.000000
v 1.732051 0.000000 0.333333
v 1.732051 0.000000 -0.333333
v -1.154701 0.000000 1.333333
v -0.577350 0.000000 1.666667
v -0.577350 0.000000 -1.666667
v -1.154701 0.000000 -1.333333
v 1.732051 0.000000 -0.111111
v 1.732051 0.000000 0.111111
v 0.175302 0.000000 0.290756
v 0.171652 0.000000 -0.309004
v -0.332355 0.000000 -0.003650
v -0.769800 0.000000 1.555555
v -0.962250 0.000000 1.444444
v -0.962250 0.000000 -1.444445
v -0.769800 0.000000 -1.555556
v 0.818229 0.000000 0.081914
v 0.803631 0.000000 -0.198704
v -0.496824 0.000000 0.493107
v -0.248412 0.000000 0.579887
v -0.219214 0.000000 -0.679645
v -0.474926 0.000000 -0.583133
vn -0.0000 1.0000 -0.0000
vt 0.005196 0.655209
vt 0.121823 0.651594
vt 0.121823 0.990501
vt 0.005196 1.000000
vt 0.005196 0.501561
vt 0.005196 0.318519
vt 0.121823 0.325389
vt 0.121823 0.499964
vt 0.003201 0.501617
vt 0.003201 0.355726
vt 0.099570 0.386982
vt 0.099570 0.511800
vt 0.003201 1.000000
vt 0.003201 0.708588
vt 0.099570 0.696288
vt 0.099570 0.993142
vt 0.865874 1.000000
vt 0.865874 0.662745
vt 0.990448 0.624067
vt 0.990448 0.986374
vt 0.865874 0.502730
vt 0.865874 0.305595
vt 0.990448 0.335937
vt 0.990448 0.498504
vt 0.000000 0.000000
vt 0.121823 0.009285
vt 0.005196 -0.000000
vt 0.990448 0.015464
vt 0.865874 0.000000
vt 0.003201 0.000000
vt 0.099570 0.007109
s 0
f 27/1/1 2/2/1 12/3/1 22/4/1
f 20/5/1 30/6/1 4/7/1 9/8/1
f 18/9/1 28/10/1 7/11/1 1/12/1
f 17/13/1 25/14/1 3/15/1 10/16/1
f 24/17/1 29/18/1 8/19/1 14/20/1
f 19/21/1 26/22/1 6/23/1 5/24/1
f 1/12/1 3/15/1 25/14/1 18/9/1
f 18/25/1 25/25/1 26/25/1 19/25/1
f 15/26/1 4/7/1 30/6/1 23/27/1
f 23/25/1 30/25/1 29/25/1 24/25/1
f 20/25/1 18/25/1 19/25/1
f 11/28/1 6/23/1 26/22/1 16/29/1
f 16/25/1 26/25/1 25/25/1 17/25/1
f 9/8/1 2/2/1 27/1/1 20/5/1
f 20/25/1 27/25/1 28/25/1 18/25/1
f 5/24/1 8/19/1 29/18/1 19/21/1
f 19/25/1 29/25/1 30/25/1 20/25/1
f 7/11/1 28/10/1 21/30/1 13/31/1
f 28/25/1 27/25/1 22/25/1 21/25/1
