# Blender 5.0.1
# www.blender.org
o river_6_a
v 0.000000 0.000000 -0.000000
v -1.154701 0.000000 -1.333333
v -0.577350 0.000000 -1.666667
v -1.732051 0.000000 0.333333
v -1.732051 0.000000 -0.333333
v -0.577350 0.000000 1.666667
v -1.154701 0.000000 1.333333
v 1.154701 0.000000 1.333333
v 0.577350 0.000000 1.666667
v 1.732051 0.000000 -0.333333
v 1.732051 0.000000 0.333333
v 0.577350 0.000000 -1.666667
v 1.154701 0.000000 -1.333333
v -0.065694 0.000000 -1.597409
v -0.087592 0.000000 1.575512
v 1.339732 0.000000 -0.803787
v -1.406599 0.000000 -0.725711
v 1.345858 0.000000 0.902851
v -1.339732 0.000000 0.758427
v -1.232721 0.000000 -0.650730
v -0.960630 0.000000 -1.445380
v -1.732051 0.000000 -0.109240
v -0.019184 0.000000 -1.367920
v -0.716310 0.000000 -1.586438
v 0.756850 0.000000 -1.563032
v 1.174809 0.000000 -0.724918
v 1.732051 0.000000 -0.111763
v 0.993123 0.000000 -1.426620
v 1.176723 0.000000 0.716012
v 1.011966 0.000000 1.415741
v 1.732051 0.000000 0.194241
v -0.006789 0.000000 1.260587
v -0.760422 0.000000 1.560970
v 0.740052 0.000000 1.572731
v -1.117364 0.000000 0.629111
v -1.004733 0.000000 1.419917
v -1.732051 0.000000 0.146623
vn -0.0000 1.0000 -0.0000
vt 0.824596 0.460690
vt 0.860830 0.448887
vt 0.858413 0.461283
vt 0.831819 0.465024
vt 0.913447 0.452058
vt 0.922891 0.414155
vt 0.931463 0.418415
vt 0.921845 0.447019
vt 0.951854 0.364505
vt 0.922990 0.336321
vt 0.931781 0.326229
vt 0.951854 0.356992
vt 0.803750 0.341015
vt 0.771801 0.367077
vt 0.771801 0.356992
vt 0.792192 0.334030
vt 0.861475 0.306906
vt 0.857275 0.289895
vt 0.891836 0.284971
vt 0.900293 0.290045
vt 0.801810 0.302976
vt 0.809605 0.298299
vt 0.797755 0.410147
vt 0.861828 0.374997
vt 0.788717 0.414197
vt 0.771801 0.393003
vt 0.771801 0.380898
vt 0.801810 0.447019
vt 0.811897 0.453071
vt 0.891836 0.465024
vt 0.901166 0.459426
vt 0.951854 0.393003
vt 0.951854 0.381034
vt 0.914426 0.298525
vt 0.921845 0.302976
vt 0.822303 0.290680
vt 0.831819 0.284971
s 0
f 24/1/1 23/2/1 14/3/1 3/4/1
f 28/5/1 26/6/1 16/7/1 13/8/1
f 31/9/1 29/10/1 18/11/1 11/12/1
f 35/13/1 37/14/1 4/15/1 19/16/1
f 32/17/1 15/18/1 9/19/1 34/20/1
f 35/13/1 19/16/1 7/21/1 36/22/1
f 23/2/1 20/23/1 1/24/1
f 35/13/1 1/24/1 20/23/1
f 17/25/1 5/26/1 22/27/1 20/23/1
f 2/28/1 17/25/1 20/23/1 21/29/1
f 26/6/1 23/2/1 1/24/1
f 12/30/1 14/3/1 23/2/1 25/31/1
f 21/29/1 20/23/1 23/2/1 24/1/1
f 29/10/1 26/6/1 1/24/1
f 10/32/1 16/7/1 26/6/1 27/33/1
f 25/31/1 23/2/1 26/6/1 28/5/1
f 18/11/1 29/10/1 30/34/1 8/35/1
f 27/33/1 26/6/1 29/10/1 31/9/1
f 32/17/1 29/10/1 1/24/1
f 15/18/1 32/17/1 33/36/1 6/37/1
f 29/10/1 32/17/1 34/20/1 30/34/1
f 1/24/1 35/13/1 32/17/1
f 32/17/1 35/13/1 36/22/1 33/36/1
f 20/23/1 22/27/1 37/14/1 35/13/1
