# Blender 4.5.3 LTS
# www.blender.org
o river_3_a
v 0.577350 0.000000 -1.666667
v 1.154701 0.000000 -1.333333
v 0.577350 0.000000 1.666667
v 1.732051 0.000000 -0.333333
v 1.732051 0.000000 0.333333
v -0.094765 0.000000 -0.558304
v 1.471586 0.000000 0.264455
v 0.010687 0.000000 0.626782
v -0.192450 0.000000 0.333333
v -0.310021 0.000000 -0.060089
v 0.755438 0.000000 -0.614539
v 0.957831 0.000000 0.278367
v 0.205066 0.000000 0.983487
v 1.179919 0.000000 -0.337819
v 1.154701 0.000000 1.333333
v 0.194112 0.000000 -1.002879
v 0.813830 0.000000 0.801323
v 0.960229 0.000000 -1.445611
v 0.515090 0.000000 -0.609234
v 0.557799 0.000000 0.801006
v 0.951552 0.000000 1.450621
v 1.277141 0.000000 -0.137061
v 1.732051 0.000000 -0.111111
v 1.732051 0.000000 0.111111
v 0.890367 0.000000 -0.019268
v 0.822902 0.000000 -0.316904
v 1.374364 0.000000 0.063697
v 0.577343 0.000000 0.296549
vn -0.0000 -1.0000 -0.0000
vn -0.0000 1.0000 -0.0000
vt 0.204834 0.527508
vt 0.000269 0.474092
vt 0.000269 0.673164
vt 0.174128 0.658899
vt 0.133896 0.004578
vt 0.000269 0.004578
vt 0.000269 0.308813
vt 0.154157 0.316937
vt 0.853144 0.995649
vt 0.997359 0.995649
vt 0.997359 0.498812
vt 0.828190 0.523730
vt 0.191342 0.420377
vt 0.626927 -0.002200
vt 0.997359 0.004578
vt 0.997359 0.189479
vt 0.633695 0.243698
vt 0.997359 0.644684
vt 0.671643 0.723170
vt 0.997359 0.785915
vt 0.715035 0.995649
vt 0.000269 0.995649
vt 0.174663 0.995649
vt 0.997359 0.493795
vt 0.838841 0.369466
vt 0.840379 0.235230
vt 0.997359 0.293312
vt 0.158221 0.356398
vt 0.810477 0.342636
vt 0.815748 0.620754
vt 0.177133 0.656796
vt 0.829983 0.004578
vt 0.194553 0.995649
vt 0.825929 0.995649
vt 0.653697 0.406202
vt 0.997359 0.300216
vt 0.997359 0.377730
vt 0.140447 0.004578
vt 0.812968 0.004578
s 0
f 28/1/1 12/2/1 17/3/1 20/4/1
f 24/5/1 5/6/1 7/7/1 27/8/1
f 18/9/1 2/10/1 11/11/1 19/12/1
f 25/13/1 27/8/1 7/7/1 12/2/1
f 21/14/1 3/15/1 13/16/1 20/17/1
f 6/18/2 19/19/2 16/20/2
f 1/10/2 16/20/2 19/19/2 18/21/2
f 15/22/2 17/3/2 20/4/2 21/23/2
f 6/18/1 19/19/1 10/24/1
f 11/11/2 26/25/2 22/26/2 14/27/2
f 26/28/2 25/29/2 27/30/2 22/31/2
f 4/15/2 14/27/2 22/26/2 23/32/2
f 23/33/2 22/31/2 27/30/2 24/34/2
f 28/35/1 20/17/1 8/36/1 9/37/1
f 11/11/1 26/25/1 19/12/1
f 20/17/1 13/16/1 8/36/1
f 28/1/1 25/13/1 12/2/1
f 19/38/1 26/28/1 25/29/1 28/39/1
f 28/35/1 9/37/1 10/24/1 19/19/1
