# Blender 5.0.1
# www.blender.org
o river_2_a
v 0.192450 0.000000 0.333333
v 0.688464 0.000000 -0.389056
v -0.192450 0.000000 -0.333333
v 1.732051 0.000000 0.333333
v 1.732051 0.000000 -0.333333
v 1.154701 0.000000 -1.333333
v 0.577350 0.000000 -1.666667
v -0.120107 0.000000 0.069344
v 0.658097 0.000000 0.371000
v 0.038383 0.000000 -0.789970
v 0.728379 0.000000 -0.623072
v 0.815960 0.000000 -0.257214
vn -0.0000 1.0000 -0.0000
vt 0.863823 0.417668
vt 0.899686 0.408653
vt 0.921845 0.447019
vt 0.891836 0.465024
vt 0.896033 0.354957
vt 0.951854 0.356992
vt 0.951854 0.393003
vt 0.904239 0.388891
vt 0.871831 0.356992
vt 0.897612 0.396013
vt 0.855585 0.371252
vt 0.851825 0.393003
s 0
f 10/1/1 11/2/1 6/3/1 7/4/1
f 9/5/1 4/6/1 5/7/1 12/8/1
f 12/8/1 1/9/1 9/5/1
f 1/9/1 12/8/1 2/10/1 8/11/1
f 8/11/1 2/10/1 11/2/1 3/12/1
f 3/12/1 11/2/1 10/1/1
