# Blender 5.0.1
# www.blender.org
o river_3_d
v -0.337057 0.000000 0.593823
v -0.724507 0.000000 -0.442230
v 0.102453 0.000000 0.902516
v 0.056107 0.000000 -0.876060
v 0.698109 0.000000 -0.012259
v 0.809620 0.000000 0.443661
v -0.577350 0.000000 0.333333
v 0.690420 0.000000 -0.356471
v -0.334788 0.000000 -0.579870
v 0.577350 0.000000 1.666667
v 1.154701 0.000000 1.333333
v -1.732051 0.000000 -0.333333
v -1.732051 0.000000 0.333333
v 1.154701 0.000000 -1.333333
v 0.577350 0.000000 -1.666667
v 0.962250 0.000000 1.444444
v 0.769800 0.000000 1.555556
v -0.164151 0.000000 0.297194
v 0.353432 0.000000 -0.005847
v -0.163017 0.000000 -0.289653
v -1.732051 0.000000 0.111111
v -1.732051 0.000000 -0.111111
v 0.769801 0.000000 -1.555556
v 0.962251 0.000000 -1.444444
v 0.338175 0.000000 0.749564
v 0.573898 0.000000 0.596613
v -0.675455 0.000000 -0.183709
v -0.626403 0.000000 0.074812
v 0.478982 0.000000 -0.529668
v 0.267545 0.000000 -0.702864
vn -0.0000 1.0000 -0.0000
vt 0.826719 0.384921
vt 0.824170 0.398885
vt 0.771801 0.393003
vt 0.771801 0.380999
vt 0.853354 0.390643
vt 0.875734 0.412963
vt 0.864744 0.422319
vt 0.844426 0.406320
vt 0.853296 0.358944
vt 0.829269 0.370956
vt 0.831819 0.356992
vt 0.844308 0.342921
vt 0.901839 0.290973
vt 0.879405 0.334509
vt 0.867153 0.326247
vt 0.891836 0.284971
vt 0.911842 0.453021
vt 0.886724 0.403608
vt 0.897714 0.394253
vt 0.921845 0.447019
vt 0.880198 0.375313
vt 0.891657 0.342771
vt 0.903909 0.351033
vt 0.898113 0.375660
vt 0.891836 0.465024
vt 0.901839 0.459022
vt 0.921845 0.302976
vt 0.911842 0.296974
vt 0.771801 0.368996
vt 0.771801 0.356992
s 0
f 27/1/1 2/2/1 12/3/1 22/4/1
f 20/5/1 30/6/1 4/7/1 9/8/1
f 18/9/1 28/10/1 7/11/1 1/12/1
f 17/13/1 25/14/1 3/15/1 10/16/1
f 24/17/1 29/18/1 8/19/1 14/20/1
f 19/21/1 26/22/1 6/23/1 5/24/1
f 1/12/1 3/15/1 25/14/1 18/9/1
f 18/9/1 25/14/1 26/22/1 19/21/1
f 15/25/1 4/7/1 30/6/1 23/26/1
f 23/26/1 30/6/1 29/18/1 24/17/1
f 20/5/1 18/9/1 19/21/1
f 11/27/1 6/23/1 26/22/1 16/28/1
f 16/28/1 26/22/1 25/14/1 17/13/1
f 9/8/1 2/2/1 27/1/1 20/5/1
f 20/5/1 27/1/1 28/10/1 18/9/1
f 5/24/1 8/19/1 29/18/1 19/21/1
f 19/21/1 29/18/1 30/6/1 20/5/1
f 7/11/1 28/10/1 21/29/1 13/30/1
f 28/10/1 27/1/1 22/4/1 21/29/1
