# Blender 5.0.1
# www.blender.org
o river_3_b
v 0.035457 0.000000 0.707189
v 0.956859 0.000000 -0.768767
v 0.457243 0.000000 0.402677
v 0.123019 0.000000 -0.879741
v 1.068712 0.000000 -0.424071
v -0.384249 0.000000 0.390418
v -0.031288 0.000000 -0.535952
v 1.732051 0.000000 0.333333
v 1.732051 0.000000 -0.333333
v -1.154701 0.000000 1.333333
v -0.577350 0.000000 1.666667
v 1.154701 0.000000 -1.333333
v 0.577350 0.000000 -1.666667
v 0.915931 0.000000 0.248675
v -0.195387 0.000000 -0.044144
v 1.732051 0.000000 0.174646
v 0.896835 0.000000 0.109038
v 0.382747 0.000000 0.198212
v 0.267549 0.000000 0.308935
v -0.754805 0.000000 1.564214
v -0.118103 0.000000 0.581759
v 1.732051 0.000000 -0.102508
v 0.846935 0.000000 -0.290404
v 0.625693 0.000000 -0.715783
v 1.002966 0.000000 -1.420937
v 0.745093 0.000000 -1.569820
v 0.219330 0.000000 -0.284060
v 0.321132 0.000000 -0.815122
v -0.954753 0.000000 1.448773
v 0.053810 0.000000 0.203310
v -0.251176 0.000000 0.486089
v 0.035457 0.100000 0.707189
v 0.956859 0.100000 -0.768767
v 0.457243 0.100000 0.402677
v 0.123019 0.100000 -0.879741
v 1.068712 0.100000 -0.424071
v -0.384249 0.100000 0.390418
v -0.031288 0.100000 -0.535952
v 1.732051 0.100000 0.333333
v 1.732051 0.100000 -0.333333
v -1.154701 0.100000 1.333333
v -0.577350 0.100000 1.666667
v 1.154701 0.100000 -1.333333
v 0.577350 0.100000 -1.666667
v 0.915931 0.100000 0.248675
v -0.195387 0.100000 -0.044144
v 1.732051 0.100000 0.174646
v 0.896835 0.100000 0.109038
v 0.382747 0.100000 0.198212
v 0.267549 0.100000 0.308935
v -0.754805 0.100000 1.564214
v -0.118103 0.100000 0.581759
v 1.732051 0.100000 -0.102508
v 0.846935 0.100000 -0.290404
v 0.625693 0.100000 -0.715783
v 1.002966 0.100000 -1.420937
v 0.745093 0.100000 -1.569820
v 0.219330 0.100000 -0.284060
v 0.321132 0.100000 -0.815122
v -0.954753 0.100000 1.448773
v 0.053810 0.100000 0.203310
v -0.251176 0.100000 0.486089
vn -0.0000 -1.0000 -0.0000
vn -0.0000 1.0000 -0.0000
vn -0.9171 -0.0000 -0.3986
vn 0.3183 -0.0000 0.9480
vn 0.1355 -0.0000 -0.9908
vn -0.1032 -0.0000 0.9947
vn 0.9437 -0.0000 0.3307
vn 0.5854 -0.0000 0.8108
vn -0.9123 -0.0000 -0.4095
vn -0.7744 -0.0000 -0.6327
vn 0.8428 -0.0000 0.5383
vn -0.9486 -0.0000 -0.3165
vn -0.8660 -0.0000 -0.5000
vn 0.9512 -0.0000 -0.3087
vt 0.848772 0.348741
vt 0.812202 0.296740
vt 0.801810 0.302976
vt 0.841855 0.353909
vt 0.873228 0.390341
vt 0.860201 0.403947
vt 0.868222 0.422518
vt 0.878519 0.419027
vt 0.864624 0.364015
vt 0.853515 0.369721
vt 0.951854 0.365564
vt 0.951854 0.356992
vt 0.909435 0.361565
vt 0.908442 0.369108
vt 0.875734 0.358310
vt 0.885594 0.353246
vt 0.861828 0.338987
vt 0.855689 0.343573
vt 0.913959 0.451751
vt 0.921845 0.447019
vt 0.903664 0.410504
vt 0.894349 0.413661
vt 0.881722 0.364291
vt 0.899003 0.385212
vt 0.951854 0.393003
vt 0.951854 0.380534
vt 0.905265 0.393253
vt 0.831819 0.284971
vt 0.822595 0.290505
vt 0.891836 0.465024
vt 0.900555 0.459793
s 0
f 31/1/1 29/2/1 10/3/1 6/4/1
f 27/5/1 7/6/1 4/7/1 28/8/1
f 30/9/1 15/10/1 7/6/1 27/5/1
f 16/11/1 8/12/1 14/13/1 17/14/1
f 19/15/1 3/16/1 1/17/1 21/18/1
f 25/19/1 12/20/1 2/21/1 24/22/1
f 18/23/1 27/5/1 23/24/1 17/14/1
f 9/25/1 22/26/1 23/24/1 5/27/1
f 22/26/1 16/11/1 17/14/1 23/24/1
f 30/9/1 19/15/1 21/18/1 31/1/1
f 3/16/1 19/15/1 18/23/1
f 1/17/1 11/28/1 20/29/1 21/18/1
f 13/30/1 26/31/1 28/8/1 4/7/1
f 23/24/1 27/5/1 28/8/1 24/22/1
f 26/31/1 25/19/1 24/22/1 28/8/1
f 5/27/1 23/24/1 24/22/1 2/21/1
f 15/10/1 30/9/1 31/1/1 6/4/1
f 19/15/1 30/9/1 27/5/1 18/23/1
f 21/18/1 20/29/1 29/2/1 31/1/1
f 18/23/1 17/14/1 14/13/1 3/16/1
f 62/1/2 37/4/2 41/3/2 60/2/2
f 58/5/2 59/8/2 35/7/2 38/6/2
f 61/9/2 58/5/2 38/6/2 46/10/2
f 47/11/2 48/14/2 45/13/2 39/12/2
f 50/15/2 52/18/2 32/17/2 34/16/2
f 56/19/2 55/22/2 33/21/2 43/20/2
f 49/23/2 48/14/2 54/24/2 58/5/2
f 40/25/2 36/27/2 54/24/2 53/26/2
f 53/26/2 54/24/2 48/14/2 47/11/2
f 61/9/2 62/1/2 52/18/2 50/15/2
f 34/16/2 49/23/2 50/15/2
f 32/17/2 52/18/2 51/29/2 42/28/2
f 44/30/2 35/7/2 59/8/2 57/31/2
f 54/24/2 55/22/2 59/8/2 58/5/2
f 57/31/2 59/8/2 55/22/2 56/19/2
f 36/27/2 33/21/2 55/22/2 54/24/2
f 46/10/2 37/4/2 62/1/2 61/9/2
f 50/15/2 49/23/2 58/5/2 61/9/2
f 52/18/2 62/1/2 60/2/2 51/29/2
f 49/23/2 34/16/2 45/13/2 48/14/2
f 15/10/3 6/4/3 37/4/3 46/10/3
f 3/16/4 14/13/4 45/13/4 34/16/4
f 9/25/5 5/27/5 36/27/5 40/25/5
f 14/13/6 8/12/6 39/12/6 45/13/6
f 2/21/7 12/20/7 43/20/7 33/21/7
f 1/17/8 3/16/8 34/16/8 32/17/8
f 4/7/9 7/6/9 38/6/9 35/7/9
f 6/4/10 10/3/10 41/3/10 37/4/10
f 11/28/11 1/17/11 32/17/11 42/28/11
f 7/6/12 15/10/12 46/10/12 38/6/12
f 13/30/13 4/7/13 35/7/13 44/30/13
f 5/27/14 2/21/14 33/21/14 36/27/14
