# Blender 5.0.1
# www.blender.org
o river_4_b
v -0.232788 0.000000 0.535488
v -0.993658 0.000000 -0.295264
v 0.203858 0.000000 0.902970
v 0.086736 0.000000 -0.910601
v -1.026243 0.000000 0.373358
v -0.237224 0.000000 -0.425483
v 1.732051 0.000000 0.333333
v 1.732051 0.000000 -0.333333
v 0.577350 0.000000 1.666667
v 1.154701 0.000000 1.333333
v -1.732051 0.000000 -0.333333
v -1.732051 0.000000 0.333333
v 1.154701 0.000000 -1.333333
v 0.577350 0.000000 -1.666667
v 1.138389 0.000000 0.476532
v 1.005304 0.000000 0.915471
v 1.080387 0.000000 -0.858840
v 1.284289 0.000000 -0.507534
v 0.613982 0.000000 0.384233
v -0.085199 0.000000 0.332576
v -0.042839 0.000000 -0.263801
v 0.693516 0.000000 -0.274068
v 1.732051 0.000000 -0.111111
v 1.732051 0.000000 0.111111
v 0.962250 0.000000 1.444444
v 0.769800 0.000000 1.555556
v 0.769801 0.000000 -1.555556
v 0.962251 0.000000 -1.444444
v 0.526296 0.000000 -0.771411
v 0.306516 0.000000 -0.841006
v 0.928691 0.000000 0.097857
v 0.926671 0.000000 -0.103532
v 0.549050 0.000000 0.806621
v 0.376454 0.000000 0.854795
v -1.732051 0.000000 0.111111
v -1.732051 0.000000 -0.111111
v -1.004519 0.000000 -0.072390
v -1.015381 0.000000 0.150484
v -0.232788 0.100000 0.535488
v -0.993658 0.100000 -0.295264
v 0.203858 0.100000 0.902970
v 0.086736 0.100000 -0.910601
v -1.026243 0.100000 0.373358
v -0.237224 0.100000 -0.425483
v 1.732051 0.100000 0.333333
v 1.732051 0.100000 -0.333333
v 0.577350 0.100000 1.666667
v 1.154701 0.100000 1.333333
v -1.732051 0.100000 -0.333333
v -1.732051 0.100000 0.333333
v 1.154701 0.100000 -1.333333
v 0.577350 0.100000 -1.666667
v 1.138389 0.100000 0.476532
v 1.005304 0.100000 0.915471
v 1.080387 0.100000 -0.858840
v 1.284289 0.100000 -0.507534
v 0.613982 0.100000 0.384233
v -0.085199 0.100000 0.332576
v -0.042839 0.100000 -0.263801
v 0.693516 0.100000 -0.274068
v 1.732051 0.100000 -0.111111
v 1.732051 0.100000 0.111111
v 0.962250 0.100000 1.444444
v 0.769800 0.100000 1.555556
v 0.769801 0.100000 -1.555556
v 0.962251 0.100000 -1.444444
v 0.526296 0.100000 -0.771411
v 0.306516 0.100000 -0.841006
v 0.928691 0.100000 0.097857
v 0.926671 0.100000 -0.103532
v 0.549050 0.100000 0.806621
v 0.376454 0.100000 0.854795
v -1.732051 0.100000 0.111111
v -1.732051 0.100000 -0.111111
v -1.004519 0.100000 -0.072390
v -1.015381 0.100000 0.150484
vn -0.0000 -1.0000 -0.0000
vn -0.0000 1.0000 -0.0000
vn 0.9880 -0.0000 0.1547
vn -0.1697 -0.0000 -0.9855
vn 0.8649 -0.0000 -0.5020
vn -0.8389 -0.0000 -0.5443
vn -0.2002 -0.0000 0.9798
vn -0.0566 -0.0000 0.9984
vn 0.9416 -0.0000 -0.3367
vn 0.0515 -0.0000 -0.9987
vn 0.3626 -0.0000 -0.9320
vn -0.6439 -0.0000 0.7651
vn 0.2345 -0.0000 0.9721
vn -0.8983 -0.0000 0.4393
vn 0.9570 -0.0000 0.2902
vn -0.8316 -0.0000 -0.5554
vt 0.809616 0.378908
vt 0.771801 0.380999
vt 0.771801 0.393003
vt 0.810180 0.390946
vt 0.909993 0.380590
vt 0.909888 0.391468
vt 0.951854 0.393003
vt 0.951854 0.380999
vt 0.859601 0.389247
vt 0.849497 0.397980
vt 0.859769 0.360863
vt 0.881395 0.328825
vt 0.872423 0.326223
vt 0.849728 0.352092
vt 0.897874 0.389801
vt 0.889183 0.416666
vt 0.900606 0.412907
vt 0.910098 0.369712
vt 0.910203 0.358833
vt 0.893740 0.354243
vt 0.901839 0.290973
vt 0.891836 0.284971
vt 0.911842 0.453021
vt 0.921845 0.447019
vt 0.891836 0.465024
vt 0.901839 0.459022
vt 0.877759 0.420425
vt 0.866336 0.424184
vt 0.921845 0.302976
vt 0.911842 0.296974
vt 0.890366 0.331427
vt 0.899337 0.334029
vt 0.951854 0.368996
vt 0.951854 0.356992
vt 0.808487 0.354830
vt 0.809051 0.366869
vt 0.771801 0.356992
vt 0.771801 0.368996
s 0
f 37/1/1 36/2/1 11/3/1 2/4/1
f 32/5/1 18/6/1 8/7/1 23/8/1
f 21/9/1 37/1/1 2/4/1 6/10/1
f 20/11/1 34/12/1 3/13/1 1/14/1
f 22/15/1 29/16/1 17/17/1 18/6/1
f 31/18/1 15/19/1 19/20/1
f 26/21/1 9/22/1 3/13/1 34/12/1
f 28/23/1 13/24/1 17/17/1 29/16/1
f 14/25/1 27/26/1 30/27/1 4/28/1
f 27/26/1 28/23/1 29/16/1 30/27/1
f 10/29/1 25/30/1 33/31/1 16/32/1
f 25/30/1 26/21/1 34/12/1 33/31/1
f 32/5/1 31/18/1 19/20/1 22/15/1
f 18/6/1 32/5/1 22/15/1
f 22/15/1 19/20/1 20/11/1 21/9/1
f 6/10/1 4/28/1 30/27/1 21/9/1
f 21/9/1 30/27/1 29/16/1 22/15/1
f 15/19/1 16/32/1 33/31/1 19/20/1
f 19/20/1 33/31/1 34/12/1 20/11/1
f 15/19/1 31/18/1 24/33/1 7/34/1
f 31/18/1 32/5/1 23/8/1 24/33/1
f 1/14/1 5/35/1 38/36/1 20/11/1
f 20/11/1 38/36/1 37/1/1 21/9/1
f 5/35/1 12/37/1 35/38/1 38/36/1
f 38/36/1 35/38/1 36/2/1 37/1/1
f 75/1/2 40/4/2 49/3/2 74/2/2
f 70/5/2 61/8/2 46/7/2 56/6/2
f 59/9/2 44/10/2 40/4/2 75/1/2
f 58/11/2 39/14/2 41/13/2 72/12/2
f 60/15/2 56/6/2 55/17/2 67/16/2
f 69/18/2 57/20/2 53/19/2
f 64/21/2 72/12/2 41/13/2 47/22/2
f 66/23/2 67/16/2 55/17/2 51/24/2
f 52/25/2 42/28/2 68/27/2 65/26/2
f 65/26/2 68/27/2 67/16/2 66/23/2
f 48/29/2 54/32/2 71/31/2 63/30/2
f 63/30/2 71/31/2 72/12/2 64/21/2
f 70/5/2 60/15/2 57/20/2 69/18/2
f 56/6/2 60/15/2 70/5/2
f 60/15/2 59/9/2 58/11/2 57/20/2
f 44/10/2 59/9/2 68/27/2 42/28/2
f 59/9/2 60/15/2 67/16/2 68/27/2
f 53/19/2 57/20/2 71/31/2 54/32/2
f 57/20/2 58/11/2 72/12/2 71/31/2
f 53/19/2 45/34/2 62/33/2 69/18/2
f 69/18/2 62/33/2 61/8/2 70/5/2
f 39/14/2 58/11/2 76/36/2 43/35/2
f 58/11/2 59/9/2 75/1/2 76/36/2
f 43/35/2 76/36/2 73/38/2 50/37/2
f 76/36/2 75/1/2 74/2/2 73/38/2
f 17/17/3 13/24/3 51/24/3 55/17/3
f 6/10/4 2/4/4 40/4/4 44/10/4
f 18/6/5 17/17/5 55/17/5 56/6/5
f 14/25/6 4/28/6 42/28/6 52/25/6
f 5/35/7 1/14/7 39/14/7 43/35/7
f 12/37/8 5/35/8 43/35/8 50/37/8
f 10/29/9 16/32/9 54/32/9 48/29/9
f 2/4/10 11/3/10 49/3/10 40/4/10
f 8/7/11 18/6/11 56/6/11 46/7/11
f 1/14/12 3/13/12 41/13/12 39/14/12
f 15/19/13 7/34/13 45/34/13 53/19/13
f 3/13/14 9/22/14 47/22/14 41/13/14
f 16/32/15 15/19/15 53/19/15 54/32/15
f 4/28/16 6/10/16 44/10/16 42/28/16
