# Blender 5.0.1
# www.blender.org
o river_4_a
v 0.156208 0.000000 -1.269482
v -0.130191 0.000000 -1.007148
v 1.331621 0.000000 -0.457086
v 1.334849 0.000000 0.352207
v 0.984915 0.000000 0.953830
v -1.082299 0.000000 0.284383
v -0.910688 0.000000 -0.271613
v -0.457289 0.000000 -0.723109
v 1.732051 0.000000 0.333333
v 1.732051 0.000000 -0.333333
v 0.577350 0.000000 1.666667
v 1.154701 0.000000 1.333333
v -1.154701 0.000000 1.333333
v -0.577350 0.000000 1.666667
v 1.154701 0.000000 -1.333333
v 0.577350 0.000000 -1.666667
v 0.373376 0.000000 1.376660
v 1.023102 0.000000 -0.978693
v -1.105130 0.000000 0.780362
v -0.178327 0.000000 1.400885
v 1.134790 0.000000 -0.606107
v 1.100892 0.000000 0.577369
v 0.084382 0.000000 1.347560
v -0.946514 0.000000 0.816785
v 0.280074 0.000000 -1.186260
v -1.040974 0.000000 1.398994
v 0.691077 0.000000 -1.601007
v -0.595264 0.000000 -0.183204
v -0.187198 0.000000 -0.493421
v -0.917340 0.000000 0.379065
v 0.032472 0.000000 -0.894021
v 0.625859 0.000000 -0.859532
v 1.732051 0.000000 -0.124704
v 1.143319 0.000000 -0.132361
v 0.922889 0.000000 -1.467170
v 0.878222 0.000000 -0.200051
v 0.600427 0.000000 -0.572138
v 1.732051 0.000000 0.104315
v 0.963163 0.000000 1.443917
v 1.147908 0.000000 0.079531
v 0.660252 0.000000 0.900303
v 0.885718 0.000000 0.145604
v 0.618161 0.000000 0.635863
v 0.156309 0.000000 0.308094
v -0.383362 0.000000 1.006709
v 0.770257 0.000000 1.555292
v 0.501618 0.000000 0.963728
v 0.341141 0.000000 0.781501
v -0.711088 0.000000 1.589453
v -0.036492 0.000000 0.690221
v 0.354832 0.000000 -0.085374
v 0.156208 0.100000 -1.269482
v -0.130191 0.100000 -1.007148
v 1.331621 0.100000 -0.457086
v 1.334849 0.100000 0.352207
v 0.984915 0.100000 0.953830
v -1.082299 0.100000 0.284383
v -0.910688 0.100000 -0.271613
v -0.457289 0.100000 -0.723109
v 1.732051 0.100000 0.333333
v 1.732051 0.100000 -0.333333
v 0.577350 0.100000 1.666667
v 1.154701 0.100000 1.333333
v -1.154701 0.100000 1.333333
v -0.577350 0.100000 1.666667
v 1.154701 0.100000 -1.333333
v 0.577350 0.100000 -1.666667
v 0.373376 0.100000 1.376660
v 1.023102 0.100000 -0.978693
v -1.105130 0.100000 0.780362
v -0.178327 0.100000 1.400885
v 1.134790 0.100000 -0.606107
v 1.100892 0.100000 0.577369
v 0.084382 0.100000 1.347560
v -0.946514 0.100000 0.816785
v 0.280074 0.100000 -1.186260
v -1.040974 0.100000 1.398994
v 0.691077 0.100000 -1.601007
v -0.595264 0.100000 -0.183204
v -0.187198 0.100000 -0.493421
v -0.917340 0.100000 0.379065
v 0.032472 0.100000 -0.894021
v 0.625859 0.100000 -0.859532
v 1.732051 0.100000 -0.124704
v 1.143319 0.100000 -0.132361
v 0.922889 0.100000 -1.467170
v 0.878222 0.100000 -0.200051
v 0.600427 0.100000 -0.572138
v 1.732051 0.100000 0.104315
v 0.963163 0.100000 1.443917
v 1.147908 0.100000 0.079531
v 0.660252 0.100000 0.900303
v 0.885718 0.100000 0.145604
v 0.618161 0.100000 0.635863
v 0.156309 0.100000 0.308094
v -0.383362 0.100000 1.006709
v 0.770257 0.100000 1.555292
v 0.501618 0.100000 0.963728
v 0.341141 0.100000 0.781501
v -0.711088 0.100000 1.589453
v -0.036492 0.100000 0.690221
v 0.354832 0.100000 -0.085374
vn -0.0000 -1.0000 -0.0000
vn -0.0000 1.0000 -0.0000
vn 0.2953 -0.0000 -0.9554
vn -0.6557 -0.0000 -0.7551
vn -0.9989 -0.0000 -0.0460
vn -0.8179 -0.0000 0.5753
vn 0.5544 -0.0000 0.8323
vn -0.7056 -0.0000 -0.7086
vn 0.9579 -0.0000 -0.2871
vn 0.1989 -0.0000 0.9800
vn 0.9375 -0.0000 0.3479
vn 0.9128 -0.0000 -0.4084
vn 0.6934 -0.0000 0.7205
vn -0.6861 -0.0000 -0.7275
vn -0.6754 -0.0000 -0.7374
vn 0.6036 -0.0000 -0.7973
vn -0.1002 -0.0000 0.9950
vn 0.9557 -0.0000 0.2944
vn 0.0475 -0.0000 0.9989
vn -0.9960 -0.0000 -0.0893
vn -0.9555 -0.0000 -0.2949
vt 0.951854 0.369363
vt 0.951854 0.356992
vt 0.921731 0.359256
vt 0.921492 0.370701
vt 0.821056 0.327595
vt 0.807721 0.299429
vt 0.801810 0.302976
vt 0.812811 0.329562
vt 0.893036 0.405902
vt 0.907120 0.402812
vt 0.907475 0.385803
vt 0.901863 0.290987
vt 0.891836 0.284971
vt 0.879655 0.319515
vt 0.887900 0.322941
vt 0.830207 0.345766
vt 0.821633 0.350881
vt 0.867093 0.415974
vt 0.857275 0.419203
vt 0.871526 0.438098
vt 0.877965 0.433602
vt 0.921036 0.392574
vt 0.921254 0.382147
vt 0.909797 0.454248
vt 0.921845 0.447019
vt 0.904211 0.415276
vt 0.894358 0.421426
vt 0.893958 0.340651
vt 0.908254 0.348462
vt 0.904332 0.329768
vt 0.896145 0.326367
vt 0.907865 0.367132
vt 0.841419 0.367930
vt 0.825024 0.372705
vt 0.879559 0.332784
vt 0.865160 0.324917
vt 0.859931 0.337714
vt 0.838322 0.403113
vt 0.852098 0.392347
vt 0.891836 0.465024
vt 0.897748 0.461477
vt 0.841902 0.320619
vt 0.824867 0.289141
vt 0.951854 0.393003
vt 0.951854 0.381733
vt 0.880271 0.379609
vt 0.869952 0.358355
vt 0.921845 0.302976
vt 0.911890 0.297003
vt 0.854665 0.319574
vt 0.831819 0.284971
s 0
f 38/1/1 9/2/1 4/3/1 40/4/1
f 24/5/1 26/6/1 13/7/1 19/8/1
f 37/9/1 21/10/1 36/11/1
f 46/12/1 11/13/1 17/14/1 47/15/1
f 30/16/1 24/5/1 19/8/1 6/17/1
f 31/18/1 2/19/1 1/20/1 25/21/1
f 36/11/1 21/10/1 3/22/1 34/23/1
f 35/24/1 15/25/1 18/26/1 32/27/1
f 43/28/1 22/29/1 5/30/1 41/31/1
f 43/28/1 42/32/1 22/29/1
f 28/33/1 30/16/1 6/17/1 7/34/1
f 48/35/1 23/36/1 50/37/1
f 7/34/1 8/38/1 29/39/1 28/33/1
f 16/40/1 27/41/1 25/21/1 1/20/1
f 37/9/1 31/18/1 25/21/1 32/27/1
f 50/37/1 45/42/1 24/5/1 30/16/1
f 2/19/1 31/18/1 29/39/1 8/38/1
f 45/42/1 49/43/1 26/6/1 24/5/1
f 21/10/1 37/9/1 32/27/1 18/26/1
f 27/41/1 35/24/1 32/27/1 25/21/1
f 42/32/1 36/11/1 34/23/1 40/4/1
f 10/44/1 33/45/1 34/23/1 3/22/1
f 31/18/1 37/9/1 51/46/1 29/39/1
f 22/29/1 42/32/1 40/4/1 4/3/1
f 28/33/1 29/39/1 51/46/1 44/47/1
f 48/35/1 43/28/1 41/31/1 47/15/1
f 12/48/1 39/49/1 41/31/1 5/30/1
f 33/45/1 38/1/1 40/4/1 34/23/1
f 23/36/1 48/35/1 47/15/1 17/14/1
f 20/50/1 14/51/1 49/43/1 45/42/1
f 23/36/1 20/50/1 45/42/1 50/37/1
f 43/28/1 48/35/1 50/37/1 44/47/1
f 39/49/1 46/12/1 47/15/1 41/31/1
f 50/37/1 30/16/1 28/33/1 44/47/1
f 37/9/1 36/11/1 42/32/1 51/46/1
f 51/46/1 42/32/1 43/28/1 44/47/1
f 89/1/2 91/4/2 55/3/2 60/2/2
f 75/5/2 70/8/2 64/7/2 77/6/2
f 88/9/2 87/11/2 72/10/2
f 97/12/2 98/15/2 68/14/2 62/13/2
f 81/16/2 57/17/2 70/8/2 75/5/2
f 82/18/2 76/21/2 52/20/2 53/19/2
f 87/11/2 85/23/2 54/22/2 72/10/2
f 86/24/2 83/27/2 69/26/2 66/25/2
f 94/28/2 92/31/2 56/30/2 73/29/2
f 94/28/2 73/29/2 93/32/2
f 79/33/2 58/34/2 57/17/2 81/16/2
f 99/35/2 101/37/2 74/36/2
f 58/34/2 79/33/2 80/39/2 59/38/2
f 67/40/2 52/20/2 76/21/2 78/41/2
f 88/9/2 83/27/2 76/21/2 82/18/2
f 101/37/2 81/16/2 75/5/2 96/42/2
f 53/19/2 59/38/2 80/39/2 82/18/2
f 96/42/2 75/5/2 77/6/2 100/43/2
f 72/10/2 69/26/2 83/27/2 88/9/2
f 78/41/2 76/21/2 83/27/2 86/24/2
f 93/32/2 91/4/2 85/23/2 87/11/2
f 61/44/2 54/22/2 85/23/2 84/45/2
f 82/18/2 80/39/2 102/46/2 88/9/2
f 73/29/2 55/3/2 91/4/2 93/32/2
f 79/33/2 95/47/2 102/46/2 80/39/2
f 99/35/2 98/15/2 92/31/2 94/28/2
f 63/48/2 56/30/2 92/31/2 90/49/2
f 84/45/2 85/23/2 91/4/2 89/1/2
f 74/36/2 68/14/2 98/15/2 99/35/2
f 71/50/2 96/42/2 100/43/2 65/51/2
f 74/36/2 101/37/2 96/42/2 71/50/2
f 94/28/2 95/47/2 101/37/2 99/35/2
f 90/49/2 92/31/2 98/15/2 97/12/2
f 101/37/2 95/47/2 79/33/2 81/16/2
f 88/9/2 102/46/2 93/32/2 87/11/2
f 102/46/2 95/47/2 94/28/2 93/32/2
f 10/44/3 3/22/3 54/22/3 61/44/3
f 2/19/4 8/38/4 59/38/4 53/19/4
f 6/17/5 19/8/5 70/8/5 57/17/5
f 17/14/6 11/13/6 62/13/6 68/14/6
f 14/51/7 20/50/7 71/50/7 65/51/7
f 8/38/8 7/34/8 58/34/8 59/38/8
f 21/10/9 18/26/9 69/26/9 72/10/9
f 20/50/10 23/36/10 74/36/10 71/50/10
f 18/26/11 15/25/11 66/25/11 69/26/11
f 12/48/12 5/30/12 56/30/12 63/48/12
f 22/29/13 4/3/13 55/3/13 73/29/13
f 16/40/14 1/20/14 52/20/14 67/40/14
f 1/20/15 2/19/15 53/19/15 52/20/15
f 3/22/16 21/10/16 72/10/16 54/22/16
f 23/36/17 17/14/17 68/14/17 74/36/17
f 5/30/18 22/29/18 73/29/18 56/30/18
f 4/3/19 9/2/19 60/2/19 55/3/19
f 19/8/20 13/7/20 64/7/20 70/8/20
f 7/34/21 6/17/21 57/17/21 58/34/21
