# Blender 5.0.1
# www.blender.org
o river_1_a
v 1.212516 0.000000 0.875944
v -1.267841 0.000000 -0.880686
v 1.154701 0.000000 -1.333333
v 0.577350 0.000000 -1.666667
v -0.986693 0.000000 1.203671
v -1.527509 0.000000 -0.049407
v 1.468144 0.000000 0.055050
v 0.020660 0.000000 1.586515
v 0.216136 0.000000 -1.606002
v 1.202992 0.000000 -1.024510
v 1.362752 0.000000 -0.641796
v -0.596462 0.000000 -1.394964
v -1.405105 0.000000 0.737218
v 0.731367 0.000000 1.330906
vn -0.0000 1.0000 -0.0000
vt -0.002187 0.612146
vt -0.002187 0.375000
vt 1.000000 0.375000
vt 1.000000 0.612146
vt -0.002187 0.101562
vt 1.000000 0.101562
vt 1.000000 0.049688
vt -0.002187 0.049688
vt -0.002187 -0.002187
vt 1.000000 -0.002187
vt -0.002187 1.000000
vt -0.002187 0.849291
vt 1.000000 0.849291
vt 1.000000 1.000000
s 0
f 12/1/1 2/2/1 7/3/1 11/4/1
f 7/3/1 2/2/1 6/5/1 1/6/1
f 14/7/1 13/8/1 5/9/1 8/10/1
f 4/11/1 9/12/1 10/13/1 3/14/1
f 9/12/1 12/1/1 11/4/1 10/13/1
f 1/6/1 6/5/1 13/8/1 14/7/1
