# Blender 4.5.3 LTS
# www.blender.org
o river_4_a
v -0.918370 0.000000 -0.745688
v -0.752535 0.000000 -0.333333
v 0.287775 0.000000 -1.149217
v 0.828628 0.000000 -0.852381
v 1.134027 0.000000 -0.289537
v 0.000000 0.000000 0.892947
v -0.317287 0.000000 0.634429
v -0.676875 0.000000 0.131389
v 1.154701 0.000000 -1.333333
v 0.577350 0.000000 -1.666667
v 1.732051 0.000000 0.333333
v 1.732051 0.000000 -0.333333
v 0.577350 0.000000 1.666667
v 1.154701 0.000000 1.333333
v -0.577350 0.000000 -1.666667
v -1.154701 0.000000 -1.333333
v 1.061033 0.000000 0.216543
v -0.238073 0.000000 -1.079022
v 0.256934 0.000000 1.237269
v 0.819685 0.000000 0.632368
v -0.010247 0.000000 -1.012115
v 0.872050 0.000000 -0.527917
v 0.834986 0.000000 0.408039
v 0.367785 0.000000 1.118115
v -0.784365 0.000000 -0.811349
v 0.691077 0.000000 1.601007
v -1.040974 0.000000 -1.398994
v -0.083010 0.000000 0.405469
v -0.371767 0.000000 0.001518
v 0.164476 0.000000 0.797430
v -0.606319 0.000000 -0.467040
v -0.431447 0.000000 -0.971776
v 0.758029 0.000000 -1.562352
v 0.457032 0.000000 -1.056324
v -0.809162 0.000000 -1.532830
v 0.265862 0.000000 -0.860588
v -0.195272 0.000000 -0.806054
v 0.956365 0.000000 -1.447843
v 1.732051 0.000000 -0.112165
v 0.642830 0.000000 -0.954352
v 1.109811 0.000000 -0.121644
v 0.568956 0.000000 -0.694253
v 0.859754 0.000000 -0.217412
v 0.344972 0.000000 0.018680
v 0.680155 0.000000 0.835356
v 1.732051 0.000000 0.110584
v 1.085422 0.000000 0.047450
v 0.847370 0.000000 0.095314
v 1.020963 0.000000 1.410547
v 0.579503 0.000000 0.376714
v 0.103480 0.000000 -0.349981
vn -0.0000 1.0000 -0.0000
vt 0.153231 0.000000
vt 0.153231 0.266941
vt 0.004303 0.299454
vt 0.004303 0.017047
vt 0.993528 0.165663
vt 0.865972 0.155513
vt 0.865972 0.002257
vt 0.993528 0.000000
vt 0.179332 0.426765
vt 0.179332 0.625944
vt 0.010747 0.506424
vt 0.101059 -0.000000
vt 0.101059 0.290304
vt 0.009077 0.320817
vt 0.009077 0.005692
vt 0.993528 0.273817
vt 0.865972 0.278836
vt 0.993528 0.704080
vt 0.993528 0.816418
vt 0.865972 0.812951
vt 0.865972 0.688522
vt 0.179332 0.736102
vt 0.010747 0.705836
vt 0.179332 -0.000000
vt 0.179332 0.308139
vt 0.010747 0.350371
vt 0.010747 0.009607
vt 0.153231 0.606265
vt 0.153231 0.711543
vt 0.004303 0.695083
vt 0.004303 0.489463
vt 0.153231 0.373445
vt 0.993528 0.407362
vt 0.865972 0.390570
vt 0.101059 0.376027
vt 0.101059 0.522787
vt 0.009077 0.494502
vt 0.993528 0.550980
vt 0.865972 0.564534
vt 0.865972 0.993323
vt 0.993528 1.000000
vt 0.000000 0.000000
vt 0.010747 1.004144
vt 0.179332 1.000000
vt 0.004303 0.986567
vt 0.153231 1.000000
vt 0.009077 0.619258
vt 0.101059 0.704195
vt 0.101059 1.000000
vt 0.009077 0.980846
s 0
f 38/1/1 40/2/1 4/3/1 9/4/1
f 24/5/1 19/6/1 13/7/1 26/8/1
f 37/9/1 36/10/1 21/11/1
f 46/12/1 47/13/1 17/14/1 11/15/1
f 30/16/1 6/17/1 19/6/1 24/5/1
f 31/18/1 25/19/1 1/20/1 2/21/1
f 36/10/1 34/22/1 3/23/1 21/11/1
f 35/24/1 32/25/1 18/26/1 15/27/1
f 43/28/1 41/29/1 5/30/1 22/31/1
f 43/28/1 22/31/1 42/32/1
f 28/33/1 7/34/1 6/17/1 30/16/1
f 48/35/1 50/36/1 23/37/1
f 7/34/1 28/33/1 29/38/1 8/39/1
f 16/40/1 1/20/1 25/19/1 27/41/1
f 37/42/1 32/42/1 25/42/1 31/42/1
f 50/42/1 30/42/1 24/42/1 45/42/1
f 2/21/1 8/39/1 29/38/1 31/18/1
f 45/42/1 24/42/1 26/42/1 49/42/1
f 21/11/1 18/26/1 32/25/1 37/9/1
f 27/42/1 25/42/1 32/42/1 35/42/1
f 42/42/1 40/42/1 34/42/1 36/42/1
f 10/43/1 3/23/1 34/22/1 33/44/1
f 31/42/1 29/42/1 51/42/1 37/42/1
f 22/31/1 4/3/1 40/2/1 42/32/1
f 28/42/1 44/42/1 51/42/1 29/42/1
f 48/42/1 47/42/1 41/42/1 43/42/1
f 12/45/1 5/30/1 41/29/1 39/46/1
f 33/42/1 34/42/1 40/42/1 38/42/1
f 23/37/1 17/14/1 47/13/1 48/35/1
f 20/47/1 45/48/1 49/49/1 14/50/1
f 23/37/1 50/36/1 45/48/1 20/47/1
f 43/42/1 44/42/1 50/42/1 48/42/1
f 39/42/1 41/42/1 47/42/1 46/42/1
f 50/42/1 44/42/1 28/42/1 30/42/1
f 37/42/1 51/42/1 42/42/1 36/42/1
f 51/42/1 44/42/1 43/42/1 42/42/1
