# Blender 5.0.1
# www.blender.org
o river_5_a
v -0.977627 0.000000 -0.355091
v 0.302381 0.000000 -1.077247
v -0.154854 0.000000 -0.633183
v 1.732051 0.000000 0.333333
v 1.732051 0.000000 -0.333333
v 0.577350 0.000000 1.666667
v 1.154701 0.000000 1.333333
v -1.154701 0.000000 1.333333
v -0.577350 0.000000 1.666667
v -1.732051 0.000000 -0.333333
v -1.732051 0.000000 0.333333
v 1.154701 0.000000 -1.333333
v 0.577350 0.000000 -1.666667
v 0.343877 0.000000 1.356555
v -0.235836 0.000000 1.269001
v -0.016726 0.000000 1.213438
v 1.342594 0.000000 0.503368
v 1.117905 0.000000 0.959422
v 1.163886 0.000000 0.672401
v -0.981633 0.000000 0.886605
v -1.236755 0.000000 0.344495
v -0.953359 0.000000 0.539292
v 0.954761 0.000000 -0.944907
v 1.314760 0.000000 -0.429849
v 1.010363 0.000000 -0.640628
v 1.732051 0.000000 -0.111111
v 1.732051 0.000000 0.111111
v 0.962250 0.000000 1.444444
v 0.769800 0.000000 1.555556
v -0.769801 0.000000 1.555556
v -0.962251 0.000000 1.444444
v -1.732051 0.000000 0.111111
v -1.732051 0.000000 -0.111111
v 0.769801 0.000000 -1.555556
v 0.962251 0.000000 -1.444444
v 1.149276 0.000000 0.011632
v 1.163636 0.000000 -0.171119
v 0.519841 0.000000 -1.033134
v 0.737301 0.000000 -0.989020
v 0.696823 0.000000 -0.531116
v 0.487722 0.000000 -0.919888
v 0.732880 0.000000 0.211204
v 0.544611 0.000000 0.586515
v 0.746770 0.000000 0.857107
v 0.557987 0.000000 0.775053
v 0.161122 0.000000 0.305199
v -0.129863 0.000000 -0.357666
v -0.500030 0.000000 0.721971
v -0.257351 0.000000 0.487618
v -0.447422 0.000000 0.282302
v -1.059203 0.000000 0.003239
v -1.018415 0.000000 -0.175926
v -0.977627 0.100000 -0.355091
v 0.302381 0.100000 -1.077247
v -0.154854 0.100000 -0.633183
v 1.732051 0.100000 0.333333
v 1.732051 0.100000 -0.333333
v 0.577350 0.100000 1.666667
v 1.154701 0.100000 1.333333
v -1.154701 0.100000 1.333333
v -0.577350 0.100000 1.666667
v -1.732051 0.100000 -0.333333
v -1.732051 0.100000 0.333333
v 1.154701 0.100000 -1.333333
v 0.577350 0.100000 -1.666667
v 0.343877 0.100000 1.356555
v -0.235836 0.100000 1.269001
v -0.016726 0.100000 1.213438
v 1.342594 0.100000 0.503368
v 1.117905 0.100000 0.959422
v 1.163886 0.100000 0.672401
v -0.981633 0.100000 0.886605
v -1.236755 0.100000 0.344495
v -0.953359 0.100000 0.539292
v 0.954761 0.100000 -0.944907
v 1.314760 0.100000 -0.429849
v 1.010363 0.100000 -0.640628
v 1.732051 0.100000 -0.111111
v 1.732051 0.100000 0.111111
v 0.962250 0.100000 1.444444
v 0.769800 0.100000 1.555556
v -0.769801 0.100000 1.555556
v -0.962251 0.100000 1.444444
v -1.732051 0.100000 0.111111
v -1.732051 0.100000 -0.111111
v 0.769801 0.100000 -1.555556
v 0.962251 0.100000 -1.444444
v 1.149276 0.100000 0.011632
v 1.163636 0.100000 -0.171119
v 0.519841 0.100000 -1.033134
v 0.737301 0.100000 -0.989020
v 0.696823 0.100000 -0.531116
v 0.487722 0.100000 -0.919888
v 0.732880 0.100000 0.211204
v 0.544611 0.100000 0.586515
v 0.746770 0.100000 0.857107
v 0.557987 0.100000 0.775053
v 0.161122 0.100000 0.305199
v -0.129863 0.100000 -0.357666
v -0.500030 0.100000 0.721971
v -0.257351 0.100000 0.487618
v -0.447422 0.100000 0.282302
v -1.059203 0.100000 0.003239
v -1.018415 0.100000 -0.175926
vn -0.0000 -1.0000 -0.0000
vn -0.0000 1.0000 -0.0000
vn -0.3689 -0.0000 0.9295
vn -0.9325 -0.0000 -0.3612
vn 0.2458 -0.0000 0.9693
vn 0.6872 -0.0000 0.7265
vn 0.9874 -0.0000 0.1582
vn 0.9952 -0.0000 -0.0979
vn -0.9967 -0.0000 -0.0811
vn -0.3202 -0.0000 -0.9474
vn -0.7989 -0.0000 0.6015
vn -0.5665 -0.0000 0.8241
vn -0.9062 -0.0000 -0.4228
vn 0.2253 -0.0000 -0.9743
vn 0.9837 -0.0000 -0.1798
vn -0.0288 -0.0000 -0.9996
vn 0.4001 -0.0000 0.9165
vn -0.6967 -0.0000 -0.7174
vn -0.0225 -0.0000 0.9997
vn 0.8891 -0.0000 0.4577
vn 0.5693 -0.0000 -0.8221
vn 0.7586 -0.0000 0.6515
vt 0.898046 0.403686
vt 0.906445 0.407686
vt 0.923056 0.394112
vt 0.922310 0.384241
vt 0.921563 0.374369
vt 0.951854 0.368996
vt 0.951854 0.356992
vt 0.920817 0.364498
vt 0.838572 0.359749
vt 0.835838 0.335999
vt 0.825812 0.332579
vt 0.830441 0.351613
vt 0.888847 0.430803
vt 0.887178 0.424686
vt 0.877544 0.433186
vt 0.890830 0.333132
vt 0.901839 0.290973
vt 0.891836 0.284971
vt 0.881018 0.337564
vt 0.848451 0.348658
vt 0.855888 0.342841
vt 0.831819 0.284971
vt 0.821816 0.290973
vt 0.911842 0.453021
vt 0.921845 0.447019
vt 0.911453 0.426037
vt 0.900150 0.428420
vt 0.855078 0.394317
vt 0.808894 0.384500
vt 0.811013 0.394178
vt 0.853779 0.409199
vt 0.771801 0.380999
vt 0.771801 0.393003
vt 0.890135 0.343316
vt 0.899920 0.363589
vt 0.870202 0.358512
vt 0.868067 0.347484
vt 0.908369 0.354820
vt 0.910455 0.324268
vt 0.900642 0.328700
vt 0.804653 0.365145
vt 0.771801 0.356992
vt 0.771801 0.368996
vt 0.806773 0.374822
vt 0.891836 0.465024
vt 0.901839 0.459022
vt 0.811813 0.296974
vt 0.801810 0.302976
vt 0.921845 0.302976
vt 0.911842 0.296974
vt 0.951854 0.393003
vt 0.951854 0.380999
s 0
f 40/1/1 25/2/1 24/3/1 37/4/1
f 36/5/1 27/6/1 4/7/1 17/8/1
f 50/9/1 48/10/1 20/11/1 22/12/1
f 38/13/1 41/14/1 2/15/1
f 45/16/1 29/17/1 6/18/1 14/19/1
f 49/20/1 15/21/1 9/22/1 30/23/1
f 35/24/1 12/25/1 23/26/1 39/27/1
f 47/28/1 52/29/1 1/30/1 3/31/1
f 52/29/1 33/32/1 10/33/1 1/30/1
f 43/34/1 45/16/1 14/19/1
f 42/35/1 43/34/1 46/36/1
f 16/37/1 15/21/1 49/20/1 46/36/1
f 46/36/1 49/20/1 50/9/1 47/28/1
f 19/38/1 18/39/1 44/40/1 42/35/1
f 42/35/1 44/40/1 45/16/1 43/34/1
f 21/41/1 11/42/1 32/43/1 51/44/1
f 51/44/1 32/43/1 33/32/1 52/29/1
f 22/12/1 21/41/1 51/44/1 50/9/1
f 50/9/1 51/44/1 52/29/1 47/28/1
f 13/45/1 34/46/1 38/13/1 2/15/1
f 34/46/1 35/24/1 39/27/1 38/13/1
f 20/11/1 48/10/1 31/47/1 8/48/1
f 48/10/1 49/20/1 30/23/1 31/47/1
f 18/39/1 7/49/1 28/50/1 44/40/1
f 44/40/1 28/50/1 29/17/1 45/16/1
f 23/26/1 25/2/1 40/1/1 39/27/1
f 39/27/1 40/1/1 41/14/1 38/13/1
f 47/28/1 41/14/1 40/1/1
f 49/20/1 48/10/1 50/9/1
f 24/3/1 5/51/1 26/52/1 37/4/1
f 37/4/1 26/52/1 27/6/1 36/5/1
f 19/38/1 42/35/1 36/5/1 17/8/1
f 42/35/1 40/1/1 37/4/1 36/5/1
f 43/34/1 14/19/1 16/37/1 46/36/1
f 47/28/1 3/31/1 2/15/1 41/14/1
f 40/1/1 42/35/1 46/36/1 47/28/1
f 92/1/2 89/4/2 76/3/2 77/2/2
f 88/5/2 69/8/2 56/7/2 79/6/2
f 102/9/2 74/12/2 72/11/2 100/10/2
f 90/13/2 54/15/2 93/14/2
f 97/16/2 66/19/2 58/18/2 81/17/2
f 101/20/2 82/23/2 61/22/2 67/21/2
f 87/24/2 91/27/2 75/26/2 64/25/2
f 99/28/2 55/31/2 53/30/2 104/29/2
f 104/29/2 53/30/2 62/33/2 85/32/2
f 95/34/2 66/19/2 97/16/2
f 94/35/2 98/36/2 95/34/2
f 68/37/2 98/36/2 101/20/2 67/21/2
f 98/36/2 99/28/2 102/9/2 101/20/2
f 71/38/2 94/35/2 96/40/2 70/39/2
f 94/35/2 95/34/2 97/16/2 96/40/2
f 73/41/2 103/44/2 84/43/2 63/42/2
f 103/44/2 104/29/2 85/32/2 84/43/2
f 74/12/2 102/9/2 103/44/2 73/41/2
f 102/9/2 99/28/2 104/29/2 103/44/2
f 65/45/2 54/15/2 90/13/2 86/46/2
f 86/46/2 90/13/2 91/27/2 87/24/2
f 72/11/2 60/48/2 83/47/2 100/10/2
f 100/10/2 83/47/2 82/23/2 101/20/2
f 70/39/2 96/40/2 80/50/2 59/49/2
f 96/40/2 97/16/2 81/17/2 80/50/2
f 75/26/2 91/27/2 92/1/2 77/2/2
f 91/27/2 90/13/2 93/14/2 92/1/2
f 99/28/2 92/1/2 93/14/2
f 101/20/2 102/9/2 100/10/2
f 76/3/2 89/4/2 78/52/2 57/51/2
f 89/4/2 88/5/2 79/6/2 78/52/2
f 71/38/2 69/8/2 88/5/2 94/35/2
f 94/35/2 88/5/2 89/4/2 92/1/2
f 95/34/2 98/36/2 68/37/2 66/19/2
f 99/28/2 93/14/2 54/15/2 55/31/2
f 92/1/2 99/28/2 98/36/2 94/35/2
f 16/37/3 14/19/3 66/19/3 68/37/3
f 20/11/4 8/48/4 60/48/4 72/11/4
f 15/21/5 16/37/5 68/37/5 67/21/5
f 19/38/6 17/8/6 69/8/6 71/38/6
f 18/39/7 19/38/7 71/38/7 70/39/7
f 7/49/8 18/39/8 70/39/8 59/49/8
f 22/12/9 20/11/9 72/11/9 74/12/9
f 3/31/10 1/30/10 53/30/10 55/31/10
f 14/19/11 6/18/11 58/18/11 66/19/11
f 21/41/12 22/12/12 74/12/12 73/41/12
f 13/45/13 2/15/13 54/15/13 65/45/13
f 5/51/14 24/3/14 76/3/14 57/51/14
f 25/2/15 23/26/15 75/26/15 77/2/15
f 1/30/16 10/33/16 62/33/16 53/30/16
f 17/8/17 4/7/17 56/7/17 69/8/17
f 2/15/18 3/31/18 55/31/18 54/15/18
f 11/42/19 21/41/19 73/41/19 63/42/19
f 23/26/20 12/25/20 64/25/20 75/26/20
f 24/3/21 25/2/21 77/2/21 76/3/21
f 9/22/22 15/21/22 67/21/22 61/22/22
