# Blender 4.5.3 LTS
# www.blender.org
o river_2_b
v 0.577350 0.000000 -1.666667
v 1.154701 0.000000 -1.333333
v 1.154701 0.000000 1.333333
v 0.577350 0.000000 1.666667
v -0.228947 0.000000 -0.396548
v 0.483244 0.000000 -0.321144
v 0.529450 0.000000 0.352560
v 0.384900 0.000000 0.000000
v 0.023784 0.000000 -0.815256
v 0.139142 0.000000 0.805476
v -0.148654 0.000000 0.409191
v -0.318036 0.000000 -0.030175
vn -0.0000 1.0000 -0.0000
vt 1.000000 0.593750
vt -0.000000 0.593750
vt -0.000000 0.476562
vt 1.000000 0.476562
vt -0.000000 1.000000
vt -0.000000 0.742188
vt 1.000000 1.000000
vt -0.000000 0.335938
vt 1.000000 0.375000
vt 1.000000 0.000000
vt -0.000000 0.210938
vt -0.000000 0.000000
s 0
f 6/1/1 5/2/1 12/3/1 8/4/1
f 1/5/1 9/6/1 6/1/1 2/7/1
f 11/8/1 7/9/1 8/4/1 12/3/1
f 3/10/1 7/9/1 10/11/1 4/12/1
f 5/2/1 6/1/1 9/6/1
f 7/9/1 11/8/1 10/11/1
