# Blender 4.5.3 LTS
# www.blender.org
o river_4_c
v -0.752535 0.000000 0.603410
v 0.708739 0.000000 0.333333
v -0.577350 0.000000 -0.333333
v 0.577350 0.000000 -0.333333
v 0.560085 0.000000 0.021898
v -0.523588 0.000000 0.072994
v 1.154701 0.000000 -1.333333
v 0.577350 0.000000 -1.666667
v 0.577350 0.000000 1.666667
v 1.154701 0.000000 1.333333
v -1.154701 0.000000 1.333333
v -0.577350 0.000000 1.666667
v -0.577350 0.000000 -1.666667
v -1.154701 0.000000 -1.333333
v 0.361858 0.000000 1.117087
v -0.230469 0.000000 1.036793
v 0.109491 0.000000 0.877005
v -0.259666 0.000000 -1.073290
v 0.259666 0.000000 -1.022194
v 0.014599 0.000000 -0.898903
v 0.769800 0.000000 -1.555555
v 0.962250 0.000000 -1.444444
v 0.962250 0.000000 1.444445
v 0.769800 0.000000 1.555556
v -0.769800 0.000000 1.555555
v -0.962250 0.000000 1.444444
v -0.962250 0.000000 -1.444445
v -0.769800 0.000000 -1.555556
v 0.068938 0.000000 0.508312
v -0.273039 0.000000 0.048662
v 0.329001 0.000000 0.020276
v 0.016221 0.000000 -0.478304
v 0.365561 0.000000 -0.792574
v 0.471456 0.000000 -0.562954
v -0.471456 0.000000 -0.579986
v -0.365561 0.000000 -0.826638
v -0.404491 0.000000 0.892332
v -0.578513 0.000000 0.747871
v 0.593112 0.000000 0.594584
v 0.477485 0.000000 0.855835
vn -0.0000 1.0000 -0.0000
vt 0.838162 0.493770
vt 0.986391 0.499592
vt 0.986391 0.690235
vt 0.838162 0.656267
vt 0.117449 0.327486
vt 0.011789 0.387063
vt 0.011789 0.009699
vt 0.117449 0.000000
vt 0.856447 0.693902
vt 0.991082 0.737919
vt 0.991082 0.998822
vt 0.856447 1.000000
vt 0.014495 0.744640
vt 0.113472 0.718552
vt 0.113472 0.991021
vt 0.014495 1.000000
vt 0.117449 0.507326
vt 0.117449 0.696590
vt 0.011789 0.627939
vt 0.011789 0.513351
vt 0.014495 0.515110
vt 0.113472 0.529925
vt 0.986391 0.988195
vt 0.838162 1.000000
vt 0.113472 0.385330
vt 0.014495 0.319868
vt 0.014495 0.000000
vt 0.113472 0.010411
vt 0.000000 0.000000
vt 0.838162 0.354797
vt 0.986391 0.325717
vt 0.991082 0.538749
vt 0.856447 0.528398
vt 0.856447 0.317570
vt 0.991082 0.342231
vt 0.856447 0.000000
vt 0.991082 0.018214
vt 0.117449 1.000000
vt 0.011789 0.988794
vt 0.838162 0.000000
vt 0.986391 0.009293
s 0
f 32/1/1 20/2/1 18/3/1 36/4/1
f 34/5/1 4/6/1 7/7/1 22/8/1
f 40/9/1 15/10/1 9/11/1 24/12/1
f 38/13/1 1/14/1 11/15/1 26/16/1
f 31/17/1 39/18/1 2/19/1 5/20/1
f 30/21/1 6/22/1 1/14/1 38/13/1
f 31/17/1 5/20/1 4/6/1 34/5/1
f 36/4/1 18/3/1 13/23/1 28/24/1
f 3/25/1 35/26/1 27/27/1 14/28/1
f 35/29/1 36/29/1 28/29/1 27/29/1
f 20/2/1 32/1/1 33/30/1 19/31/1
f 32/29/1 31/29/1 34/29/1 33/29/1
f 17/32/1 29/33/1 37/34/1 16/35/1
f 29/29/1 30/29/1 38/29/1 37/29/1
f 17/32/1 15/10/1 40/9/1 29/33/1
f 29/29/1 40/29/1 39/29/1 31/29/1
f 16/35/1 37/34/1 25/36/1 12/37/1
f 37/29/1 38/29/1 26/29/1 25/29/1
f 2/19/1 39/18/1 23/38/1 10/39/1
f 39/29/1 40/29/1 24/29/1 23/29/1
f 31/29/1 32/29/1 30/29/1
f 19/31/1 33/30/1 21/40/1 8/41/1
f 33/29/1 34/29/1 22/29/1 21/29/1
f 31/29/1 30/29/1 29/29/1
f 6/22/1 30/21/1 35/26/1 3/25/1
f 30/29/1 32/29/1 36/29/1 35/29/1
