# Blender 5.0.1
# www.blender.org
o river_3_d
v -0.337057 0.000000 0.593823
v -0.724507 0.000000 -0.442230
v 0.102453 0.000000 0.902516
v 0.056107 0.000000 -0.876060
v 0.698109 0.000000 -0.012259
v 0.809620 0.000000 0.443661
v -0.577350 0.000000 0.333333
v 0.690420 0.000000 -0.356471
v -0.334788 0.000000 -0.579870
v 0.577350 0.000000 1.666667
v 1.154701 0.000000 1.333333
v -1.732051 0.000000 -0.333333
v -1.732051 0.000000 0.333333
v 1.154701 0.000000 -1.333333
v 0.577350 0.000000 -1.666667
v 0.962250 0.000000 1.444444
v 0.769800 0.000000 1.555556
v -0.164151 0.000000 0.297194
v 0.353432 0.000000 -0.005847
v -0.163017 0.000000 -0.289653
v -1.732051 0.000000 0.111111
v -1.732051 0.000000 -0.111111
v 0.769801 0.000000 -1.555556
v 0.962251 0.000000 -1.444444
v 0.338175 0.000000 0.749564
v 0.573898 0.000000 0.596613
v -0.675455 0.000000 -0.183709
v -0.626403 0.000000 0.074812
v 0.478982 0.000000 -0.529668
v 0.267545 0.000000 -0.702864
v 0.577350 0.100000 1.666667
v 0.102453 0.100000 0.902516
v -0.334788 0.100000 -0.579870
v -0.724507 0.100000 -0.442230
v 0.809620 0.100000 0.443661
v 0.698109 0.100000 -0.012259
v 1.154701 0.100000 1.333333
v 0.056107 0.100000 -0.876060
v 0.577350 0.100000 -1.666667
v 0.690420 0.100000 -0.356471
v -0.337057 0.100000 0.593823
v -0.577350 0.100000 0.333333
v -1.732051 0.100000 0.333333
v -1.732051 0.100000 -0.333333
v 1.154701 0.100000 -1.333333
v 0.769800 0.100000 1.555556
v 0.353432 0.100000 -0.005847
v -1.732051 0.100000 -0.111111
v 0.962251 0.100000 -1.444444
v 0.573898 0.100000 0.596613
v -0.626403 0.100000 0.074812
v 0.267545 0.100000 -0.702864
v 0.962250 0.100000 1.444444
v -0.164151 0.100000 0.297194
v -0.163017 0.100000 -0.289653
v -1.732051 0.100000 0.111111
v 0.769801 0.100000 -1.555556
v 0.338175 0.100000 0.749564
v -0.675455 0.100000 -0.183709
v 0.478982 0.100000 -0.529668
vn -0.0000 -1.0000 -0.0000
vn -0.0000 1.0000 -0.0000
vn -0.8493 -0.0000 0.5278
vn -0.1075 -0.0000 -0.9942
vn -0.3330 -0.0000 -0.9429
vn 0.9032 -0.0000 0.4293
vn 0.9714 -0.0000 -0.2376
vn -0.6039 -0.0000 -0.7970
vn 0.9323 -0.0000 -0.3616
vn -0.5748 -0.0000 0.8183
vn -0.8349 -0.0000 -0.5504
vn 0.9998 -0.0000 -0.0223
vn -0.7350 -0.0000 0.6780
vn -0.0000 -0.0000 1.0000
vt 0.826719 0.384921
vt 0.771801 0.380999
vt 0.771801 0.393003
vt 0.824170 0.398885
vt 0.853354 0.390643
vt 0.844426 0.406320
vt 0.864744 0.422319
vt 0.875734 0.412963
vt 0.853296 0.358944
vt 0.844308 0.342921
vt 0.831819 0.356992
vt 0.829269 0.370956
vt 0.901839 0.290973
vt 0.891836 0.284971
vt 0.867153 0.326247
vt 0.879405 0.334509
vt 0.911842 0.453021
vt 0.921845 0.447019
vt 0.897714 0.394253
vt 0.886724 0.403608
vt 0.880198 0.375313
vt 0.898113 0.375660
vt 0.903909 0.351033
vt 0.891657 0.342771
vt 0.891836 0.465024
vt 0.901839 0.459022
vt 0.921845 0.302976
vt 0.911842 0.296974
vt 0.771801 0.356992
vt 0.771801 0.368996
s 0
f 27/1/1 22/2/1 12/3/1 2/4/1
f 20/5/1 9/6/1 4/7/1 30/8/1
f 18/9/1 1/10/1 7/11/1 28/12/1
f 17/13/1 10/14/1 3/15/1 25/16/1
f 24/17/1 14/18/1 8/19/1 29/20/1
f 19/21/1 5/22/1 6/23/1 26/24/1
f 1/10/1 18/9/1 25/16/1 3/15/1
f 18/9/1 19/21/1 26/24/1 25/16/1
f 15/25/1 23/26/1 30/8/1 4/7/1
f 23/26/1 24/17/1 29/20/1 30/8/1
f 20/5/1 19/21/1 18/9/1
f 11/27/1 16/28/1 26/24/1 6/23/1
f 16/28/1 17/13/1 25/16/1 26/24/1
f 9/6/1 20/5/1 27/1/1 2/4/1
f 20/5/1 18/9/1 28/12/1 27/1/1
f 5/22/1 19/21/1 29/20/1 8/19/1
f 19/21/1 20/5/1 30/8/1 29/20/1
f 7/11/1 13/29/1 21/30/1 28/12/1
f 28/12/1 21/30/1 22/2/1 27/1/1
f 59/1/2 34/4/2 44/3/2 48/2/2
f 55/5/2 52/8/2 38/7/2 33/6/2
f 54/9/2 51/12/2 42/11/2 41/10/2
f 46/13/2 58/16/2 32/15/2 31/14/2
f 49/17/2 60/20/2 40/19/2 45/18/2
f 47/21/2 50/24/2 35/23/2 36/22/2
f 41/10/2 32/15/2 58/16/2 54/9/2
f 54/9/2 58/16/2 50/24/2 47/21/2
f 39/25/2 38/7/2 52/8/2 57/26/2
f 57/26/2 52/8/2 60/20/2 49/17/2
f 55/5/2 54/9/2 47/21/2
f 37/27/2 35/23/2 50/24/2 53/28/2
f 53/28/2 50/24/2 58/16/2 46/13/2
f 33/6/2 34/4/2 59/1/2 55/5/2
f 55/5/2 59/1/2 51/12/2 54/9/2
f 36/22/2 40/19/2 60/20/2 47/21/2
f 47/21/2 60/20/2 52/8/2 55/5/2
f 42/11/2 51/12/2 56/30/2 43/29/2
f 51/12/2 59/1/2 48/2/2 56/30/2
f 3/15/3 10/14/3 31/14/3 32/15/3
f 2/4/4 12/3/4 44/3/4 34/4/4
f 9/6/5 2/4/5 34/4/5 33/6/5
f 8/19/6 14/18/6 45/18/6 40/19/6
f 6/23/7 5/22/7 36/22/7 35/23/7
f 4/7/8 9/6/8 33/6/8 38/7/8
f 11/27/9 6/23/9 35/23/9 37/27/9
f 1/10/10 3/15/10 32/15/10 41/10/10
f 15/25/11 4/7/11 38/7/11 39/25/11
f 5/22/12 8/19/12 40/19/12 36/22/12
f 7/11/13 1/10/13 41/10/13 42/11/13
f 13/29/14 7/11/14 42/11/14 43/29/14
