# Blender 5.0.1
# www.blender.org
o river_2_c
v 0.577350 0.000000 -1.666667
v 1.154701 0.000000 -1.333333
v -0.577350 0.000000 1.666667
v -1.154701 0.000000 1.333333
v -0.750271 0.000000 0.469915
v -0.206598 0.000000 -0.234404
v 0.259716 0.000000 -1.028916
v -0.153956 0.000000 0.792299
v 0.290984 0.000000 0.077556
v 0.752408 0.000000 -0.798419
vn -0.0000 1.0000 -0.0000
vt 0.921845 0.447019
vt 0.891836 0.465024
vt 0.875327 0.430575
vt 0.900935 0.418125
vt 0.853825 0.332201
vt 0.822831 0.349614
vt 0.801810 0.302976
vt 0.831819 0.284971
vt 0.851089 0.387659
vt 0.876952 0.370808
s 0
f 2/1/1 1/2/1 7/3/1 10/4/1
f 8/5/1 5/6/1 4/7/1 3/8/1
f 10/4/1 7/3/1 6/9/1 9/10/1
f 9/10/1 6/9/1 5/6/1 8/5/1
