# Blender 5.0.1
# www.blender.org
o wind_e
v -0.169225 2.527121 -0.465585
v 1.307982 2.221628 0.273965
v -0.168497 2.496144 -1.316949
v 1.544435 2.221658 -0.546751
v 3.216060 2.124204 0.540956
v 3.013310 2.185523 -0.283589
v 6.339803 1.994576 -0.567891
v 6.246291 1.994576 -1.137664
v -1.745200 2.486271 -0.999639
v -1.745328 2.491729 -0.141679
v -3.495147 1.778291 -0.018030
v -2.947503 1.802771 0.671865
v 4.855217 2.229819 0.156730
v 4.907023 2.217255 -0.725293
vn 0.0852 0.9963 -0.0064
vn 0.1040 0.9943 0.0226
vn 0.0708 0.9975 -0.0085
vn 0.1057 0.9941 0.0222
vn -0.0036 0.9994 0.0342
vn 0.0050 0.9994 0.0350
vn 0.1550 0.9878 -0.0130
vn -0.1549 0.9875 0.0303
vn -0.2345 0.9702 0.0607
vn -0.3683 0.9229 0.1124
vn 0.0364 0.9992 0.0153
vn 0.0807 0.9967 0.0047
vt 0.562500 0.512392
vt 0.562500 0.206126
vt 0.937500 0.203870
vt 0.937500 0.510137
vt 0.937500 0.760698
vt 0.937500 0.873092
vt 0.562500 0.875348
vt 0.562500 0.762953
vt 0.937500 1.000000
vt 0.562500 1.000000
vt 0.562500 0.085172
vt 0.562500 0.000000
vt 0.937500 0.000000
vt 0.937500 0.083498
s 1
f 2/1/2 5/2/5 6/3/6 4/4/4
f 3/5/3 9/6/8 10/7/9 1/8/1
f 9/6/8 11/9/10 12/10/10 10/7/9
f 13/11/11 7/12/7 8/13/7 14/14/12
f 5/2/5 13/11/11 14/14/12 6/3/6
f 4/4/4 3/5/3 1/8/1 2/1/2
