# Blender 5.0.1
# www.blender.org
o wind_b
v -1.183584 1.721943 -0.469578
v 1.237375 1.567543 -0.513262
v -1.183584 1.721943 -1.328958
v 1.247124 1.567572 -1.372642
v -2.012390 2.572089 -0.343203
v -2.012390 2.572089 -1.202582
v -0.148302 3.590658 -0.145979
v -0.314574 3.574872 -1.005359
v 1.531057 2.748050 0.089056
v 1.531057 2.748050 -0.770324
v 0.506076 1.695740 0.295680
v 0.531075 1.688087 -0.563700
v -1.352879 1.102094 0.410030
v -1.352879 1.102094 -0.449350
v -5.012464 2.189613 0.288658
v -5.012464 2.189613 -0.288738
v 2.852196 1.770343 -0.518722
v 2.852196 1.770343 -1.378102
v 4.246719 3.018365 -0.659714
v 4.246720 3.018365 -1.237109
v 0.011993 1.666729 -0.499613
v 0.031970 1.672492 -1.358993
v -1.993512 2.024241 -1.276297
v -1.993512 2.024241 -0.416917
v -1.502120 3.125382 -1.111250
v -1.424049 3.149862 -0.251870
v 0.979082 3.260872 -0.888947
v 1.049000 3.278002 -0.029567
v 1.286181 2.160754 -0.658838
v 1.286181 2.160754 0.200542
v -0.310426 1.282442 -0.492861
v -0.320238 1.285446 0.366518
v -2.689580 1.258897 -0.414340
v -2.689580 1.258897 0.409233
v 2.125835 1.651134 -0.518039
v 2.125834 1.651134 -1.377419
v 3.696615 2.137952 -0.536625
v 3.696615 2.137952 -1.360198
vn 0.2032 0.9791 0.0019
vn -0.0043 1.0000 0.0022
vn 0.1947 0.9809 0.0020
vn -0.0065 1.0000 0.0021
vn 0.9210 -0.3894 -0.0133
vn 0.9451 -0.3265 -0.0114
vn -0.0038 -0.9998 0.0207
vn 0.1016 -0.9948 0.0066
vn -0.9927 -0.1188 0.0192
vn -0.9662 -0.2568 0.0238
vn -0.4789 0.8778 -0.0131
vn -0.4847 0.8746 -0.0128
vn -0.0265 0.9996 -0.0014
vn -0.0315 0.9995 -0.0014
vn 0.3719 0.9283 -0.0000
vn -0.2819 0.9594 -0.0000
vn -0.2820 0.9594 -0.0000
vn -0.8481 0.5299 -0.0000
vn 0.0629 0.9980 0.0043
vn 0.0640 0.9979 0.0043
vn 0.7861 0.6181 -0.0000
vn 0.8345 0.5510 -0.0000
vn 0.5674 -0.8231 -0.0251
vn 0.5213 -0.8530 -0.0255
vn -0.4708 -0.8810 0.0470
vn -0.5272 -0.8485 0.0450
vn -0.7776 0.6287 -0.0055
vn -0.7402 0.6724 -0.0065
vn -0.3155 0.9489 -0.0089
vn -0.3037 0.9527 -0.0084
vn 0.2432 0.9700 -0.0000
vn 0.2443 0.9697 -0.0000
vn -0.1281 0.9918 -0.0003
vn -0.1282 0.9917 -0.0003
vn -0.6423 0.7665 -0.0000
vt 0.437500 0.309272
vt 0.437500 0.248436
vt 0.812500 0.231825
vt 0.812500 0.292661
vt 0.812500 0.398634
vt 0.812500 0.441022
vt 0.437500 0.457632
vt 0.437500 0.415244
vt 0.812500 0.481660
vt 0.812500 0.525075
vt 0.437500 0.541686
vt 0.437500 0.498271
vt 0.812500 0.346979
vt 0.437500 0.363590
vt 0.812500 0.571830
vt 0.812500 0.620043
vt 0.437500 0.636653
vt 0.437500 0.588441
vt 0.812500 0.670845
vt 0.812500 0.730499
vt 0.437500 0.747110
vt 0.437500 0.687456
vt 0.812500 0.796927
vt 0.812500 0.869349
vt 0.437500 0.885960
vt 0.437500 0.813537
vt 0.812500 0.940859
vt 0.812500 1.000000
vt 0.437500 1.000000
vt 0.437500 0.957202
vt 0.437500 0.177378
vt 0.437500 0.107681
vt 0.812500 0.091071
vt 0.812500 0.160767
vt 0.437500 0.052093
vt 0.437500 0.000000
vt 0.812500 0.000000
vt 0.812500 0.035749
s 1
f 21/1/19 2/2/2 4/3/4 22/4/20
f 23/5/21 6/6/6 5/7/5 24/8/22
f 25/9/23 8/10/8 7/11/7 26/12/24
f 3/13/3 23/5/21 24/8/22 1/14/1
f 27/15/25 10/16/10 9/17/9 28/18/26
f 6/6/6 25/9/23 26/12/24 5/7/5
f 29/19/27 12/20/12 11/21/11 30/22/28
f 8/10/8 27/15/25 28/18/26 7/11/7
f 31/23/29 14/24/14 13/25/13 32/26/30
f 10/16/10 29/19/27 30/22/28 9/17/9
f 33/27/31 16/28/15 15/29/15 34/30/32
f 12/20/12 31/23/29 32/26/30 11/21/11
f 35/31/33 17/32/16 18/33/17 36/34/34
f 14/24/14 33/27/31 34/30/32 13/25/13
f 37/35/35 19/36/18 20/37/18 38/38/35
f 2/2/2 35/31/33 36/34/34 4/3/4
f 17/32/16 37/35/35 38/38/35 18/33/17
f 22/4/20 3/13/3 1/14/1 21/1/19
