# Blender 4.5.3 LTS
# www.blender.org
o bushesA
v -0.089885 -0.014018 -1.039136
v 0.051911 0.025123 -0.918565
v -0.172598 0.025524 -0.830086
v -0.307662 0.024569 -1.038664
v -0.150868 0.024569 -1.209650
v 0.059400 0.024569 -1.155463
v -0.061290 0.230303 -0.833867
v -0.280614 0.230488 -0.892691
v -0.263660 0.230488 -1.131863
v -0.036028 0.230488 -1.201854
v 0.098579 0.230414 -1.005093
v -0.120760 0.360512 -1.025906
v -1.136511 -0.034171 -0.565035
v -1.031119 0.010513 -0.375996
v -1.274959 0.009879 -0.392692
v -1.341924 0.009630 -0.637579
v -1.139599 0.009630 -0.778941
v -0.950570 0.009632 -0.614822
v -1.161446 0.241859 -0.326173
v -1.360654 0.243369 -0.498683
v -1.276186 0.243369 -0.732432
v -1.036407 0.243369 -0.723967
v -0.971012 0.242911 -0.466777
v -1.172237 0.390959 -0.543739
v 1.048783 -0.011073 0.315751
v 1.154176 0.033092 0.422172
v 0.986630 0.025811 0.504366
v 0.852842 0.025676 0.341628
v 0.963117 0.029376 0.158339
v 1.170100 0.029105 0.206606
v 1.063391 0.222433 0.497942
v 0.858792 0.221505 0.454548
v 0.872410 0.225837 0.242375
v 1.094805 0.229858 0.143271
v 1.216885 0.227877 0.316774
v 1.006880 0.343488 0.339744
v 0.297078 -0.003008 1.054640
v 0.426410 0.027234 1.199961
v 0.213604 0.025199 1.282726
v 0.090097 0.027433 1.089891
v 0.238082 0.034208 0.895448
v 0.433799 0.030594 0.975448
v 0.319599 0.228987 1.291004
v 0.117115 0.226942 1.206157
v 0.116950 0.227046 0.994248
v 0.323372 0.228374 0.942849
v 0.453817 0.224280 1.082343
v 0.258678 0.350243 1.105002
v 0.549351 0.007458 0.444182
v 0.675755 0.040489 0.539991
v 0.474907 0.040489 0.603710
v 0.364531 0.040489 0.450409
v 0.489402 0.040489 0.298878
v 0.681652 0.040489 0.351821
v 0.577100 0.216762 0.609118
v 0.384601 0.216762 0.552653
v 0.395568 0.216762 0.358919
v 0.593087 0.216762 0.301802
v 0.708924 0.216762 0.449357
v 0.527513 0.328067 0.456740
v 0.839784 -0.032013 -0.610800
v 1.043082 0.010498 -0.584861
v 0.880427 0.012674 -0.377657
v 0.656532 0.010593 -0.486156
v 0.661225 0.008938 -0.762921
v 0.909911 0.009255 -0.816851
v 1.001806 0.239634 -0.419648
v 0.771773 0.239504 -0.358319
v 0.614148 0.242743 -0.615742
v 0.786844 0.243872 -0.814251
v 1.006763 0.243913 -0.723413
v 0.834593 0.389244 -0.583293
vn 0.0838 -0.9725 0.2171
vn 0.2578 -0.9661 0.0104
vn -0.1730 -0.9780 0.1165
vn -0.1726 -0.9722 -0.1583
vn 0.0622 -0.9684 -0.2414
vn 0.9774 -0.2090 0.0314
vn 0.3605 -0.1790 0.9154
vn -0.8086 -0.2658 0.5248
vn -0.7290 -0.1468 -0.6685
vn 0.2482 -0.1020 -0.9633
vn 0.7256 0.1206 0.6775
vn -0.2557 0.1566 0.9540
vn -0.9815 0.1783 -0.0696
vn -0.2882 0.1962 -0.9373
vn 0.7997 0.2474 -0.5470
vn 0.4367 0.8016 0.4083
vn -0.1568 0.7942 0.5871
vn -0.6533 0.7557 -0.0463
vn -0.1975 0.7405 -0.6424
vn 0.5030 0.7930 -0.3438
vn -0.0137 -0.9714 0.2372
vn 0.2507 -0.9640 0.0881
vn -0.2296 -0.9712 0.0638
vn -0.1375 -0.9708 -0.1968
vn 0.1736 -0.9643 -0.2000
vn 0.9407 -0.1192 0.3177
vn -0.0656 -0.2453 0.9672
vn -0.9391 -0.2280 0.2570
vn -0.5645 -0.1691 -0.8079
vn 0.6515 -0.1112 -0.7504
vn 0.5859 0.1589 0.7947
vn -0.6507 0.1027 0.7523
vn -0.9330 0.1256 -0.3372
vn 0.0345 0.2144 -0.9761
vn 0.9423 0.2344 -0.2392
vn 0.3735 0.7737 0.5117
vn -0.4457 0.7280 0.5210
vn -0.6336 0.7390 -0.2290
vn 0.0220 0.7816 -0.6234
vn 0.6236 0.7658 -0.1572
vn 0.1592 -0.9577 0.2397
vn 0.3488 -0.9362 0.0431
vn -0.1652 -0.9768 0.1366
vn -0.2004 -0.9696 -0.1401
vn 0.0643 -0.9575 -0.2810
vn 0.9604 -0.2681 0.0759
vn 0.4409 -0.1432 0.8861
vn -0.7306 -0.3243 0.6009
vn -0.8428 -0.1707 -0.5105
vn 0.2214 -0.2169 -0.9508
vn 0.7572 0.1051 0.6447
vn -0.2067 0.1124 0.9719
vn -0.9958 0.0663 -0.0626
vn -0.4020 0.1969 -0.8942
vn 0.8121 0.1248 -0.5700
vn 0.4720 0.7734 0.4232
vn -0.1376 0.7623 0.6325
vn -0.6475 0.7616 -0.0260
vn -0.2678 0.7773 -0.5694
vn 0.4354 0.8499 -0.2967
vn 0.0664 -0.9870 0.1463
vn 0.2349 -0.9720 -0.0068
vn -0.1328 -0.9884 0.0736
vn -0.1708 -0.9716 -0.1638
vn 0.0874 -0.9623 -0.2574
vn 0.9923 -0.1196 0.0309
vn 0.3553 -0.2217 0.9081
vn -0.8269 -0.1953 0.5273
vn -0.7793 -0.1824 -0.5995
vn 0.3786 0.0592 -0.9236
vn 0.8262 0.1996 0.5269
vn -0.3827 0.1621 0.9095
vn -0.9910 0.1337 0.0008
vn -0.2305 0.3251 -0.9172
vn 0.7041 0.2860 -0.6500
vn 0.5388 0.7755 0.3291
vn -0.2530 0.7705 0.5851
vn -0.6564 0.7544 0.0009
vn -0.1626 0.7565 -0.6334
vn 0.4612 0.7879 -0.4081
vn 0.0747 -0.9690 0.2355
vn 0.2473 -0.9689 0.0078
vn -0.1706 -0.9777 0.1228
vn -0.1788 -0.9728 -0.1474
vn 0.0683 -0.9664 -0.2478
vn 0.9851 -0.1695 0.0309
vn 0.2963 -0.2004 0.9338
vn -0.7880 -0.2393 0.5673
vn -0.7576 -0.1906 -0.6243
vn 0.2629 -0.1388 -0.9548
vn 0.7588 0.1792 0.6261
vn -0.2790 0.1326 0.9511
vn -0.9879 0.1449 -0.0559
vn -0.2734 0.1765 -0.9456
vn 0.7682 0.2148 -0.6031
vn 0.4902 0.7721 0.4045
vn -0.1812 0.7651 0.6179
vn -0.6288 0.7767 -0.0356
vn -0.1802 0.7611 -0.6231
vn 0.4743 0.7977 -0.3723
vn 0.1834 -0.9709 0.1541
vn 0.2178 -0.9686 -0.1199
vn -0.0890 -0.9752 0.2024
vn -0.2252 -0.9743 0.0020
vn -0.0445 -0.9765 -0.2107
vn 0.8567 -0.1581 -0.4909
vn 0.7508 -0.2919 0.5925
vn -0.4174 -0.2738 0.8665
vn -0.9821 -0.1880 -0.0155
vn -0.2108 -0.0998 -0.9724
vn 0.9862 0.1644 0.0184
vn 0.2574 0.0410 0.9654
vn -0.8442 0.1354 0.5186
vn -0.7308 0.2522 -0.6343
vn 0.3735 0.2060 -0.9045
vn 0.6550 0.7554 0.0213
vn 0.1533 0.8023 0.5768
vn -0.5538 0.7561 0.3486
vn -0.4655 0.7892 -0.4005
vn 0.2278 0.8021 -0.5520
vt 0.181819 0.000000
vt 0.272728 0.157461
vt 0.090910 0.157461
vt 0.363637 0.000000
vt 0.454546 0.157461
vt 0.909091 0.000000
vt 1.000000 0.157461
vt 0.818182 0.157461
vt 0.727273 0.000000
vt 0.636364 0.157461
vt 0.545455 0.000000
vt 0.363637 0.314921
vt 0.181819 0.314921
vt 0.909091 0.314921
vt 0.727273 0.314921
vt 0.545455 0.314921
vt 0.000000 0.314921
vt 0.272728 0.472382
vt 0.090910 0.472382
vt 0.818182 0.472382
vt 0.636364 0.472382
vt 0.454546 0.472382
s 0
f 1/1/1 2/2/1 3/3/1
f 2/2/2 1/4/2 6/5/2
f 1/6/3 3/7/3 4/8/3
f 1/9/4 4/8/4 5/10/4
f 1/11/5 5/10/5 6/5/5
f 2/2/6 6/5/6 11/12/6
f 3/3/7 2/2/7 7/13/7
f 4/8/8 3/7/8 8/14/8
f 5/10/9 4/8/9 9/15/9
f 6/5/10 5/10/10 10/16/10
f 2/2/11 11/12/11 7/13/11
f 3/3/12 7/13/12 8/17/12
f 4/8/13 8/14/13 9/15/13
f 5/10/14 9/15/14 10/16/14
f 6/5/15 10/16/15 11/12/15
f 7/13/16 11/12/16 12/18/16
f 8/17/17 7/13/17 12/19/17
f 9/15/18 8/14/18 12/20/18
f 10/16/19 9/15/19 12/21/19
f 11/12/20 10/16/20 12/22/20
f 13/1/21 14/2/21 15/3/21
f 14/2/22 13/4/22 18/5/22
f 13/6/23 15/7/23 16/8/23
f 13/9/24 16/8/24 17/10/24
f 13/11/25 17/10/25 18/5/25
f 14/2/26 18/5/26 23/12/26
f 15/3/27 14/2/27 19/13/27
f 16/8/28 15/7/28 20/14/28
f 17/10/29 16/8/29 21/15/29
f 18/5/30 17/10/30 22/16/30
f 14/2/31 23/12/31 19/13/31
f 15/3/32 19/13/32 20/17/32
f 16/8/33 20/14/33 21/15/33
f 17/10/34 21/15/34 22/16/34
f 18/5/35 22/16/35 23/12/35
f 19/13/36 23/12/36 24/18/36
f 20/17/37 19/13/37 24/19/37
f 21/15/38 20/14/38 24/20/38
f 22/16/39 21/15/39 24/21/39
f 23/12/40 22/16/40 24/22/40
f 25/1/41 26/2/41 27/3/41
f 26/2/42 25/4/42 30/5/42
f 25/6/43 27/7/43 28/8/43
f 25/9/44 28/8/44 29/10/44
f 25/11/45 29/10/45 30/5/45
f 26/2/46 30/5/46 35/12/46
f 27/3/47 26/2/47 31/13/47
f 28/8/48 27/7/48 32/14/48
f 29/10/49 28/8/49 33/15/49
f 30/5/50 29/10/50 34/16/50
f 26/2/51 35/12/51 31/13/51
f 27/3/52 31/13/52 32/17/52
f 28/8/53 32/14/53 33/15/53
f 29/10/54 33/15/54 34/16/54
f 30/5/55 34/16/55 35/12/55
f 31/13/56 35/12/56 36/18/56
f 32/17/57 31/13/57 36/19/57
f 33/15/58 32/14/58 36/20/58
f 34/16/59 33/15/59 36/21/59
f 35/12/60 34/16/60 36/22/60
f 37/1/61 38/2/61 39/3/61
f 38/2/62 37/4/62 42/5/62
f 37/6/63 39/7/63 40/8/63
f 37/9/64 40/8/64 41/10/64
f 37/11/65 41/10/65 42/5/65
f 38/2/66 42/5/66 47/12/66
f 39/3/67 38/2/67 43/13/67
f 40/8/68 39/7/68 44/14/68
f 41/10/69 40/8/69 45/15/69
f 42/5/70 41/10/70 46/16/70
f 38/2/71 47/12/71 43/13/71
f 39/3/72 43/13/72 44/17/72
f 40/8/73 44/14/73 45/15/73
f 41/10/74 45/15/74 46/16/74
f 42/5/75 46/16/75 47/12/75
f 43/13/76 47/12/76 48/18/76
f 44/17/77 43/13/77 48/19/77
f 45/15/78 44/14/78 48/20/78
f 46/16/79 45/15/79 48/21/79
f 47/12/80 46/16/80 48/22/80
f 49/1/81 50/2/81 51/3/81
f 50/2/82 49/4/82 54/5/82
f 49/6/83 51/7/83 52/8/83
f 49/9/84 52/8/84 53/10/84
f 49/11/85 53/10/85 54/5/85
f 50/2/86 54/5/86 59/12/86
f 51/3/87 50/2/87 55/13/87
f 52/8/88 51/7/88 56/14/88
f 53/10/89 52/8/89 57/15/89
f 54/5/90 53/10/90 58/16/90
f 50/2/91 59/12/91 55/13/91
f 51/3/92 55/13/92 56/17/92
f 52/8/93 56/14/93 57/15/93
f 53/10/94 57/15/94 58/16/94
f 54/5/95 58/16/95 59/12/95
f 55/13/96 59/12/96 60/18/96
f 56/17/97 55/13/97 60/19/97
f 57/15/98 56/14/98 60/20/98
f 58/16/99 57/15/99 60/21/99
f 59/12/100 58/16/100 60/22/100
f 61/1/101 62/2/101 63/3/101
f 62/2/102 61/4/102 66/5/102
f 61/6/103 63/7/103 64/8/103
f 61/9/104 64/8/104 65/10/104
f 61/11/105 65/10/105 66/5/105
f 62/2/106 66/5/106 71/12/106
f 63/3/107 62/2/107 67/13/107
f 64/8/108 63/7/108 68/14/108
f 65/10/109 64/8/109 69/15/109
f 66/5/110 65/10/110 70/16/110
f 62/2/111 71/12/111 67/13/111
f 63/3/112 67/13/112 68/17/112
f 64/8/113 68/14/113 69/15/113
f 65/10/114 69/15/114 70/16/114
f 66/5/115 70/16/115 71/12/115
f 67/13/116 71/12/116 72/18/116
f 68/17/117 67/13/117 72/19/117
f 69/15/118 68/14/118 72/20/118
f 70/16/119 69/15/119 72/21/119
f 71/12/120 70/16/120 72/22/120
