# Blender 4.5.3 LTS
# www.blender.org
o bushesA
v -0.089885 -0.014018 -1.039136
v 0.051911 0.025123 -0.918565
v -0.172598 0.025524 -0.830086
v -0.307662 0.024569 -1.038664
v -0.150868 0.024569 -1.209650
v 0.059400 0.024569 -1.155463
v -0.061290 0.230303 -0.833867
v -0.280614 0.230488 -0.892691
v -0.263660 0.230488 -1.131863
v -0.036028 0.230488 -1.201854
v 0.098579 0.230414 -1.005093
v -0.120760 0.360512 -1.025906
v -1.136511 -0.034171 -0.565035
v -1.031119 0.010513 -0.375996
v -1.274959 0.009879 -0.392692
v -1.341924 0.009630 -0.637579
v -1.139599 0.009630 -0.778941
v -0.950570 0.009632 -0.614822
v -1.161446 0.241859 -0.326173
v -1.360654 0.243369 -0.498683
v -1.276186 0.243369 -0.732432
v -1.036407 0.243369 -0.723967
v -0.971012 0.242911 -0.466777
v -1.172237 0.390959 -0.543739
v 1.048783 -0.011073 0.315751
v 1.154176 0.033092 0.422172
v 0.986630 0.025811 0.504366
v 0.852842 0.025676 0.341628
v 0.963117 0.029376 0.158339
v 1.170100 0.029105 0.206606
v 1.063391 0.222433 0.497942
v 0.858792 0.221505 0.454548
v 0.872410 0.225837 0.242375
v 1.094805 0.229858 0.143271
v 1.216885 0.227877 0.316774
v 1.006880 0.343488 0.339744
v 0.297078 -0.003008 1.054640
v 0.426410 0.027234 1.199961
v 0.213604 0.025199 1.282726
v 0.090097 0.027433 1.089891
v 0.238082 0.034208 0.895448
v 0.433799 0.030594 0.975448
v 0.319599 0.228987 1.291004
v 0.117115 0.226942 1.206157
v 0.116950 0.227046 0.994248
v 0.323372 0.228374 0.942849
v 0.453817 0.224280 1.082343
v 0.258678 0.350243 1.105002
v 0.549351 0.007458 0.444182
v 0.675755 0.040489 0.539991
v 0.474907 0.040489 0.603710
v 0.364531 0.040489 0.450409
v 0.489402 0.040489 0.298878
v 0.681652 0.040489 0.351821
v 0.577100 0.216762 0.609118
v 0.384601 0.216762 0.552653
v 0.395568 0.216762 0.358919
v 0.593087 0.216762 0.301802
v 0.708924 0.216762 0.449357
v 0.527513 0.328067 0.456740
v 0.839784 -0.032013 -0.610800
v 1.043082 0.010498 -0.584861
v 0.880427 0.012674 -0.377657
v 0.656532 0.010593 -0.486156
v 0.661225 0.008938 -0.762921
v 0.909911 0.009255 -0.816851
v 1.001806 0.239634 -0.419648
v 0.771773 0.239504 -0.358319
v 0.614148 0.242743 -0.615742
v 0.786844 0.243872 -0.814251
v 1.006763 0.243913 -0.723413
v 0.834593 0.389244 -0.583293
vn 0.0186 -0.9998 -0.0119
vn 0.6603 -0.5753 0.4827
vn -0.2317 -0.5760 0.7839
vn -0.8189 -0.5671 -0.0883
vn -0.2325 -0.5445 -0.8059
vn 0.6679 -0.5295 -0.5230
vn 0.2583 0.4329 0.8637
vn -0.7370 0.4164 0.5324
vn -0.7070 0.4331 -0.5591
vn 0.2859 0.4694 -0.8354
vn 0.8912 0.4450 0.0884
vn -0.0339 0.9989 -0.0328
vn 0.0152 -0.9999 -0.0044
vn 0.4799 -0.5611 0.6744
vn -0.5142 -0.5902 0.6224
vn -0.7642 -0.5769 -0.2883
vn 0.0531 -0.5385 -0.8410
vn 0.8210 -0.5256 -0.2229
vn -0.0404 0.4022 0.9147
vn -0.8910 0.3878 0.2362
vn -0.5132 0.4338 -0.7406
vn 0.5510 0.4702 -0.6894
vn 0.8344 0.4534 0.3134
vn -0.0300 0.9994 0.0162
vn 0.0589 -0.9982 -0.0101
vn 0.6737 -0.5539 0.4893
vn -0.1290 -0.5901 0.7969
vn -0.7936 -0.6082 0.0192
vn -0.3344 -0.5451 -0.7688
vn 0.6557 -0.5717 -0.4931
vn 0.2944 0.4177 0.8596
vn -0.7408 0.3743 0.5579
vn -0.7606 0.4206 -0.4946
vn 0.2540 0.4562 -0.8529
vn 0.9041 0.4254 0.0419
vn -0.0486 0.9980 0.0401
vn 0.0224 -0.9981 -0.0580
vn 0.6862 -0.5640 0.4594
vn -0.2593 -0.5903 0.7644
vn -0.8075 -0.5887 -0.0379
vn -0.1870 -0.4801 -0.8570
vn 0.7027 -0.5001 -0.5061
vn 0.2660 0.4375 0.8590
vn -0.7601 0.4149 0.5001
vn -0.7280 0.4395 -0.5261
vn 0.2587 0.5257 -0.8104
vn 0.8798 0.4716 -0.0595
vn -0.0227 0.9997 -0.0092
vn 0.0161 -0.9998 -0.0079
vn 0.6649 -0.5566 0.4982
vn -0.2495 -0.5815 0.7744
vn -0.8147 -0.5788 -0.0359
vn -0.2427 -0.5557 -0.7952
vn 0.6731 -0.5409 -0.5043
vn 0.2608 0.4185 0.8700
vn -0.7426 0.4155 0.5252
vn -0.7112 0.4271 -0.5585
vn 0.2704 0.4532 -0.8494
vn 0.8893 0.4570 0.0149
vn -0.0127 0.9999 0.0052
vn 0.0133 -0.9999 0.0024
vn 0.8220 -0.5684 0.0367
vn 0.1738 -0.6146 0.7695
vn -0.6980 -0.5826 0.4164
vn -0.6414 -0.5366 -0.5484
vn 0.3283 -0.5452 -0.7713
vn 0.7078 0.3903 0.5888
vn -0.3224 0.3922 0.8615
vn -0.8966 0.4396 -0.0536
vn -0.1917 0.4832 -0.8543
vn 0.7506 0.4478 -0.4859
vn -0.0003 0.9999 0.0103
vt 0.315126 0.818323
vt 0.342147 0.795347
vt 0.299364 0.778486
vt 0.343574 0.840491
vt 0.273626 0.818233
vt 0.303505 0.850817
vt 0.351040 0.811836
vt 0.320575 0.779206
vt 0.278780 0.790416
vt 0.282011 0.835993
vt 0.325389 0.849331
vt 0.309242 0.815802
vt 0.064846 0.819474
vt 0.084930 0.783451
vt 0.038463 0.786632
vt 0.100279 0.828962
vt 0.025702 0.833299
vt 0.064257 0.860237
vt 0.096384 0.800750
vt 0.060094 0.773956
vt 0.022132 0.806830
vt 0.038229 0.851374
vt 0.083922 0.849761
vt 0.058038 0.815416
vt 0.189846 0.814291
vt 0.209930 0.794011
vt 0.178002 0.778348
vt 0.212964 0.835090
vt 0.152507 0.809360
vt 0.173521 0.844288
vt 0.221880 0.814096
vt 0.192629 0.779572
vt 0.153640 0.787842
vt 0.156236 0.828274
vt 0.198616 0.847160
vt 0.181861 0.809719
vt 0.314313 0.827676
vt 0.338959 0.799984
vt 0.298406 0.784212
vt 0.340367 0.842768
vt 0.274870 0.820959
vt 0.303071 0.858013
vt 0.344182 0.822397
vt 0.318605 0.782634
vt 0.280019 0.798803
vt 0.279988 0.839185
vt 0.319324 0.848980
vt 0.306996 0.818079
vt 0.177698 0.818622
vt 0.201786 0.800364
vt 0.163512 0.788222
vt 0.202910 0.836223
vt 0.142478 0.817435
vt 0.166274 0.846311
vt 0.208107 0.817636
vt 0.182986 0.787191
vt 0.146303 0.797951
vt 0.148393 0.834870
vt 0.186032 0.845754
vt 0.173536 0.816229
vt 0.058521 0.809557
vt 0.097262 0.804614
vt 0.066266 0.765129
vt 0.071884 0.848823
vt 0.023600 0.785805
vt 0.024494 0.838546
vt 0.090341 0.831017
vt 0.089396 0.773131
vt 0.045560 0.761444
vt 0.015523 0.810499
vt 0.048432 0.848327
vt 0.057532 0.804315
s 1
f 1/1/1 2/2/2 3/3/3
f 2/2/2 1/1/1 6/4/6
f 1/1/1 3/3/3 4/5/4
f 1/1/1 4/5/4 5/6/5
f 1/1/1 5/6/5 6/4/6
f 2/2/2 6/4/6 11/7/11
f 3/3/3 2/2/2 7/8/7
f 4/5/4 3/3/3 8/9/8
f 5/6/5 4/5/4 9/10/9
f 6/4/6 5/6/5 10/11/10
f 2/2/2 11/7/11 7/8/7
f 3/3/3 7/8/7 8/9/8
f 4/5/4 8/9/8 9/10/9
f 5/6/5 9/10/9 10/11/10
f 6/4/6 10/11/10 11/7/11
f 7/8/7 11/7/11 12/12/12
f 8/9/8 7/8/7 12/12/12
f 9/10/9 8/9/8 12/12/12
f 10/11/10 9/10/9 12/12/12
f 11/7/11 10/11/10 12/12/12
f 13/13/13 14/14/14 15/15/15
f 14/14/14 13/13/13 18/16/18
f 13/13/13 15/15/15 16/17/16
f 13/13/13 16/17/16 17/18/17
f 13/13/13 17/18/17 18/16/18
f 14/14/14 18/16/18 23/19/23
f 15/15/15 14/14/14 19/20/19
f 16/17/16 15/15/15 20/21/20
f 17/18/17 16/17/16 21/22/21
f 18/16/18 17/18/17 22/23/22
f 14/14/14 23/19/23 19/20/19
f 15/15/15 19/20/19 20/21/20
f 16/17/16 20/21/20 21/22/21
f 17/18/17 21/22/21 22/23/22
f 18/16/18 22/23/22 23/19/23
f 19/20/19 23/19/23 24/24/24
f 20/21/20 19/20/19 24/24/24
f 21/22/21 20/21/20 24/24/24
f 22/23/22 21/22/21 24/24/24
f 23/19/23 22/23/22 24/24/24
f 25/25/25 26/26/26 27/27/27
f 26/26/26 25/25/25 30/28/30
f 25/25/25 27/27/27 28/29/28
f 25/25/25 28/29/28 29/30/29
f 25/25/25 29/30/29 30/28/30
f 26/26/26 30/28/30 35/31/35
f 27/27/27 26/26/26 31/32/31
f 28/29/28 27/27/27 32/33/32
f 29/30/29 28/29/28 33/34/33
f 30/28/30 29/30/29 34/35/34
f 26/26/26 35/31/35 31/32/31
f 27/27/27 31/32/31 32/33/32
f 28/29/28 32/33/32 33/34/33
f 29/30/29 33/34/33 34/35/34
f 30/28/30 34/35/34 35/31/35
f 31/32/31 35/31/35 36/36/36
f 32/33/32 31/32/31 36/36/36
f 33/34/33 32/33/32 36/36/36
f 34/35/34 33/34/33 36/36/36
f 35/31/35 34/35/34 36/36/36
f 37/37/37 38/38/38 39/39/39
f 38/38/38 37/37/37 42/40/42
f 37/37/37 39/39/39 40/41/40
f 37/37/37 40/41/40 41/42/41
f 37/37/37 41/42/41 42/40/42
f 38/38/38 42/40/42 47/43/47
f 39/39/39 38/38/38 43/44/43
f 40/41/40 39/39/39 44/45/44
f 41/42/41 40/41/40 45/46/45
f 42/40/42 41/42/41 46/47/46
f 38/38/38 47/43/47 43/44/43
f 39/39/39 43/44/43 44/45/44
f 40/41/40 44/45/44 45/46/45
f 41/42/41 45/46/45 46/47/46
f 42/40/42 46/47/46 47/43/47
f 43/44/43 47/43/47 48/48/48
f 44/45/44 43/44/43 48/48/48
f 45/46/45 44/45/44 48/48/48
f 46/47/46 45/46/45 48/48/48
f 47/43/47 46/47/46 48/48/48
f 49/49/49 50/50/50 51/51/51
f 50/50/50 49/49/49 54/52/54
f 49/49/49 51/51/51 52/53/52
f 49/49/49 52/53/52 53/54/53
f 49/49/49 53/54/53 54/52/54
f 50/50/50 54/52/54 59/55/59
f 51/51/51 50/50/50 55/56/55
f 52/53/52 51/51/51 56/57/56
f 53/54/53 52/53/52 57/58/57
f 54/52/54 53/54/53 58/59/58
f 50/50/50 59/55/59 55/56/55
f 51/51/51 55/56/55 56/57/56
f 52/53/52 56/57/56 57/58/57
f 53/54/53 57/58/57 58/59/58
f 54/52/54 58/59/58 59/55/59
f 55/56/55 59/55/59 60/60/60
f 56/57/56 55/56/55 60/60/60
f 57/58/57 56/57/56 60/60/60
f 58/59/58 57/58/57 60/60/60
f 59/55/59 58/59/58 60/60/60
f 61/61/61 62/62/62 63/63/63
f 62/62/62 61/61/61 66/64/66
f 61/61/61 63/63/63 64/65/64
f 61/61/61 64/65/64 65/66/65
f 61/61/61 65/66/65 66/64/66
f 62/62/62 66/64/66 71/67/71
f 63/63/63 62/62/62 67/68/67
f 64/65/64 63/63/63 68/69/68
f 65/66/65 64/65/64 69/70/69
f 66/64/66 65/66/65 70/71/70
f 62/62/62 71/67/71 67/68/67
f 63/63/63 67/68/67 68/69/68
f 64/65/64 68/69/68 69/70/69
f 65/66/65 69/70/69 70/71/70
f 66/64/66 70/71/70 71/67/71
f 67/68/67 71/67/71 72/72/72
f 68/69/68 67/68/67 72/72/72
f 69/70/69 68/69/68 72/72/72
f 70/71/70 69/70/69 72/72/72
f 71/67/71 70/71/70 72/72/72
