# Blender 4.5.3 LTS
# www.blender.org
o bushesB
v -0.296869 -0.014018 0.181650
v -0.155074 0.025123 0.302220
v -0.379582 0.025524 0.390699
v -0.514647 0.024569 0.182122
v -0.357852 0.024569 0.011136
v -0.147584 0.024569 0.065322
v -0.268275 0.230303 0.386918
v -0.487599 0.230488 0.328095
v -0.470644 0.230488 0.088923
v -0.243013 0.230488 0.018931
v -0.108406 0.230414 0.215693
v -0.327744 0.360512 0.194879
v -0.714205 -0.034171 -0.540731
v -0.552936 0.010513 -0.396384
v -0.788895 0.009879 -0.332665
v -0.932045 0.009630 -0.542337
v -0.786867 0.009630 -0.741941
v -0.554657 0.009632 -0.648422
v -0.659897 0.241859 -0.306792
v -0.904465 0.243369 -0.404924
v -0.900826 0.243369 -0.653440
v -0.671389 0.243369 -0.723617
v -0.525713 0.242911 -0.501802
v -0.741034 0.390959 -0.508951
v 0.502628 0.015738 -0.221180
v 0.614106 0.047615 -0.135474
v 0.442238 0.048192 -0.068278
v 0.322764 0.052590 -0.193184
v 0.427834 0.049965 -0.346417
v 0.635870 0.042842 -0.323490
v 0.511684 0.205954 -0.072648
v 0.325704 0.199862 -0.108039
v 0.345935 0.205804 -0.273253
v 0.566523 0.216945 -0.376525
v 0.680789 0.216435 -0.228422
v 0.463096 0.302941 -0.200328
v -0.161858 0.016162 1.124149
v -0.022447 0.037438 0.993907
v 0.122075 0.030540 1.180891
v -0.066918 0.036723 1.313156
v -0.310253 0.052590 1.186306
v -0.271271 0.049700 1.017892
v 0.114264 0.224466 1.080099
v 0.058975 0.221842 1.280998
v -0.181525 0.215390 1.289455
v -0.279191 0.212080 1.112263
v -0.159017 0.211998 0.987065
v -0.087708 0.328544 1.156382
v -0.932885 0.041531 0.006812
v -0.840211 0.065748 0.077054
v -0.987465 0.065748 0.123771
v -1.068387 0.065748 0.011377
v -0.976837 0.065748 -0.099719
v -0.835888 0.065748 -0.060904
v -0.912541 0.194984 0.127735
v -1.053672 0.194984 0.086338
v -1.045632 0.194984 -0.055699
v -0.900820 0.194984 -0.097575
v -0.815894 0.194984 0.010606
v -0.948896 0.276587 0.016018
v 0.833771 -0.032013 -0.850738
v 0.995222 0.010498 -0.724499
v 0.749283 0.012794 -0.628537
v 0.612553 0.010593 -0.837317
v 0.758098 0.008938 -1.072770
v 0.999393 0.009254 -0.991963
v 0.874583 0.239421 -0.601469
v 0.646159 0.239440 -0.667844
v 0.642387 0.242743 -0.970354
v 0.892300 0.243872 -1.052652
v 1.034852 0.243913 -0.862141
v 0.815245 0.389244 -0.829753
vn 0.0838 -0.9725 0.2171
vn 0.2578 -0.9661 0.0104
vn -0.1730 -0.9780 0.1165
vn -0.1726 -0.9722 -0.1583
vn 0.0622 -0.9684 -0.2414
vn 0.9774 -0.2090 0.0314
vn 0.3605 -0.1790 0.9154
vn -0.8086 -0.2658 0.5248
vn -0.7290 -0.1468 -0.6685
vn 0.2482 -0.1020 -0.9633
vn 0.7256 0.1206 0.6775
vn -0.2557 0.1566 0.9540
vn -0.9815 0.1783 -0.0696
vn -0.2882 0.1962 -0.9373
vn 0.7997 0.2474 -0.5470
vn 0.4367 0.8016 0.4083
vn -0.1568 0.7942 0.5871
vn -0.6533 0.7557 -0.0463
vn -0.1975 0.7405 -0.6424
vn 0.5030 0.7930 -0.3438
vn 0.0644 -0.9714 0.2288
vn 0.2657 -0.9640 0.0016
vn -0.1963 -0.9712 0.1352
vn -0.1941 -0.9708 -0.1412
vn 0.0989 -0.9643 -0.2456
vn 0.9929 -0.1192 -0.0064
vn 0.2534 -0.2453 0.9358
vn -0.8040 -0.2280 0.5492
vn -0.7971 -0.1691 -0.5797
vn 0.3713 -0.1111 -0.9219
vn 0.8129 0.1589 0.5602
vn -0.3699 0.1027 0.9234
vn -0.9920 0.1256 -0.0145
vn -0.2857 0.2144 -0.9340
vn 0.8128 0.2344 -0.5333
vn 0.5200 0.7737 0.3620
vn -0.2514 0.7280 0.6378
vn -0.6736 0.7390 -0.0099
vn -0.1825 0.7816 -0.5965
vn 0.5382 0.7658 -0.3519
vn 0.0910 -0.9662 0.2410
vn 0.2373 -0.9700 0.0521
vn -0.1784 -0.9745 0.1364
vn -0.2188 -0.9666 -0.1335
vn -0.0043 -0.9653 -0.2613
vn 0.9440 -0.3084 0.1171
vn 0.3605 -0.1331 0.9232
vn -0.6815 -0.3560 0.6394
vn -0.8145 -0.1672 -0.5556
vn 0.0973 -0.2543 -0.9622
vn 0.6661 0.1402 0.7326
vn -0.1893 0.1104 0.9757
vn -0.9891 0.0879 -0.1180
vn -0.4240 0.1926 -0.8849
vn 0.7854 0.1284 -0.6055
vn 0.3782 0.8008 0.4644
vn -0.1454 0.7604 0.6329
vn -0.6198 0.7833 -0.0477
vn -0.2988 0.7767 -0.5545
vn 0.3293 0.9103 -0.2510
vn 0.0682 -0.9937 -0.0893
vn -0.0703 -0.9698 -0.2337
vn 0.0320 -0.9952 0.0922
vn -0.1601 -0.9694 0.1859
vn -0.2549 -0.9660 -0.0424
vn -0.1010 -0.1178 -0.9879
vn 0.7550 -0.2782 -0.5938
vn 0.5519 -0.2364 0.7997
vn -0.4638 -0.1825 0.8669
vn -0.9705 0.0841 -0.2261
vn 0.3072 0.2039 -0.9296
vn 0.9487 0.1751 0.2634
vn 0.0307 0.1508 0.9881
vn -0.8181 0.3655 0.4441
vn -0.6771 0.3448 -0.6501
vn 0.1710 0.7765 -0.6065
vn 0.4966 0.8553 0.1478
vn 0.0024 0.7610 0.6488
vn -0.5452 0.7881 0.2858
vn -0.4097 0.8228 -0.3938
vn 0.0747 -0.9690 0.2355
vn 0.2473 -0.9689 0.0078
vn -0.1706 -0.9777 0.1228
vn -0.1788 -0.9728 -0.1474
vn 0.0683 -0.9664 -0.2478
vn 0.9851 -0.1695 0.0309
vn 0.2963 -0.2004 0.9338
vn -0.7880 -0.2393 0.5673
vn -0.7576 -0.1906 -0.6243
vn 0.2629 -0.1388 -0.9548
vn 0.7588 0.1792 0.6261
vn -0.2790 0.1326 0.9511
vn -0.9879 0.1449 -0.0559
vn -0.2734 0.1765 -0.9456
vn 0.7682 0.2148 -0.6031
vn 0.4902 0.7721 0.4045
vn -0.1812 0.7651 0.6179
vn -0.6288 0.7767 -0.0356
vn -0.1802 0.7611 -0.6231
vn 0.4743 0.7977 -0.3723
vn 0.0791 -0.9709 0.2259
vn 0.2485 -0.9686 0.0084
vn -0.1801 -0.9753 0.1282
vn -0.1945 -0.9743 -0.1134
vn 0.0695 -0.9765 -0.2038
vn 0.9873 -0.1581 0.0161
vn 0.3447 -0.2969 0.8905
vn -0.8033 -0.2738 0.5290
vn -0.8360 -0.1880 -0.5155
vn 0.3161 -0.0998 -0.9435
vn 0.8392 0.1634 0.5188
vn -0.2788 0.0395 0.9595
vn -0.9907 0.1352 0.0138
vn -0.3037 0.2522 -0.9188
vn 0.7835 0.2060 -0.5863
vn 0.5521 0.7557 0.3524
vn -0.1658 0.8041 0.5709
vn -0.6542 0.7561 0.0164
vn -0.1953 0.7892 -0.5822
vn 0.4780 0.8021 -0.3579
vt 0.181819 0.000000
vt 0.272728 0.157461
vt 0.090910 0.157461
vt 0.363637 0.000000
vt 0.454546 0.157461
vt 0.909091 0.000000
vt 1.000000 0.157461
vt 0.818182 0.157461
vt 0.727273 0.000000
vt 0.636364 0.157461
vt 0.545455 0.000000
vt 0.363637 0.314921
vt 0.181819 0.314921
vt 0.909091 0.314921
vt 0.727273 0.314921
vt 0.545455 0.314921
vt 0.000000 0.314921
vt 0.272728 0.472382
vt 0.090910 0.472382
vt 0.818182 0.472382
vt 0.636364 0.472382
vt 0.454546 0.472382
s 0
f 1/1/1 2/2/1 3/3/1
f 2/2/2 1/4/2 6/5/2
f 1/6/3 3/7/3 4/8/3
f 1/9/4 4/8/4 5/10/4
f 1/11/5 5/10/5 6/5/5
f 2/2/6 6/5/6 11/12/6
f 3/3/7 2/2/7 7/13/7
f 4/8/8 3/7/8 8/14/8
f 5/10/9 4/8/9 9/15/9
f 6/5/10 5/10/10 10/16/10
f 2/2/11 11/12/11 7/13/11
f 3/3/12 7/13/12 8/17/12
f 4/8/13 8/14/13 9/15/13
f 5/10/14 9/15/14 10/16/14
f 6/5/15 10/16/15 11/12/15
f 7/13/16 11/12/16 12/18/16
f 8/17/17 7/13/17 12/19/17
f 9/15/18 8/14/18 12/20/18
f 10/16/19 9/15/19 12/21/19
f 11/12/20 10/16/20 12/22/20
f 13/1/21 14/2/21 15/3/21
f 14/2/22 13/4/22 18/5/22
f 13/6/23 15/7/23 16/8/23
f 13/9/24 16/8/24 17/10/24
f 13/11/25 17/10/25 18/5/25
f 14/2/26 18/5/26 23/12/26
f 15/3/27 14/2/27 19/13/27
f 16/8/28 15/7/28 20/14/28
f 17/10/29 16/8/29 21/15/29
f 18/5/30 17/10/30 22/16/30
f 14/2/31 23/12/31 19/13/31
f 15/3/32 19/13/32 20/17/32
f 16/8/33 20/14/33 21/15/33
f 17/10/34 21/15/34 22/16/34
f 18/5/35 22/16/35 23/12/35
f 19/13/36 23/12/36 24/18/36
f 20/17/37 19/13/37 24/19/37
f 21/15/38 20/14/38 24/20/38
f 22/16/39 21/15/39 24/21/39
f 23/12/40 22/16/40 24/22/40
f 25/1/41 26/2/41 27/3/41
f 26/2/42 25/4/42 30/5/42
f 25/6/43 27/7/43 28/8/43
f 25/9/44 28/8/44 29/10/44
f 25/11/45 29/10/45 30/5/45
f 26/2/46 30/5/46 35/12/46
f 27/3/47 26/2/47 31/13/47
f 28/8/48 27/7/48 32/14/48
f 29/10/49 28/8/49 33/15/49
f 30/5/50 29/10/50 34/16/50
f 26/2/51 35/12/51 31/13/51
f 27/3/52 31/13/52 32/17/52
f 28/8/53 32/14/53 33/15/53
f 29/10/54 33/15/54 34/16/54
f 30/5/55 34/16/55 35/12/55
f 31/13/56 35/12/56 36/18/56
f 32/17/57 31/13/57 36/19/57
f 33/15/58 32/14/58 36/20/58
f 34/16/59 33/15/59 36/21/59
f 35/12/60 34/16/60 36/22/60
f 37/1/61 38/2/61 39/3/61
f 38/2/62 37/4/62 42/5/62
f 37/6/63 39/7/63 40/8/63
f 37/9/64 40/8/64 41/10/64
f 37/11/65 41/10/65 42/5/65
f 38/2/66 42/5/66 47/12/66
f 39/3/67 38/2/67 43/13/67
f 40/8/68 39/7/68 44/14/68
f 41/10/69 40/8/69 45/15/69
f 42/5/70 41/10/70 46/16/70
f 38/2/71 47/12/71 43/13/71
f 39/3/72 43/13/72 44/17/72
f 40/8/73 44/14/73 45/15/73
f 41/10/74 45/15/74 46/16/74
f 42/5/75 46/16/75 47/12/75
f 43/13/76 47/12/76 48/18/76
f 44/17/77 43/13/77 48/19/77
f 45/15/78 44/14/78 48/20/78
f 46/16/79 45/15/79 48/21/79
f 47/12/80 46/16/80 48/22/80
f 49/1/81 50/2/81 51/3/81
f 50/2/82 49/4/82 54/5/82
f 49/6/83 51/7/83 52/8/83
f 49/9/84 52/8/84 53/10/84
f 49/11/85 53/10/85 54/5/85
f 50/2/86 54/5/86 59/12/86
f 51/3/87 50/2/87 55/13/87
f 52/8/88 51/7/88 56/14/88
f 53/10/89 52/8/89 57/15/89
f 54/5/90 53/10/90 58/16/90
f 50/2/91 59/12/91 55/13/91
f 51/3/92 55/13/92 56/17/92
f 52/8/93 56/14/93 57/15/93
f 53/10/94 57/15/94 58/16/94
f 54/5/95 58/16/95 59/12/95
f 55/13/96 59/12/96 60/18/96
f 56/17/97 55/13/97 60/19/97
f 57/15/98 56/14/98 60/20/98
f 58/16/99 57/15/99 60/21/99
f 59/12/100 58/16/100 60/22/100
f 61/1/101 62/2/101 63/3/101
f 62/2/102 61/4/102 66/5/102
f 61/6/103 63/7/103 64/8/103
f 61/9/104 64/8/104 65/10/104
f 61/11/105 65/10/105 66/5/105
f 62/2/106 66/5/106 71/12/106
f 63/3/107 62/2/107 67/13/107
f 64/8/108 63/7/108 68/14/108
f 65/10/109 64/8/109 69/15/109
f 66/5/110 65/10/110 70/16/110
f 62/2/111 71/12/111 67/13/111
f 63/3/112 67/13/112 68/17/112
f 64/8/113 68/14/113 69/15/113
f 65/10/114 69/15/114 70/16/114
f 66/5/115 70/16/115 71/12/115
f 67/13/116 71/12/116 72/18/116
f 68/17/117 67/13/117 72/19/117
f 69/15/118 68/14/118 72/20/118
f 70/16/119 69/15/119 72/21/119
f 71/12/120 70/16/120 72/22/120
