# Blender 5.0.1
# www.blender.org
o treeB
v -0.055480 0.362822 -0.520843
v -0.100523 2.056210 0.021246
v 0.329062 0.362822 -0.407522
v 0.520843 0.362822 -0.055480
v 0.407522 0.362822 0.329062
v 0.055480 0.362822 0.520843
v -0.329062 0.362822 0.407522
v -0.520843 0.362822 0.055480
v -0.407522 0.362822 -0.329062
v -0.073767 1.542968 -0.356499
v -0.329147 1.542968 -0.236246
v 0.191846 1.542968 -0.260950
v 0.312100 1.542968 -0.005570
v 0.216551 1.542968 0.260043
v -0.038829 1.542968 0.380296
v -0.304442 1.542968 0.284747
v -0.424696 1.542968 0.029367
v 0.000000 0.200000 0.000000
v -0.515040 0.938626 0.232305
v -0.201088 0.938626 0.526755
v 0.229117 0.938626 0.512965
v 0.523567 0.938626 0.199013
v 0.509777 0.938626 -0.231192
v 0.195825 0.938626 -0.525642
v -0.234380 0.938626 -0.511853
v -0.528830 0.938626 -0.197901
v -0.045232 0.000000 0.051059
v -0.039849 1.491793 0.006277
v -0.018988 0.000000 -0.071427
v 0.077254 0.000000 0.024815
v -0.094399 0.737522 0.048393
v -0.077581 0.737542 -0.030259
v -0.015823 0.737569 0.031556
vn 0.4063 -0.1067 0.9075
vn -0.3528 -0.1372 0.9256
vn -0.0403 -0.4547 0.8897
vn 0.6168 -0.4073 0.6735
vn -0.8999 -0.1559 0.4074
vn -0.6462 -0.4908 0.5844
vn -0.9266 -0.1538 -0.3432
vn -0.8666 -0.4966 -0.0490
vn -0.4180 -0.1318 -0.8988
vn -0.5859 -0.4696 -0.6604
vn 0.3406 -0.1007 -0.9348
vn 0.0519 -0.4234 -0.9044
vn 0.9054 -0.0791 -0.4171
vn 0.6855 -0.3843 -0.6184
vn 0.9327 -0.0818 0.3512
vn 0.9251 -0.3773 0.0428
vn -0.1497 0.5630 -0.8128
vn -0.0000 1.0000 -0.0000
vn 0.4685 0.5644 -0.6797
vn 0.0588 -0.9982 -0.0124
vn -0.8142 0.5611 0.1492
vn -0.6812 0.5617 -0.4696
vn 0.6791 0.5643 0.4694
vn 0.1483 0.5630 0.8130
vn -0.4704 0.5617 0.6806
vn 0.8116 0.5649 -0.1487
vn -0.9762 0.0589 -0.2087
vn 0.2093 0.0394 0.9771
vn -0.0000 -1.0000 -0.0000
vn 0.7040 0.0952 -0.7038
vn 0.7074 -0.0012 -0.7068
vn 0.2095 0.0175 0.9777
vn -0.9757 -0.0658 -0.2089
vt 0.128296 0.364533
vt 0.153321 0.364533
vt 0.137639 0.399687
vt 0.122784 0.399687
vt 0.171583 0.364533
vt 0.153089 0.399687
vt 0.154210 0.364533
vt 0.129186 0.364533
vt 0.141086 0.399687
vt 0.155941 0.399687
vt 0.110924 0.364533
vt 0.125636 0.399687
vt 0.155257 0.364533
vt 0.130233 0.364533
vt 0.139671 0.399687
vt 0.154526 0.399687
vt 0.111971 0.364533
vt 0.124221 0.399687
vt 0.127249 0.364533
vt 0.152274 0.364533
vt 0.139054 0.399687
vt 0.124199 0.399687
vt 0.170536 0.364533
vt 0.154504 0.399687
vt 0.145157 0.336870
vt 0.141930 0.367167
vt 0.122789 0.343462
vt 0.136083 0.429541
vt 0.139526 0.429541
vt 0.143989 0.331039
vt 0.121621 0.331039
vt 0.118225 0.386308
vt 0.138703 0.397464
vt 0.161071 0.390872
vt 0.172227 0.370394
vt 0.165635 0.348026
vt 0.111633 0.363940
vt 0.165635 0.331039
vt 0.145157 0.331039
vt 0.172385 0.364533
vt 0.122789 0.331039
vt 0.117057 0.331039
vt 0.137535 0.331039
vt 0.110121 0.364533
vt 0.159903 0.331039
vt 0.118225 0.331039
vt 0.138703 0.331039
vt 0.111169 0.364533
vt 0.164467 0.331039
vt 0.171338 0.364533
vt 0.161071 0.331039
vt 0.872069 0.646885
vt 0.874499 0.690402
vt 0.876607 0.646887
vt 0.875433 0.646888
vt 0.874047 0.690402
vt 0.870900 0.646885
vt 0.875251 0.642587
vt 0.880803 0.637035
vt 0.873737 0.635521
vt 0.873041 0.646888
vt 0.873430 0.604335
vt 0.878982 0.604335
vt 0.880803 0.604335
vt 0.873737 0.604335
vt 0.871916 0.604335
s 1
f 25/1/1 24/2/2 10/3/3 11/4/4
f 24/2/2 23/5/5 12/6/6 10/3/3
f 23/7/5 22/8/7 13/9/8 12/10/6
f 22/8/7 21/11/9 14/12/10 13/9/8
f 21/13/9 20/14/11 15/15/12 14/16/10
f 20/14/11 19/17/13 16/18/14 15/15/12
f 19/19/13 26/20/15 17/21/16 16/22/14
f 26/20/15 25/23/1 11/24/4 17/21/16
f 6/25/17 18/26/18 7/27/19
f 2/28/20 11/4/4 10/3/3
f 2/28/20 10/3/3 12/6/6
f 2/29/20 12/10/6 13/9/8
f 2/29/20 13/9/8 14/12/10
f 2/28/20 14/16/10 15/15/12
f 2/28/20 15/15/12 16/18/14
f 2/29/20 16/22/14 17/21/16
f 2/29/20 17/21/16 11/24/4
f 4/30/21 5/31/22 22/8/7 23/7/5
f 9/32/23 18/26/18 1/33/24
f 1/33/24 18/26/18 3/34/25
f 4/35/21 18/26/18 5/36/22
f 7/27/19 18/26/18 8/37/26
f 5/36/22 18/26/18 6/25/17
f 8/37/26 18/26/18 9/32/23
f 3/34/25 18/26/18 4/35/21
f 5/38/22 6/39/17 21/13/9 22/40/7
f 6/39/17 7/41/19 20/14/11 21/13/9
f 7/42/19 8/43/26 19/19/13 20/44/11
f 8/43/26 9/45/23 26/20/15 19/19/13
f 9/46/23 1/47/24 25/1/1 26/48/15
f 3/49/25 4/30/21 23/7/5 24/50/2
f 1/47/24 3/51/25 24/2/2 25/1/1
s 0
f 31/52/27 28/53/27 32/54/27
f 33/55/28 28/56/28 31/57/28
f 29/58/29 30/59/29 27/60/29
f 32/54/30 33/61/30 30/62/30 29/63/30
f 28/53/31 33/61/31 32/54/31
f 30/64/32 33/55/32 31/57/32 27/65/32
f 27/66/33 31/52/33 32/54/33 29/63/33
