# Blender 4.5.3 LTS
# www.blender.org
o treeC
v -0.055480 0.565486 -0.520843
v -0.116010 1.515606 -0.018190
v 0.329062 0.565486 -0.407522
v 0.520843 0.565486 -0.055480
v 0.407522 0.565486 0.329062
v 0.055480 0.565486 0.520843
v -0.329062 0.565486 0.407522
v -0.520843 0.565486 0.055480
v -0.407522 0.565486 -0.329062
v -0.011024 1.261598 -0.445561
v -0.316385 1.246971 -0.303029
v 0.306486 1.274050 -0.330597
v 0.450163 1.277360 -0.025459
v 0.335847 1.269751 0.291119
v 0.030493 1.255357 0.433668
v -0.287031 1.242440 0.318671
v -0.430715 1.238896 0.013516
v 0.000000 0.402664 0.000000
v -0.511468 0.921243 0.236876
v -0.194157 0.924779 0.537296
v 0.239710 0.929056 0.523401
v 0.536565 0.931484 0.203017
v 0.523046 0.932698 -0.235008
v 0.207742 0.931479 -0.535047
v -0.226368 0.927217 -0.522334
v -0.526029 0.922164 -0.202245
v -0.045232 0.000000 0.051059
v -0.050374 1.155803 -0.017633
v -0.018988 0.000000 -0.071427
v 0.077254 0.000000 0.024815
v -0.094404 0.737388 0.048383
v -0.077584 0.737427 -0.030268
v -0.015826 0.737483 0.031550
vn 0.4098 -0.1178 0.9046
vn -0.3505 -0.1059 0.9306
vn -0.0133 -0.6087 0.7933
vn 0.5738 -0.5705 0.5876
vn -0.9061 -0.0995 0.4113
vn -0.5576 -0.6378 0.5313
vn -0.9314 -0.1032 -0.3490
vn -0.7596 -0.6500 -0.0228
vn -0.4098 -0.1172 -0.9046
vn -0.5190 -0.6495 -0.5557
vn 0.3504 -0.1314 -0.9273
vn 0.0264 -0.6312 -0.7752
vn 0.9023 -0.1363 -0.4091
vn 0.5821 -0.5920 -0.5575
vn 0.9284 -0.1298 0.3481
vn 0.8288 -0.5595 0.0090
vn -0.1218 0.5930 -0.7960
vn -0.0000 1.0000 -0.0000
vn 0.4828 0.5867 -0.6502
vn 0.1698 -0.9855 0.0070
vn -0.7969 0.5916 0.1222
vn -0.6502 0.5932 -0.4747
vn 0.6554 0.5832 0.4799
vn 0.1246 0.5889 0.7985
vn -0.4771 0.5917 0.6498
vn 0.8047 0.5813 -0.1207
vn -0.9755 0.0697 -0.2086
vn 0.2075 0.1311 0.9694
vn -0.0000 -1.0000 -0.0000
vn 0.7040 0.0953 -0.7038
vn 0.7072 -0.0247 -0.7065
vn 0.2095 0.0175 0.9777
vn -0.9757 -0.0658 -0.2089
vt 0.047149 0.817160
vt 0.073880 0.817422
vt 0.060409 0.837750
vt 0.041606 0.836849
vt 0.093295 0.817497
vt 0.079960 0.838516
vt 0.074798 0.817497
vt 0.047826 0.817422
vt 0.061894 0.838720
vt 0.080684 0.838516
vt 0.028098 0.817273
vt 0.042401 0.838252
vt 0.075849 0.817273
vt 0.049133 0.817010
vt 0.062966 0.837365
vt 0.081768 0.838252
vt 0.029594 0.816792
vt 0.043414 0.836570
vt 0.045741 0.816792
vt 0.072780 0.816849
vt 0.059494 0.836352
vt 0.040704 0.836570
vt 0.092490 0.817160
vt 0.078986 0.836849
vt 0.064504 0.780476
vt 0.061088 0.812547
vt 0.040826 0.787454
vt 0.053945 0.813667
vt 0.041606 0.831207
vt 0.060409 0.839983
vt 0.079960 0.832904
vt 0.088807 0.814115
vt 0.081768 0.794621
vt 0.062966 0.785844
vt 0.043414 0.792925
vt 0.034566 0.811715
vt 0.063743 0.794886
vt 0.040064 0.794886
vt 0.035995 0.832810
vt 0.057672 0.844619
vt 0.081351 0.837641
vt 0.093160 0.815964
vt 0.086182 0.792285
vt 0.029017 0.809131
vt 0.086182 0.794886
vt 0.064504 0.794886
vt 0.094128 0.817422
vt 0.040826 0.794886
vt 0.035233 0.794886
vt 0.056910 0.794886
vt 0.027242 0.817010
vt 0.080589 0.794886
vt 0.035995 0.794886
vt 0.057672 0.794886
vt 0.028697 0.816849
vt 0.085420 0.794886
vt 0.093273 0.817422
vt 0.081351 0.794886
vt 0.311626 0.567868
vt 0.316151 0.596548
vt 0.317017 0.567871
vt 0.314705 0.567875
vt 0.312337 0.596548
vt 0.309319 0.567868
vt 0.314488 0.580642
vt 0.321085 0.574045
vt 0.312689 0.572246
vt 0.312780 0.567875
vt 0.313241 0.517326
vt 0.319838 0.517326
vt 0.321085 0.517326
vt 0.312689 0.517326
vt 0.311442 0.517326
s 1
f 25/1/1 24/2/2 10/3/3 11/4/4
f 24/2/2 23/5/5 12/6/6 10/3/3
f 23/7/5 22/8/7 13/9/8 12/10/6
f 22/8/7 21/11/9 14/12/10 13/9/8
f 21/13/9 20/14/11 15/15/12 14/16/10
f 20/14/11 19/17/13 16/18/14 15/15/12
f 19/19/13 26/20/15 17/21/16 16/22/14
f 26/20/15 25/23/1 11/24/4 17/21/16
f 6/25/17 18/26/18 7/27/19
f 2/28/20 11/29/4 10/30/3
f 2/28/20 10/30/3 12/31/6
f 2/28/20 12/31/6 13/32/8
f 2/28/20 13/32/8 14/33/10
f 2/28/20 14/33/10 15/34/12
f 2/28/20 15/34/12 16/35/14
f 2/28/20 16/35/14 17/36/16
f 2/28/20 17/36/16 11/29/4
f 4/37/21 5/38/22 22/8/7 23/7/5
f 9/39/23 18/26/18 1/40/24
f 1/40/24 18/26/18 3/41/25
f 4/42/21 18/26/18 5/43/22
f 7/27/19 18/26/18 8/44/26
f 5/43/22 18/26/18 6/25/17
f 8/44/26 18/26/18 9/39/23
f 3/41/25 18/26/18 4/42/21
f 5/45/22 6/46/17 21/13/9 22/47/7
f 6/46/17 7/48/19 20/14/11 21/13/9
f 7/49/19 8/50/26 19/19/13 20/51/11
f 8/50/26 9/52/23 26/20/15 19/19/13
f 9/53/23 1/54/24 25/1/1 26/55/15
f 3/56/25 4/37/21 23/7/5 24/57/2
f 1/54/24 3/58/25 24/2/2 25/1/1
s 0
f 31/59/27 28/60/27 32/61/27
f 33/62/28 28/63/28 31/64/28
f 29/65/29 30/66/29 27/67/29
f 32/61/30 33/68/30 30/69/30 29/70/30
f 28/60/31 33/68/31 32/61/31
f 30/71/32 33/62/32 31/64/32 27/72/32
f 27/73/33 31/59/33 32/61/33 29/70/33
