# Blender 4.5.3 LTS
# www.blender.org
o TreeA
v -0.000117 0.354150 -0.309414
v -0.037953 2.141057 -0.039165
v 0.214356 0.354150 -0.246211
v 0.321319 0.354150 -0.049864
v 0.258116 0.354150 0.164609
v 0.061769 0.354150 0.271572
v -0.152704 0.354150 0.208369
v -0.259668 0.354150 0.012022
v -0.196464 0.354150 -0.202451
v 0.000938 1.577838 -0.245250
v -0.141076 1.577261 -0.178219
v 0.148814 1.578202 -0.191934
v 0.215931 1.578138 -0.049504
v 0.162971 1.577683 0.098608
v 0.020957 1.577107 0.165639
v -0.126922 1.576747 0.112323
v -0.194038 1.576810 -0.030107
v 0.025209 0.192909 -0.015473
v -0.231419 0.921860 0.095882
v -0.056317 0.921860 0.260108
v 0.183625 0.921860 0.252417
v 0.347851 0.921860 0.077314
v 0.340156 0.921865 -0.162627
v 0.165056 0.921862 -0.326853
v -0.074885 0.921860 -0.319162
v -0.239110 0.921860 -0.144059
v -0.027706 -0.004930 0.040301
v 0.097979 1.435288 -0.052637
v -0.001469 -0.004928 -0.082181
v 0.094763 -0.004925 0.014067
v -0.046003 0.723722 0.018956
v -0.029077 0.723702 -0.059748
v 0.032823 0.723675 0.002000
vn 0.1905 -0.1316 0.9728
vn -0.5492 -0.1813 0.8158
vn -0.9587 -0.2138 0.1875
vn -0.8112 -0.2110 -0.5454
vn -0.1888 -0.1748 -0.9663
vn 0.5543 -0.1259 -0.8227
vn 0.9772 -0.0926 -0.1912
vn 0.8263 -0.0947 0.5551
vn 0.1469 0.8543 -0.4986
vn 0.4097 -0.2884 0.8655
vn -0.3176 -0.3451 0.8832
vn -0.8353 -0.3840 0.3935
vn -0.8683 -0.3859 -0.3117
vn -0.3988 -0.3495 -0.8478
vn 0.3249 -0.2927 -0.8993
vn 0.8761 -0.2490 -0.4129
vn 0.9126 -0.2472 0.3256
vn -0.9899 0.0734 -0.1209
vn 0.2451 0.8588 0.4500
vn -0.1431 0.8625 0.4854
vn -0.4861 0.8621 -0.1432
vn 0.4586 0.8528 -0.2498
vn -0.2456 0.8582 -0.4508
vn 0.4979 0.8547 0.1467
vn -0.4424 0.8638 0.2410
vn -0.6156 0.0409 -0.7870
vn 0.1213 0.0052 -0.9926
vn 0.7876 -0.0129 -0.6161
vn 0.9926 -0.0026 0.1213
vn 0.6159 0.0300 0.7873
vn -0.7849 0.0835 0.6140
vn -0.1210 0.0656 0.9905
vn -0.9627 0.1740 -0.2071
vn 0.2100 0.0557 0.9761
vn -0.0000 -1.0000 -0.0000
vn 0.7060 0.0484 -0.7066
vn 0.7013 -0.1182 -0.7030
vn 0.2097 0.0339 0.9772
vn -0.9773 -0.0306 -0.2097
vt 1.000000 0.750000
vt 0.875000 0.750000
vt 0.875000 1.000000
vt 1.000000 1.000000
vt 0.750000 0.750000
vt 0.750000 1.000000
vt 0.625000 0.750000
vt 0.625000 1.000000
vt 0.500000 0.750000
vt 0.500000 1.000000
vt 0.375000 0.750000
vt 0.375000 1.000000
vt 0.250000 0.750000
vt 0.250000 1.000000
vt 0.125000 0.750000
vt 0.125000 1.000000
vt 0.000000 0.750000
vt 0.000000 1.000000
vt 0.500000 0.500000
vt 0.375000 0.500000
vt 0.260222 0.260222
vt 0.250000 0.490000
vt 0.419706 0.419706
vt 0.264456 0.250000
vt 0.490000 0.250000
vt 0.260222 0.239778
vt 0.419706 0.080294
vt 0.250000 0.235544
vt 0.250000 0.010000
vt 0.239778 0.239778
vt 0.080294 0.080294
vt 0.235544 0.250000
vt 0.010000 0.250000
vt 0.239778 0.260222
vt 0.080294 0.419706
vt 0.250000 0.264456
vt 0.750000 0.500000
vt 0.625000 0.500000
vt 0.125000 0.500000
vt 0.000000 0.500000
vt 1.000000 0.500000
vt 0.875000 0.500000
vt 0.250000 0.500000
vt 0.500000 0.000000
vt 0.625000 0.250000
vt 0.500000 0.250000
vt 0.375000 0.250000
vt 0.375000 0.000000
s 0
f 25/1/1 24/2/1 10/3/1 11/4/1
f 24/2/2 23/5/2 12/6/2 10/3/2
f 23/5/3 22/7/3 13/8/3 12/6/3
f 22/7/4 21/9/4 14/10/4 13/8/4
f 21/9/5 20/11/5 15/12/5 14/10/5
f 20/11/6 19/13/6 16/14/6 15/12/6
f 19/13/7 26/15/7 17/16/7 16/14/7
f 26/15/8 25/17/8 11/18/8 17/16/8
f 6/19/9 18/19/9 7/20/9
f 2/21/10 11/22/10 10/23/10
f 2/24/11 10/23/11 12/25/11
f 2/26/12 12/25/12 13/27/12
f 2/28/13 13/27/13 14/29/13
f 2/30/14 14/29/14 15/31/14
f 2/32/15 15/31/15 16/33/15
f 2/34/16 16/33/16 17/35/16
f 2/36/17 17/35/17 11/22/17
f 4/37/18 5/38/18 22/7/18 23/5/18
f 9/39/19 18/39/19 1/40/19
f 1/41/20 18/41/20 3/42/20
f 4/37/21 18/37/21 5/38/21
f 7/20/22 18/20/22 8/43/22
f 5/38/23 18/38/23 6/19/23
f 8/43/24 18/43/24 9/39/24
f 3/42/25 18/42/25 4/37/25
f 5/38/26 6/19/26 21/9/26 22/7/26
f 6/19/27 7/20/27 20/11/27 21/9/27
f 7/20/28 8/43/28 19/13/28 20/11/28
f 8/43/29 9/39/29 26/15/29 19/13/29
f 9/39/30 1/40/30 25/17/30 26/15/30
f 3/42/31 4/37/31 23/5/31 24/2/31
f 1/41/32 3/42/32 24/2/32 25/1/32
f 31/44/33 28/45/33 32/46/33
f 33/9/34 28/8/34 31/10/34
f 29/39/35 30/11/35 27/15/35
f 32/46/36 33/9/36 30/11/36 29/47/36
f 28/7/37 33/9/37 32/46/37
f 30/11/38 33/9/38 31/10/38 27/12/38
f 27/48/39 31/44/39 32/46/39 29/47/39
