# Blender 5.0.1
# www.blender.org
o treeA
v -0.000117 0.354150 -0.309414
v -0.037953 2.141057 -0.039165
v 0.214356 0.354150 -0.246211
v 0.321319 0.354150 -0.049864
v 0.258116 0.354150 0.164609
v 0.061769 0.354150 0.271572
v -0.152704 0.354150 0.208369
v -0.259668 0.354150 0.012022
v -0.196464 0.354150 -0.202451
v 0.000938 1.577838 -0.245250
v -0.141076 1.577261 -0.178219
v 0.148814 1.578202 -0.191934
v 0.215931 1.578138 -0.049504
v 0.162971 1.577683 0.098608
v 0.020957 1.577107 0.165639
v -0.126922 1.576747 0.112323
v -0.194038 1.576810 -0.030107
v 0.025209 0.192909 -0.015473
v -0.231419 0.921860 0.095882
v -0.056317 0.921860 0.260108
v 0.183625 0.921860 0.252417
v 0.347851 0.921860 0.077314
v 0.340156 0.921865 -0.162627
v 0.165056 0.921862 -0.326853
v -0.074885 0.921860 -0.319162
v -0.239110 0.921860 -0.144059
v -0.027706 -0.004930 0.040301
v 0.097979 1.435288 -0.052637
v -0.001469 -0.004928 -0.082181
v 0.094763 -0.004925 0.014067
v -0.046003 0.723722 0.018956
v -0.029077 0.723702 -0.059748
v 0.032823 0.723675 0.002000
vn 0.4068 -0.0366 0.9128
vn -0.3570 -0.0452 0.9330
vn -0.0588 -0.2505 0.9663
vn 0.6501 -0.2022 0.7325
vn -0.9085 -0.0636 0.4129
vn -0.7158 -0.2972 0.6319
vn -0.9362 -0.0813 -0.3419
vn -0.9466 -0.3166 -0.0603
vn -0.4250 -0.0890 -0.9008
vn -0.6298 -0.2988 -0.7170
vn 0.3374 -0.0818 -0.9378
vn 0.0619 -0.2528 -0.9655
vn 0.9057 -0.0628 -0.4192
vn 0.7336 -0.2039 -0.6483
vn 0.9348 -0.0437 0.3524
vn 0.9815 -0.1823 0.0586
vn -0.1643 0.4710 -0.8667
vn 0.0088 0.9999 -0.0054
vn 0.4981 0.4571 -0.7368
vn 0.0777 -0.9970 -0.0012
vn -0.8489 0.5022 0.1651
vn -0.7208 0.4897 -0.4906
vn 0.7368 0.4684 0.4876
vn 0.1748 0.4871 0.8557
vn -0.4797 0.5011 0.7203
vn 0.8729 0.4560 -0.1736
vn -0.9627 0.1740 -0.2071
vn 0.2100 0.0557 0.9761
vn -0.0000 -1.0000 -0.0000
vn 0.7060 0.0484 -0.7066
vn 0.7013 -0.1182 -0.7030
vn 0.2097 0.0339 0.9772
vn -0.9773 -0.0306 -0.2097
vt 0.322281 0.379850
vt 0.335950 0.379850
vt 0.326601 0.417220
vt 0.318510 0.417187
vt 0.345925 0.379850
vt 0.335025 0.417240
vt 0.335538 0.379850
vt 0.321869 0.379850
vt 0.329093 0.417237
vt 0.337207 0.417240
vt 0.311893 0.379850
vt 0.320656 0.417211
vt 0.337008 0.379850
vt 0.323339 0.379850
vt 0.327741 0.417178
vt 0.335831 0.417211
vt 0.313364 0.379850
vt 0.319317 0.417157
vt 0.320811 0.379850
vt 0.334480 0.379850
vt 0.327988 0.417161
vt 0.319874 0.417157
vt 0.344455 0.379850
vt 0.336426 0.417187
vt 0.330066 0.362259
vt 0.327983 0.378612
vt 0.317848 0.365860
vt 0.324385 0.449305
vt 0.328504 0.449305
vt 0.329114 0.347509
vt 0.316896 0.347509
vt 0.315355 0.389263
vt 0.326541 0.395357
vt 0.338759 0.391756
vt 0.344852 0.380571
vt 0.341251 0.368353
vt 0.311754 0.377045
vt 0.341251 0.347509
vt 0.330066 0.347509
vt 0.346364 0.379850
vt 0.317848 0.347509
vt 0.314403 0.347509
vt 0.325588 0.347509
vt 0.311455 0.379850
vt 0.337806 0.347509
vt 0.315355 0.347509
vt 0.326541 0.347509
vt 0.312926 0.379850
vt 0.340299 0.347509
vt 0.344893 0.379850
vt 0.338759 0.347509
vt 0.856163 0.629971
vt 0.861109 0.679131
vt 0.861600 0.629970
vt 0.860072 0.629968
vt 0.864574 0.679131
vt 0.854627 0.629971
vt 0.857703 0.646767
vt 0.864352 0.640117
vt 0.855891 0.638305
vt 0.855796 0.629970
vt 0.864352 0.579631
vt 0.857703 0.579631
vt 0.855891 0.579631
vt 0.854688 0.579631
vt 0.863150 0.579631
s 1
f 25/1/1 24/2/2 10/3/3 11/4/4
f 24/2/2 23/5/5 12/6/6 10/3/3
f 23/7/5 22/8/7 13/9/8 12/10/6
f 22/8/7 21/11/9 14/12/10 13/9/8
f 21/13/9 20/14/11 15/15/12 14/16/10
f 20/14/11 19/17/13 16/18/14 15/15/12
f 19/19/13 26/20/15 17/21/16 16/22/14
f 26/20/15 25/23/1 11/24/4 17/21/16
f 6/25/17 18/26/18 7/27/19
f 2/28/20 11/4/4 10/3/3
f 2/28/20 10/3/3 12/6/6
f 2/29/20 12/10/6 13/9/8
f 2/29/20 13/9/8 14/12/10
f 2/28/20 14/16/10 15/15/12
f 2/28/20 15/15/12 16/18/14
f 2/29/20 16/22/14 17/21/16
f 2/29/20 17/21/16 11/24/4
f 4/30/21 5/31/22 22/8/7 23/7/5
f 9/32/23 18/26/18 1/33/24
f 1/33/24 18/26/18 3/34/25
f 4/35/21 18/26/18 5/36/22
f 7/27/19 18/26/18 8/37/26
f 5/36/22 18/26/18 6/25/17
f 8/37/26 18/26/18 9/32/23
f 3/34/25 18/26/18 4/35/21
f 5/38/22 6/39/17 21/13/9 22/40/7
f 6/39/17 7/41/19 20/14/11 21/13/9
f 7/42/19 8/43/26 19/19/13 20/44/11
f 8/43/26 9/45/23 26/20/15 19/19/13
f 9/46/23 1/47/24 25/1/1 26/48/15
f 3/49/25 4/30/21 23/7/5 24/50/2
f 1/47/24 3/51/25 24/2/2 25/1/1
s 0
f 31/52/27 28/53/27 32/54/27
f 33/55/28 28/56/28 31/57/28
f 29/58/29 30/59/29 27/60/29
f 32/61/30 33/55/30 30/62/30 29/63/30
f 28/56/31 33/55/31 32/61/31
f 30/62/32 33/55/32 31/57/32 27/64/32
f 27/65/33 31/52/33 32/54/33 29/66/33
