# Blender 4.5.3 LTS
# www.blender.org
o treeB
v -0.055480 0.362822 -0.520843
v -0.100523 2.056210 0.021246
v 0.329062 0.362822 -0.407522
v 0.520843 0.362822 -0.055480
v 0.407522 0.362822 0.329062
v 0.055480 0.362822 0.520843
v -0.329062 0.362822 0.407522
v -0.520843 0.362822 0.055480
v -0.407522 0.362822 -0.329062
v -0.073767 1.542968 -0.356499
v -0.329147 1.542968 -0.236246
v 0.191846 1.542968 -0.260950
v 0.312100 1.542968 -0.005570
v 0.216551 1.542968 0.260043
v -0.038829 1.542968 0.380296
v -0.304442 1.542968 0.284747
v -0.424696 1.542968 0.029367
v 0.000000 0.200000 0.000000
v -0.515040 0.938626 0.232305
v -0.201088 0.938626 0.526755
v 0.229117 0.938626 0.512965
v 0.523567 0.938626 0.199013
v 0.509777 0.938626 -0.231192
v 0.195825 0.938626 -0.525642
v -0.234380 0.938626 -0.511853
v -0.528830 0.938626 -0.197901
v -0.045232 0.000000 0.051059
v -0.039849 1.491793 0.006277
v -0.018988 0.000000 -0.071427
v 0.077254 0.000000 0.024815
v -0.094399 0.737522 0.048393
v -0.077581 0.737542 -0.030259
v -0.015823 0.737569 0.031556
vn 0.1836 -0.2902 0.9392
vn -0.5241 -0.3446 0.7788
vn -0.9135 -0.3655 0.1786
vn -0.7793 -0.3430 -0.5244
vn -0.1838 -0.2878 -0.9399
vn 0.5433 -0.2304 -0.8073
vn 0.9602 -0.2066 -0.1877
vn 0.8070 -0.2322 0.5430
vn 0.0901 0.9478 -0.3059
vn 0.3582 -0.5412 0.7608
vn -0.2760 -0.5790 0.7672
vn -0.7239 -0.5998 0.3409
vn -0.7568 -0.5942 -0.2723
vn -0.3516 -0.5646 -0.7467
vn 0.2880 -0.5255 -0.8006
vn 0.7832 -0.5005 -0.3688
vn 0.8108 -0.5075 0.2917
vn -0.9909 0.0582 -0.1211
vn 0.1526 0.9478 0.2800
vn -0.0901 0.9478 0.3059
vn -0.3059 0.9478 -0.0901
vn 0.2800 0.9478 -0.1526
vn -0.1526 0.9478 -0.2800
vn 0.3059 0.9478 0.0901
vn -0.2800 0.9478 0.1526
vn -0.6150 0.0605 -0.7862
vn 0.1210 0.0641 -0.9906
vn 0.7859 0.0668 -0.6148
vn 0.9904 0.0670 0.1210
vn 0.6149 0.0646 0.7860
vn -0.7863 0.0584 0.6151
vn -0.1210 0.0611 0.9908
vn -0.9762 0.0589 -0.2087
vn 0.2093 0.0394 0.9771
vn -0.0000 -1.0000 -0.0000
vn 0.7040 0.0952 -0.7038
vn 0.7074 -0.0012 -0.7068
vn 0.2095 0.0175 0.9777
vn -0.9757 -0.0658 -0.2089
vt 1.000000 0.750000
vt 0.875000 0.750000
vt 0.875000 1.000000
vt 1.000000 1.000000
vt 0.750000 0.750000
vt 0.750000 1.000000
vt 0.625000 0.750000
vt 0.625000 1.000000
vt 0.500000 0.750000
vt 0.500000 1.000000
vt 0.375000 0.750000
vt 0.375000 1.000000
vt 0.250000 0.750000
vt 0.250000 1.000000
vt 0.125000 0.750000
vt 0.125000 1.000000
vt 0.000000 0.750000
vt 0.000000 1.000000
vt 0.500000 0.500000
vt 0.375000 0.500000
vt 0.260222 0.260222
vt 0.250000 0.490000
vt 0.419706 0.419706
vt 0.264456 0.250000
vt 0.490000 0.250000
vt 0.260222 0.239778
vt 0.419706 0.080294
vt 0.250000 0.235544
vt 0.250000 0.010000
vt 0.239778 0.239778
vt 0.080294 0.080294
vt 0.235544 0.250000
vt 0.010000 0.250000
vt 0.239778 0.260222
vt 0.080294 0.419706
vt 0.250000 0.264456
vt 0.750000 0.500000
vt 0.625000 0.500000
vt 0.125000 0.500000
vt 0.000000 0.500000
vt 1.000000 0.500000
vt 0.875000 0.500000
vt 0.250000 0.500000
vt 0.500000 0.000000
vt 0.625000 0.250000
vt 0.500000 0.250000
vt 0.375000 0.250000
vt 0.375000 0.000000
s 0
f 25/1/1 24/2/1 10/3/1 11/4/1
f 24/2/2 23/5/2 12/6/2 10/3/2
f 23/5/3 22/7/3 13/8/3 12/6/3
f 22/7/4 21/9/4 14/10/4 13/8/4
f 21/9/5 20/11/5 15/12/5 14/10/5
f 20/11/6 19/13/6 16/14/6 15/12/6
f 19/13/7 26/15/7 17/16/7 16/14/7
f 26/15/8 25/17/8 11/18/8 17/16/8
f 6/19/9 18/19/9 7/20/9
f 2/21/10 11/22/10 10/23/10
f 2/24/11 10/23/11 12/25/11
f 2/26/12 12/25/12 13/27/12
f 2/28/13 13/27/13 14/29/13
f 2/30/14 14/29/14 15/31/14
f 2/32/15 15/31/15 16/33/15
f 2/34/16 16/33/16 17/35/16
f 2/36/17 17/35/17 11/22/17
f 4/37/18 5/38/18 22/7/18 23/5/18
f 9/39/19 18/39/19 1/40/19
f 1/41/20 18/41/20 3/42/20
f 4/37/21 18/37/21 5/38/21
f 7/20/22 18/20/22 8/43/22
f 5/38/23 18/38/23 6/19/23
f 8/43/24 18/43/24 9/39/24
f 3/42/25 18/42/25 4/37/25
f 5/38/26 6/19/26 21/9/26 22/7/26
f 6/19/27 7/20/27 20/11/27 21/9/27
f 7/20/28 8/43/28 19/13/28 20/11/28
f 8/43/29 9/39/29 26/15/29 19/13/29
f 9/39/30 1/40/30 25/17/30 26/15/30
f 3/42/31 4/37/31 23/5/31 24/2/31
f 1/41/32 3/42/32 24/2/32 25/1/32
f 31/44/33 28/45/33 32/46/33
f 33/9/34 28/8/34 31/10/34
f 29/39/35 30/11/35 27/15/35
f 32/46/36 33/9/36 30/11/36 29/47/36
f 28/7/37 33/9/37 32/46/37
f 30/11/38 33/9/38 31/10/38 27/12/38
f 27/48/39 31/44/39 32/46/39 29/47/39
