# Blender 5.0.1
# www.blender.org
o Boat
v -0.182017 -0.235141 0.615169
v -0.317154 0.200200 0.729028
v -0.182017 -0.235141 -0.615169
v -0.317154 0.200200 -0.729028
v 0.182017 -0.235141 0.615169
v 0.317154 0.200200 0.729028
v 0.182017 -0.235141 -0.615169
v 0.317154 0.200200 -0.729028
v 0.000000 -0.286002 -0.751425
v 0.000000 0.200200 -0.887432
v 0.000000 -0.286002 0.751425
v 0.000000 0.200200 0.887432
v -0.017694 0.134258 0.017694
v -0.017694 1.472677 0.017694
v -0.017694 0.134258 -0.017694
v -0.017694 1.472677 -0.017694
v 0.017694 0.134258 0.017694
v 0.017694 1.472677 0.017694
v 0.017694 0.134258 -0.017694
v 0.017694 1.472677 -0.017694
v -0.010431 0.348253 0.679344
v -0.010431 1.472677 0.030638
v -0.010431 1.472677 -0.036956
v 0.010431 0.348253 0.679344
v 0.010431 1.472677 0.030638
v 0.010431 1.472677 -0.036956
v -0.010431 0.348253 0.000000
v -0.010431 1.472677 -0.003159
v 0.010431 0.348253 0.000000
v 0.010431 1.472677 -0.003159
v -0.010431 0.542907 0.567043
v -0.010431 0.542907 -0.568137
v 0.010431 0.542907 -0.568137
v 0.010431 0.542907 0.567043
v 0.010431 0.542907 -0.000547
v -0.010431 0.542907 -0.000547
vn -0.9550 -0.2965 -0.0000
vn 0.5079 -0.2940 -0.8097
vn 0.9550 -0.2965 -0.0000
vn -0.5079 -0.2940 0.8097
vn 0.2691 -0.9631 -0.0000
vn -0.0000 1.0000 -0.0000
vn -0.2691 -0.9631 -0.0000
vn 0.5079 -0.2940 0.8097
vn -0.5079 -0.2940 -0.8097
vn -1.0000 -0.0000 -0.0000
vn -0.0000 -0.0000 -1.0000
vn 1.0000 -0.0000 -0.0000
vn -0.0000 -0.0000 1.0000
vn -0.0000 -1.0000 -0.0000
vn -0.0000 0.4961 -0.8683
vn -0.0000 0.4997 0.8662
vt 0.363725 0.073133
vt 0.386275 0.073133
vt 0.386275 0.095684
vt 0.363725 0.095684
vt 0.363725 0.106959
vt 0.386275 0.106959
vt 0.386275 0.118235
vt 0.363725 0.118235
vt 0.386275 0.140786
vt 0.363725 0.140786
vt 0.363725 0.152061
vt 0.386275 0.152061
vt 0.386275 0.163336
vt 0.363725 0.163336
vt 0.352449 0.118235
vt 0.352449 0.140786
vt 0.397551 0.118235
vt 0.408826 0.118235
vt 0.408826 0.140786
vt 0.397551 0.140786
vt 0.341174 0.118235
vt 0.341174 0.140786
vt 0.613171 0.823740
vt 0.636829 0.823740
vt 0.636829 0.847398
vt 0.613171 0.847398
vt 0.636829 0.871057
vt 0.613171 0.871057
vt 0.636829 0.894716
vt 0.613171 0.894716
vt 0.636829 0.918374
vt 0.613171 0.918374
vt 0.589512 0.871057
vt 0.589512 0.894716
vt 0.660488 0.871057
vt 0.660488 0.894716
vt 0.368037 0.591444
vt 0.385850 0.591444
vt 0.385850 0.602215
vt 0.368037 0.602215
vt 0.385850 0.623757
vt 0.368037 0.623757
vt 0.368037 0.634528
vt 0.385850 0.634528
vt 0.385850 0.645299
vt 0.368037 0.645299
vt 0.385850 0.666841
vt 0.368037 0.666841
vt 0.342766 0.634528
vt 0.364308 0.634528
vt 0.364308 0.645299
vt 0.342766 0.645299
vt 0.407392 0.634528
vt 0.407392 0.645299
vt 0.407392 0.623757
vt 0.368037 0.580673
vt 0.385850 0.580673
vt 0.364308 0.580673
vt 0.364308 0.591444
vt 0.364308 0.666841
s 0
f 1/1/1 2/2/1 4/3/1 3/4/1
f 9/5/2 10/6/2 8/7/2 7/8/2
f 7/8/3 8/7/3 6/9/3 5/10/3
f 11/11/4 12/12/4 2/13/4 1/14/4
f 9/15/5 7/8/5 5/10/5 11/16/5
f 10/17/6 4/18/6 2/19/6 12/20/6
f 8/7/6 10/17/6 12/20/6 6/9/6
f 3/21/7 9/15/7 11/16/7 1/22/7
f 5/10/8 6/9/8 12/12/8 11/11/8
f 3/4/9 4/3/9 10/6/9 9/5/9
f 13/23/10 14/24/10 16/25/10 15/26/10
f 15/26/11 16/25/11 20/27/11 19/28/11
f 19/28/12 20/27/12 18/29/12 17/30/12
f 17/30/13 18/29/13 14/31/13 13/32/13
f 15/33/14 19/28/14 17/30/14 13/34/14
f 20/27/6 16/35/6 14/36/6 18/29/6
f 36/37/10 28/38/10 23/39/10 32/40/10
f 32/40/15 23/39/15 26/41/15 33/42/15
f 35/43/12 30/44/12 25/45/12 34/46/12
f 34/46/16 25/45/16 22/47/16 31/48/16
f 27/49/14 29/50/14 24/51/14 21/52/14
f 30/44/6 28/53/6 22/54/6 25/45/6
f 26/41/6 23/55/6 28/53/6 30/44/6
f 33/42/12 26/41/12 30/44/12 35/43/12
f 31/56/10 22/57/10 28/38/10 36/37/10
f 21/58/10 31/56/10 36/37/10 27/59/10
f 35/43/14 36/37/14 32/40/14 33/42/14
f 24/51/16 34/46/16 31/48/16 21/60/16
f 29/50/12 35/43/12 34/46/12 24/51/12
