# Blender 5.0.1
# www.blender.org
o Dock
v -0.190633 0.072261 -0.132576
v -0.190633 0.126025 -0.132576
v 0.663305 0.072261 -1.611640
v 0.663305 0.126025 -1.611640
v 0.210131 0.072261 0.098805
v 0.210131 0.126025 0.098805
v 1.064069 0.072261 -1.380259
v 1.064069 0.126025 -1.380259
v -0.242019 -0.755992 -0.208987
v -0.242019 0.267712 -0.208987
v -0.209618 -0.755992 -0.264050
v -0.209618 0.267712 -0.264050
v -0.186956 -0.755992 -0.176586
v -0.186956 0.267712 -0.176586
v -0.154554 -0.755992 -0.231649
v -0.154554 0.267712 -0.231649
v 0.245130 -0.755992 0.084771
v 0.245130 0.267712 0.084771
v 0.277531 -0.755992 0.029707
v 0.277531 0.267712 0.029707
v 0.300193 -0.755992 0.117172
v 0.300193 0.267712 0.117172
v 0.332594 -0.755992 0.062109
v 0.332594 0.267712 0.062109
v 0.044395 -0.755992 -0.713272
v 0.044395 0.267712 -0.713272
v 0.076796 -0.755992 -0.768335
v 0.076796 0.267712 -0.768335
v 0.099458 -0.755992 -0.680870
v 0.099458 0.267712 -0.680870
v 0.131860 -0.755992 -0.735934
v 0.131860 0.267712 -0.735934
v 0.546231 -0.755992 -0.431754
v 0.546231 0.267712 -0.431754
v 0.578633 -0.755992 -0.486817
v 0.578633 0.267712 -0.486817
v 0.601295 -0.755992 -0.399352
v 0.601295 0.267712 -0.399352
v 0.633696 -0.755992 -0.454416
v 0.633696 0.267712 -0.454416
v 1.045620 -0.755992 -1.305683
v 1.045620 0.267712 -1.305683
v 1.078021 -0.755992 -1.360746
v 1.078021 0.267712 -1.360746
v 1.100683 -0.755992 -1.273282
v 1.100683 0.267712 -1.273282
v 1.133084 -0.755992 -1.328345
v 1.133084 0.267712 -1.328345
v 0.548679 -0.755992 -1.589649
v 0.548679 0.267712 -1.589649
v 0.581081 -0.755992 -1.644712
v 0.581081 0.267712 -1.644712
v 0.603743 -0.755992 -1.557248
v 0.603743 0.267712 -1.557248
v 0.636144 -0.755992 -1.612311
v 0.636144 0.267712 -1.612311
v 0.298985 -0.755992 -1.158804
v 0.298985 0.267712 -1.158804
v 0.331386 -0.755992 -1.213867
v 0.331386 0.267712 -1.213867
v 0.354048 -0.755992 -1.126403
v 0.354048 0.267712 -1.126403
v 0.386450 -0.755992 -1.181466
v 0.386450 0.267712 -1.181466
v 0.813061 -0.755992 -0.899318
v 0.813061 0.267712 -0.899318
v 0.845463 -0.755992 -0.954381
v 0.845463 0.267712 -0.954381
v 0.868125 -0.755992 -0.866917
v 0.868125 0.267712 -0.866917
v 0.900526 -0.755992 -0.921980
v 0.900526 0.267712 -0.921980
vn -0.8660 -0.0000 -0.5000
vn 0.5000 -0.0000 -0.8660
vn 0.8660 -0.0000 0.5000
vn -0.5000 -0.0000 0.8660
vn -0.0000 -1.0000 -0.0000
vn -0.0000 1.0000 -0.0000
vn -0.8619 -0.0000 -0.5071
vn 0.5071 -0.0000 -0.8619
vn 0.8619 -0.0000 0.5071
vn -0.5071 -0.0000 0.8619
vt 0.895355 0.577789
vt 0.917145 0.577789
vt 0.917145 0.599579
vt 0.895355 0.599579
vt 0.917145 0.621368
vt 0.895355 0.621368
vt 0.917145 0.643158
vt 0.895355 0.643158
vt 0.917145 0.664948
vt 0.895355 0.664948
vt 0.873565 0.621368
vt 0.873565 0.643158
vt 0.938935 0.621368
vt 0.938935 0.643158
s 0
f 1/1/1 2/2/1 4/3/1 3/4/1
f 3/4/2 4/3/2 8/5/2 7/6/2
f 7/6/3 8/5/3 6/7/3 5/8/3
f 5/8/4 6/7/4 2/9/4 1/10/4
f 3/11/5 7/6/5 5/8/5 1/12/5
f 8/5/6 4/13/6 2/14/6 6/7/6
f 9/1/7 10/2/7 12/3/7 11/4/7
f 11/4/8 12/3/8 16/5/8 15/6/8
f 15/6/9 16/5/9 14/7/9 13/8/9
f 13/8/10 14/7/10 10/9/10 9/10/10
f 11/11/5 15/6/5 13/8/5 9/12/5
f 16/5/6 12/13/6 10/14/6 14/7/6
f 17/1/7 18/2/7 20/3/7 19/4/7
f 19/4/8 20/3/8 24/5/8 23/6/8
f 23/6/9 24/5/9 22/7/9 21/8/9
f 21/8/10 22/7/10 18/9/10 17/10/10
f 19/11/5 23/6/5 21/8/5 17/12/5
f 24/5/6 20/13/6 18/14/6 22/7/6
f 25/1/7 26/2/7 28/3/7 27/4/7
f 27/4/8 28/3/8 32/5/8 31/6/8
f 31/6/9 32/5/9 30/7/9 29/8/9
f 29/8/10 30/7/10 26/9/10 25/10/10
f 27/11/5 31/6/5 29/8/5 25/12/5
f 32/5/6 28/13/6 26/14/6 30/7/6
f 33/1/7 34/2/7 36/3/7 35/4/7
f 35/4/8 36/3/8 40/5/8 39/6/8
f 39/6/9 40/5/9 38/7/9 37/8/9
f 37/8/10 38/7/10 34/9/10 33/10/10
f 35/11/5 39/6/5 37/8/5 33/12/5
f 40/5/6 36/13/6 34/14/6 38/7/6
f 41/1/7 42/2/7 44/3/7 43/4/7
f 43/4/8 44/3/8 48/5/8 47/6/8
f 47/6/9 48/5/9 46/7/9 45/8/9
f 45/8/10 46/7/10 42/9/10 41/10/10
f 43/11/5 47/6/5 45/8/5 41/12/5
f 48/5/6 44/13/6 42/14/6 46/7/6
f 49/1/7 50/2/7 52/3/7 51/4/7
f 51/4/8 52/3/8 56/5/8 55/6/8
f 55/6/9 56/5/9 54/7/9 53/8/9
f 53/8/10 54/7/10 50/9/10 49/10/10
f 51/11/5 55/6/5 53/8/5 49/12/5
f 56/5/6 52/13/6 50/14/6 54/7/6
f 57/1/7 58/2/7 60/3/7 59/4/7
f 59/4/8 60/3/8 64/5/8 63/6/8
f 63/6/9 64/5/9 62/7/9 61/8/9
f 61/8/10 62/7/10 58/9/10 57/10/10
f 59/11/5 63/6/5 61/8/5 57/12/5
f 64/5/6 60/13/6 58/14/6 62/7/6
f 65/1/7 66/2/7 68/3/7 67/4/7
f 67/4/8 68/3/8 72/5/8 71/6/8
f 71/6/9 72/5/9 70/7/9 69/8/9
f 69/8/10 70/7/10 66/9/10 65/10/10
f 67/11/5 71/6/5 69/8/5 65/12/5
f 72/5/6 68/13/6 66/14/6 70/7/6
