# Blender 4.5.3 LTS
# www.blender.org
o Fence
v 0.000000 0.000000 -1.826187
v -1.581524 0.000000 -0.913093
v -1.581524 0.000000 0.913093
v 0.000000 0.000000 1.826187
v 1.581524 0.000000 0.913093
v 1.581524 0.000000 -0.913093
v -1.054349 0.000000 -1.217458
v -0.527175 0.000000 -1.521822
v -1.581524 0.000000 0.304364
v -1.581524 0.000000 -0.304364
v -0.527175 0.000000 1.521822
v -1.054349 0.000000 1.217458
v 1.054349 0.000000 1.217458
v 0.527175 0.000000 1.521822
v 1.581524 0.000000 -0.304364
v 1.581524 0.000000 0.304364
v 0.527175 0.000000 -1.521822
v 1.054349 0.000000 -1.217458
v 0.000000 0.275987 -1.826187
v -1.581524 0.275987 -0.913093
v -1.581524 0.275987 0.913093
v 0.000000 0.275987 1.826187
v 1.581524 0.275987 0.913093
v 1.581524 0.275987 -0.913093
v -1.054349 0.275987 -1.217458
v -0.527175 0.275987 -1.521822
v -1.581524 0.275987 0.304364
v -1.581524 0.275987 -0.304364
v -0.527175 0.275987 1.521822
v -1.054349 0.275987 1.217458
v 1.054349 0.275987 1.217458
v 0.527175 0.275987 1.521822
v 1.581524 0.275987 -0.304364
v 1.581524 0.275987 0.304364
v 0.527175 0.275987 -1.521822
v 1.054349 0.275987 -1.217458
v 0.000000 0.000000 -1.819682
v -1.575891 0.000000 -0.909841
v -1.575891 0.000000 0.909841
v 0.000000 0.000000 1.819682
v 1.575891 0.000000 0.909841
v 1.575891 0.000000 -0.909841
v -1.050594 0.000000 -1.213121
v -0.525297 0.000000 -1.516402
v -1.575891 0.000000 0.303280
v -1.575891 0.000000 -0.303280
v -0.525297 0.000000 1.516402
v -1.050594 0.000000 1.213121
v 1.050594 0.000000 1.213121
v 0.525297 0.000000 1.516402
v 1.575891 0.000000 -0.303280
v 1.575891 0.000000 0.303280
v 0.525297 0.000000 -1.516402
v 1.050594 0.000000 -1.213121
v 0.000000 0.275987 -1.819682
v -1.575891 0.275987 -0.909841
v -1.575891 0.275987 0.909841
v 0.000000 0.275987 1.819682
v 1.575891 0.275987 0.909841
v 1.575891 0.275987 -0.909841
v -1.050594 0.275987 -1.213121
v -0.525297 0.275987 -1.516402
v -1.575891 0.275987 0.303280
v -1.575891 0.275987 -0.303280
v -0.525297 0.275987 1.516402
v -1.050594 0.275987 1.213121
v 1.050594 0.275987 1.213121
v 0.525297 0.275987 1.516402
v 1.575891 0.275987 -0.303280
v 1.575891 0.275987 0.303280
v 0.525297 0.275987 -1.516402
v 1.050594 0.275987 -1.213121
vn -0.5000 -0.0000 0.8660
vn 0.5000 -0.0000 -0.8660
vn 0.5000 -0.0000 0.8660
vn 1.0000 -0.0000 -0.0000
vn -0.5000 -0.0000 -0.8660
vn -1.0000 -0.0000 -0.0000
vt 0.000000 0.000000
s 0
f 3/1/1 12/1/1 30/1/1 21/1/1
f 18/1/2 17/1/2 35/1/2 36/1/2
f 11/1/1 4/1/1 22/1/1 29/1/1
f 4/1/3 14/1/3 32/1/3 22/1/3
f 12/1/1 11/1/1 29/1/1 30/1/1
f 5/1/4 16/1/4 34/1/4 23/1/4
f 13/1/3 5/1/3 23/1/3 31/1/3
f 6/1/2 18/1/2 36/1/2 24/1/2
f 14/1/3 13/1/3 31/1/3 32/1/3
f 7/1/5 2/1/5 20/1/5 25/1/5
f 15/1/4 6/1/4 24/1/4 33/1/4
f 8/1/5 7/1/5 25/1/5 26/1/5
f 1/1/5 8/1/5 26/1/5 19/1/5
f 16/1/4 15/1/4 33/1/4 34/1/4
f 9/1/6 3/1/6 21/1/6 27/1/6
f 2/1/6 10/1/6 28/1/6 20/1/6
f 17/1/2 1/1/2 19/1/2 35/1/2
f 10/1/6 9/1/6 27/1/6 28/1/6
f 39/1/2 57/1/2 66/1/2 48/1/2
f 54/1/1 72/1/1 71/1/1 53/1/1
f 47/1/2 65/1/2 58/1/2 40/1/2
f 40/1/5 58/1/5 68/1/5 50/1/5
f 48/1/2 66/1/2 65/1/2 47/1/2
f 41/1/6 59/1/6 70/1/6 52/1/6
f 49/1/5 67/1/5 59/1/5 41/1/5
f 42/1/1 60/1/1 72/1/1 54/1/1
f 50/1/5 68/1/5 67/1/5 49/1/5
f 43/1/3 61/1/3 56/1/3 38/1/3
f 51/1/6 69/1/6 60/1/6 42/1/6
f 44/1/3 62/1/3 61/1/3 43/1/3
f 37/1/3 55/1/3 62/1/3 44/1/3
f 52/1/6 70/1/6 69/1/6 51/1/6
f 45/1/4 63/1/4 57/1/4 39/1/4
f 38/1/4 56/1/4 64/1/4 46/1/4
f 53/1/1 71/1/1 55/1/1 37/1/1
f 46/1/4 64/1/4 63/1/4 45/1/4
