# Blender 5.0.1
# www.blender.org
o houseA
v -0.300000 0.000000 0.300000
v -0.300000 0.600000 0.300000
v -0.300000 0.000000 -0.300000
v -0.300000 0.600000 -0.300000
v 0.300000 0.000000 0.300000
v 0.300000 0.600000 0.300000
v 0.300000 0.000000 -0.300000
v 0.300000 0.600000 -0.300000
v 0.000000 0.899697 0.300000
v 0.000000 0.899697 -0.300000
v 0.308369 0.282716 0.186658
v 0.308369 0.444137 0.186658
v 0.308369 0.282716 0.081615
v 0.308369 0.444137 0.081615
v 0.308369 0.282716 -0.078012
v 0.308369 0.444137 -0.078012
v 0.308369 0.282716 -0.183055
v 0.308369 0.444137 -0.183055
v -0.308369 0.282716 -0.186658
v -0.308369 0.444137 -0.186658
v -0.308369 0.282716 -0.081615
v -0.308369 0.444137 -0.081615
v -0.308369 0.282716 0.078012
v -0.308369 0.444137 0.078012
v -0.308369 0.282716 0.183055
v -0.308369 0.444137 0.183055
v 0.111176 0.029013 -0.308369
v 0.111176 0.453111 -0.308369
v -0.100708 0.029013 -0.308369
v -0.100708 0.453111 -0.308369
vn -1.0000 -0.0000 -0.0000
vn -0.0000 -0.0000 -1.0000
vn 1.0000 -0.0000 -0.0000
vn -0.0000 -0.0000 1.0000
vn -0.0000 -1.0000 -0.0000
vn -0.7067 0.7075 -0.0000
vn 0.7067 0.7075 -0.0000
vt 0.576268 0.330686
vt 0.603740 0.330686
vt 0.603740 0.358158
vt 0.576268 0.358158
vt 0.603740 0.385630
vt 0.576268 0.385630
vt 0.603740 0.413102
vt 0.576268 0.413102
vt 0.603740 0.440574
vt 0.576268 0.440574
vt 0.125000 0.500000
vt 0.375000 0.500000
vt 0.375000 0.750000
vt 0.125000 0.750000
vt 0.542747 0.794921
vt 0.713146 0.801053
vt 0.735428 0.907412
vt 0.514329 0.899949
vt 0.699541 0.959672
vt 0.545053 0.954633
vt 0.095846 0.580221
vt 0.185404 0.580221
vt 0.185404 0.669779
vt 0.095846 0.669779
s 0
f 1/1/1 2/2/1 4/3/1 3/4/1
f 3/4/2 4/3/2 8/5/2 7/6/2
f 7/6/3 8/5/3 6/7/3 5/8/3
f 5/8/4 6/7/4 2/9/4 1/10/4
f 3/11/5 7/12/5 5/13/5 1/14/5
f 4/15/6 2/16/6 9/17/6 10/18/6
f 2/9/4 6/7/4 9/9/4
f 8/5/2 4/3/2 10/5/2
f 6/19/7 8/20/7 10/18/7 9/17/7
f 13/21/3 14/22/3 12/23/3 11/24/3
f 17/21/3 18/22/3 16/23/3 15/24/3
f 21/21/1 22/22/1 20/23/1 19/24/1
f 25/21/1 26/22/1 24/23/1 23/24/1
f 29/21/2 30/22/2 28/23/2 27/24/2
