# Blender 5.0.1
# www.blender.org
o lighthouse
v -0.000000 0.000000 -0.547231
v 0.000000 2.506446 -0.449257
v 0.386951 0.000000 -0.386951
v 0.317673 2.506446 -0.317673
v 0.547231 0.000000 0.000000
v 0.449257 2.506446 -0.000000
v 0.386951 0.000000 0.386951
v 0.317673 2.506446 0.317673
v -0.000000 0.000000 0.547231
v 0.000000 2.506446 0.449257
v -0.386951 0.000000 0.386951
v -0.317673 2.506446 0.317673
v -0.547231 0.000000 0.000000
v -0.449257 2.506446 -0.000000
v -0.386951 0.000000 -0.386951
v -0.317673 2.506446 -0.317673
v 0.000000 2.506446 -0.000000
v -0.276529 2.506446 -0.000000
v -0.195535 2.506446 0.195535
v 0.000000 2.506446 0.276529
v 0.195535 2.506446 0.195535
v 0.276529 2.506446 -0.000000
v 0.195535 2.506446 -0.195535
v 0.000000 2.506446 -0.276529
v -0.195535 2.506446 -0.195535
v 0.195535 3.136189 -0.195535
v 0.000000 3.136189 -0.276529
v 0.276529 3.136189 -0.000000
v 0.195535 3.136189 0.195535
v 0.000000 3.136189 0.276529
v -0.195535 3.136189 0.195535
v -0.276529 3.136189 -0.000000
v -0.195535 3.136189 -0.195535
v 0.114887 3.220169 -0.114887
v -0.000000 3.220169 -0.162475
v 0.162475 3.220169 0.000000
v 0.114887 3.220169 0.114887
v -0.000000 3.220169 0.162475
v -0.114887 3.220169 0.114887
v -0.162475 3.220169 0.000000
v -0.114887 3.220169 -0.114887
v -0.000000 3.269976 0.000000
v -0.355973 0.501289 0.355973
v -0.318036 1.002578 0.318036
v -0.282086 1.503867 0.282086
v -0.258584 2.005157 0.258584
v -0.000000 0.501289 0.503422
v 0.000000 1.002578 0.449771
v 0.000000 1.503867 0.398930
v 0.000000 2.005157 0.365692
v 0.355973 0.501289 0.355973
v 0.318036 1.002578 0.318036
v 0.282086 1.503867 0.282086
v 0.258584 2.005157 0.258584
v 0.503422 0.501289 0.000000
v 0.449771 1.002578 0.000000
v 0.398930 1.503867 -0.000000
v 0.365692 2.005157 -0.000000
v 0.355973 0.501289 -0.355973
v 0.318036 1.002578 -0.318036
v 0.282086 1.503867 -0.282086
v 0.258584 2.005157 -0.258584
v 0.000000 2.005157 -0.365692
v 0.000000 1.503867 -0.398930
v 0.000000 1.002578 -0.449771
v -0.000000 0.501289 -0.503422
v -0.365692 2.005157 -0.000000
v -0.398930 1.503867 -0.000000
v -0.449771 1.002578 0.000000
v -0.503422 0.501289 0.000000
v -0.258584 2.005157 -0.258584
v -0.282086 1.503867 -0.282086
v -0.318036 1.002578 -0.318036
v -0.355973 0.501289 -0.355973
v -0.195535 2.745631 0.195535
v 0.000000 2.745631 0.276529
v 0.276529 2.745631 -0.000000
v 0.195535 2.745631 -0.195535
v -0.195535 2.745631 -0.195535
v 0.000000 2.745631 -0.276529
v 0.195535 2.745631 0.195535
v -0.276529 2.745631 -0.000000
v -0.157799 2.745631 0.180634
v -0.180634 2.745631 0.157799
v -0.180634 3.136189 0.157799
v -0.157799 3.136189 0.180634
v -0.157799 3.136189 -0.180634
v -0.180634 3.136189 -0.157799
v -0.180634 2.745631 -0.157799
v -0.157799 2.745631 -0.180634
v 0.180634 3.136189 -0.157799
v 0.157799 3.136189 -0.180634
v 0.157799 2.745631 -0.180634
v 0.180634 2.745631 -0.157799
v -0.016147 3.136189 0.239309
v 0.016147 3.136189 0.239309
v 0.016147 2.745631 0.239309
v -0.016147 2.745631 0.239309
v 0.203054 3.136189 -0.177384
v 0.177384 3.136189 -0.203054
v 0.018151 3.136189 -0.269010
v -0.018151 3.136189 -0.269010
v 0.269010 3.136189 0.018151
v 0.269010 3.136189 -0.018151
v 0.177384 3.136189 0.203054
v 0.203054 3.136189 0.177384
v -0.018151 3.136189 0.269010
v 0.018151 3.136189 0.269010
v -0.203054 3.136189 0.177384
v -0.177384 3.136189 0.203054
v -0.269010 3.136189 -0.018151
v -0.269010 3.136189 0.018151
v -0.177384 3.136189 -0.203054
v -0.203054 3.136189 -0.177384
v -0.177384 2.745631 0.203054
v -0.203054 2.745631 0.177384
v 0.018151 2.745631 0.269010
v -0.018151 2.745631 0.269010
v 0.269010 2.745631 -0.018151
v 0.269010 2.745631 0.018151
v 0.177384 2.745631 -0.203054
v 0.203054 2.745631 -0.177384
v -0.203054 2.745631 -0.177384
v -0.177384 2.745631 -0.203054
v -0.018151 2.745631 -0.269010
v 0.018151 2.745631 -0.269010
v 0.203054 2.745631 0.177384
v 0.177384 2.745631 0.203054
v -0.269010 2.745631 0.018151
v -0.269010 2.745631 -0.018151
v 0.239309 3.136189 -0.016147
v 0.239309 3.136189 0.016147
v 0.239309 2.745631 0.016147
v 0.239309 2.745631 -0.016147
v -0.016147 3.136189 -0.239309
v 0.016147 3.136189 -0.239309
v 0.016147 2.745631 -0.239309
v -0.016147 2.745631 -0.239309
v 0.180634 3.136189 0.157799
v 0.157799 3.136189 0.180634
v 0.157799 2.745631 0.180634
v 0.180634 2.745631 0.157799
v -0.239309 3.136189 0.016147
v -0.239309 3.136189 -0.016147
v -0.239309 2.745631 -0.016147
v -0.239309 2.745631 0.016147
v -0.099626 2.745631 0.099626
v 0.000000 2.745631 0.140893
v 0.140893 2.745631 -0.000000
v 0.099626 2.745631 -0.099626
v -0.099626 2.745631 -0.099626
v 0.000000 2.745631 -0.140893
v 0.099626 2.745631 0.099626
v -0.140893 2.745631 -0.000000
v -0.099626 3.136189 0.099626
v 0.000000 3.136189 0.140893
v 0.140893 3.136189 -0.000000
v 0.099626 3.136189 -0.099626
v -0.099626 3.136189 -0.099626
v 0.000000 3.136189 -0.140893
v 0.099626 3.136189 0.099626
v -0.140893 3.136189 -0.000000
v -0.195044 3.136189 0.195044
v 0.000000 3.136189 0.275834
v 0.275834 3.136189 -0.000000
v 0.195044 3.136189 -0.195044
v -0.195044 3.136189 -0.195044
v 0.000000 3.136189 -0.275834
v 0.195044 3.136189 0.195044
v -0.275834 3.136189 -0.000000
v 0.000000 2.506446 -0.449257
v 0.317673 2.506446 -0.317673
v 0.449257 2.506446 -0.000000
v 0.317673 2.506446 0.317673
v 0.000000 2.506446 0.449257
v -0.317673 2.506446 0.317673
v -0.449257 2.506446 -0.000000
v -0.317673 2.506446 -0.317673
v -0.276529 2.506446 -0.000000
v -0.195535 2.506446 0.195535
v 0.000000 2.506446 0.276529
v 0.195535 2.506446 0.195535
v 0.276529 2.506446 -0.000000
v 0.195535 2.506446 -0.195535
v 0.000000 2.506446 -0.276529
v -0.195535 2.506446 -0.195535
v -0.195535 2.745631 0.195535
v 0.000000 2.745631 0.276529
v 0.276529 2.745631 -0.000000
v 0.195535 2.745631 -0.195535
v -0.195535 2.745631 -0.195535
v 0.000000 2.745631 -0.276529
v 0.195535 2.745631 0.195535
v -0.276529 2.745631 -0.000000
vn -0.0000 0.0871 -0.9962
vn -0.0000 0.2817 -0.9595
vn 0.7044 0.0871 -0.7044
vn 0.6785 0.2817 -0.6785
vn 0.9962 0.0871 -0.0000
vn 0.9595 0.2817 -0.0000
vn 0.7044 0.0871 0.7044
vn 0.6785 0.2817 0.6785
vn -0.0000 0.0871 0.9962
vn -0.0000 0.2817 0.9595
vn -0.7044 0.0871 0.7044
vn -0.6785 0.2817 0.6785
vn -0.9962 0.0871 -0.0000
vn -0.9595 0.2817 -0.0000
vn -0.7044 0.0871 -0.7044
vn -0.6785 0.2817 -0.6785
vn -0.0000 1.0000 -0.0000
vn -1.0000 -0.0000 -0.0000
vn -0.7071 -0.0000 0.7071
vn -0.0000 -0.0000 1.0000
vn 0.7071 -0.0000 0.7071
vn 1.0000 -0.0000 -0.0000
vn 0.7071 -0.0000 -0.7071
vn -0.0000 -0.0000 -1.0000
vn -0.7071 -0.0000 -0.7071
vn 0.4193 0.8053 -0.4193
vn -0.0000 0.8053 -0.5929
vn 0.5929 0.8053 -0.0000
vn 0.4193 0.8053 0.4193
vn -0.0000 0.8053 0.5929
vn -0.4193 0.8053 0.4193
vn -0.5929 0.8053 -0.0000
vn -0.4193 0.8053 -0.4193
vn 0.3489 0.8698 -0.3489
vn -0.0000 0.8698 -0.4934
vn 0.4934 0.8698 -0.0000
vn 0.3489 0.8698 0.3489
vn -0.0000 0.8698 0.4934
vn -0.3489 0.8698 0.3489
vn -0.4934 0.8698 -0.0000
vn -0.3489 0.8698 -0.3489
vn -0.7038 0.0963 0.7038
vn -0.7033 0.1038 0.7033
vn -0.7046 0.0842 0.7046
vn -0.7062 -0.0504 0.7062
vn -0.0000 0.0963 0.9954
vn -0.0000 0.1038 0.9946
vn -0.0000 0.0842 0.9965
vn -0.0000 -0.0504 0.9987
vn 0.7038 0.0963 0.7038
vn 0.7033 0.1038 0.7033
vn 0.7046 0.0842 0.7046
vn 0.7062 -0.0504 0.7062
vn 0.9954 0.0963 -0.0000
vn 0.9946 0.1038 -0.0000
vn 0.9965 0.0842 -0.0000
vn 0.9987 -0.0504 -0.0000
vn 0.7038 0.0963 -0.7038
vn 0.7033 0.1038 -0.7033
vn 0.7046 0.0842 -0.7046
vn 0.7062 -0.0504 -0.7062
vn -0.0000 -0.0504 -0.9987
vn -0.0000 0.0842 -0.9965
vn -0.0000 0.1038 -0.9946
vn -0.0000 0.0963 -0.9954
vn -0.9987 -0.0504 -0.0000
vn -0.9965 0.0842 -0.0000
vn -0.9946 0.1038 -0.0000
vn -0.9954 0.0963 -0.0000
vn -0.7062 -0.0504 -0.7062
vn -0.7046 0.0842 -0.7046
vn -0.7033 0.1038 -0.7033
vn -0.7038 0.0963 -0.7038
vn -0.6552 0.3761 0.6552
vn -0.0000 0.3761 0.9266
vn 0.9266 0.3761 -0.0000
vn 0.6552 0.3761 -0.6552
vn -0.6552 0.3761 -0.6552
vn -0.0000 0.3761 -0.9266
vn 0.6552 0.3761 0.6552
vn -0.9266 0.3761 -0.0000
vn 0.9413 -0.3361 -0.0317
vn 0.0317 -0.3361 -0.9413
vn 0.0317 0.3361 -0.9413
vn 0.9413 0.3361 -0.0317
vn 0.9413 0.3361 0.0317
vn 0.0317 0.3361 0.9413
vn 0.0317 -0.3361 0.9413
vn 0.9413 -0.3361 0.0317
vn -0.0317 0.3361 0.9413
vn -0.9413 0.3361 0.0317
vn -0.9413 -0.3361 0.0317
vn -0.0317 -0.3361 0.9413
vn -0.6432 0.3361 -0.6880
vn 0.6432 0.3361 -0.6880
vn 0.6432 -0.3361 -0.6880
vn -0.6432 -0.3361 -0.6880
vn 0.9432 0.3307 0.0318
vn -0.0318 0.3307 -0.9432
vn 0.6894 0.3307 -0.6445
vn -0.6894 0.3307 -0.6445
vn 0.6445 0.3307 0.6894
vn 0.6445 0.3307 -0.6894
vn -0.0318 0.3307 0.9432
vn 0.9432 0.3307 -0.0318
vn -0.6894 0.3307 0.6445
vn 0.6894 0.3307 0.6445
vn -0.9432 0.3307 -0.0318
vn 0.0318 0.3307 0.9432
vn -0.6445 0.3307 -0.6894
vn -0.6445 0.3307 0.6894
vn 0.0318 0.3307 -0.9432
vn -0.9432 0.3307 0.0318
vn 0.0318 -0.3307 0.9432
vn -0.9432 -0.3307 -0.0318
vn 0.6894 -0.3307 0.6445
vn -0.6894 -0.3307 0.6445
vn 0.6445 -0.3307 -0.6894
vn 0.6445 -0.3307 0.6894
vn -0.0318 -0.3307 -0.9432
vn 0.9432 -0.3307 0.0318
vn -0.9432 -0.3307 0.0318
vn 0.0318 -0.3307 -0.9432
vn -0.6894 -0.3307 -0.6445
vn 0.6894 -0.3307 -0.6445
vn 0.9432 -0.3307 -0.0318
vn -0.0318 -0.3307 0.9432
vn -0.6445 -0.3307 0.6894
vn -0.6445 -0.3307 -0.6894
vn -0.6880 0.3361 -0.6432
vn -0.6880 0.3361 0.6432
vn -0.6880 -0.3361 0.6432
vn -0.6880 -0.3361 -0.6432
vn -0.6432 0.3361 0.6880
vn 0.6432 0.3361 0.6880
vn 0.6432 -0.3361 0.6880
vn -0.6432 -0.3361 0.6880
vn -0.0317 0.3361 -0.9413
vn -0.9413 0.3361 -0.0317
vn -0.9413 -0.3361 -0.0317
vn -0.0317 -0.3361 -0.9413
vn 0.6880 0.3361 0.6432
vn 0.6880 0.3361 -0.6432
vn 0.6880 -0.3361 -0.6432
vn 0.6880 -0.3361 0.6432
vn -0.5857 0.5603 0.5857
vn -0.0000 0.5603 0.8283
vn 0.8283 0.5603 -0.0000
vn 0.5857 0.5603 -0.5857
vn -0.5857 0.5603 -0.5857
vn -0.0000 0.5603 -0.8283
vn 0.5857 0.5603 0.5857
vn -0.8283 0.5603 -0.0000
vn -0.5857 -0.5603 0.5857
vn -0.0000 -0.5603 0.8283
vn 0.8283 -0.5603 -0.0000
vn 0.5857 -0.5603 -0.5857
vn -0.5857 -0.5603 -0.5857
vn -0.0000 -0.5603 -0.8283
vn 0.5857 -0.5603 0.5857
vn -0.8283 -0.5603 -0.0000
vn -0.0000 -1.0000 -0.0000
vt 0.598432 0.805378
vt 0.599447 0.829344
vt 0.600474 0.840848
vt 0.599563 0.818651
vt 0.603925 0.916512
vt 0.597950 0.946137
vt 0.613267 0.950631
vt 0.615964 0.920863
vt 0.633786 0.950888
vt 0.632303 0.921113
vt 0.649092 0.946797
vt 0.644381 0.917147
vt 0.650383 0.940263
vt 0.645216 0.910914
vt 0.635184 0.935025
vt 0.633251 0.906006
vt 0.612204 0.934703
vt 0.615389 0.905707
vt 0.596787 0.939537
vt 0.603239 0.910230
vt 0.625000 0.399523
vt 0.625000 0.417319
vt 0.602755 0.417319
vt 0.602755 0.399523
vt 0.598055 0.333436
vt 0.603396 0.348826
vt 0.641528 0.336700
vt 0.676024 0.355087
vt 0.687910 0.340183
vt 0.637358 0.359539
vt 0.672454 0.326866
vt 0.644426 0.320827
vt 0.616038 0.323113
vt 0.657006 0.855096
vt 0.700579 0.877176
vt 0.668803 0.905243
vt 0.642314 0.893580
vt 0.609323 0.927679
vt 0.582757 0.917764
vt 0.623734 0.925804
vt 0.696733 0.902688
vt 0.656128 0.917601
vt 0.643442 0.928372
vt 0.667991 0.919556
vt 0.557834 0.899585
vt 0.549593 0.873510
vt 0.579165 0.903262
vt 0.590366 0.853372
vt 0.603777 0.892696
vt 0.601678 0.916449
vt 0.615424 0.827661
vt 0.615515 0.848691
vt 0.635769 0.849140
vt 0.636738 0.828175
vt 0.669490 0.399523
vt 0.669490 0.417319
vt 0.647245 0.417319
vt 0.647245 0.399523
vt 0.634543 0.871302
vt 0.633284 0.895144
vt 0.646052 0.890290
vt 0.648503 0.865338
vt 0.669490 0.363931
vt 0.669490 0.381727
vt 0.647245 0.381727
vt 0.647245 0.363931
vt 0.650935 0.842001
vt 0.652754 0.819977
vt 0.647001 0.882635
vt 0.649648 0.855877
vt 0.625000 0.381727
vt 0.625000 0.363931
vt 0.634385 0.876585
vt 0.635888 0.848350
vt 0.602755 0.381727
vt 0.602755 0.363931
vt 0.654283 0.806840
vt 0.652295 0.830608
vt 0.637381 0.821486
vt 0.638566 0.796272
vt 0.580510 0.417319
vt 0.580510 0.399523
vt 0.615470 0.876215
vt 0.615126 0.847890
vt 0.580510 0.381727
vt 0.580510 0.363931
vt 0.614733 0.820926
vt 0.614584 0.795621
vt 0.558265 0.417319
vt 0.558265 0.399523
vt 0.602620 0.881793
vt 0.601065 0.854832
vt 0.558265 0.381727
vt 0.558265 0.363931
vt 0.536020 0.417319
vt 0.536020 0.399523
vt 0.603367 0.889511
vt 0.601945 0.864378
vt 0.536020 0.381727
vt 0.536020 0.363931
vt 0.691735 0.363931
vt 0.691735 0.381727
vt 0.615810 0.870927
vt 0.616069 0.894838
vt 0.691735 0.399523
vt 0.691735 0.417319
vt 0.713980 0.363931
vt 0.713980 0.381727
vt 0.713980 0.399523
vt 0.713980 0.417319
vt 0.614443 0.334667
vt 0.619063 0.343844
vt 0.618955 0.365661
vt 0.614521 0.355107
vt 0.661411 0.347298
vt 0.669715 0.338817
vt 0.667581 0.359888
vt 0.659472 0.369614
vt 0.639161 0.349665
vt 0.638163 0.372317
vt 0.661281 0.330419
vt 0.643423 0.326321
vt 0.642465 0.345446
vt 0.659622 0.350197
vt 0.625009 0.327895
vt 0.624701 0.347273
vt 0.110595 0.590768
vt 0.109225 0.592437
vt 0.102926 0.650641
vt 0.104367 0.649555
vt 0.173672 0.650481
vt 0.175241 0.651595
vt 0.174304 0.593906
vt 0.172881 0.592191
vt 0.120790 0.645505
vt 0.125759 0.645060
vt 0.130014 0.583913
vt 0.125552 0.584587
vt 0.173335 0.656758
vt 0.171194 0.657665
vt 0.170694 0.603334
vt 0.172630 0.601915
vt 0.157839 0.585359
vt 0.153379 0.584474
vt 0.151909 0.645430
vt 0.156904 0.646013
vt 0.152068 0.608548
vt 0.155907 0.608074
vt 0.154941 0.660684
vt 0.150733 0.660984
vt 0.129255 0.660735
vt 0.124959 0.660334
vt 0.128611 0.607523
vt 0.132506 0.608154
vt 0.107980 0.656895
vt 0.105653 0.655922
vt 0.111328 0.600612
vt 0.113373 0.602129
vt 0.176874 0.591524
vt 0.178423 0.593467
vt 0.156673 0.661454
vt 0.157477 0.609289
vt 0.101579 0.656176
vt 0.104240 0.657260
vt 0.178117 0.650047
vt 0.151987 0.661784
vt 0.174075 0.604040
vt 0.174914 0.658117
vt 0.179818 0.651310
vt 0.153199 0.609811
vt 0.177360 0.657108
vt 0.176284 0.602462
vt 0.123321 0.661068
vt 0.128108 0.661510
vt 0.131428 0.609377
vt 0.127084 0.608680
vt 0.109957 0.602699
vt 0.107620 0.601007
vt 0.154939 0.582704
vt 0.159998 0.583722
vt 0.159308 0.644935
vt 0.153637 0.644263
vt 0.123839 0.643836
vt 0.118190 0.644349
vt 0.123286 0.582835
vt 0.128354 0.582058
vt 0.104987 0.591803
vt 0.106479 0.589908
vt 0.099740 0.648993
vt 0.098181 0.650229
vt 0.109069 0.833108
vt 0.098889 0.840942
vt 0.111529 0.842081
vt 0.116503 0.837885
vt 0.143990 0.836032
vt 0.126833 0.831281
vt 0.125939 0.836867
vt 0.134917 0.839482
vt 0.143840 0.855449
vt 0.151948 0.845724
vt 0.138556 0.844517
vt 0.134115 0.849201
vt 0.122531 0.858152
vt 0.123765 0.850443
vt 0.103322 0.851496
vt 0.114255 0.847339
vt 0.382118 0.601934
vt 0.395263 0.604312
vt 0.399917 0.674423
vt 0.385910 0.674269
vt 0.394801 0.607956
vt 0.382538 0.610666
vt 0.385899 0.674831
vt 0.399180 0.674658
vt 0.365821 0.611142
vt 0.353064 0.609185
vt 0.354441 0.674737
vt 0.368022 0.674862
vt 0.351412 0.605669
vt 0.352742 0.674511
vt 0.363282 0.602539
vt 0.365589 0.674308
vt 0.647651 0.394940
vt 0.651892 0.389479
vt 0.664376 0.390881
vt 0.656594 0.402148
vt 0.648552 0.383581
vt 0.640130 0.380507
vt 0.641035 0.373945
vt 0.657119 0.379543
vt 0.631228 0.381704
vt 0.626522 0.386629
vt 0.614697 0.385301
vt 0.624277 0.376101
vt 0.629053 0.392772
vt 0.618849 0.397582
vt 0.637940 0.396384
vt 0.636716 0.405260
s 1
f 15/1/15 74/2/73 66/3/65 1/4/1
f 63/5/62 2/6/2 4/7/4 62/8/61
f 62/8/61 4/7/4 6/9/6 58/10/57
f 58/10/57 6/9/6 8/11/8 54/12/53
f 54/12/53 8/11/8 10/13/10 50/14/49
f 50/14/49 10/13/10 12/15/12 46/16/45
f 46/16/45 12/15/12 14/17/14 67/18/66
f 67/18/66 14/17/14 16/19/16 71/20/70
f 49/21/48 50/22/49 46/23/45 45/24/44
f 16/25/16 14/26/14 17/27/17
f 10/28/10 8/29/8 17/27/17
f 14/26/14 12/30/12 17/27/17
f 8/29/8 6/31/6 17/27/17
f 4/32/4 2/33/2 17/27/17
f 2/33/2 16/25/16 17/27/17
f 12/30/12 10/28/10 17/27/17
f 6/31/6 4/32/4 17/27/17
f 30/34/30 29/35/29 37/36/37 38/37/38
f 35/38/35 41/39/41 42/40/17
f 28/41/28 26/42/26 34/43/34 36/44/36
f 33/45/33 32/46/32 40/47/40 41/39/41
f 31/48/31 30/34/30 38/37/38 39/49/39
f 29/35/29 28/41/28 36/44/36 37/36/37
f 26/42/26 27/50/27 35/38/35 34/43/34
f 27/50/27 33/45/33 41/39/41 35/38/35
f 32/46/32 31/48/31 39/49/39 40/47/40
f 40/47/40 39/49/39 42/40/17
f 38/37/38 37/36/37 42/40/17
f 36/44/36 34/43/34 42/40/17
f 41/39/41 40/47/40 42/40/17
f 39/49/39 38/37/38 42/40/17
f 37/36/37 36/44/36 42/40/17
f 34/43/34 35/38/35 42/40/17
f 3/51/3 59/52/58 55/53/54 5/54/5
f 57/55/56 58/56/57 54/57/53 53/58/52
f 56/59/55 57/60/56 53/61/52 52/62/51
f 55/63/54 56/64/55 52/65/51 51/66/50
f 5/54/5 55/53/54 51/67/50 7/68/7
f 53/58/52 54/57/53 50/22/49 49/21/48
f 52/62/51 53/61/52 49/69/48 48/70/47
f 51/66/50 52/65/51 48/71/47 47/72/46
f 48/70/47 49/69/48 45/73/44 44/74/43
f 47/72/46 48/71/47 44/75/43 43/76/42
f 9/77/9 47/78/46 43/79/42 11/80/11
f 45/24/44 46/23/45 67/81/66 68/82/67
f 44/74/43 45/73/44 68/83/67 69/84/68
f 43/76/42 44/75/43 69/85/68 70/86/69
f 11/80/11 43/79/42 70/87/69 13/88/13
f 68/82/67 67/81/66 71/89/70 72/90/71
f 69/84/68 68/83/67 72/91/71 73/92/72
f 70/86/69 69/85/68 73/93/72 74/94/73
f 13/88/13 70/87/69 74/2/73 15/1/15
f 72/90/71 71/89/70 63/95/62 64/96/63
f 73/92/72 72/91/71 64/97/63 65/98/64
f 74/94/73 73/93/72 65/99/64 66/100/65
f 71/20/70 16/19/16 2/6/2 63/5/62
f 7/68/7 51/67/50 47/78/46 9/77/9
f 59/101/58 60/102/59 56/64/55 55/63/54
f 60/103/59 61/104/60 57/60/56 56/59/55
f 61/105/60 62/106/61 58/56/57 57/55/56
f 1/4/1 66/3/65 59/52/58 3/51/3
f 66/107/65 65/108/64 60/102/59 59/101/58
f 65/98/64 64/97/63 61/104/60 60/103/59
f 64/109/63 63/110/62 62/106/61 61/105/60
f 25/111/25 18/112/18 82/113/81 79/114/78
f 20/115/20 21/116/21 81/117/80 76/118/75
f 18/112/18 19/119/19 75/120/74 82/113/81
f 22/121/22 23/122/23 78/123/77 77/124/76
f 19/119/19 20/115/20 76/118/75 75/120/74
f 24/125/24 25/111/25 79/114/78 80/126/79
f 23/122/23 24/125/24 80/126/79 78/123/77
f 21/116/21 22/121/22 77/124/76 81/117/80
f 93/127/92 94/128/93 91/129/90 92/130/91
f 144/131/143 143/132/142 146/133/145 145/134/144
f 136/135/135 135/136/134 138/137/137 137/138/136
f 85/139/84 86/140/85 83/141/82 84/142/83
f 89/143/88 90/144/89 87/145/86 88/146/87
f 97/147/96 98/148/97 95/149/94 96/150/95
f 140/151/139 139/152/138 142/153/141 141/154/140
f 132/155/131 131/156/130 134/157/133 133/158/132
f 130/159/129 145/134/144 146/133/145 129/160/128
f 107/161/106 95/149/94 98/148/97 118/162/117
f 104/163/103 131/156/130 132/155/131 103/164/102
f 111/165/110 144/131/143 145/134/144 130/159/129
f 108/166/107 96/150/95 95/149/94 107/161/106
f 115/167/114 83/141/82 86/140/85 110/168/109
f 112/169/111 143/132/142 144/131/143 111/165/110
f 117/170/116 97/147/96 96/150/95 108/166/107
f 112/169/111 111/165/110 130/159/129 129/160/128
f 110/168/109 109/171/108 116/172/115 115/167/114
f 118/162/117 117/170/116 108/166/107 107/161/106
f 106/173/105 105/174/104 128/175/127 127/176/126
f 104/163/103 103/164/102 120/177/119 119/178/118
f 124/179/123 123/180/122 114/181/113 113/182/112
f 102/183/101 101/184/100 126/185/125 125/186/124
f 122/187/121 121/188/120 100/189/99 99/190/98
f 103/164/102 132/155/131 133/158/132 120/177/119
f 122/187/121 94/128/93 93/127/92 121/188/120
f 129/160/128 146/133/145 143/132/142 112/169/111
f 120/177/119 133/158/132 134/157/133 119/178/118
f 121/188/120 93/127/92 92/130/91 100/189/99
f 119/178/118 134/157/133 131/156/130 104/163/103
f 100/189/99 92/130/91 91/129/90 99/190/98
f 102/183/101 135/136/134 136/135/135 101/184/100
f 99/190/98 91/129/90 94/128/93 122/187/121
f 101/184/100 136/135/135 137/138/136 126/185/125
f 124/179/123 90/144/89 89/143/88 123/180/122
f 126/185/125 137/138/136 138/137/137 125/186/124
f 123/180/122 89/143/88 88/146/87 114/181/113
f 125/186/124 138/137/137 135/136/134 102/183/101
f 114/181/113 88/146/87 87/145/86 113/182/112
f 106/173/105 139/152/138 140/151/139 105/174/104
f 113/182/112 87/145/86 90/144/89 124/179/123
f 105/174/104 140/151/139 141/154/140 128/175/127
f 110/168/109 86/140/85 85/139/84 109/171/108
f 128/175/127 141/154/140 142/153/141 127/176/126
f 109/171/108 85/139/84 84/142/83 116/172/115
f 118/162/117 98/148/97 97/147/96 117/170/116
f 127/176/126 142/153/141 139/152/138 106/173/105
f 116/172/115 84/142/83 83/141/82 115/167/114
f 80/191/79 79/192/78 151/193/150 152/194/151
f 77/195/76 78/196/77 150/197/149 149/198/148
f 76/199/75 81/200/80 153/201/152 148/202/147
f 78/196/77 80/191/79 152/194/151 150/197/149
f 75/203/74 76/199/75 148/202/147 147/204/146
f 82/205/81 75/203/74 147/204/146 154/206/153
f 79/192/78 82/205/81 154/206/153 151/193/150
f 81/200/80 77/195/76 149/198/148 153/201/152
f 148/207/147 153/208/152 161/209/160 156/210/155
f 149/211/148 150/212/149 158/213/157 157/214/156
f 152/215/151 151/216/150 159/217/158 160/218/159
f 153/208/152 149/211/148 157/214/156 161/209/160
f 151/216/150 154/219/153 162/220/161 159/217/158
f 154/219/153 147/221/146 155/222/154 162/220/161
f 147/221/146 148/207/147 156/210/155 155/222/154
f 150/212/149 152/215/151 160/218/159 158/213/157
f 156/223/155 161/224/160 169/225/162 164/226/162
f 157/227/156 158/228/157 166/229/162 165/230/162
f 160/231/159 159/232/158 167/233/162 168/234/162
f 161/224/160 157/227/156 165/230/162 169/225/162
f 159/232/158 162/235/161 170/236/162 167/233/162
f 162/235/161 155/237/154 163/238/162 170/236/162
f 155/237/154 156/223/155 164/226/162 163/238/162
f 158/228/157 160/231/159 168/234/162 166/229/162
l 172 171
l 173 172
l 174 173
l 175 174
l 176 175
l 177 176
l 178 177
l 171 178
l 185 186
l 186 179
l 179 180
l 180 181
l 181 182
l 182 183
l 183 184
l 184 185
l 194 191
l 193 188
l 187 194
l 190 189
l 188 187
l 191 192
l 192 190
l 189 193
