# Blender 5.0.1
# www.blender.org
o lighthouse
v -0.000000 0.000000 -0.547231
v 0.000000 2.506446 -0.449257
v 0.386951 0.000000 -0.386951
v 0.317673 2.506446 -0.317673
v 0.547231 0.000000 0.000000
v 0.449257 2.506446 -0.000000
v 0.386951 0.000000 0.386951
v 0.317673 2.506446 0.317673
v -0.000000 0.000000 0.547231
v 0.000000 2.506446 0.449257
v -0.386951 0.000000 0.386951
v -0.317673 2.506446 0.317673
v -0.547231 0.000000 0.000000
v -0.449257 2.506446 -0.000000
v -0.386951 0.000000 -0.386951
v -0.317673 2.506446 -0.317673
v 0.000000 2.506446 -0.000000
v -0.276529 2.506446 -0.000000
v -0.195535 2.506446 0.195535
v 0.000000 2.506446 0.276529
v 0.195535 2.506446 0.195535
v 0.276529 2.506446 -0.000000
v 0.195535 2.506446 -0.195535
v 0.000000 2.506446 -0.276529
v -0.195535 2.506446 -0.195535
v 0.195535 3.136189 -0.195535
v 0.000000 3.136189 -0.276529
v 0.276529 3.136189 -0.000000
v 0.195535 3.136189 0.195535
v 0.000000 3.136189 0.276529
v -0.195535 3.136189 0.195535
v -0.276529 3.136189 -0.000000
v -0.195535 3.136189 -0.195535
v 0.114887 3.220169 -0.114887
v -0.000000 3.220169 -0.162475
v 0.162475 3.220169 0.000000
v 0.114887 3.220169 0.114887
v -0.000000 3.220169 0.162475
v -0.114887 3.220169 0.114887
v -0.162475 3.220169 0.000000
v -0.114887 3.220169 -0.114887
v -0.000000 3.269976 0.000000
v -0.355973 0.501289 0.355973
v -0.318036 1.002578 0.318036
v -0.282086 1.503867 0.282086
v -0.258584 2.005157 0.258584
v -0.000000 0.501289 0.503422
v 0.000000 1.002578 0.449771
v 0.000000 1.503867 0.398930
v 0.000000 2.005157 0.365692
v 0.355973 0.501289 0.355973
v 0.318036 1.002578 0.318036
v 0.282086 1.503867 0.282086
v 0.258584 2.005157 0.258584
v 0.503422 0.501289 0.000000
v 0.449771 1.002578 0.000000
v 0.398930 1.503867 -0.000000
v 0.365692 2.005157 -0.000000
v 0.355973 0.501289 -0.355973
v 0.318036 1.002578 -0.318036
v 0.282086 1.503867 -0.282086
v 0.258584 2.005157 -0.258584
v 0.000000 2.005157 -0.365692
v 0.000000 1.503867 -0.398930
v 0.000000 1.002578 -0.449771
v -0.000000 0.501289 -0.503422
v -0.365692 2.005157 -0.000000
v -0.398930 1.503867 -0.000000
v -0.449771 1.002578 0.000000
v -0.503422 0.501289 0.000000
v -0.258584 2.005157 -0.258584
v -0.282086 1.503867 -0.282086
v -0.318036 1.002578 -0.318036
v -0.355973 0.501289 -0.355973
v -0.195535 2.745631 0.195535
v 0.000000 2.745631 0.276529
v 0.276529 2.745631 -0.000000
v 0.195535 2.745631 -0.195535
v -0.195535 2.745631 -0.195535
v 0.000000 2.745631 -0.276529
v 0.195535 2.745631 0.195535
v -0.276529 2.745631 -0.000000
v -0.157799 2.745631 0.180634
v -0.180634 2.745631 0.157799
v -0.180634 3.136189 0.157799
v -0.157799 3.136189 0.180634
v -0.157799 3.136189 -0.180634
v -0.180634 3.136189 -0.157799
v -0.180634 2.745631 -0.157799
v -0.157799 2.745631 -0.180634
v 0.180634 3.136189 -0.157799
v 0.157799 3.136189 -0.180634
v 0.157799 2.745631 -0.180634
v 0.180634 2.745631 -0.157799
v -0.016147 3.136189 0.239309
v 0.016147 3.136189 0.239309
v 0.016147 2.745631 0.239309
v -0.016147 2.745631 0.239309
v 0.203054 3.136189 -0.177384
v 0.177384 3.136189 -0.203054
v 0.018151 3.136189 -0.269010
v -0.018151 3.136189 -0.269010
v 0.269010 3.136189 0.018151
v 0.269010 3.136189 -0.018151
v 0.177384 3.136189 0.203054
v 0.203054 3.136189 0.177384
v -0.018151 3.136189 0.269010
v 0.018151 3.136189 0.269010
v -0.203054 3.136189 0.177384
v -0.177384 3.136189 0.203054
v -0.269010 3.136189 -0.018151
v -0.269010 3.136189 0.018151
v -0.177384 3.136189 -0.203054
v -0.203054 3.136189 -0.177384
v -0.177384 2.745631 0.203054
v -0.203054 2.745631 0.177384
v 0.018151 2.745631 0.269010
v -0.018151 2.745631 0.269010
v 0.269010 2.745631 -0.018151
v 0.269010 2.745631 0.018151
v 0.177384 2.745631 -0.203054
v 0.203054 2.745631 -0.177384
v -0.203054 2.745631 -0.177384
v -0.177384 2.745631 -0.203054
v -0.018151 2.745631 -0.269010
v 0.018151 2.745631 -0.269010
v 0.203054 2.745631 0.177384
v 0.177384 2.745631 0.203054
v -0.269010 2.745631 0.018151
v -0.269010 2.745631 -0.018151
v 0.239309 3.136189 -0.016147
v 0.239309 3.136189 0.016147
v 0.239309 2.745631 0.016147
v 0.239309 2.745631 -0.016147
v -0.016147 3.136189 -0.239309
v 0.016147 3.136189 -0.239309
v 0.016147 2.745631 -0.239309
v -0.016147 2.745631 -0.239309
v 0.180634 3.136189 0.157799
v 0.157799 3.136189 0.180634
v 0.157799 2.745631 0.180634
v 0.180634 2.745631 0.157799
v -0.239309 3.136189 0.016147
v -0.239309 3.136189 -0.016147
v -0.239309 2.745631 -0.016147
v -0.239309 2.745631 0.016147
v -0.099626 2.745631 0.099626
v 0.000000 2.745631 0.140893
v 0.140893 2.745631 -0.000000
v 0.099626 2.745631 -0.099626
v -0.099626 2.745631 -0.099626
v 0.000000 2.745631 -0.140893
v 0.099626 2.745631 0.099626
v -0.140893 2.745631 -0.000000
v -0.099626 3.136189 0.099626
v 0.000000 3.136189 0.140893
v 0.140893 3.136189 -0.000000
v 0.099626 3.136189 -0.099626
v -0.099626 3.136189 -0.099626
v 0.000000 3.136189 -0.140893
v 0.099626 3.136189 0.099626
v -0.140893 3.136189 -0.000000
v -0.195044 3.136189 0.195044
v 0.000000 3.136189 0.275834
v 0.275834 3.136189 -0.000000
v 0.195044 3.136189 -0.195044
v -0.195044 3.136189 -0.195044
v 0.000000 3.136189 -0.275834
v 0.195044 3.136189 0.195044
v -0.275834 3.136189 -0.000000
v 0.000000 2.506446 -0.449257
v 0.317673 2.506446 -0.317673
v 0.449257 2.506446 -0.000000
v 0.317673 2.506446 0.317673
v 0.000000 2.506446 0.449257
v -0.317673 2.506446 0.317673
v -0.449257 2.506446 -0.000000
v -0.317673 2.506446 -0.317673
v -0.276529 2.506446 -0.000000
v -0.195535 2.506446 0.195535
v 0.000000 2.506446 0.276529
v 0.195535 2.506446 0.195535
v 0.276529 2.506446 -0.000000
v 0.195535 2.506446 -0.195535
v 0.000000 2.506446 -0.276529
v -0.195535 2.506446 -0.195535
v -0.195535 2.745631 0.195535
v 0.000000 2.745631 0.276529
v 0.276529 2.745631 -0.000000
v 0.195535 2.745631 -0.195535
v -0.195535 2.745631 -0.195535
v 0.000000 2.745631 -0.276529
v 0.195535 2.745631 0.195535
v -0.276529 2.745631 -0.000000
v -0.099626 2.745631 0.099626
v 0.000000 2.745631 0.140893
v 0.140893 2.745631 -0.000000
v 0.099626 2.745631 -0.099626
v -0.099626 2.745631 -0.099626
v 0.000000 2.745631 -0.140893
v 0.099626 2.745631 0.099626
v -0.140893 2.745631 -0.000000
v -0.099626 3.136189 0.099626
v 0.000000 3.136189 0.140893
v 0.140893 3.136189 -0.000000
v 0.099626 3.136189 -0.099626
v -0.099626 3.136189 -0.099626
v 0.000000 3.136189 -0.140893
v 0.099626 3.136189 0.099626
v -0.140893 3.136189 -0.000000
vn -0.7044 0.0871 -0.7044
vn -0.7038 0.0963 -0.7038
vn -0.0000 0.0963 -0.9954
vn -0.0000 0.0871 -0.9962
vn -0.0000 -0.0504 -0.9987
vn -0.0000 0.2817 -0.9595
vn 0.6785 0.2817 -0.6785
vn 0.7062 -0.0504 -0.7062
vn 0.9595 0.2817 -0.0000
vn 0.9987 -0.0504 -0.0000
vn 0.6785 0.2817 0.6785
vn 0.7062 -0.0504 0.7062
vn -0.0000 0.2817 0.9595
vn -0.0000 -0.0504 0.9987
vn -0.6785 0.2817 0.6785
vn -0.7062 -0.0504 0.7062
vn -0.9595 0.2817 -0.0000
vn -0.9987 -0.0504 -0.0000
vn -0.6785 0.2817 -0.6785
vn -0.7062 -0.0504 -0.7062
vn -0.0000 0.0842 0.9965
vn -0.7046 0.0842 0.7046
vn -0.0000 1.0000 -0.0000
vn -0.0000 0.8053 0.5929
vn 0.4193 0.8053 0.4193
vn 0.3489 0.8698 0.3489
vn -0.0000 0.8698 0.4934
vn -0.0000 0.8698 -0.4934
vn -0.3489 0.8698 -0.3489
vn 0.5929 0.8053 -0.0000
vn 0.4193 0.8053 -0.4193
vn 0.3489 0.8698 -0.3489
vn 0.4934 0.8698 -0.0000
vn -0.4193 0.8053 -0.4193
vn -0.5929 0.8053 -0.0000
vn -0.4934 0.8698 -0.0000
vn -0.4193 0.8053 0.4193
vn -0.3489 0.8698 0.3489
vn -0.0000 0.8053 -0.5929
vn 0.7044 0.0871 -0.7044
vn 0.7038 0.0963 -0.7038
vn 0.9954 0.0963 -0.0000
vn 0.9962 0.0871 -0.0000
vn 0.9965 0.0842 -0.0000
vn 0.7046 0.0842 0.7046
vn 0.9946 0.1038 -0.0000
vn 0.7033 0.1038 0.7033
vn 0.7038 0.0963 0.7038
vn 0.7044 0.0871 0.7044
vn -0.0000 0.1038 0.9946
vn -0.0000 0.0963 0.9954
vn -0.7033 0.1038 0.7033
vn -0.7038 0.0963 0.7038
vn -0.0000 0.0871 0.9962
vn -0.7044 0.0871 0.7044
vn -0.9965 0.0842 -0.0000
vn -0.9946 0.1038 -0.0000
vn -0.9954 0.0963 -0.0000
vn -0.9962 0.0871 -0.0000
vn -0.7046 0.0842 -0.7046
vn -0.7033 0.1038 -0.7033
vn -0.0000 0.0842 -0.9965
vn -0.0000 0.1038 -0.9946
vn 0.7033 0.1038 -0.7033
vn 0.7046 0.0842 -0.7046
vn -0.7071 -0.0000 -0.7071
vn -1.0000 -0.0000 -0.0000
vn -0.0000 -0.0000 1.0000
vn 0.7071 -0.0000 0.7071
vn -0.7071 -0.0000 0.7071
vn 1.0000 -0.0000 -0.0000
vn 0.7071 -0.0000 -0.7071
vn -0.0000 -0.0000 -1.0000
vn -0.9413 -0.3361 0.0317
vn -0.0317 -0.3361 0.9413
vn -0.0317 0.3361 0.9413
vn -0.9413 0.3361 0.0317
vn 0.6880 0.3361 -0.6432
vn 0.6880 0.3361 0.6432
vn 0.6880 -0.3361 0.6432
vn 0.6880 -0.3361 -0.6432
vn 0.6432 0.3361 0.6880
vn -0.6432 0.3361 0.6880
vn -0.6432 -0.3361 0.6880
vn 0.6432 -0.3361 0.6880
vn 0.0317 0.3361 -0.9413
vn 0.9413 0.3361 -0.0317
vn 0.9413 -0.3361 -0.0317
vn 0.0317 -0.3361 -0.9413
vn 0.0317 -0.3361 0.9413
vn 0.9413 -0.3361 0.0317
vn 0.9413 0.3361 0.0317
vn 0.0317 0.3361 0.9413
vn 0.6432 -0.3361 -0.6880
vn -0.6432 -0.3361 -0.6880
vn -0.6432 0.3361 -0.6880
vn 0.6432 0.3361 -0.6880
vn -0.9413 0.3361 -0.0317
vn -0.0317 0.3361 -0.9413
vn -0.0317 -0.3361 -0.9413
vn -0.9413 -0.3361 -0.0317
vn -0.6880 0.3361 0.6432
vn -0.6880 0.3361 -0.6432
vn -0.6880 -0.3361 -0.6432
vn -0.6880 -0.3361 0.6432
vn -0.6445 -0.3307 -0.6894
vn -0.6445 -0.3307 0.6894
vn -0.6894 0.3307 0.6445
vn -0.6894 -0.3307 0.6445
vn 0.6445 0.3307 -0.6894
vn 0.6445 0.3307 0.6894
vn -0.6445 0.3307 -0.6894
vn 0.6894 0.3307 0.6445
vn 0.0318 -0.3307 0.9432
vn 0.0318 0.3307 0.9432
vn -0.6445 0.3307 0.6894
vn 0.6894 -0.3307 0.6445
vn -0.9432 0.3307 -0.0318
vn -0.9432 -0.3307 -0.0318
vn 0.9432 0.3307 -0.0318
vn -0.0318 0.3307 0.9432
vn -0.0318 -0.3307 0.9432
vn 0.9432 -0.3307 -0.0318
vn 0.6445 -0.3307 0.6894
vn 0.6445 -0.3307 -0.6894
vn 0.0318 -0.3307 -0.9432
vn -0.9432 -0.3307 0.0318
vn -0.9432 0.3307 0.0318
vn 0.0318 0.3307 -0.9432
vn -0.6894 0.3307 -0.6445
vn 0.6894 0.3307 -0.6445
vn 0.6894 -0.3307 -0.6445
vn -0.6894 -0.3307 -0.6445
vn 0.9432 -0.3307 0.0318
vn -0.0318 -0.3307 -0.9432
vn -0.0318 0.3307 -0.9432
vn 0.9432 0.3307 0.0318
vn -0.0000 -1.0000 -0.0000
vt 0.598432 0.805378
vt 0.599447 0.829344
vt 0.600474 0.840848
vt 0.599563 0.818651
vt 0.603925 0.916512
vt 0.597950 0.946137
vt 0.613267 0.950631
vt 0.615964 0.920863
vt 0.633786 0.950888
vt 0.632303 0.921113
vt 0.649092 0.946797
vt 0.644381 0.917147
vt 0.650383 0.940263
vt 0.645216 0.910914
vt 0.635184 0.935025
vt 0.633251 0.906006
vt 0.612204 0.934703
vt 0.615389 0.905707
vt 0.596787 0.939537
vt 0.603239 0.910230
vt 0.625000 0.399523
vt 0.625000 0.417319
vt 0.602755 0.417319
vt 0.602755 0.399523
vt 0.598055 0.333436
vt 0.603396 0.348826
vt 0.641528 0.336700
vt 0.676024 0.355087
vt 0.687910 0.340183
vt 0.637358 0.359539
vt 0.672454 0.326866
vt 0.644426 0.320827
vt 0.616038 0.323113
vt 0.657006 0.855096
vt 0.700579 0.877176
vt 0.668803 0.905243
vt 0.642314 0.893580
vt 0.609323 0.927679
vt 0.582757 0.917764
vt 0.623734 0.925804
vt 0.696733 0.902688
vt 0.656128 0.917601
vt 0.643442 0.928372
vt 0.667991 0.919556
vt 0.557834 0.899585
vt 0.549593 0.873510
vt 0.579165 0.903262
vt 0.590366 0.853372
vt 0.603777 0.892696
vt 0.601678 0.916449
vt 0.615424 0.827661
vt 0.615515 0.848691
vt 0.635769 0.849140
vt 0.636738 0.828175
vt 0.669490 0.399523
vt 0.669490 0.417319
vt 0.647245 0.417319
vt 0.647245 0.399523
vt 0.634543 0.871302
vt 0.633284 0.895144
vt 0.646052 0.890290
vt 0.648503 0.865338
vt 0.669490 0.363931
vt 0.669490 0.381727
vt 0.647245 0.381727
vt 0.647245 0.363931
vt 0.650935 0.842001
vt 0.652754 0.819977
vt 0.647001 0.882635
vt 0.649648 0.855877
vt 0.625000 0.381727
vt 0.625000 0.363931
vt 0.634385 0.876585
vt 0.635888 0.848350
vt 0.602755 0.381727
vt 0.602755 0.363931
vt 0.654283 0.806840
vt 0.652295 0.830608
vt 0.637381 0.821486
vt 0.638566 0.796272
vt 0.580510 0.417319
vt 0.580510 0.399523
vt 0.615470 0.876215
vt 0.615126 0.847890
vt 0.580510 0.381727
vt 0.580510 0.363931
vt 0.614733 0.820926
vt 0.614584 0.795621
vt 0.558265 0.417319
vt 0.558265 0.399523
vt 0.602620 0.881793
vt 0.601065 0.854832
vt 0.558265 0.381727
vt 0.558265 0.363931
vt 0.536020 0.417319
vt 0.536020 0.399523
vt 0.603367 0.889511
vt 0.601945 0.864378
vt 0.536020 0.381727
vt 0.536020 0.363931
vt 0.691735 0.363931
vt 0.691735 0.381727
vt 0.615810 0.870927
vt 0.616069 0.894838
vt 0.691735 0.399523
vt 0.691735 0.417319
vt 0.713980 0.363931
vt 0.713980 0.381727
vt 0.713980 0.399523
vt 0.713980 0.417319
vt 0.614443 0.334667
vt 0.619063 0.343844
vt 0.618955 0.365661
vt 0.614521 0.355107
vt 0.661411 0.347298
vt 0.669715 0.338817
vt 0.667581 0.359888
vt 0.659472 0.369614
vt 0.639161 0.349665
vt 0.638163 0.372317
vt 0.661281 0.330419
vt 0.643423 0.326321
vt 0.642465 0.345446
vt 0.659622 0.350197
vt 0.625009 0.327895
vt 0.624701 0.347273
vt 0.110595 0.590768
vt 0.109225 0.592437
vt 0.102926 0.650641
vt 0.104367 0.649555
vt 0.173672 0.650481
vt 0.175241 0.651595
vt 0.174304 0.593906
vt 0.172881 0.592191
vt 0.120790 0.645505
vt 0.125759 0.645060
vt 0.130014 0.583913
vt 0.125552 0.584587
vt 0.173335 0.656758
vt 0.171194 0.657665
vt 0.170694 0.603334
vt 0.172630 0.601915
vt 0.157839 0.585359
vt 0.153379 0.584474
vt 0.151909 0.645430
vt 0.156904 0.646013
vt 0.152068 0.608548
vt 0.155907 0.608074
vt 0.154941 0.660684
vt 0.150733 0.660984
vt 0.129255 0.660735
vt 0.124959 0.660334
vt 0.128611 0.607523
vt 0.132506 0.608154
vt 0.107980 0.656895
vt 0.105653 0.655922
vt 0.111328 0.600612
vt 0.113373 0.602129
vt 0.176874 0.591524
vt 0.178423 0.593467
vt 0.156673 0.661454
vt 0.157477 0.609289
vt 0.101579 0.656176
vt 0.104240 0.657260
vt 0.178117 0.650047
vt 0.151987 0.661784
vt 0.174075 0.604040
vt 0.174914 0.658117
vt 0.179818 0.651310
vt 0.153199 0.609811
vt 0.177360 0.657108
vt 0.176284 0.602462
vt 0.123321 0.661068
vt 0.128108 0.661510
vt 0.131428 0.609377
vt 0.127084 0.608680
vt 0.109957 0.602699
vt 0.107620 0.601007
vt 0.154939 0.582704
vt 0.159998 0.583722
vt 0.159308 0.644935
vt 0.153637 0.644263
vt 0.123839 0.643836
vt 0.118190 0.644349
vt 0.123286 0.582835
vt 0.128354 0.582058
vt 0.104987 0.591803
vt 0.106479 0.589908
vt 0.099740 0.648993
vt 0.098181 0.650229
vt 0.109069 0.833108
vt 0.098889 0.840942
vt 0.111529 0.842081
vt 0.116503 0.837885
vt 0.143990 0.836032
vt 0.126833 0.831281
vt 0.125939 0.836867
vt 0.134917 0.839482
vt 0.143840 0.855449
vt 0.151948 0.845724
vt 0.138556 0.844517
vt 0.134115 0.849201
vt 0.122531 0.858152
vt 0.123765 0.850443
vt 0.103322 0.851496
vt 0.114255 0.847339
vt 0.647651 0.394940
vt 0.651892 0.389479
vt 0.664376 0.390881
vt 0.656594 0.402148
vt 0.648552 0.383581
vt 0.640130 0.380507
vt 0.641035 0.373945
vt 0.657119 0.379543
vt 0.631228 0.381704
vt 0.626522 0.386629
vt 0.614697 0.385301
vt 0.624277 0.376101
vt 0.629053 0.392772
vt 0.618849 0.397582
vt 0.637940 0.396384
vt 0.636716 0.405260
vt 0.382118 0.601934
vt 0.395263 0.604312
vt 0.399917 0.674423
vt 0.385910 0.674269
vt 0.394801 0.607956
vt 0.382538 0.610666
vt 0.385899 0.674831
vt 0.399180 0.674658
vt 0.365821 0.611142
vt 0.353064 0.609185
vt 0.354441 0.674737
vt 0.368022 0.674862
vt 0.351412 0.605669
vt 0.352742 0.674511
vt 0.363282 0.602539
vt 0.365589 0.674308
s 1
f 15/1/1 74/2/2 66/3/3 1/4/4
f 63/5/5 2/6/6 4/7/7 62/8/8
f 62/8/8 4/7/7 6/9/9 58/10/10
f 58/10/10 6/9/9 8/11/11 54/12/12
f 54/12/12 8/11/11 10/13/13 50/14/14
f 50/14/14 10/13/13 12/15/15 46/16/16
f 46/16/16 12/15/15 14/17/17 67/18/18
f 67/18/18 14/17/17 16/19/19 71/20/20
f 49/21/21 50/22/14 46/23/16 45/24/22
f 16/25/19 14/26/17 17/27/23
f 10/28/13 8/29/11 17/27/23
f 14/26/17 12/30/15 17/27/23
f 8/29/11 6/31/9 17/27/23
f 4/32/7 2/33/6 17/27/23
f 2/33/6 16/25/19 17/27/23
f 12/30/15 10/28/13 17/27/23
f 6/31/9 4/32/7 17/27/23
f 30/34/24 29/35/25 37/36/26 38/37/27
f 35/38/28 41/39/29 42/40/23
f 28/41/30 26/42/31 34/43/32 36/44/33
f 33/45/34 32/46/35 40/47/36 41/39/29
f 31/48/37 30/34/24 38/37/27 39/49/38
f 29/35/25 28/41/30 36/44/33 37/36/26
f 26/42/31 27/50/39 35/38/28 34/43/32
f 27/50/39 33/45/34 41/39/29 35/38/28
f 32/46/35 31/48/37 39/49/38 40/47/36
f 40/47/36 39/49/38 42/40/23
f 38/37/27 37/36/26 42/40/23
f 36/44/33 34/43/32 42/40/23
f 41/39/29 40/47/36 42/40/23
f 39/49/38 38/37/27 42/40/23
f 37/36/26 36/44/33 42/40/23
f 34/43/32 35/38/28 42/40/23
f 3/51/40 59/52/41 55/53/42 5/54/43
f 57/55/44 58/56/10 54/57/12 53/58/45
f 56/59/46 57/60/44 53/61/45 52/62/47
f 55/63/42 56/64/46 52/65/47 51/66/48
f 5/54/43 55/53/42 51/67/48 7/68/49
f 53/58/45 54/57/12 50/22/14 49/21/21
f 52/62/47 53/61/45 49/69/21 48/70/50
f 51/66/48 52/65/47 48/71/50 47/72/51
f 48/70/50 49/69/21 45/73/22 44/74/52
f 47/72/51 48/71/50 44/75/52 43/76/53
f 9/77/54 47/78/51 43/79/53 11/80/55
f 45/24/22 46/23/16 67/81/18 68/82/56
f 44/74/52 45/73/22 68/83/56 69/84/57
f 43/76/53 44/75/52 69/85/57 70/86/58
f 11/80/55 43/79/53 70/87/58 13/88/59
f 68/82/56 67/81/18 71/89/20 72/90/60
f 69/84/57 68/83/56 72/91/60 73/92/61
f 70/86/58 69/85/57 73/93/61 74/94/2
f 13/88/59 70/87/58 74/2/2 15/1/1
f 72/90/60 71/89/20 63/95/5 64/96/62
f 73/92/61 72/91/60 64/97/62 65/98/63
f 74/94/2 73/93/61 65/99/63 66/100/3
f 71/20/20 16/19/19 2/6/6 63/5/5
f 7/68/49 51/67/48 47/78/51 9/77/54
f 59/101/41 60/102/64 56/64/46 55/63/42
f 60/103/64 61/104/65 57/60/44 56/59/46
f 61/105/65 62/106/8 58/56/10 57/55/44
f 1/4/4 66/3/3 59/52/41 3/51/40
f 66/107/3 65/108/63 60/102/64 59/101/41
f 65/98/63 64/97/62 61/104/65 60/103/64
f 64/109/62 63/110/5 62/106/8 61/105/65
f 25/111/66 18/112/67 82/113/67 79/114/66
f 20/115/68 21/116/69 81/117/69 76/118/68
f 18/112/67 19/119/70 75/120/70 82/113/67
f 22/121/71 23/122/72 78/123/72 77/124/71
f 19/119/70 20/115/68 76/118/68 75/120/70
f 24/125/73 25/111/66 79/114/66 80/126/73
f 23/122/72 24/125/73 80/126/73 78/123/72
f 21/116/69 22/121/71 77/124/71 81/117/69
f 93/127/74 94/128/75 91/129/76 92/130/77
f 144/131/78 143/132/79 146/133/80 145/134/81
f 136/135/82 135/136/83 138/137/84 137/138/85
f 85/139/86 86/140/87 83/141/88 84/142/89
f 89/143/90 90/144/91 87/145/92 88/146/93
f 97/147/94 98/148/95 95/149/96 96/150/97
f 140/151/98 139/152/99 142/153/100 141/154/101
f 132/155/102 131/156/103 134/157/104 133/158/105
f 130/159/106 145/134/81 146/133/80 129/160/107
f 107/161/108 95/149/96 98/148/95 118/162/109
f 104/163/110 131/156/103 132/155/102 103/164/111
f 111/165/112 144/131/78 145/134/81 130/159/106
f 108/166/113 96/150/97 95/149/96 107/161/108
f 115/167/114 83/141/88 86/140/87 110/168/115
f 112/169/116 143/132/79 144/131/78 111/165/112
f 117/170/117 97/147/94 96/150/97 108/166/113
f 112/169/116 111/165/112 130/159/106 129/160/107
f 110/168/115 109/171/118 116/172/119 115/167/114
f 118/162/109 117/170/117 108/166/113 107/161/108
f 106/173/120 105/174/121 128/175/122 127/176/123
f 104/163/110 103/164/111 120/177/124 119/178/125
f 124/179/126 123/180/127 114/181/128 113/182/129
f 102/183/130 101/184/131 126/185/132 125/186/133
f 122/187/134 121/188/135 100/189/136 99/190/137
f 103/164/111 132/155/102 133/158/105 120/177/124
f 122/187/134 94/128/75 93/127/74 121/188/135
f 129/160/107 146/133/80 143/132/79 112/169/116
f 120/177/124 133/158/105 134/157/104 119/178/125
f 121/188/135 93/127/74 92/130/77 100/189/136
f 119/178/125 134/157/104 131/156/103 104/163/110
f 100/189/136 92/130/77 91/129/76 99/190/137
f 102/183/130 135/136/83 136/135/82 101/184/131
f 99/190/137 91/129/76 94/128/75 122/187/134
f 101/184/131 136/135/82 137/138/85 126/185/132
f 124/179/126 90/144/91 89/143/90 123/180/127
f 126/185/132 137/138/85 138/137/84 125/186/133
f 123/180/127 89/143/90 88/146/93 114/181/128
f 125/186/133 138/137/84 135/136/83 102/183/130
f 114/181/128 88/146/93 87/145/92 113/182/129
f 106/173/120 139/152/99 140/151/98 105/174/121
f 113/182/129 87/145/92 90/144/91 124/179/126
f 105/174/121 140/151/98 141/154/101 128/175/122
f 110/168/115 86/140/87 85/139/86 109/171/118
f 128/175/122 141/154/101 142/153/100 127/176/123
f 109/171/118 85/139/86 84/142/89 116/172/119
f 118/162/109 98/148/95 97/147/94 117/170/117
f 127/176/123 142/153/100 139/152/99 106/173/120
f 116/172/119 84/142/89 83/141/88 115/167/114
s 0
f 80/191/23 79/192/23 151/193/23 152/194/23
f 77/195/23 78/196/23 150/197/23 149/198/23
f 76/199/23 81/200/23 153/201/23 148/202/23
f 78/196/23 80/191/23 152/194/23 150/197/23
f 75/203/23 76/199/23 148/202/23 147/204/23
f 82/205/23 75/203/23 147/204/23 154/206/23
f 79/192/23 82/205/23 154/206/23 151/193/23
f 81/200/23 77/195/23 149/198/23 153/201/23
s 1
f 156/207/138 161/208/138 169/209/138 164/210/138
f 157/211/138 158/212/138 166/213/138 165/214/138
f 160/215/138 159/216/138 167/217/138 168/218/138
f 161/208/138 157/211/138 165/214/138 169/209/138
f 159/216/138 162/219/138 170/220/138 167/217/138
f 162/219/138 155/221/138 163/222/138 170/220/138
f 155/221/138 156/207/138 164/210/138 163/222/138
f 158/212/138 160/215/138 168/218/138 166/213/138
f 196/223/68 201/224/69 209/225/69 204/226/68
f 197/227/71 198/228/72 206/229/72 205/230/71
f 200/231/73 199/232/66 207/233/66 208/234/73
f 201/224/69 197/227/71 205/230/71 209/225/69
f 199/232/66 202/235/67 210/236/67 207/233/66
f 202/235/67 195/237/70 203/238/70 210/236/67
f 195/237/70 196/223/68 204/226/68 203/238/70
f 198/228/72 200/231/73 208/234/73 206/229/72
l 172 171
l 173 172
l 174 173
l 175 174
l 176 175
l 177 176
l 178 177
l 171 178
l 185 186
l 186 179
l 179 180
l 180 181
l 181 182
l 182 183
l 183 184
l 184 185
l 194 191
l 193 188
l 187 194
l 190 189
l 188 187
l 191 192
l 192 190
l 189 193
