# Blender 4.5.3 LTS
# www.blender.org
o rows
v -0.821678 -0.021826 0.922937
v -0.416008 0.071801 -1.066789
v -0.171032 0.070300 0.391951
v -0.196744 -0.002649 -1.071000
v -0.160334 0.079904 -0.326172
v -0.162032 0.084633 -1.128133
v 0.350690 0.055386 0.638841
v 0.335165 0.087143 -0.397458
v 0.341855 0.096229 -0.799213
v 0.881154 0.106119 0.239549
v 1.153430 0.000293 0.219310
v -0.618205 0.098952 0.627399
v -0.660077 0.050756 0.379418
v -0.639079 0.090034 -0.812029
v -0.853486 -0.000024 -0.532720
v -0.852789 0.001382 0.571556
v -1.148763 0.121699 -0.955529
v -0.363653 0.064655 1.082253
v -0.596616 -0.001076 1.113782
v 0.139559 0.003074 -1.195976
v 0.457413 0.001351 -1.134862
v 0.855778 0.062171 0.933376
v -0.122664 0.004260 -0.783921
v -0.130601 0.081190 0.697606
v 0.166007 0.007874 0.055204
v 0.135165 0.046508 -0.258638
v -0.150707 -0.003707 0.446507
v 0.320256 -0.000986 -0.442410
v 0.369945 0.003533 0.938250
v 0.374838 0.002782 -0.645547
v 0.667601 0.003514 -0.438030
v 1.153509 -0.002419 0.695081
v 1.195211 -0.000810 -0.622222
v 1.165139 -0.005885 -0.108246
v -0.642082 0.078850 -0.128689
v -0.331608 0.001132 -0.566420
v -0.368381 -0.000845 0.192247
v -0.356428 0.096015 0.838355
v -0.839773 -0.008037 0.782298
v -0.840845 0.086972 0.420909
v -0.962412 0.058101 0.235472
v -1.208880 -0.002213 0.759179
v 1.232373 0.011402 0.054655
v -0.143551 -0.008006 0.945039
v 0.164972 0.001779 -0.777896
v 0.358428 0.003048 1.111110
v 0.131908 0.001028 1.187048
v -0.907345 0.002040 -0.982724
v -0.657162 -0.000269 -1.092362
v -0.328224 -0.000745 -1.035615
v -0.349048 -0.001466 1.048080
v 0.330445 -0.001995 -1.032574
v 0.645680 0.002589 -1.041616
v 0.625038 0.064310 1.054322
v 0.846546 -0.004435 -0.897920
v 1.165086 -0.002775 -0.937420
v 1.155865 0.055410 0.961238
v 0.962311 0.001671 0.996950
v -0.151307 0.004452 -0.521313
v 0.159389 -0.000939 0.890814
v 0.203387 0.087385 -0.867193
v 0.078637 0.123740 -0.585006
v -0.157197 -0.003814 -0.146123
v 0.341870 0.076409 0.394005
v 0.625410 -0.000080 0.477488
v 0.678787 -0.001338 -0.696916
v 0.644762 0.076825 -0.383294
v 0.647883 0.076085 0.073368
v 0.675959 -0.002308 0.097730
v 1.165224 0.135129 -0.320896
v 0.820091 0.000762 0.657371
v 0.820970 0.005840 0.312694
v -0.670548 -0.008947 -0.675801
v -0.666752 -0.001901 0.875338
v -0.367422 0.013715 0.801431
v -0.668978 0.001913 0.266653
v -0.714358 -0.000072 0.087814
v -1.169518 -0.009051 -0.145485
v -1.178107 0.003876 0.307706
v -1.114184 -0.000585 0.596752
v -1.102480 0.077109 -0.619967
v -0.811575 0.000678 -0.100937
v -0.830445 0.107049 -0.750573
v -0.116963 0.086938 1.140675
v 0.157813 0.095766 0.973320
v 0.879713 0.067504 -0.977460
v -0.177272 0.002624 0.737792
v 0.144538 -0.000679 0.520698
v 0.177800 0.106770 -0.080183
v 0.038127 0.100965 0.264050
v 0.170247 0.049250 0.657422
v 0.197340 -0.007555 -0.415848
v -0.112110 0.045931 -0.430363
v 0.353134 -0.003401 0.026199
v 0.331354 0.069228 0.167586
v 0.830706 0.006450 -0.301049
v 1.195030 0.006993 -0.422399
v 1.168154 0.090481 0.373209
v 1.157174 0.096425 -0.645356
v 0.868870 0.063505 -0.413340
v -0.629282 0.000890 -0.111685
v -0.323417 0.000434 -0.191314
v -0.351576 0.042219 -0.279946
v -0.450146 0.066543 0.275951
v -0.335424 0.103175 -0.875929
v -0.659064 0.008461 -0.311975
v -0.638583 0.041496 -0.607666
v -1.120061 0.001937 0.959897
v -0.869448 -0.002103 0.093822
v -0.852523 0.071925 -0.328887
v -0.808172 0.003018 0.260456
v -1.150146 0.070029 0.171226
v -1.168066 0.080026 0.411550
v -0.823104 0.110712 -0.101991
v -0.804437 0.000523 -0.802788
v -1.183635 0.094890 -0.186999
v -0.637047 0.082005 1.138111
v -0.320115 0.089816 0.467193
v -0.334977 -0.001204 0.537819
v -0.295908 0.004121 0.089092
v -0.599564 0.109479 0.089377
v -0.516976 0.103215 -0.378164
v 0.855211 -0.002253 -0.193516
v 0.877116 0.002276 0.036211
v 1.054308 0.072134 -0.028411
v 1.133045 0.049256 -0.962244
v 0.353517 0.088407 -0.205984
v 0.310409 0.002987 0.678614
v 0.316451 0.096693 1.051021
v 0.697258 0.002577 0.284969
v 0.504271 0.076380 -0.686284
v -0.219497 0.079886 -0.600739
v -0.145601 0.076618 0.010316
v -0.173147 0.072925 0.824804
v 0.177378 -0.001296 0.247706
v 0.124647 0.039377 -1.064297
v 1.190786 0.097103 0.769938
v 0.879491 0.051599 0.611153
v 1.210204 0.002493 0.923681
v 0.942229 0.002568 -0.980528
v 0.649202 -0.001235 1.025455
v 0.631905 0.047329 0.707871
v -0.127092 -0.002576 1.195287
v -0.046824 0.003428 -1.216448
v -0.627724 0.085135 -1.114369
v -1.128495 0.075492 0.640346
v -0.987077 -0.000561 1.022133
v -0.880777 0.067969 0.965482
v -1.150508 0.000884 -0.988219
v -1.166040 0.000399 -0.613446
vn -0.9988 0.0256 -0.0414
vn 0.2064 -0.1647 -0.9645
vn 0.0200 0.5191 0.8545
vn 0.0494 0.5550 0.8304
vn -0.0528 0.6777 0.7334
vn -0.0993 0.9948 -0.0235
vn 0.1112 0.9938 0.0048
vn 0.1055 0.9710 0.2147
vn 0.7737 0.6313 -0.0529
vn -0.9795 -0.0932 0.1784
vn -0.9764 -0.1685 0.1352
vn -0.9648 0.2559 -0.0601
vn 0.2029 0.9717 -0.1210
vn 0.4733 0.8605 0.1885
vn -0.7184 0.6762 0.1633
vn 0.0713 0.9974 0.0084
vn 0.9837 0.1498 0.0997
vn 0.9962 -0.0676 -0.0557
vn -0.6821 0.7124 0.1652
vn -0.0429 0.9896 0.1374
vn -0.0036 0.9858 -0.1680
vn 0.2597 0.9647 0.0427
vn 0.1607 0.9419 -0.2948
vn 0.1070 0.9943 0.0012
vn -0.9903 -0.1386 -0.0102
vn -0.9399 0.3405 -0.0275
vn -0.9643 -0.1603 0.2108
vn -0.9497 -0.2697 0.1589
vn 0.9531 0.1026 0.2847
vn 0.9629 0.2531 -0.0939
vn 0.7918 0.4136 -0.4494
vn 0.3548 0.9214 -0.1588
vn 0.3787 0.8722 -0.3097
vn 0.3458 0.8066 -0.4794
vn -0.8454 0.5342 0.0011
vn -0.9814 -0.1304 0.1410
vn -0.8947 -0.2304 -0.3827
vn -0.6902 0.7228 0.0331
vn -0.9127 -0.3437 0.2209
vn -0.8402 -0.4818 0.2488
vn 0.8459 0.5330 -0.0175
vn 0.9983 0.0585 0.0070
vn 0.6652 0.6391 -0.3859
vn -0.0253 0.9943 -0.1038
vn -0.1538 0.9745 -0.1634
vn 0.3574 0.8665 -0.3485
vn 0.3215 0.9271 -0.1929
vn 0.3975 0.9118 -0.1031
vn -0.6825 0.7108 0.1705
vn -0.0707 0.9886 -0.1327
vn -0.5894 0.7833 0.1977
vn 0.7017 0.5937 0.3940
vn 0.9346 0.3438 -0.0915
vn 0.2798 0.8164 -0.5052
vn -0.2647 0.9585 0.1060
vn 0.1696 0.9243 0.3419
vn 0.0879 0.6310 -0.7708
vn -0.9280 0.2815 -0.2441
vn -0.9219 -0.3835 0.0550
vn -0.9840 0.1656 -0.0661
vn 0.9964 0.0730 -0.0431
vn -0.0788 0.9956 0.0513
vn 0.9615 0.2723 0.0364
vn 0.3097 0.9296 -0.2000
vn 0.0076 0.9963 0.0853
vn 0.2024 0.9602 0.1922
vn 0.3907 0.9023 -0.1825
vn 0.4052 0.9138 -0.0285
vn -0.6987 -0.7114 -0.0757
vn -0.9971 -0.0746 -0.0173
vn -0.8758 0.4741 -0.0902
vn -0.9795 -0.1314 0.1526
vn -0.9869 0.1493 0.0617
vn 0.9265 -0.3745 -0.0374
vn 0.5958 0.8001 0.0699
vn 0.9974 -0.0269 0.0672
vn 0.8085 -0.5580 -0.1871
vn -0.3510 0.9159 -0.1949
vn -0.1800 0.9498 0.2559
vn -0.1664 0.9456 -0.2796
vn 0.2653 -0.3618 0.8937
vn 0.9552 -0.1825 -0.2330
vn -0.2090 0.9765 -0.0520
vn 0.2650 -0.3052 0.9147
vn -0.3100 0.8816 -0.3559
vn -0.9808 -0.1580 0.1144
vn -0.2087 0.9780 -0.0063
vn 0.9937 -0.0628 0.0926
vn -0.6791 -0.1934 -0.7081
vn -0.8540 0.4764 0.2089
vn -0.8976 0.4284 0.1039
vn 0.2224 0.9638 -0.1471
vn -0.2360 0.8100 0.5369
vn 0.5059 -0.0742 0.8594
vn 0.8490 0.5276 -0.0289
vn 0.0206 0.2608 -0.9652
vn -0.2641 0.9384 0.2230
vn -0.3185 0.9129 -0.2555
vn 0.0892 0.7882 -0.6089
vn 0.7608 0.5912 0.2677
vn -0.2859 0.9490 0.1325
vn -0.1094 0.8971 -0.4282
vn 0.9150 0.0100 0.4032
vn 0.9989 -0.0197 0.0422
vn -0.9974 0.0578 0.0442
vn 0.0341 0.9993 -0.0173
vn -0.5437 0.7642 -0.3468
vn -0.0307 0.9991 -0.0303
vn -0.9884 0.1193 0.0939
vn -0.4583 0.7952 -0.3970
vn -0.6811 0.7285 -0.0740
vn -0.8940 0.4415 0.0765
vn 0.4159 0.9085 0.0398
vn -0.6124 0.7553 -0.2333
vn 0.9726 0.1507 0.1769
vn -0.5052 0.8380 0.2062
vn -0.9912 -0.1004 0.0857
vn -0.7659 0.6203 -0.1690
vn -0.9674 0.2395 -0.0821
vn -0.8577 0.1245 -0.4988
vn 0.9836 0.1121 0.1417
vn 0.9842 0.1017 -0.1450
vn -0.1048 0.9908 -0.0856
vn 0.3378 0.8066 0.4851
vn 0.3650 0.8534 -0.3722
vn 0.0756 0.9965 -0.0358
vn -0.1484 0.8717 0.4671
vn 0.0562 0.9980 -0.0305
vn 0.1176 0.8863 0.4480
vn -0.5354 0.8427 0.0571
vn -0.8951 0.4458 0.0061
vn 0.9734 -0.1886 0.1305
vn 0.9684 -0.2309 -0.0939
vn 0.9068 0.4109 -0.0944
vn 0.2388 0.9288 -0.2834
vn 0.4185 0.5131 0.7494
vn 0.2178 0.9727 0.0794
vn 0.1640 0.9835 0.0768
vn 0.2278 0.9514 0.2072
vn 0.3261 0.9348 0.1406
vn 0.0659 0.9977 -0.0137
vn -0.8965 0.4015 -0.1872
vn -0.6459 0.7634 0.0096
vn -0.5859 -0.7717 0.2474
vn 0.9370 -0.3493 -0.0021
vn 0.4198 0.8679 -0.2654
vn 0.9323 0.3615 -0.0133
vn 0.8713 0.4714 -0.1365
vn -0.0137 0.9893 0.1451
vn -0.1404 0.9901 -0.0085
vn -0.8289 0.5540 0.0776
vn 0.0385 0.9993 -0.0021
vn -0.3209 0.9376 0.1336
vn -0.2135 0.9685 -0.1279
vn -0.9840 -0.1650 -0.0668
vn -0.9811 0.1805 0.0698
vn -0.7587 0.6461 0.0828
vn -0.8957 -0.4406 -0.0609
vn 0.9460 0.3029 -0.1155
vn 0.9425 0.3341 -0.0111
vn 0.9534 0.3015 -0.0060
vn -0.0065 0.9987 0.0509
vn 0.1167 -0.0896 -0.9891
vn -0.2800 0.7924 0.5420
vn 0.1101 0.9657 -0.2351
vn -0.8401 -0.2555 0.4786
vn -0.1341 0.9222 -0.3628
vn -0.9662 -0.2575 0.0106
vn -0.8821 0.3859 -0.2700
vn 0.5922 0.8058 0.0034
vn 0.0093 0.9467 -0.3219
vn 0.7137 0.6992 0.0418
vn 0.8472 0.5289 -0.0499
vn 0.0858 0.9862 -0.1418
vn 0.1171 0.9890 0.0907
vn -0.1539 0.9880 -0.0148
vn -0.1328 0.9739 -0.1842
vn 0.2031 0.9496 -0.2388
vn 0.1624 0.9578 -0.2371
vn -0.1542 0.9458 0.2857
vn 0.8543 0.3815 0.3531
vn 0.9219 0.2744 -0.2736
vn -0.1409 0.9900 0.0070
vn -0.8891 0.4572 -0.0231
vn -0.5469 -0.4946 -0.6754
vn 0.2081 -0.2895 0.9343
vn -0.0139 0.9851 0.1715
vn 0.9385 0.3452 0.0017
vn -0.0393 0.9992 -0.0118
vn 0.2260 0.8801 0.4175
vn 0.0700 0.7782 -0.6242
vn 0.0892 0.9875 0.1296
vn -0.2497 0.9130 0.3225
vn 0.9921 -0.0967 -0.0799
vn 0.9805 0.1890 0.0533
vn 0.1618 -0.2982 -0.9407
vn -0.9669 0.2518 -0.0404
vn -0.9470 0.3203 -0.0238
vn 0.8231 0.5656 -0.0504
vn -0.7484 0.6361 0.1878
vt 0.264173 0.583438
vt 0.264807 0.595988
vt 0.264743 0.597187
vt 0.283922 0.601815
vt 0.291690 0.600069
vt 0.294910 0.598926
vt 0.311791 0.517383
vt 0.302661 0.519084
vt 0.302289 0.517080
vt 0.329883 0.522252
vt 0.318562 0.522373
vt 0.320102 0.520169
vt 0.349357 0.525667
vt 0.338348 0.526689
vt 0.342256 0.524357
vt 0.313475 0.563874
vt 0.301610 0.560554
vt 0.308351 0.551245
vt 0.301070 0.572898
vt 0.311911 0.570421
vt 0.301007 0.602320
vt 0.302452 0.589692
vt 0.311525 0.599978
vt 0.309837 0.582394
vt 0.314192 0.576188
vt 0.313004 0.589471
vt 0.300600 0.530672
vt 0.301685 0.526261
vt 0.302161 0.535339
vt 0.300677 0.546553
vt 0.301423 0.544551
vt 0.301185 0.566293
vt 0.319494 0.590253
vt 0.325452 0.586110
vt 0.330640 0.599146
vt 0.330721 0.558240
vt 0.329896 0.543414
vt 0.332532 0.550477
vt 0.320524 0.526510
vt 0.319818 0.537495
vt 0.318340 0.536036
vt 0.339226 0.596792
vt 0.338828 0.576096
vt 0.348520 0.596234
vt 0.349701 0.572705
vt 0.349697 0.564903
vt 0.350794 0.576429
vt 0.349808 0.547240
vt 0.350638 0.532685
vt 0.349268 0.552886
vt 0.282409 0.551149
vt 0.284956 0.557653
vt 0.280744 0.557710
vt 0.276485 0.588468
vt 0.266505 0.583677
vt 0.275675 0.572998
vt 0.263528 0.567792
vt 0.276755 0.564674
vt 0.264756 0.554650
vt 0.275054 0.557490
vt 0.271644 0.552293
vt 0.264099 0.545833
vt 0.265551 0.537440
vt 0.264046 0.566269
vt 0.263731 0.549643
vt 0.266076 0.539039
vt 0.277178 0.564635
vt 0.275640 0.580476
vt 0.273664 0.596985
vt 0.277439 0.590384
vt 0.277302 0.551377
vt 0.283524 0.583225
vt 0.282351 0.585725
vt 0.282773 0.572377
vt 0.283396 0.565653
vt 0.283865 0.565029
vt 0.284272 0.537915
vt 0.282736 0.547012
vt 0.285064 0.520071
vt 0.283580 0.519178
vt 0.282491 0.528818
vt 0.294054 0.571202
vt 0.295087 0.567951
vt 0.294786 0.581712
vt 0.294646 0.593067
vt 0.290437 0.550808
vt 0.295208 0.543792
vt 0.293437 0.553879
vt 0.296096 0.557664
vt 0.287986 0.574806
vt 0.283506 0.590723
vt 0.338327 0.568032
vt 0.337428 0.571977
vt 0.345631 0.561974
vt 0.349695 0.595323
vt 0.349405 0.584608
vt 0.350801 0.583759
vt 0.339279 0.552144
vt 0.318701 0.577163
vt 0.319248 0.575514
vt 0.320704 0.584615
vt 0.319108 0.554784
vt 0.319907 0.559971
vt 0.319494 0.546477
vt 0.330135 0.534962
vt 0.330769 0.523311
vt 0.339218 0.538511
vt 0.331855 0.586500
vt 0.330606 0.574994
vt 0.331444 0.577002
vt 0.301401 0.580057
vt 0.298899 0.582971
vt 0.300448 0.533865
vt 0.313198 0.536813
vt 0.312799 0.528251
vt 0.312255 0.541829
vt 0.313459 0.551844
vt 0.313042 0.558907
vt 0.314414 0.592747
vt 0.302839 0.576721
vt 0.351351 0.527045
vt 0.349271 0.535432
vt 0.319075 0.598814
vt 0.323733 0.602567
vt 0.312742 0.525224
vt 0.305234 0.605560
vt 0.299734 0.600224
vt 0.275666 0.539963
vt 0.274639 0.525511
vt 0.265860 0.525716
vt 0.270739 0.523433
vt 0.276807 0.527072
vt 0.276143 0.532232
vt 0.293876 0.530175
vt 0.319921 0.568489
vt 0.339131 0.559604
vt 0.337039 0.536815
vt 0.262602 0.533080
vt 0.276104 0.545490
vt 0.294663 0.541201
vt 0.293472 0.531530
vt 0.352164 0.558927
vt 0.337071 0.549460
vt 0.331751 0.557347
vt 0.341520 0.596905
vt 0.312072 0.604809
vt 0.338009 0.593874
vt 0.294146 0.522481
vt 0.293610 0.521227
vt 0.282842 0.601008
s 0
f 150/1/1 17/2/1 149/3/1
f 145/4/2 2/5/2 50/6/2
f 47/7/3 84/8/3 143/9/3
f 54/10/4 129/11/4 46/12/4
f 57/13/5 22/14/5 58/15/5
f 89/16/6 133/17/6 90/18/6
f 5/19/7 133/17/7 26/20/7
f 6/21/8 23/22/8 136/23/8
f 62/24/9 92/25/9 45/26/9
f 84/8/10 134/27/10 44/28/10
f 24/29/11 3/30/11 27/31/11
f 3/30/12 133/17/12 63/32/12
f 9/33/13 131/34/13 53/35/13
f 68/36/14 65/37/14 130/38/14
f 29/39/15 7/40/15 128/41/15
f 86/42/16 100/43/16 126/44/16
f 70/45/17 34/46/17 97/47/17
f 98/48/18 137/49/18 11/50/18
f 76/51/19 121/52/19 77/53/19
f 83/54/20 17/2/20 81/55/20
f 110/56/21 116/57/21 114/58/21
f 116/57/22 112/59/22 109/60/22
f 109/60/23 112/59/23 41/61/23
f 113/62/24 146/63/24 41/61/24
f 116/57/25 150/1/25 78/64/25
f 79/65/26 112/59/26 78/64/26
f 80/66/27 113/62/27 79/65/27
f 146/63/28 113/62/28 80/66/28
f 114/58/29 109/60/29 82/67/29
f 15/68/30 110/56/30 82/67/30
f 48/69/31 83/54/31 115/70/31
f 41/61/32 111/71/32 109/60/32
f 81/55/33 110/56/33 15/68/33
f 17/2/34 83/54/34 48/69/34
f 107/72/35 73/73/35 106/74/35
f 35/75/36 106/74/36 101/76/36
f 77/53/37 35/75/37 101/76/37
f 121/52/38 35/75/38 77/53/38
f 12/77/39 13/78/39 76/51/39
f 19/79/40 117/80/40 74/81/40
f 103/82/41 102/83/41 36/84/41
f 105/85/42 36/84/42 50/6/42
f 2/5/43 105/85/43 50/6/43
f 104/86/44 12/77/44 118/87/44
f 13/78/45 12/77/45 104/86/45
f 104/86/46 118/87/46 37/88/46
f 35/75/47 121/52/47 120/89/47
f 122/90/48 103/82/48 36/84/48
f 107/72/49 122/90/49 14/91/49
f 2/5/50 14/91/50 105/85/50
f 123/92/51 100/43/51 96/93/51
f 70/45/52 125/94/52 34/46/52
f 56/95/53 99/96/53 33/97/53
f 11/50/54 10/98/54 98/48/54
f 70/45/55 100/43/55 125/94/55
f 99/96/56 100/43/56 97/47/56
f 97/47/57 100/43/57 70/45/57
f 28/99/58 8/100/58 30/101/58
f 95/102/59 94/103/59 64/104/59
f 64/104/60 94/103/60 128/41/60
f 65/37/61 142/105/61 141/106/61
f 57/13/62 137/49/62 138/107/62 22/14/62
f 66/108/63 67/109/63 31/110/63
f 64/104/64 142/105/64 65/37/64
f 64/104/65 7/40/65 142/105/65
f 68/36/66 64/104/66 65/37/66
f 66/108/67 131/34/67 67/109/67
f 53/35/68 131/34/68 66/108/68
f 59/111/69 132/112/69 23/22/69
f 5/19/70 59/111/70 63/32/70
f 87/113/71 24/29/71 27/31/71
f 134/27/72 87/113/72 44/28/72
f 84/8/73 44/28/73 143/9/73
f 91/114/74 60/115/74 88/116/74
f 90/18/75 88/116/75 135/117/75
f 89/16/76 25/118/76 92/25/76
f 136/23/77 61/119/77 45/26/77
f 136/23/78 23/22/78 62/24/78
f 93/120/79 26/20/79 62/24/79
f 133/17/80 89/16/80 26/20/80
f 139/121/81 57/13/81 58/15/81
f 137/49/82 139/121/82 32/122/82
f 29/39/83 54/10/83 142/105/83
f 54/10/84 46/12/84 141/106/84
f 52/123/85 9/33/85 21/124/85
f 30/101/86 9/33/86 52/123/86
f 24/29/87 134/27/87 84/8/87
f 85/125/88 47/7/88 60/115/88
f 6/21/89 144/126/89 4/127/89
f 23/22/90 6/21/90 4/127/90
f 14/91/91 73/73/91 107/72/91
f 16/128/92 146/63/92 148/129/92
f 148/129/93 108/130/93 147/131/93
f 148/129/94 147/131/94 1/132/94
f 16/128/95 148/129/95 39/133/95
f 149/3/96 17/2/96 48/69/96
f 146/63/97 108/130/97 148/129/97
f 38/134/98 74/81/98 117/80/98
f 54/10/99 29/39/99 129/11/99
f 139/121/100 137/49/100 57/13/100
f 104/86/101 121/52/101 76/51/101 13/78/101
f 23/22/102 132/112/102 62/24/102
f 45/26/103 61/119/103 62/24/103
f 60/115/104 91/114/104 85/125/104
f 63/32/105 133/17/105 5/19/105
f 131/34/106 8/100/106 67/109/106
f 131/34/107 30/101/107 8/100/107
f 68/36/108 95/102/108 64/104/108
f 127/135/109 8/100/109 28/99/109
f 124/136/110 10/98/110 125/94/110
f 71/137/111 22/14/111 138/107/111
f 124/136/112 100/43/112 123/92/112
f 104/86/113 37/88/113 120/89/113 121/52/113
f 35/75/114 122/90/114 106/74/114
f 115/70/115 83/54/115 15/68/115
f 42/138/116 108/130/116 146/63/116
f 112/59/117 116/57/117 78/64/117
f 150/1/118 116/57/118 81/55/118
f 113/62/119 112/59/119 79/65/119
f 42/138/120 146/63/120 80/66/120
f 111/71/121 40/139/121 16/128/121
f 110/56/122 114/58/122 82/67/122
f 40/139/123 41/61/123 146/63/123
f 40/139/124 146/63/124 16/128/124
f 111/71/125 41/61/125 40/139/125
f 112/59/126 113/62/126 41/61/126
f 114/58/127 116/57/127 109/60/127
f 81/55/128 116/57/128 110/56/128
f 83/54/129 81/55/129 15/68/129
f 106/74/130 122/90/130 107/72/130
f 74/81/131 12/77/131 76/51/131
f 119/140/132 38/134/132 75/141/132
f 119/140/133 37/88/133 118/87/133
f 103/82/134 120/89/134 102/83/134
f 119/140/135 12/77/135 38/134/135
f 118/87/136 12/77/136 119/140/136
f 36/84/137 105/85/137 14/91/137 122/90/137
f 35/75/138 120/89/138 103/82/138
f 103/82/139 122/90/139 35/75/139
f 10/98/140 11/50/140 43/142/140 125/94/140
f 145/4/141 14/91/141 2/5/141
f 72/143/142 10/98/142 124/136/142
f 71/137/143 138/107/143 72/143/143
f 58/15/144 22/14/144 71/137/144
f 32/122/145 11/50/145 137/49/145
f 34/46/146 125/94/146 43/142/146
f 33/97/147 99/96/147 97/47/147
f 56/95/148 126/44/148 99/96/148
f 98/48/149 10/98/149 138/107/149
f 98/48/150 138/107/150 137/49/150
f 10/98/151 72/143/151 138/107/151
f 127/135/152 68/36/152 67/109/152 8/100/152
f 125/94/153 100/43/153 124/136/153
f 99/96/154 126/44/154 100/43/154
f 95/102/155 127/135/155 94/103/155
f 94/103/156 127/135/156 28/99/156
f 128/41/157 7/40/157 64/104/157
f 46/12/158 129/11/158 29/39/158
f 69/144/159 68/36/159 130/38/159
f 69/144/160 31/110/160 68/36/160
f 31/110/161 67/109/161 68/36/161
f 127/135/162 95/102/162 68/36/162
f 126/44/163 56/95/163 140/145/163 86/42/163
f 9/33/164 30/101/164 131/34/164
f 53/35/165 21/124/165 9/33/165
f 93/120/166 132/112/166 59/111/166
f 5/19/167 93/120/167 59/111/167
f 27/31/168 3/30/168 63/32/168
f 87/113/169 134/27/169 24/29/169
f 25/118/170 90/18/170 135/117/170
f 92/25/171 26/20/171 89/16/171
f 92/25/172 62/24/172 26/20/172
f 20/146/173 136/23/173 45/26/173
f 24/29/174 85/125/174 91/114/174
f 91/114/175 90/18/175 24/29/175
f 90/18/176 3/30/176 24/29/176
f 61/119/177 136/23/177 62/24/177
f 20/146/178 6/21/178 136/23/178
f 93/120/179 5/19/179 26/20/179
f 62/24/180 132/112/180 93/120/180
f 25/118/181 89/16/181 90/18/181
f 90/18/182 91/114/182 88/116/182
f 90/18/183 133/17/183 3/30/183
f 86/42/184 55/147/184 96/93/184 100/43/184
f 55/147/185 86/42/185 140/145/185
f 19/79/186 51/148/186 18/149/186 117/80/186
f 142/105/187 7/40/187 29/39/187
f 141/106/188 142/105/188 54/10/188
f 24/29/189 84/8/189 85/125/189
f 85/125/190 84/8/190 47/7/190
f 6/21/191 20/146/191 144/126/191
f 38/134/192 117/80/192 18/149/192
f 12/77/193 74/81/193 38/134/193
f 75/141/194 38/134/194 51/148/194
f 51/148/195 38/134/195 18/149/195
f 49/150/196 145/4/196 50/6/196
f 73/73/197 14/91/197 145/4/197
f 49/150/198 73/73/198 145/4/198
f 39/133/199 148/129/199 1/132/199
f 81/55/200 17/2/200 150/1/200
