# Blender 4.5.3 LTS
# www.blender.org
o Rows
v -0.821678 -0.021826 0.922937
v -0.416008 0.071801 -1.066789
v -0.171032 0.070300 0.391951
v -0.196744 -0.002649 -1.071000
v -0.160334 0.079904 -0.326172
v -0.162032 0.084633 -1.128133
v 0.350690 0.055386 0.638841
v 0.335165 0.087143 -0.397458
v 0.341855 0.096229 -0.799213
v 0.881154 0.106119 0.239549
v 1.153430 0.000293 0.219310
v -0.618205 0.098952 0.627399
v -0.660077 0.050756 0.379418
v -0.639079 0.090034 -0.812029
v -0.853486 -0.000024 -0.532720
v -0.852789 0.001382 0.571556
v -1.148763 0.121699 -0.955529
v -0.363653 0.064655 1.082253
v -0.596616 -0.001076 1.113782
v 0.139559 0.003074 -1.195976
v 0.457413 0.001351 -1.134862
v 0.855778 0.062171 0.933376
v -0.122664 0.004260 -0.783921
v -0.130601 0.081190 0.697606
v 0.166007 0.007874 0.055204
v 0.135165 0.046508 -0.258638
v -0.150707 -0.003707 0.446507
v 0.320256 -0.000986 -0.442410
v 0.369945 0.003533 0.938250
v 0.374838 0.002782 -0.645547
v 0.667601 0.003514 -0.438030
v 1.153509 -0.002419 0.695081
v 1.195211 -0.000810 -0.622222
v 1.165139 -0.005885 -0.108246
v -0.642082 0.078850 -0.128689
v -0.331608 0.001132 -0.566420
v -0.368381 -0.000845 0.192247
v -0.356428 0.096015 0.838355
v -0.839773 -0.008037 0.782298
v -0.840845 0.086972 0.420909
v -0.962412 0.058101 0.235472
v -1.208880 -0.002213 0.759179
v 1.232373 0.011402 0.054655
v -0.143551 -0.008006 0.945039
v 0.164972 0.001779 -0.777896
v 0.358428 0.003048 1.111110
v 0.131908 0.001028 1.187048
v -0.907345 0.002040 -0.982724
v -0.657162 -0.000269 -1.092362
v -0.328224 -0.000745 -1.035615
v -0.349048 -0.001466 1.048080
v 0.330445 -0.001995 -1.032574
v 0.645680 0.002589 -1.041616
v 0.625038 0.064310 1.054322
v 0.846546 -0.004435 -0.897920
v 1.165086 -0.002775 -0.937420
v 1.155865 0.055410 0.961238
v 0.962311 0.001671 0.996950
v -0.151307 0.004452 -0.521313
v 0.159389 -0.000939 0.890814
v 0.203387 0.087385 -0.867193
v 0.078637 0.123740 -0.585006
v -0.157197 -0.003814 -0.146123
v 0.341870 0.076409 0.394005
v 0.625410 -0.000080 0.477488
v 0.678787 -0.001338 -0.696916
v 0.644762 0.076825 -0.383294
v 0.647883 0.076085 0.073368
v 0.675959 -0.002308 0.097730
v 1.165224 0.135129 -0.320896
v 0.820091 0.000762 0.657371
v 0.820970 0.005840 0.312694
v -0.670548 -0.008947 -0.675801
v -0.666752 -0.001901 0.875338
v -0.367422 0.013715 0.801431
v -0.668978 0.001913 0.266653
v -0.714358 -0.000072 0.087814
v -1.169518 -0.009051 -0.145485
v -1.178107 0.003876 0.307706
v -1.114184 -0.000585 0.596752
v -1.102480 0.077109 -0.619967
v -0.811575 0.000678 -0.100937
v -0.830445 0.107049 -0.750573
v -0.116963 0.086938 1.140675
v 0.157813 0.095766 0.973320
v 0.879713 0.067504 -0.977460
v -0.177272 0.002624 0.737792
v 0.144538 -0.000679 0.520698
v 0.177800 0.106770 -0.080183
v 0.038127 0.100965 0.264050
v 0.170247 0.049250 0.657422
v 0.197340 -0.007555 -0.415848
v -0.112110 0.045931 -0.430363
v 0.353134 -0.003401 0.026199
v 0.331354 0.069228 0.167586
v 0.830706 0.006450 -0.301049
v 1.195030 0.006993 -0.422399
v 1.168154 0.090481 0.373209
v 1.157174 0.096425 -0.645356
v 0.868870 0.063505 -0.413340
v -0.629282 0.000890 -0.111685
v -0.323417 0.000434 -0.191314
v -0.351576 0.042219 -0.279946
v -0.450146 0.066543 0.275951
v -0.335424 0.103175 -0.875929
v -0.659064 0.008461 -0.311975
v -0.638583 0.041496 -0.607666
v -1.120061 0.001937 0.959897
v -0.869448 -0.002103 0.093822
v -0.852523 0.071925 -0.328887
v -0.808172 0.003018 0.260456
v -1.150146 0.070029 0.171226
v -1.168066 0.080026 0.411550
v -0.823104 0.110712 -0.101991
v -0.804437 0.000523 -0.802788
v -1.183635 0.094890 -0.186999
v -0.637047 0.082005 1.138111
v -0.320115 0.089816 0.467193
v -0.334977 -0.001204 0.537819
v -0.295908 0.004121 0.089092
v -0.599564 0.109479 0.089377
v -0.516976 0.103215 -0.378164
v 0.855211 -0.002253 -0.193516
v 0.877116 0.002276 0.036211
v 1.054308 0.072134 -0.028411
v 1.133045 0.049256 -0.962244
v 0.353517 0.088407 -0.205984
v 0.310409 0.002987 0.678614
v 0.316451 0.096693 1.051021
v 0.697258 0.002577 0.284969
v 0.504271 0.076380 -0.686284
v -0.219497 0.079886 -0.600739
v -0.145601 0.076618 0.010316
v -0.173147 0.072925 0.824804
v 0.177378 -0.001296 0.247706
v 0.124647 0.039377 -1.064297
v 1.190786 0.097103 0.769938
v 0.879491 0.051599 0.611153
v 1.210204 0.002493 0.923681
v 0.942229 0.002568 -0.980528
v 0.649202 -0.001235 1.025455
v 0.631905 0.047329 0.707871
v -0.127092 -0.002576 1.195287
v -0.046824 0.003428 -1.216448
v -0.627724 0.085135 -1.114369
v -1.128495 0.075492 0.640346
v -0.987077 -0.000561 1.022133
v -0.880777 0.067969 0.965482
v -1.150508 0.000884 -0.988219
v -1.166040 0.000399 -0.613446
vn -0.9988 0.0256 -0.0414
vn 0.2064 -0.1647 -0.9645
vn 0.0200 0.5191 0.8545
vn 0.0494 0.5550 0.8304
vn -0.0528 0.6777 0.7334
vn -0.0993 0.9948 -0.0235
vn 0.1112 0.9938 0.0048
vn 0.1055 0.9710 0.2147
vn 0.7737 0.6313 -0.0529
vn -0.9795 -0.0932 0.1784
vn -0.9764 -0.1685 0.1352
vn -0.9648 0.2559 -0.0601
vn 0.2029 0.9717 -0.1210
vn 0.4733 0.8605 0.1885
vn -0.7184 0.6762 0.1633
vn 0.0713 0.9974 0.0084
vn 0.9837 0.1498 0.0997
vn 0.9962 -0.0676 -0.0557
vn -0.6821 0.7124 0.1652
vn -0.0429 0.9896 0.1374
vn -0.0036 0.9858 -0.1680
vn 0.2597 0.9647 0.0427
vn 0.1607 0.9419 -0.2948
vn 0.1070 0.9943 0.0012
vn -0.9903 -0.1386 -0.0102
vn -0.9399 0.3405 -0.0275
vn -0.9643 -0.1603 0.2108
vn -0.9497 -0.2697 0.1589
vn 0.9531 0.1026 0.2847
vn 0.9629 0.2531 -0.0939
vn 0.7918 0.4136 -0.4494
vn 0.3548 0.9214 -0.1588
vn 0.3787 0.8722 -0.3097
vn 0.3458 0.8066 -0.4794
vn -0.8454 0.5342 0.0011
vn -0.9814 -0.1304 0.1410
vn -0.8947 -0.2304 -0.3827
vn -0.6902 0.7228 0.0331
vn -0.9127 -0.3437 0.2209
vn -0.8402 -0.4818 0.2488
vn 0.8459 0.5330 -0.0175
vn 0.9983 0.0585 0.0070
vn 0.6652 0.6391 -0.3859
vn -0.0253 0.9943 -0.1038
vn -0.1538 0.9745 -0.1634
vn 0.3574 0.8665 -0.3485
vn 0.3215 0.9271 -0.1929
vn 0.3975 0.9118 -0.1031
vn -0.6825 0.7108 0.1705
vn -0.0707 0.9886 -0.1327
vn -0.5894 0.7833 0.1977
vn 0.7017 0.5937 0.3940
vn 0.9346 0.3438 -0.0915
vn 0.2798 0.8164 -0.5052
vn -0.2647 0.9585 0.1060
vn 0.1696 0.9243 0.3419
vn 0.0879 0.6310 -0.7708
vn -0.9280 0.2815 -0.2441
vn -0.9219 -0.3835 0.0550
vn -0.9840 0.1656 -0.0661
vn 0.9964 0.0730 -0.0431
vn -0.0788 0.9956 0.0513
vn 0.9615 0.2723 0.0364
vn 0.3097 0.9296 -0.2000
vn 0.0076 0.9963 0.0853
vn 0.2024 0.9602 0.1922
vn 0.3907 0.9023 -0.1825
vn 0.4052 0.9138 -0.0285
vn -0.6987 -0.7114 -0.0757
vn -0.9971 -0.0746 -0.0173
vn -0.8758 0.4741 -0.0902
vn -0.9795 -0.1314 0.1526
vn -0.9869 0.1493 0.0617
vn 0.9265 -0.3745 -0.0374
vn 0.5958 0.8001 0.0699
vn 0.9974 -0.0269 0.0672
vn 0.8085 -0.5580 -0.1871
vn -0.3510 0.9159 -0.1949
vn -0.1800 0.9498 0.2559
vn -0.1664 0.9456 -0.2796
vn 0.2653 -0.3618 0.8937
vn 0.9552 -0.1825 -0.2330
vn -0.2090 0.9765 -0.0520
vn 0.2650 -0.3052 0.9147
vn -0.3100 0.8816 -0.3559
vn -0.9808 -0.1580 0.1144
vn -0.2087 0.9780 -0.0063
vn 0.9937 -0.0628 0.0926
vn -0.6791 -0.1934 -0.7081
vn -0.8540 0.4764 0.2089
vn -0.8976 0.4284 0.1039
vn 0.2224 0.9638 -0.1471
vn -0.2360 0.8100 0.5369
vn 0.5059 -0.0742 0.8594
vn 0.8490 0.5276 -0.0289
vn 0.0206 0.2608 -0.9652
vn -0.2641 0.9384 0.2230
vn -0.3185 0.9129 -0.2555
vn 0.0892 0.7882 -0.6089
vn 0.7608 0.5912 0.2677
vn -0.2859 0.9490 0.1325
vn -0.1094 0.8971 -0.4282
vn 0.9150 0.0100 0.4032
vn 0.9989 -0.0197 0.0422
vn -0.9974 0.0578 0.0442
vn 0.0341 0.9993 -0.0173
vn -0.5437 0.7642 -0.3468
vn -0.0307 0.9991 -0.0303
vn -0.9884 0.1193 0.0939
vn -0.4583 0.7952 -0.3970
vn -0.6811 0.7285 -0.0740
vn -0.8940 0.4415 0.0765
vn 0.4159 0.9085 0.0398
vn -0.6124 0.7553 -0.2333
vn 0.9726 0.1507 0.1769
vn -0.5052 0.8380 0.2062
vn -0.9912 -0.1004 0.0857
vn -0.7659 0.6203 -0.1690
vn -0.9674 0.2395 -0.0821
vn -0.8577 0.1245 -0.4988
vn 0.9836 0.1121 0.1417
vn 0.9842 0.1017 -0.1450
vn -0.1048 0.9908 -0.0856
vn 0.3378 0.8066 0.4851
vn 0.3650 0.8534 -0.3722
vn 0.0756 0.9965 -0.0358
vn -0.1484 0.8717 0.4671
vn 0.0562 0.9980 -0.0305
vn 0.1176 0.8863 0.4480
vn -0.5354 0.8427 0.0571
vn -0.8951 0.4458 0.0061
vn 0.9734 -0.1886 0.1305
vn 0.9684 -0.2309 -0.0939
vn 0.9068 0.4109 -0.0944
vn 0.2388 0.9288 -0.2834
vn 0.4185 0.5131 0.7494
vn 0.2178 0.9727 0.0794
vn 0.1640 0.9835 0.0768
vn 0.2278 0.9514 0.2072
vn 0.3261 0.9348 0.1406
vn 0.0659 0.9977 -0.0137
vn -0.8965 0.4015 -0.1872
vn -0.6459 0.7634 0.0096
vn -0.5859 -0.7717 0.2474
vn 0.9370 -0.3493 -0.0021
vn 0.4198 0.8679 -0.2654
vn 0.9323 0.3615 -0.0133
vn 0.8713 0.4714 -0.1365
vn -0.0137 0.9893 0.1451
vn -0.1404 0.9901 -0.0085
vn -0.8289 0.5540 0.0776
vn 0.0385 0.9993 -0.0021
vn -0.3209 0.9376 0.1336
vn -0.2135 0.9685 -0.1279
vn -0.9840 -0.1650 -0.0668
vn -0.9811 0.1805 0.0698
vn -0.7587 0.6461 0.0828
vn -0.8957 -0.4406 -0.0609
vn 0.9460 0.3029 -0.1155
vn 0.9425 0.3341 -0.0111
vn 0.9534 0.3015 -0.0060
vn -0.0065 0.9987 0.0509
vn 0.1167 -0.0896 -0.9891
vn -0.2800 0.7924 0.5420
vn 0.1101 0.9657 -0.2351
vn -0.8401 -0.2555 0.4786
vn -0.1341 0.9222 -0.3628
vn -0.9662 -0.2575 0.0106
vn -0.8821 0.3859 -0.2700
vn 0.5922 0.8058 0.0034
vn 0.0093 0.9467 -0.3219
vn 0.7137 0.6992 0.0418
vn 0.8472 0.5289 -0.0499
vn 0.0858 0.9862 -0.1418
vn 0.1171 0.9890 0.0907
vn -0.1539 0.9880 -0.0148
vn -0.1328 0.9739 -0.1842
vn 0.2031 0.9496 -0.2388
vn 0.1624 0.9578 -0.2371
vn -0.1542 0.9458 0.2857
vn 0.8543 0.3815 0.3531
vn 0.9219 0.2744 -0.2736
vn -0.1409 0.9900 0.0070
vn -0.8891 0.4572 -0.0231
vn -0.5469 -0.4946 -0.6754
vn 0.2081 -0.2895 0.9343
vn -0.0139 0.9851 0.1715
vn 0.9385 0.3452 0.0017
vn -0.0393 0.9992 -0.0118
vn 0.2260 0.8801 0.4175
vn 0.0700 0.7782 -0.6242
vn 0.0892 0.9875 0.1296
vn -0.2497 0.9130 0.3225
vn 0.9921 -0.0967 -0.0799
vn 0.9805 0.1890 0.0533
vn 0.1618 -0.2982 -0.9407
vn -0.9669 0.2518 -0.0404
vn -0.9470 0.3203 -0.0238
vn 0.8231 0.5656 -0.0504
vn -0.7484 0.6361 0.1878
vt 0.423858 0.199916
vt 0.612012 0.268830
vt 0.376783 0.261690
vt 0.574447 0.280983
vt 0.622221 0.474675
vt 0.376480 0.495034
vt 0.393179 0.761755
vt 0.578601 0.966589
vt 0.377940 0.979036
vt 0.630618 0.752844
vt 0.870355 0.748052
vt 0.750000 0.750000
vt 0.582094 0.760050
vt 0.583659 0.965751
vt 0.377619 0.912779
vt 0.587574 0.616114
vt 0.855898 0.627016
vt 0.710307 0.653026
vt 0.865360 0.591476
vt 0.609231 0.596887
vt 0.857140 0.514422
vt 0.844366 0.542840
vt 0.556642 0.516469
vt 0.688125 0.565803
vt 0.376978 0.581780
vt 0.394283 0.543127
vt 0.545665 0.007422
vt 0.572944 0.039167
vt 0.375485 0.025980
vt 0.577067 0.054597
vt 0.558422 0.083729
vt 0.374064 0.078271
vt 0.593851 0.121128
vt 0.379363 0.140116
vt 0.868752 0.534045
vt 0.757423 0.546378
vt 0.390217 0.498949
vt 0.610479 0.633247
vt 0.401596 0.679193
vt 0.382485 0.658092
vt 0.387217 0.019893
vt 0.563442 0.052396
vt 0.375259 0.047993
vt 0.854479 0.504363
vt 0.866535 0.574753
vt 0.599958 0.492505
vt 0.612408 0.584939
vt 0.399994 0.612878
vt 0.405109 0.573168
vt 0.622448 0.670919
vt 0.617875 0.716761
vt 0.377909 0.651804
vt 0.377297 0.095389
vt 0.625000 0.114647
vt 0.378745 0.116236
vt 0.619577 0.531596
vt 0.860206 0.506301
vt 0.828413 0.547573
vt 0.587333 0.585253
vt 0.840728 0.596213
vt 0.603228 0.613281
vt 0.865763 0.644913
vt 0.403634 0.636247
vt 0.709919 0.654278
vt 0.875625 0.669619
vt 0.847412 0.706873
vt 0.567375 0.152672
vt 0.375279 0.143771
vt 0.375635 0.087037
vt 0.577257 0.105444
vt 0.380887 0.050373
vt 0.547234 0.075290
vt 0.596398 0.042793
vt 0.379768 0.610359
vt 0.473609 0.558695
vt 0.395329 0.448839
vt 0.378931 0.524989
vt 0.390201 0.657866
vt 0.523974 0.193061
vt 0.375651 0.202146
vt 0.377363 0.161736
vt 0.580789 0.139295
vt 0.375498 0.137337
vt 0.570521 0.047068
vt 0.548887 0.081726
vt 0.381565 0.000000
vt 0.574375 0.002243
vt 0.394014 0.025714
vt 0.587091 0.592948
vt 0.375011 0.603409
vt 0.471093 0.556206
vt 0.597442 0.525062
vt 0.704786 0.657711
vt 0.832333 0.694235
vt 0.574543 0.677067
vt 0.875000 0.667122
vt 0.404171 0.646579
vt 0.863993 0.612305
vt 0.829538 0.635854
vt 0.389385 0.635240
vt 0.771498 0.581495
vt 0.875000 0.560289
vt 0.842495 0.535294
vt 0.379066 0.149161
vt 0.577800 0.175222
vt 0.377781 0.164207
vt 0.723381 0.621464
vt 0.379166 0.504932
vt 0.626864 0.544383
vt 0.374609 0.547971
vt 0.821896 0.655240
vt 0.383118 0.175630
vt 0.595058 0.170974
vt 0.393719 0.197385
vt 0.596472 0.105362
vt 0.377489 0.122283
vt 0.583781 0.076530
vt 0.590666 0.706111
vt 0.376409 0.749622
vt 0.604801 0.749103
vt 0.847334 0.699167
vt 0.863211 0.734413
vt 0.403448 0.545783
vt 0.594136 0.581457
vt 0.384001 0.575512
vt 0.864806 0.673762
vt 0.873353 0.697604
vt 0.375472 0.178497
vt 0.537655 0.187605
vt 0.459371 0.204255
vt 0.558203 0.157581
vt 0.375332 0.047811
vt 0.375000 0.000226
vt 0.585457 0.694159
vt 0.379225 0.717269
vt 0.382992 0.678933
vt 0.377832 0.651367
vt 0.404816 0.628392
vt 0.569532 0.536551
vt 0.861829 0.580884
vt 0.372822 0.740304
vt 0.374985 0.711133
vt 0.869189 0.728727
vt 0.598160 0.772030
vt 0.377818 0.981784
vt 0.383316 0.239781
vt 0.625000 0.312500
vt 0.384884 0.337189
vt 0.385462 0.198983
vt 0.598611 0.215042
vt 0.852270 0.696703
vt 0.875000 0.710833
vt 0.841954 0.739816
vt 0.607677 0.726351
vt 0.394080 0.760850
vt 0.567629 0.256319
vt 0.380892 0.334029
vt 0.375604 0.237175
vt 0.574460 0.220188
vt 0.381004 0.696403
vt 0.578196 0.787972
vt 0.563879 0.812774
vt 0.427724 0.982015
vt 0.375470 0.864289
vt 0.375704 0.741425
vt 0.375168 0.722652
vt 0.392206 0.446923
vt 0.860089 0.749394
vt 0.642078 0.717626
vt 0.874602 0.725742
vt 0.818515 0.750000
vt 0.875000 0.645833
vt 0.875000 0.562411
vt 0.870359 0.579026
vt 0.875000 0.552494
vt 0.854519 0.648188
vt 0.551785 0.150767
vt 0.872860 0.631355
vt 0.380473 0.042241
vt 0.579207 0.008466
vt 0.566675 0.053266
vt 0.479068 0.117845
vt 0.625000 0.166667
vt 0.376371 0.030484
vt 0.427427 0.000364
vt 0.580360 0.204739
vt 0.593217 0.677995
vt 0.431339 0.685729
vt 0.375446 0.716305
vt 0.445794 0.627318
vt 0.866327 0.501713
vt 0.394187 0.087075
vt 0.579831 0.100000
vt 0.377703 0.002517
vt 0.875000 0.662500
vt 0.860950 0.600013
vt 0.379891 0.000000
vt 0.583749 0.005056
vt 0.374852 0.635016
vt 0.554598 0.471095
vt 0.376893 0.300252
vt 0.562551 0.290626
vt 0.588956 0.491546
vt 0.750000 0.500000
vt 0.555187 0.170337
vt 0.385221 0.490401
vt 0.863080 0.668262
vt 0.694795 0.500827
vt 0.376974 0.238154
vt 0.375727 0.944766
vt 0.375361 0.746540
vt 0.535426 0.773740
vt 0.544707 0.958038
vt 0.375037 0.251322
s 0
f 150/1/1 17/2/1 149/3/1
f 145/4/2 2/5/2 50/6/2
f 47/7/3 84/8/3 143/9/3
f 54/10/4 129/11/4 46/12/4
f 57/13/5 22/14/5 58/15/5
f 89/16/6 133/17/6 90/18/6
f 5/19/7 133/17/7 26/20/7
f 6/21/8 23/22/8 136/23/8
f 62/24/9 92/25/9 45/26/9
f 84/27/10 134/28/10 44/29/10
f 24/30/11 3/31/11 27/32/11
f 3/31/12 133/33/12 63/34/12
f 9/35/13 131/36/13 53/37/13
f 68/38/14 65/39/14 130/40/14
f 29/41/15 7/42/15 128/43/15
f 86/44/16 100/45/16 126/46/16
f 70/47/17 34/48/17 97/49/17
f 98/50/18 137/51/18 11/52/18
f 76/53/19 121/54/19 77/55/19
f 83/56/20 17/57/20 81/58/20
f 110/59/21 116/60/21 114/61/21
f 116/60/22 112/62/22 109/63/22
f 109/63/23 112/62/23 41/64/23
f 113/65/24 146/66/24 41/64/24
f 116/67/25 150/1/25 78/68/25
f 79/69/26 112/70/26 78/68/26
f 80/71/27 113/72/27 79/69/27
f 146/73/28 113/72/28 80/71/28
f 114/61/29 109/63/29 82/74/29
f 15/75/30 110/59/30 82/74/30
f 48/76/31 83/56/31 115/77/31
f 41/64/32 111/78/32 109/63/32
f 81/58/33 110/59/33 15/75/33
f 17/57/34 83/56/34 48/76/34
f 107/79/35 73/80/35 106/81/35
f 35/82/36 106/81/36 101/83/36
f 77/55/37 35/82/37 101/83/37
f 121/54/38 35/82/38 77/55/38
f 12/84/39 13/85/39 76/53/39
f 19/86/40 117/87/40 74/88/40
f 103/89/41 102/90/41 36/91/41
f 105/92/42 36/91/42 50/6/42
f 2/5/43 105/92/43 50/6/43
f 104/93/44 12/94/44 118/95/44
f 13/96/45 12/94/45 104/93/45
f 104/93/46 118/95/46 37/97/46
f 35/98/47 121/99/47 120/100/47
f 122/101/48 103/89/48 36/91/48
f 107/102/49 122/101/49 14/103/49
f 2/5/50 14/103/50 105/92/50
f 123/104/51 100/105/51 96/106/51
f 70/47/52 125/107/52 34/48/52
f 56/108/53 99/109/53 33/110/53
f 11/52/54 10/111/54 98/50/54
f 70/47/55 100/45/55 125/107/55
f 99/109/56 100/45/56 97/49/56
f 97/49/57 100/45/57 70/47/57
f 28/112/58 8/113/58 30/114/58
f 95/115/59 94/116/59 64/117/59
f 64/117/60 94/116/60 128/43/60
f 65/39/61 142/118/61 141/119/61
f 57/120/62 137/51/62 138/121/62 22/122/62
f 66/123/63 67/124/63 31/125/63
f 64/126/64 142/118/64 65/39/64
f 64/126/65 7/127/65 142/118/65
f 68/38/66 64/126/66 65/39/66
f 66/123/67 131/36/67 67/124/67
f 53/37/68 131/36/68 66/123/68
f 59/128/69 132/129/69 23/130/69
f 5/131/70 59/128/70 63/34/70
f 87/132/71 24/30/71 27/32/71
f 134/28/72 87/132/72 44/29/72
f 84/27/73 44/29/73 143/133/73
f 91/134/74 60/135/74 88/136/74
f 90/18/75 88/136/75 135/137/75
f 89/16/76 25/138/76 92/25/76
f 136/23/77 61/139/77 45/26/77
f 136/23/78 23/22/78 62/24/78
f 93/140/79 26/20/79 62/24/79
f 133/17/80 89/16/80 26/20/80
f 139/141/81 57/13/81 58/15/81
f 137/51/82 139/141/82 32/142/82
f 29/143/83 54/10/83 142/118/83
f 54/144/84 46/145/84 141/119/84
f 52/146/85 9/147/85 21/148/85
f 30/149/86 9/150/86 52/146/86
f 24/151/87 134/152/87 84/153/87
f 85/154/88 47/155/88 60/135/88
f 6/156/89 144/157/89 4/158/89
f 23/130/90 6/156/90 4/158/90
f 14/159/91 73/80/91 107/79/91
f 16/160/92 146/66/92 148/161/92
f 148/162/93 108/163/93 147/164/93
f 148/161/94 147/164/94 1/165/94
f 16/160/95 148/161/95 39/166/95
f 149/3/96 17/2/96 48/167/96
f 146/66/97 108/168/97 148/161/97
f 38/169/98 74/170/98 117/171/98
f 54/10/99 29/143/99 129/11/99
f 139/141/100 137/51/100 57/120/100
f 104/93/101 121/99/101 76/172/101 13/96/101
f 23/22/102 132/173/102 62/24/102
f 45/26/103 61/139/103 62/24/103
f 60/135/104 91/134/104 85/154/104
f 63/34/105 133/33/105 5/131/105
f 131/36/106 8/174/106 67/124/106
f 131/36/107 30/175/107 8/174/107
f 68/38/108 95/176/108 64/126/108
f 127/177/109 8/113/109 28/112/109
f 124/178/110 10/111/110 125/107/110
f 71/179/111 22/180/111 138/181/111
f 124/182/112 100/105/112 123/104/112
f 104/93/113 37/97/113 120/100/113 121/99/113
f 35/82/114 122/183/114 106/81/114
f 115/77/115 83/56/115 15/75/115
f 42/184/116 108/185/116 146/73/116
f 112/70/117 116/67/117 78/68/117
f 150/1/118 116/67/118 81/186/118
f 113/72/119 112/70/119 79/69/119
f 42/184/120 146/73/120 80/71/120
f 111/78/121 40/187/121 16/160/121
f 110/59/122 114/61/122 82/74/122
f 40/187/123 41/64/123 146/66/123
f 40/187/124 146/66/124 16/160/124
f 111/78/125 41/64/125 40/187/125
f 112/62/126 113/65/126 41/64/126
f 114/61/127 116/60/127 109/63/127
f 81/58/128 116/60/128 110/59/128
f 83/56/129 81/58/129 15/75/129
f 106/81/130 122/183/130 107/79/130
f 74/88/131 12/84/131 76/53/131
f 119/188/132 38/169/132 75/189/132
f 119/188/133 37/97/133 118/95/133
f 103/89/134 120/100/134 102/90/134
f 119/188/135 12/94/135 38/169/135
f 118/95/136 12/94/136 119/188/136
f 36/91/137 105/92/137 14/103/137 122/101/137
f 35/98/138 120/100/138 103/89/138
f 103/89/139 122/101/139 35/98/139
f 10/111/140 11/52/140 43/190/140 125/107/140
f 145/191/141 14/103/141 2/5/141
f 72/192/142 10/193/142 124/182/142
f 71/179/143 138/181/143 72/192/143
f 58/194/144 22/180/144 71/179/144
f 32/142/145 11/52/145 137/51/145
f 34/48/146 125/107/146 43/190/146
f 33/110/147 99/109/147 97/49/147
f 56/108/148 126/46/148 99/109/148
f 98/50/149 10/111/149 138/121/149
f 98/50/150 138/121/150 137/51/150
f 10/111/151 72/195/151 138/121/151
f 127/196/152 68/38/152 67/124/152 8/174/152
f 125/107/153 100/45/153 124/178/153
f 99/109/154 126/46/154 100/45/154
f 95/115/155 127/177/155 94/116/155
f 94/116/156 127/177/156 28/112/156
f 128/43/157 7/42/157 64/117/157
f 46/197/158 129/198/158 29/41/158
f 69/199/159 68/38/159 130/40/159
f 69/199/160 31/125/160 68/38/160
f 31/125/161 67/124/161 68/38/161
f 127/196/162 95/176/162 68/38/162
f 126/200/163 56/108/163 140/201/163 86/202/163
f 9/35/164 30/175/164 131/36/164
f 53/203/165 21/204/165 9/35/165
f 93/205/166 132/129/166 59/128/166
f 5/131/167 93/205/167 59/128/167
f 27/32/168 3/31/168 63/34/168
f 87/132/169 134/28/169 24/30/169
f 25/138/170 90/18/170 135/137/170
f 92/25/171 26/20/171 89/16/171
f 92/25/172 62/24/172 26/20/172
f 20/206/173 136/23/173 45/26/173
f 24/151/174 85/154/174 91/134/174
f 91/134/175 90/18/175 24/151/175
f 90/18/176 3/207/176 24/151/176
f 61/139/177 136/23/177 62/24/177
f 20/208/178 6/21/178 136/23/178
f 93/140/179 5/19/179 26/20/179
f 62/24/180 132/173/180 93/140/180
f 25/138/181 89/16/181 90/18/181
f 90/18/182 91/134/182 88/136/182
f 90/18/183 133/17/183 3/207/183
f 86/202/184 55/209/184 96/106/184 100/105/184
f 55/209/185 86/202/185 140/201/185
f 19/210/186 51/211/186 18/212/186 117/213/186
f 142/118/187 7/127/187 29/143/187
f 141/119/188 142/118/188 54/144/188
f 24/151/189 84/153/189 85/154/189
f 85/154/190 84/153/190 47/155/190
f 6/156/191 20/206/191 144/157/191
f 38/169/192 117/171/192 18/212/192
f 12/94/193 74/170/193 38/169/193
f 75/189/194 38/169/194 51/211/194
f 51/211/195 38/169/195 18/212/195
f 49/214/196 145/4/196 50/6/196
f 73/80/197 14/159/197 145/4/197
f 49/214/198 73/80/198 145/4/198
f 39/166/199 148/161/199 1/165/199
f 81/186/200 17/2/200 150/1/200
