# Blender 4.5.3 LTS
# www.blender.org
o windmill
v -0.259994 0.410000 0.259994
v -0.259994 0.390000 0.259994
v -0.194995 0.790000 0.194995
v -0.194995 0.810000 0.194995
v -0.129997 1.210000 0.129997
v -0.129997 1.190000 0.129997
v -0.064998 1.590000 0.064998
v -0.064998 1.610000 0.064998
v -0.064998 1.590000 -0.064998
v -0.064998 1.610000 -0.064998
v -0.129997 1.210000 -0.129997
v -0.129997 1.190000 -0.129997
v -0.194995 0.790000 -0.194995
v -0.194995 0.810000 -0.194995
v -0.259994 0.410000 -0.259994
v -0.259994 0.390000 -0.259994
v 0.064998 1.590000 -0.064998
v 0.064998 1.610000 -0.064998
v 0.129997 1.210000 -0.129997
v 0.129997 1.190000 -0.129997
v 0.194995 0.790000 -0.194995
v 0.194995 0.810000 -0.194995
v 0.259994 0.410000 -0.259994
v 0.259994 0.390000 -0.259994
v 0.064998 1.590000 0.064998
v 0.064998 1.610000 0.064998
v 0.129997 1.210000 0.129997
v 0.129997 1.190000 0.129997
v 0.194995 0.790000 0.194995
v 0.194995 0.810000 0.194995
v 0.259994 0.410000 0.259994
v 0.259994 0.390000 0.259994
v 0.054998 1.600000 0.054998
v 0.074998 1.600000 0.074998
v 0.074998 1.600000 -0.074998
v 0.054998 1.600000 -0.054998
v -0.074998 1.600000 -0.074998
v -0.054998 1.600000 -0.054998
v -0.074998 1.600000 0.074998
v -0.054998 1.600000 0.054998
v 0.119997 1.200000 0.119997
v 0.139997 1.200000 0.139997
v -0.139997 1.200000 0.139997
v -0.119997 1.200000 0.119997
v -0.139997 1.200000 -0.139997
v -0.119997 1.200000 -0.119997
v 0.139997 1.200000 -0.139997
v 0.119997 1.200000 -0.119997
v 0.184995 0.800000 0.184995
v 0.204995 0.800000 0.204995
v 0.204995 0.800000 -0.204995
v 0.184995 0.800000 -0.184995
v -0.204995 0.800000 -0.204995
v -0.184995 0.800000 -0.184995
v -0.204995 0.800000 0.204995
v -0.184995 0.800000 0.184995
v 0.249994 0.400000 0.249994
v 0.269994 0.400000 0.269994
v -0.269994 0.400000 0.269994
v -0.249994 0.400000 0.249994
v -0.269994 0.400000 -0.269994
v -0.249994 0.400000 -0.249994
v 0.269994 0.400000 -0.269994
v 0.249994 0.400000 -0.249994
v -0.311209 0.000000 0.311209
v -0.338775 0.000000 0.338775
v 0.000000 1.980000 0.000000
v 0.000000 2.020000 0.000000
v -0.311209 0.000000 -0.311209
v -0.338775 0.000000 -0.338775
v 0.311209 0.000000 0.311209
v 0.338775 0.000000 0.338775
v 0.311209 0.000000 -0.311209
v 0.338775 0.000000 -0.338775
v 0.321784 0.000000 -0.301528
v 0.020256 1.875347 0.000000
v 0.321784 0.000000 0.301528
v -0.301528 0.000000 -0.321784
v 0.000000 1.875347 -0.020256
v 0.301528 0.000000 -0.321784
v -0.321784 0.000000 0.301528
v -0.020256 1.875347 0.000000
v -0.321784 0.000000 -0.301528
v 0.000000 1.875347 0.020256
v -0.301528 0.000000 0.321784
v 0.301528 0.000000 0.321784
v -0.188662 1.544531 -0.225588
v -0.000000 2.000000 -0.225588
v -0.000000 1.507003 -0.174412
v -0.492997 2.000000 -0.174412
v -0.000000 2.000000 -0.225588
v -0.455469 2.188662 -0.225588
v 0.188662 2.455469 -0.225588
v 0.000000 2.000000 -0.225588
v 0.492997 2.000000 -0.174412
v 0.000000 2.492997 -0.174412
v 0.000000 2.000000 -0.225588
v 0.455469 1.811338 -0.225588
v 0.455469 2.188662 -0.225588
v 0.000000 2.000000 -0.225588
v -0.348601 2.348601 -0.174412
v 0.348601 2.348601 -0.174412
v 0.000000 2.000000 -0.225588
v 0.000000 2.492997 -0.225588
v 0.000000 2.000000 -0.225588
v -0.188662 2.455470 -0.225588
v -0.455470 1.811338 -0.225588
v -0.000000 2.000000 -0.225588
v -0.348601 1.651399 -0.174412
v 0.348601 1.651399 -0.174412
v -0.000000 2.000000 -0.225588
v 0.188662 1.544531 -0.225588
v 0.348601 1.651399 -0.225588
v -0.000000 2.000000 -0.225588
v 0.455469 1.811338 -0.174412
v -0.188662 1.544531 -0.174412
v -0.000000 2.000000 -0.225588
v -0.348601 1.651399 -0.225588
v -0.348601 2.348601 -0.225588
v 0.000000 2.000000 -0.225588
v 0.188662 2.455469 -0.174412
v -0.455469 2.188662 -0.174412
v 0.000000 2.000000 -0.225588
v 0.348601 2.348601 -0.225588
v -0.455470 1.811338 -0.174412
v -0.188662 2.455469 -0.174412
v -0.000000 2.000000 -0.225588
v -0.492997 2.000000 -0.225588
v -0.000000 1.507003 -0.225588
v -0.000000 2.000000 -0.225588
v 0.188662 1.544531 -0.174412
v 0.455469 2.188662 -0.174412
v 0.000000 2.000000 -0.225588
v 0.492997 2.000000 -0.225588
v -0.188662 1.544531 -0.221502
v -0.000000 2.000000 -0.221502
v -0.000000 1.507003 -0.170326
v -0.492997 2.000000 -0.170326
v -0.000000 2.000000 -0.221502
v -0.455469 2.188662 -0.221502
v 0.188662 2.455469 -0.221502
v 0.000000 2.000000 -0.221502
v 0.492997 2.000000 -0.170326
v 0.000000 2.492997 -0.170326
v 0.000000 2.000000 -0.221502
v 0.455469 1.811338 -0.221502
v 0.455469 2.188662 -0.221502
v 0.000000 2.000000 -0.221502
v -0.348601 2.348601 -0.170326
v 0.348601 2.348601 -0.170326
v 0.000000 2.000000 -0.221502
v 0.000000 2.492997 -0.221502
v 0.000000 2.000000 -0.221502
v -0.188662 2.455470 -0.221502
v -0.455470 1.811338 -0.221502
v -0.000000 2.000000 -0.221502
v -0.348601 1.651399 -0.170326
v 0.348601 1.651399 -0.170326
v -0.000000 2.000000 -0.221502
v 0.188662 1.544531 -0.221502
v 0.348601 1.651399 -0.221502
v -0.000000 2.000000 -0.221502
v 0.455469 1.811338 -0.170326
v -0.188662 1.544531 -0.170326
v -0.000000 2.000000 -0.221502
v -0.348601 1.651399 -0.221502
v -0.348601 2.348601 -0.221502
v 0.000000 2.000000 -0.221502
v 0.188662 2.455469 -0.170326
v -0.455469 2.188662 -0.170326
v 0.000000 2.000000 -0.221502
v 0.348601 2.348601 -0.221502
v -0.455470 1.811338 -0.170326
v -0.188662 2.455469 -0.170326
v -0.000000 2.000000 -0.221502
v -0.492997 2.000000 -0.221502
v -0.000000 1.507003 -0.221502
v -0.000000 2.000000 -0.221502
v 0.188662 1.544531 -0.170326
v 0.455469 2.188662 -0.170326
v 0.000000 2.000000 -0.221502
v 0.492997 2.000000 -0.221502
v 0.000000 2.124572 -0.161038
v 0.000000 2.124572 0.091677
v 0.087370 2.088382 -0.161038
v 0.087370 2.088382 0.091677
v 0.123560 2.001012 -0.161038
v 0.123560 2.001012 0.091677
v 0.087370 1.913642 -0.161038
v 0.087370 1.913642 0.091677
v 0.000000 1.877453 -0.161038
v 0.000000 1.877453 0.091677
v -0.087370 1.913642 -0.161038
v -0.087370 1.913642 0.091677
v -0.123560 2.001012 -0.161038
v -0.123560 2.001012 0.091677
v -0.087370 2.088382 -0.161038
v -0.087370 2.088382 0.091677
v 0.000000 2.054813 -0.161038
v 0.038043 2.039055 -0.161038
v 0.053801 2.001012 -0.161038
v 0.038043 1.962969 -0.161038
v 0.000000 1.947211 -0.161038
v -0.038043 1.962969 -0.161038
v -0.053801 2.001012 -0.161038
v -0.038043 2.039055 -0.161038
v 0.000000 2.054813 -0.228757
v 0.038043 2.039055 -0.228757
v 0.053801 2.001012 -0.228757
v 0.038043 1.962969 -0.228757
v 0.000000 1.947211 -0.228757
v -0.038043 1.962969 -0.228757
v -0.053801 2.001012 -0.228757
v -0.038043 2.039055 -0.228757
v -0.010000 2.105803 0.091677
v 0.010000 2.105803 0.091677
v -0.010000 1.896221 0.091677
v 0.010000 1.896221 0.091677
v 0.000000 2.036952 0.259132
v 0.000000 1.965073 0.259132
v 0.000000 1.881297 0.091677
v 0.000000 1.911145 0.091677
v 0.000000 2.120728 0.091677
v 0.000000 2.090879 0.091677
v 0.000000 2.044360 0.259132
v 0.000000 1.957665 0.259132
v 0.000000 2.001012 0.622933
v 0.000000 2.111524 0.560310
v 0.000000 1.890500 0.560310
v -0.002654 2.044360 0.259132
v -0.002654 1.957665 0.259132
v -0.002654 2.001012 0.622933
v -0.002654 2.111524 0.560310
v -0.002654 1.890500 0.560310
vn -0.7071 -0.7071 -0.0000
vn -0.7071 0.7071 -0.0000
vn 0.7071 -0.7071 -0.0000
vn 0.7071 0.7071 -0.0000
vn -0.0000 -0.7071 0.7071
vn -0.0000 0.7071 0.7071
vn -0.0000 -0.7071 -0.7071
vn -0.0000 0.7071 -0.7071
vn -0.8603 -0.2105 0.4642
vn 0.9429 0.1029 0.3169
vn -0.8603 -0.2105 -0.4642
vn 0.9429 0.1029 -0.3169
vn 0.4642 -0.2105 0.8603
vn 0.3169 0.1029 -0.9429
vn -0.4642 -0.2105 0.8603
vn -0.3169 0.1029 -0.9429
vn 0.8603 -0.2105 -0.4642
vn -0.9429 0.1029 -0.3169
vn 0.8603 -0.2105 0.4642
vn -0.9429 0.1029 0.3169
vn 0.4642 -0.2105 -0.8603
vn 0.3169 0.1029 0.9429
vn -0.4642 -0.2105 -0.8603
vn -0.3169 0.1029 0.9429
vn 0.2618 -0.0000 -0.9651
vn -0.1002 0.2419 -0.9651
vn -0.0000 0.2618 -0.9651
vn -0.2419 -0.1002 -0.9651
vn -0.2618 -0.0000 -0.9651
vn 0.2419 -0.1002 -0.9651
vn -0.1851 -0.1851 -0.9651
vn -0.1002 -0.2419 -0.9651
vn -0.1851 0.1851 -0.9651
vn -0.2419 0.1002 -0.9651
vn 0.1851 0.1851 -0.9651
vn 0.1002 0.2419 -0.9651
vn 0.1851 -0.1851 -0.9651
vn 0.1002 -0.2419 -0.9651
vn -0.0000 -0.2618 -0.9651
vn 0.2419 0.1002 -0.9651
vn -0.2618 -0.0000 0.9651
vn 0.1002 -0.2419 0.9651
vn -0.0000 -0.2618 0.9651
vn 0.2419 0.1002 0.9651
vn 0.2618 -0.0000 0.9651
vn -0.2419 0.1002 0.9651
vn 0.1851 0.1851 0.9651
vn 0.1002 0.2419 0.9651
vn 0.1851 -0.1851 0.9651
vn 0.2419 -0.1002 0.9651
vn -0.1851 -0.1851 0.9651
vn -0.1002 -0.2419 0.9651
vn -0.1851 0.1851 0.9651
vn -0.1002 0.2419 0.9651
vn -0.0000 0.2618 0.9651
vn -0.2419 -0.1002 0.9651
vn 0.3827 0.9239 -0.0000
vn 0.9239 0.3827 -0.0000
vn 0.9239 -0.3827 -0.0000
vn 0.3827 -0.9239 -0.0000
vn -0.3827 -0.9239 -0.0000
vn -0.9239 -0.3827 -0.0000
vn -0.0000 -0.0000 1.0000
vn -0.9239 0.3827 -0.0000
vn -0.3827 0.9239 -0.0000
vn -0.0000 -0.0000 -1.0000
vn -0.8177 0.5479 -0.1765
vn 0.8177 0.5479 -0.1765
vn -0.8003 -0.5363 0.2683
vn 0.8003 -0.5363 0.2683
vn -0.8177 -0.5479 -0.1765
vn 0.8177 -0.5479 -0.1765
vn -0.8003 0.5362 0.2683
vn 0.8003 0.5362 0.2683
vn 1.0000 -0.0000 -0.0000
vn -1.0000 -0.0000 -0.0000
vt 0.559170 0.565837
vt 0.559170 0.569733
vt 0.559525 0.570087
vt 0.559525 0.565482
vt 0.559879 0.570442
vt 0.559879 0.565128
vt 0.555274 0.569733
vt 0.554920 0.570087
vt 0.554565 0.570442
vt 0.555274 0.565837
vt 0.554920 0.565482
vt 0.554565 0.565128
vt 0.561473 0.563534
vt 0.552971 0.563534
vt 0.552617 0.563180
vt 0.561827 0.563180
vt 0.552263 0.562826
vt 0.562181 0.562826
vt 0.552971 0.572036
vt 0.552617 0.572390
vt 0.552263 0.572744
vt 0.561473 0.572036
vt 0.561827 0.572390
vt 0.562181 0.572744
vt 0.563775 0.561232
vt 0.563775 0.574338
vt 0.564130 0.574692
vt 0.564130 0.560877
vt 0.564484 0.575047
vt 0.564484 0.560523
vt 0.550669 0.574338
vt 0.550315 0.574692
vt 0.549960 0.575047
vt 0.550669 0.561232
vt 0.550315 0.560877
vt 0.549960 0.560523
vt 0.566078 0.558929
vt 0.548366 0.558929
vt 0.548012 0.558575
vt 0.566432 0.558575
vt 0.547658 0.558221
vt 0.566786 0.558221
vt 0.548366 0.576641
vt 0.548012 0.576995
vt 0.547658 0.577349
vt 0.566078 0.576641
vt 0.566432 0.576995
vt 0.566786 0.577349
vt 0.566520 0.518253
vt 0.555838 0.584685
vt 0.555838 0.588392
vt 0.566863 0.518253
vt 0.567839 0.518253
vt 0.555838 0.589809
vt 0.545157 0.518253
vt 0.544814 0.518253
vt 0.543838 0.518253
vt 0.546541 0.518253
vt 0.557222 0.584685
vt 0.557222 0.588392
vt 0.546198 0.518253
vt 0.545221 0.518253
vt 0.557222 0.589809
vt 0.567904 0.518253
vt 0.568246 0.518253
vt 0.569223 0.518253
vt 0.192832 0.911846
vt 0.186149 0.910516
vt 0.186149 0.927980
vt 0.439102 0.940329
vt 0.442888 0.934663
vt 0.426754 0.927980
vt 0.202284 0.934663
vt 0.203613 0.927980
vt 0.414405 0.940329
vt 0.420071 0.944115
vt 0.179466 0.944115
vt 0.186149 0.945444
vt 0.426754 0.910516
vt 0.420070 0.911846
vt 0.170015 0.934663
vt 0.173800 0.940329
vt 0.409290 0.927980
vt 0.410619 0.934663
vt 0.192832 0.944115
vt 0.198498 0.940329
vt 0.426754 0.945444
vt 0.433437 0.944115
vt 0.202284 0.921297
vt 0.198498 0.915631
vt 0.444218 0.927980
vt 0.442888 0.921297
vt 0.179466 0.911846
vt 0.173800 0.915631
vt 0.414405 0.915631
vt 0.410619 0.921297
vt 0.170015 0.921297
vt 0.168685 0.927980
vt 0.439102 0.915631
vt 0.433437 0.911846
vt 0.191138 0.922012
vt 0.184455 0.938146
vt 0.184455 0.920683
vt 0.200589 0.944830
vt 0.201919 0.938146
vt 0.177772 0.954281
vt 0.184455 0.955610
vt 0.168320 0.944830
vt 0.172106 0.950495
vt 0.191138 0.954281
vt 0.196804 0.950495
vt 0.200589 0.931463
vt 0.196804 0.925798
vt 0.177772 0.922012
vt 0.172106 0.925798
vt 0.168320 0.931463
vt 0.166991 0.938146
vt 0.433531 0.815788
vt 0.433531 0.806836
vt 0.436626 0.806836
vt 0.436626 0.815788
vt 0.437852 0.834530
vt 0.428900 0.834530
vt 0.428900 0.831435
vt 0.437852 0.831435
vt 0.428900 0.828340
vt 0.437852 0.828340
vt 0.430436 0.806836
vt 0.430436 0.815788
vt 0.436626 0.834530
vt 0.433531 0.835812
vt 0.430436 0.834530
vt 0.429154 0.831435
vt 0.430436 0.828340
vt 0.433531 0.827058
vt 0.436626 0.828340
vt 0.437908 0.831435
vt 0.430142 0.831647
vt 0.431490 0.831089
vt 0.432048 0.829741
vt 0.431490 0.828393
vt 0.430142 0.827835
vt 0.428795 0.828393
vt 0.428237 0.829741
vt 0.428795 0.831089
vt 0.430142 0.814094
vt 0.428795 0.814094
vt 0.428795 0.816493
vt 0.430142 0.816493
vt 0.434463 0.829741
vt 0.434463 0.828393
vt 0.436862 0.828393
vt 0.436862 0.829741
vt 0.431490 0.814094
vt 0.431490 0.816493
vt 0.434463 0.831089
vt 0.436862 0.831089
vt 0.304360 0.819996
vt 0.310292 0.818085
vt 0.310292 0.817557
vt 0.310292 0.817028
vt 0.310292 0.824452
vt 0.304360 0.822542
vt 0.310292 0.824981
vt 0.310292 0.825510
vt 0.425854 0.957989
vt 0.425854 0.965819
vt 0.423636 0.961904
vt 0.436523 0.960368
vt 0.436523 0.963439
s 0
f 33/1/1 36/2/1 17/3/1 25/4/1
f 36/2/2 33/1/2 26/4/2 18/3/2
f 35/5/3 34/6/3 25/4/3 17/3/3
f 34/6/4 35/5/4 18/3/4 26/4/4
f 36/2/5 38/7/5 9/8/5 17/3/5
f 38/7/6 36/2/6 18/3/6 10/8/6
f 37/9/7 35/5/7 17/3/7 9/8/7
f 35/5/8 37/9/8 10/8/8 18/3/8
f 38/7/3 40/10/3 7/11/3 9/8/3
f 40/10/4 38/7/4 10/8/4 8/11/4
f 39/12/1 37/9/1 9/8/1 7/11/1
f 37/9/2 39/12/2 8/11/2 10/8/2
f 40/10/7 33/1/7 25/4/7 7/11/7
f 33/1/8 40/10/8 8/11/8 26/4/8
f 34/6/5 39/12/5 7/11/5 25/4/5
f 39/12/6 34/6/6 26/4/6 8/11/6
f 41/13/8 44/14/8 5/15/8 27/16/8
f 44/14/7 41/13/7 28/16/7 6/15/7
f 43/17/6 42/18/6 27/16/6 5/15/6
f 42/18/5 43/17/5 6/15/5 28/16/5
f 44/14/4 46/19/4 11/20/4 5/15/4
f 46/19/3 44/14/3 6/15/3 12/20/3
f 45/21/2 43/17/2 5/15/2 11/20/2
f 43/17/1 45/21/1 12/20/1 6/15/1
f 46/19/6 48/22/6 19/23/6 11/20/6
f 48/22/5 46/19/5 12/20/5 20/23/5
f 47/24/8 45/21/8 11/20/8 19/23/8
f 45/21/7 47/24/7 20/23/7 12/20/7
f 48/22/2 41/13/2 27/16/2 19/23/2
f 41/13/1 48/22/1 20/23/1 28/16/1
f 42/18/4 47/24/4 19/23/4 27/16/4
f 47/24/3 42/18/3 28/16/3 20/23/3
f 49/25/1 52/26/1 21/27/1 29/28/1
f 52/26/2 49/25/2 30/28/2 22/27/2
f 51/29/3 50/30/3 29/28/3 21/27/3
f 50/30/4 51/29/4 22/27/4 30/28/4
f 52/26/5 54/31/5 13/32/5 21/27/5
f 54/31/6 52/26/6 22/27/6 14/32/6
f 53/33/7 51/29/7 21/27/7 13/32/7
f 51/29/8 53/33/8 14/32/8 22/27/8
f 54/31/3 56/34/3 3/35/3 13/32/3
f 56/34/4 54/31/4 14/32/4 4/35/4
f 55/36/1 53/33/1 13/32/1 3/35/1
f 53/33/2 55/36/2 4/35/2 14/32/2
f 56/34/7 49/25/7 29/28/7 3/35/7
f 49/25/8 56/34/8 4/35/8 30/28/8
f 50/30/5 55/36/5 3/35/5 29/28/5
f 55/36/6 50/30/6 30/28/6 4/35/6
f 57/37/8 60/38/8 1/39/8 31/40/8
f 60/38/7 57/37/7 32/40/7 2/39/7
f 59/41/6 58/42/6 31/40/6 1/39/6
f 58/42/5 59/41/5 2/39/5 32/40/5
f 60/38/4 62/43/4 15/44/4 1/39/4
f 62/43/3 60/38/3 2/39/3 16/44/3
f 61/45/2 59/41/2 1/39/2 15/44/2
f 59/41/1 61/45/1 16/44/1 2/39/1
f 62/43/6 64/46/6 23/47/6 15/44/6
f 64/46/5 62/43/5 16/44/5 24/47/5
f 63/48/8 61/45/8 15/44/8 23/47/8
f 61/45/7 63/48/7 24/47/7 16/44/7
f 64/46/2 57/37/2 31/40/2 23/47/2
f 57/37/1 64/46/1 24/47/1 32/40/1
f 58/42/4 63/48/4 23/47/4 31/40/4
f 63/48/3 58/42/3 32/40/3 24/47/3
f 75/49/9 76/50/9 67/51/9 73/52/9
f 76/50/10 75/49/10 74/53/10 68/54/10
f 76/50/11 77/55/11 71/56/11 67/51/11
f 77/55/12 76/50/12 68/54/12 72/57/12
f 78/58/13 79/59/13 67/60/13 69/61/13
f 79/59/14 78/58/14 70/62/14 68/63/14
f 79/59/15 80/64/15 73/65/15 67/60/15
f 80/64/16 79/59/16 68/63/16 74/66/16
f 81/55/17 82/50/17 67/51/17 65/56/17
f 82/50/18 81/55/18 66/57/18 68/54/18
f 82/50/19 83/49/19 69/52/19 67/51/19
f 83/49/20 82/50/20 68/54/20 70/53/20
f 84/59/21 85/58/21 65/61/21 67/60/21
f 85/58/22 84/59/22 68/63/22 66/62/22
f 86/64/23 84/59/23 67/60/23 71/65/23
f 84/59/24 86/64/24 72/66/24 68/63/24
f 131/67/25 129/68/25 130/69/25
f 102/70/26 99/71/26 100/72/26
f 132/73/27 134/74/27 133/69/27
f 101/75/28 106/76/28 103/72/28
f 126/77/29 104/78/29 105/69/29
f 89/79/30 87/80/30 88/72/30
f 122/81/31 119/82/31 120/69/31
f 90/83/32 92/84/32 91/72/32
f 121/85/33 124/86/33 123/69/33
f 96/87/34 93/88/34 94/72/34
f 115/89/35 113/90/35 114/69/35
f 95/91/36 98/92/36 97/72/36
f 116/93/37 118/94/37 117/69/37
f 109/95/38 107/96/38 108/72/38
f 125/97/39 128/98/39 127/69/39
f 110/99/40 112/100/40 111/72/40
f 179/101/41 178/102/41 177/103/41
f 150/70/42 148/72/42 147/71/42
f 180/104/43 181/102/43 182/105/43
f 149/75/44 151/72/44 154/76/44
f 174/106/45 153/102/45 152/107/45
f 137/79/46 136/72/46 135/80/46
f 170/108/47 168/102/47 167/109/47
f 138/83/48 139/72/48 140/84/48
f 169/110/49 171/102/49 172/111/49
f 144/87/50 142/72/50 141/88/50
f 163/112/51 162/102/51 161/113/51
f 143/91/52 145/72/52 146/92/52
f 164/114/53 165/102/53 166/115/53
f 157/95/54 156/72/54 155/96/54
f 173/116/55 175/102/55 176/117/55
f 158/99/56 159/72/56 160/100/56
f 183/118/57 184/119/57 186/120/57 185/121/57
f 185/122/58 186/123/58 188/124/58 187/125/58
f 187/125/59 188/124/59 190/126/59 189/127/59
f 189/121/60 190/120/60 192/119/60 191/118/60
f 191/118/61 192/119/61 194/128/61 193/129/61
f 193/127/62 194/126/62 196/124/62 195/125/62
f 186/130/63 184/131/63 198/132/63 196/133/63 194/134/63 192/135/63 190/136/63 188/137/63
f 195/125/64 196/124/64 198/123/64 197/122/64
f 197/129/65 198/128/65 184/119/65 183/118/65
f 183/131/66 185/130/66 187/137/66 189/136/66 191/135/66 193/134/66 195/133/66 197/132/66
f 207/138/66 208/139/66 209/140/66 210/141/66 211/142/66 212/143/66 213/144/66 214/145/66
f 203/146/61 204/147/61 212/148/61 211/149/61
f 201/150/59 202/151/59 210/152/59 209/153/59
f 199/146/57 200/154/57 208/155/57 207/149/57
f 206/147/65 199/146/65 207/149/65 214/148/65
f 204/151/62 205/150/62 213/153/62 212/152/62
f 202/154/60 203/146/60 211/149/60 210/155/60
f 200/156/58 201/150/58 209/153/58 208/157/58
f 205/150/64 206/156/64 214/157/64 213/153/64
f 220/158/67 222/159/67 217/160/67
f 222/159/68 220/158/68 218/160/68
f 221/161/69 220/158/69 217/160/69
f 220/158/70 221/161/70 218/160/70
f 224/162/71 219/163/71 215/164/71
f 219/163/72 224/162/72 216/164/72
f 219/163/73 223/165/73 215/164/73
f 223/165/74 219/163/74 216/164/74
f 229/166/75 228/167/75 227/168/75
f 226/169/75 225/170/75 228/167/75 229/166/75
f 234/166/76 232/168/76 233/167/76
f 231/169/76 234/166/76 233/167/76 230/170/76
